G04 #@! TF.GenerationSoftware,KiCad,Pcbnew,(5.1.5)-3*
G04 #@! TF.CreationDate,2020-02-12T21:54:59-05:00*
G04 #@! TF.ProjectId,BGM210P_Proto,42474d32-3130-4505-9f50-726f746f2e6b,rev?*
G04 #@! TF.SameCoordinates,Original*
G04 #@! TF.FileFunction,Soldermask,Top*
G04 #@! TF.FilePolarity,Negative*
%FSLAX46Y46*%
G04 Gerber Fmt 4.6, Leading zero omitted, Abs format (unit mm)*
G04 Created by KiCad (PCBNEW (5.1.5)-3) date 2020-02-12 21:54:59*
%MOMM*%
%LPD*%
G04 APERTURE LIST*
%ADD10C,0.100000*%
G04 APERTURE END LIST*
D10*
G36*
X151634239Y-116311467D02*
G01*
X151948282Y-116373934D01*
X152539926Y-116619001D01*
X153072392Y-116974784D01*
X153525216Y-117427608D01*
X153880999Y-117960074D01*
X154038939Y-118341375D01*
X154126066Y-118551719D01*
X154251000Y-119179803D01*
X154251000Y-119820197D01*
X154188533Y-120134239D01*
X154126066Y-120448282D01*
X153880999Y-121039926D01*
X153525216Y-121572392D01*
X153072392Y-122025216D01*
X152539926Y-122380999D01*
X151948282Y-122626066D01*
X151634239Y-122688533D01*
X151320197Y-122751000D01*
X150679803Y-122751000D01*
X150365761Y-122688533D01*
X150051718Y-122626066D01*
X149460074Y-122380999D01*
X148927608Y-122025216D01*
X148474784Y-121572392D01*
X148119001Y-121039926D01*
X147873934Y-120448282D01*
X147811467Y-120134239D01*
X147749000Y-119820197D01*
X147749000Y-119179803D01*
X147873934Y-118551719D01*
X147961061Y-118341375D01*
X148119001Y-117960074D01*
X148474784Y-117427608D01*
X148927608Y-116974784D01*
X149460074Y-116619001D01*
X150051718Y-116373934D01*
X150365761Y-116311467D01*
X150679803Y-116249000D01*
X151320197Y-116249000D01*
X151634239Y-116311467D01*
G37*
G36*
X168388512Y-116578927D02*
G01*
X168537812Y-116608624D01*
X168701784Y-116676544D01*
X168849354Y-116775147D01*
X168974853Y-116900646D01*
X169073456Y-117048216D01*
X169141376Y-117212188D01*
X169176000Y-117386259D01*
X169176000Y-117563741D01*
X169141376Y-117737812D01*
X169073456Y-117901784D01*
X168974853Y-118049354D01*
X168849354Y-118174853D01*
X168701784Y-118273456D01*
X168537812Y-118341376D01*
X168388512Y-118371073D01*
X168363742Y-118376000D01*
X168186258Y-118376000D01*
X168161488Y-118371073D01*
X168012188Y-118341376D01*
X167848216Y-118273456D01*
X167700646Y-118174853D01*
X167575147Y-118049354D01*
X167476544Y-117901784D01*
X167408624Y-117737812D01*
X167374000Y-117563741D01*
X167374000Y-117386259D01*
X167408624Y-117212188D01*
X167476544Y-117048216D01*
X167575147Y-116900646D01*
X167700646Y-116775147D01*
X167848216Y-116676544D01*
X168012188Y-116608624D01*
X168161488Y-116578927D01*
X168186258Y-116574000D01*
X168363742Y-116574000D01*
X168388512Y-116578927D01*
G37*
G36*
X165848512Y-116578927D02*
G01*
X165997812Y-116608624D01*
X166161784Y-116676544D01*
X166309354Y-116775147D01*
X166434853Y-116900646D01*
X166533456Y-117048216D01*
X166601376Y-117212188D01*
X166636000Y-117386259D01*
X166636000Y-117563741D01*
X166601376Y-117737812D01*
X166533456Y-117901784D01*
X166434853Y-118049354D01*
X166309354Y-118174853D01*
X166161784Y-118273456D01*
X165997812Y-118341376D01*
X165848512Y-118371073D01*
X165823742Y-118376000D01*
X165646258Y-118376000D01*
X165621488Y-118371073D01*
X165472188Y-118341376D01*
X165308216Y-118273456D01*
X165160646Y-118174853D01*
X165035147Y-118049354D01*
X164936544Y-117901784D01*
X164868624Y-117737812D01*
X164834000Y-117563741D01*
X164834000Y-117386259D01*
X164868624Y-117212188D01*
X164936544Y-117048216D01*
X165035147Y-116900646D01*
X165160646Y-116775147D01*
X165308216Y-116676544D01*
X165472188Y-116608624D01*
X165621488Y-116578927D01*
X165646258Y-116574000D01*
X165823742Y-116574000D01*
X165848512Y-116578927D01*
G37*
G36*
X196328512Y-116578927D02*
G01*
X196477812Y-116608624D01*
X196641784Y-116676544D01*
X196789354Y-116775147D01*
X196914853Y-116900646D01*
X197013456Y-117048216D01*
X197081376Y-117212188D01*
X197116000Y-117386259D01*
X197116000Y-117563741D01*
X197081376Y-117737812D01*
X197013456Y-117901784D01*
X196914853Y-118049354D01*
X196789354Y-118174853D01*
X196641784Y-118273456D01*
X196477812Y-118341376D01*
X196328512Y-118371073D01*
X196303742Y-118376000D01*
X196126258Y-118376000D01*
X196101488Y-118371073D01*
X195952188Y-118341376D01*
X195788216Y-118273456D01*
X195640646Y-118174853D01*
X195515147Y-118049354D01*
X195416544Y-117901784D01*
X195348624Y-117737812D01*
X195314000Y-117563741D01*
X195314000Y-117386259D01*
X195348624Y-117212188D01*
X195416544Y-117048216D01*
X195515147Y-116900646D01*
X195640646Y-116775147D01*
X195788216Y-116676544D01*
X195952188Y-116608624D01*
X196101488Y-116578927D01*
X196126258Y-116574000D01*
X196303742Y-116574000D01*
X196328512Y-116578927D01*
G37*
G36*
X193788512Y-116578927D02*
G01*
X193937812Y-116608624D01*
X194101784Y-116676544D01*
X194249354Y-116775147D01*
X194374853Y-116900646D01*
X194473456Y-117048216D01*
X194541376Y-117212188D01*
X194576000Y-117386259D01*
X194576000Y-117563741D01*
X194541376Y-117737812D01*
X194473456Y-117901784D01*
X194374853Y-118049354D01*
X194249354Y-118174853D01*
X194101784Y-118273456D01*
X193937812Y-118341376D01*
X193788512Y-118371073D01*
X193763742Y-118376000D01*
X193586258Y-118376000D01*
X193561488Y-118371073D01*
X193412188Y-118341376D01*
X193248216Y-118273456D01*
X193100646Y-118174853D01*
X192975147Y-118049354D01*
X192876544Y-117901784D01*
X192808624Y-117737812D01*
X192774000Y-117563741D01*
X192774000Y-117386259D01*
X192808624Y-117212188D01*
X192876544Y-117048216D01*
X192975147Y-116900646D01*
X193100646Y-116775147D01*
X193248216Y-116676544D01*
X193412188Y-116608624D01*
X193561488Y-116578927D01*
X193586258Y-116574000D01*
X193763742Y-116574000D01*
X193788512Y-116578927D01*
G37*
G36*
X191248512Y-116578927D02*
G01*
X191397812Y-116608624D01*
X191561784Y-116676544D01*
X191709354Y-116775147D01*
X191834853Y-116900646D01*
X191933456Y-117048216D01*
X192001376Y-117212188D01*
X192036000Y-117386259D01*
X192036000Y-117563741D01*
X192001376Y-117737812D01*
X191933456Y-117901784D01*
X191834853Y-118049354D01*
X191709354Y-118174853D01*
X191561784Y-118273456D01*
X191397812Y-118341376D01*
X191248512Y-118371073D01*
X191223742Y-118376000D01*
X191046258Y-118376000D01*
X191021488Y-118371073D01*
X190872188Y-118341376D01*
X190708216Y-118273456D01*
X190560646Y-118174853D01*
X190435147Y-118049354D01*
X190336544Y-117901784D01*
X190268624Y-117737812D01*
X190234000Y-117563741D01*
X190234000Y-117386259D01*
X190268624Y-117212188D01*
X190336544Y-117048216D01*
X190435147Y-116900646D01*
X190560646Y-116775147D01*
X190708216Y-116676544D01*
X190872188Y-116608624D01*
X191021488Y-116578927D01*
X191046258Y-116574000D01*
X191223742Y-116574000D01*
X191248512Y-116578927D01*
G37*
G36*
X188708512Y-116578927D02*
G01*
X188857812Y-116608624D01*
X189021784Y-116676544D01*
X189169354Y-116775147D01*
X189294853Y-116900646D01*
X189393456Y-117048216D01*
X189461376Y-117212188D01*
X189496000Y-117386259D01*
X189496000Y-117563741D01*
X189461376Y-117737812D01*
X189393456Y-117901784D01*
X189294853Y-118049354D01*
X189169354Y-118174853D01*
X189021784Y-118273456D01*
X188857812Y-118341376D01*
X188708512Y-118371073D01*
X188683742Y-118376000D01*
X188506258Y-118376000D01*
X188481488Y-118371073D01*
X188332188Y-118341376D01*
X188168216Y-118273456D01*
X188020646Y-118174853D01*
X187895147Y-118049354D01*
X187796544Y-117901784D01*
X187728624Y-117737812D01*
X187694000Y-117563741D01*
X187694000Y-117386259D01*
X187728624Y-117212188D01*
X187796544Y-117048216D01*
X187895147Y-116900646D01*
X188020646Y-116775147D01*
X188168216Y-116676544D01*
X188332188Y-116608624D01*
X188481488Y-116578927D01*
X188506258Y-116574000D01*
X188683742Y-116574000D01*
X188708512Y-116578927D01*
G37*
G36*
X186168512Y-116578927D02*
G01*
X186317812Y-116608624D01*
X186481784Y-116676544D01*
X186629354Y-116775147D01*
X186754853Y-116900646D01*
X186853456Y-117048216D01*
X186921376Y-117212188D01*
X186956000Y-117386259D01*
X186956000Y-117563741D01*
X186921376Y-117737812D01*
X186853456Y-117901784D01*
X186754853Y-118049354D01*
X186629354Y-118174853D01*
X186481784Y-118273456D01*
X186317812Y-118341376D01*
X186168512Y-118371073D01*
X186143742Y-118376000D01*
X185966258Y-118376000D01*
X185941488Y-118371073D01*
X185792188Y-118341376D01*
X185628216Y-118273456D01*
X185480646Y-118174853D01*
X185355147Y-118049354D01*
X185256544Y-117901784D01*
X185188624Y-117737812D01*
X185154000Y-117563741D01*
X185154000Y-117386259D01*
X185188624Y-117212188D01*
X185256544Y-117048216D01*
X185355147Y-116900646D01*
X185480646Y-116775147D01*
X185628216Y-116676544D01*
X185792188Y-116608624D01*
X185941488Y-116578927D01*
X185966258Y-116574000D01*
X186143742Y-116574000D01*
X186168512Y-116578927D01*
G37*
G36*
X181088512Y-116578927D02*
G01*
X181237812Y-116608624D01*
X181401784Y-116676544D01*
X181549354Y-116775147D01*
X181674853Y-116900646D01*
X181773456Y-117048216D01*
X181841376Y-117212188D01*
X181876000Y-117386259D01*
X181876000Y-117563741D01*
X181841376Y-117737812D01*
X181773456Y-117901784D01*
X181674853Y-118049354D01*
X181549354Y-118174853D01*
X181401784Y-118273456D01*
X181237812Y-118341376D01*
X181088512Y-118371073D01*
X181063742Y-118376000D01*
X180886258Y-118376000D01*
X180861488Y-118371073D01*
X180712188Y-118341376D01*
X180548216Y-118273456D01*
X180400646Y-118174853D01*
X180275147Y-118049354D01*
X180176544Y-117901784D01*
X180108624Y-117737812D01*
X180074000Y-117563741D01*
X180074000Y-117386259D01*
X180108624Y-117212188D01*
X180176544Y-117048216D01*
X180275147Y-116900646D01*
X180400646Y-116775147D01*
X180548216Y-116676544D01*
X180712188Y-116608624D01*
X180861488Y-116578927D01*
X180886258Y-116574000D01*
X181063742Y-116574000D01*
X181088512Y-116578927D01*
G37*
G36*
X183628512Y-116578927D02*
G01*
X183777812Y-116608624D01*
X183941784Y-116676544D01*
X184089354Y-116775147D01*
X184214853Y-116900646D01*
X184313456Y-117048216D01*
X184381376Y-117212188D01*
X184416000Y-117386259D01*
X184416000Y-117563741D01*
X184381376Y-117737812D01*
X184313456Y-117901784D01*
X184214853Y-118049354D01*
X184089354Y-118174853D01*
X183941784Y-118273456D01*
X183777812Y-118341376D01*
X183628512Y-118371073D01*
X183603742Y-118376000D01*
X183426258Y-118376000D01*
X183401488Y-118371073D01*
X183252188Y-118341376D01*
X183088216Y-118273456D01*
X182940646Y-118174853D01*
X182815147Y-118049354D01*
X182716544Y-117901784D01*
X182648624Y-117737812D01*
X182614000Y-117563741D01*
X182614000Y-117386259D01*
X182648624Y-117212188D01*
X182716544Y-117048216D01*
X182815147Y-116900646D01*
X182940646Y-116775147D01*
X183088216Y-116676544D01*
X183252188Y-116608624D01*
X183401488Y-116578927D01*
X183426258Y-116574000D01*
X183603742Y-116574000D01*
X183628512Y-116578927D01*
G37*
G36*
X199656000Y-118376000D02*
G01*
X197854000Y-118376000D01*
X197854000Y-116574000D01*
X199656000Y-116574000D01*
X199656000Y-118376000D01*
G37*
G36*
X170928512Y-116578927D02*
G01*
X171077812Y-116608624D01*
X171241784Y-116676544D01*
X171389354Y-116775147D01*
X171514853Y-116900646D01*
X171613456Y-117048216D01*
X171681376Y-117212188D01*
X171716000Y-117386259D01*
X171716000Y-117563741D01*
X171681376Y-117737812D01*
X171613456Y-117901784D01*
X171514853Y-118049354D01*
X171389354Y-118174853D01*
X171241784Y-118273456D01*
X171077812Y-118341376D01*
X170928512Y-118371073D01*
X170903742Y-118376000D01*
X170726258Y-118376000D01*
X170701488Y-118371073D01*
X170552188Y-118341376D01*
X170388216Y-118273456D01*
X170240646Y-118174853D01*
X170115147Y-118049354D01*
X170016544Y-117901784D01*
X169948624Y-117737812D01*
X169914000Y-117563741D01*
X169914000Y-117386259D01*
X169948624Y-117212188D01*
X170016544Y-117048216D01*
X170115147Y-116900646D01*
X170240646Y-116775147D01*
X170388216Y-116676544D01*
X170552188Y-116608624D01*
X170701488Y-116578927D01*
X170726258Y-116574000D01*
X170903742Y-116574000D01*
X170928512Y-116578927D01*
G37*
G36*
X176008512Y-116578927D02*
G01*
X176157812Y-116608624D01*
X176321784Y-116676544D01*
X176469354Y-116775147D01*
X176594853Y-116900646D01*
X176693456Y-117048216D01*
X176761376Y-117212188D01*
X176796000Y-117386259D01*
X176796000Y-117563741D01*
X176761376Y-117737812D01*
X176693456Y-117901784D01*
X176594853Y-118049354D01*
X176469354Y-118174853D01*
X176321784Y-118273456D01*
X176157812Y-118341376D01*
X176008512Y-118371073D01*
X175983742Y-118376000D01*
X175806258Y-118376000D01*
X175781488Y-118371073D01*
X175632188Y-118341376D01*
X175468216Y-118273456D01*
X175320646Y-118174853D01*
X175195147Y-118049354D01*
X175096544Y-117901784D01*
X175028624Y-117737812D01*
X174994000Y-117563741D01*
X174994000Y-117386259D01*
X175028624Y-117212188D01*
X175096544Y-117048216D01*
X175195147Y-116900646D01*
X175320646Y-116775147D01*
X175468216Y-116676544D01*
X175632188Y-116608624D01*
X175781488Y-116578927D01*
X175806258Y-116574000D01*
X175983742Y-116574000D01*
X176008512Y-116578927D01*
G37*
G36*
X178548512Y-116578927D02*
G01*
X178697812Y-116608624D01*
X178861784Y-116676544D01*
X179009354Y-116775147D01*
X179134853Y-116900646D01*
X179233456Y-117048216D01*
X179301376Y-117212188D01*
X179336000Y-117386259D01*
X179336000Y-117563741D01*
X179301376Y-117737812D01*
X179233456Y-117901784D01*
X179134853Y-118049354D01*
X179009354Y-118174853D01*
X178861784Y-118273456D01*
X178697812Y-118341376D01*
X178548512Y-118371073D01*
X178523742Y-118376000D01*
X178346258Y-118376000D01*
X178321488Y-118371073D01*
X178172188Y-118341376D01*
X178008216Y-118273456D01*
X177860646Y-118174853D01*
X177735147Y-118049354D01*
X177636544Y-117901784D01*
X177568624Y-117737812D01*
X177534000Y-117563741D01*
X177534000Y-117386259D01*
X177568624Y-117212188D01*
X177636544Y-117048216D01*
X177735147Y-116900646D01*
X177860646Y-116775147D01*
X178008216Y-116676544D01*
X178172188Y-116608624D01*
X178321488Y-116578927D01*
X178346258Y-116574000D01*
X178523742Y-116574000D01*
X178548512Y-116578927D01*
G37*
G36*
X173468512Y-116578927D02*
G01*
X173617812Y-116608624D01*
X173781784Y-116676544D01*
X173929354Y-116775147D01*
X174054853Y-116900646D01*
X174153456Y-117048216D01*
X174221376Y-117212188D01*
X174256000Y-117386259D01*
X174256000Y-117563741D01*
X174221376Y-117737812D01*
X174153456Y-117901784D01*
X174054853Y-118049354D01*
X173929354Y-118174853D01*
X173781784Y-118273456D01*
X173617812Y-118341376D01*
X173468512Y-118371073D01*
X173443742Y-118376000D01*
X173266258Y-118376000D01*
X173241488Y-118371073D01*
X173092188Y-118341376D01*
X172928216Y-118273456D01*
X172780646Y-118174853D01*
X172655147Y-118049354D01*
X172556544Y-117901784D01*
X172488624Y-117737812D01*
X172454000Y-117563741D01*
X172454000Y-117386259D01*
X172488624Y-117212188D01*
X172556544Y-117048216D01*
X172655147Y-116900646D01*
X172780646Y-116775147D01*
X172928216Y-116676544D01*
X173092188Y-116608624D01*
X173241488Y-116578927D01*
X173266258Y-116574000D01*
X173443742Y-116574000D01*
X173468512Y-116578927D01*
G37*
G36*
X150761000Y-115201000D02*
G01*
X148959000Y-115201000D01*
X148959000Y-113399000D01*
X150761000Y-113399000D01*
X150761000Y-115201000D01*
G37*
G36*
X155688512Y-113403927D02*
G01*
X155837812Y-113433624D01*
X156001784Y-113501544D01*
X156149354Y-113600147D01*
X156274853Y-113725646D01*
X156373456Y-113873216D01*
X156441376Y-114037188D01*
X156476000Y-114211259D01*
X156476000Y-114388741D01*
X156441376Y-114562812D01*
X156373456Y-114726784D01*
X156274853Y-114874354D01*
X156149354Y-114999853D01*
X156001784Y-115098456D01*
X155837812Y-115166376D01*
X155688512Y-115196073D01*
X155663742Y-115201000D01*
X155486258Y-115201000D01*
X155461488Y-115196073D01*
X155312188Y-115166376D01*
X155148216Y-115098456D01*
X155000646Y-114999853D01*
X154875147Y-114874354D01*
X154776544Y-114726784D01*
X154708624Y-114562812D01*
X154674000Y-114388741D01*
X154674000Y-114211259D01*
X154708624Y-114037188D01*
X154776544Y-113873216D01*
X154875147Y-113725646D01*
X155000646Y-113600147D01*
X155148216Y-113501544D01*
X155312188Y-113433624D01*
X155461488Y-113403927D01*
X155486258Y-113399000D01*
X155663742Y-113399000D01*
X155688512Y-113403927D01*
G37*
G36*
X201022547Y-106289250D02*
G01*
X201448282Y-106373934D01*
X202039926Y-106619001D01*
X202440073Y-106886371D01*
X202572391Y-106974783D01*
X203025217Y-107427609D01*
X203046899Y-107460059D01*
X203380999Y-107960074D01*
X203626066Y-108551718D01*
X203665308Y-108749000D01*
X203751000Y-109179803D01*
X203751000Y-109820197D01*
X203711564Y-110018456D01*
X203626066Y-110448282D01*
X203380999Y-111039926D01*
X203025216Y-111572392D01*
X202572392Y-112025216D01*
X202039926Y-112380999D01*
X201448282Y-112626066D01*
X201134239Y-112688533D01*
X200820197Y-112751000D01*
X200179803Y-112751000D01*
X199865761Y-112688533D01*
X199551718Y-112626066D01*
X198960074Y-112380999D01*
X198427608Y-112025216D01*
X197974784Y-111572392D01*
X197619001Y-111039926D01*
X197373934Y-110448282D01*
X197288436Y-110018456D01*
X197249000Y-109820197D01*
X197249000Y-109179803D01*
X197334692Y-108749000D01*
X197373934Y-108551718D01*
X197619001Y-107960074D01*
X197953101Y-107460059D01*
X197974783Y-107427609D01*
X198427609Y-106974783D01*
X198559927Y-106886371D01*
X198960074Y-106619001D01*
X199551718Y-106373934D01*
X199977453Y-106289250D01*
X200179803Y-106249000D01*
X200820197Y-106249000D01*
X201022547Y-106289250D01*
G37*
G36*
X155688512Y-110863927D02*
G01*
X155837812Y-110893624D01*
X156001784Y-110961544D01*
X156149354Y-111060147D01*
X156274853Y-111185646D01*
X156373456Y-111333216D01*
X156441376Y-111497188D01*
X156476000Y-111671259D01*
X156476000Y-111848741D01*
X156441376Y-112022812D01*
X156373456Y-112186784D01*
X156274853Y-112334354D01*
X156149354Y-112459853D01*
X156001784Y-112558456D01*
X155837812Y-112626376D01*
X155688512Y-112656073D01*
X155663742Y-112661000D01*
X155486258Y-112661000D01*
X155461488Y-112656073D01*
X155312188Y-112626376D01*
X155148216Y-112558456D01*
X155000646Y-112459853D01*
X154875147Y-112334354D01*
X154776544Y-112186784D01*
X154708624Y-112022812D01*
X154674000Y-111848741D01*
X154674000Y-111671259D01*
X154708624Y-111497188D01*
X154776544Y-111333216D01*
X154875147Y-111185646D01*
X155000646Y-111060147D01*
X155148216Y-110961544D01*
X155312188Y-110893624D01*
X155461488Y-110863927D01*
X155486258Y-110859000D01*
X155663742Y-110859000D01*
X155688512Y-110863927D01*
G37*
G36*
X149973512Y-110863927D02*
G01*
X150122812Y-110893624D01*
X150286784Y-110961544D01*
X150434354Y-111060147D01*
X150559853Y-111185646D01*
X150658456Y-111333216D01*
X150726376Y-111497188D01*
X150761000Y-111671259D01*
X150761000Y-111848741D01*
X150726376Y-112022812D01*
X150658456Y-112186784D01*
X150559853Y-112334354D01*
X150434354Y-112459853D01*
X150286784Y-112558456D01*
X150122812Y-112626376D01*
X149973512Y-112656073D01*
X149948742Y-112661000D01*
X149771258Y-112661000D01*
X149746488Y-112656073D01*
X149597188Y-112626376D01*
X149433216Y-112558456D01*
X149285646Y-112459853D01*
X149160147Y-112334354D01*
X149061544Y-112186784D01*
X148993624Y-112022812D01*
X148959000Y-111848741D01*
X148959000Y-111671259D01*
X148993624Y-111497188D01*
X149061544Y-111333216D01*
X149160147Y-111185646D01*
X149285646Y-111060147D01*
X149433216Y-110961544D01*
X149597188Y-110893624D01*
X149746488Y-110863927D01*
X149771258Y-110859000D01*
X149948742Y-110859000D01*
X149973512Y-110863927D01*
G37*
G36*
X182161000Y-110406000D02*
G01*
X181059000Y-110406000D01*
X181059000Y-109304000D01*
X182161000Y-109304000D01*
X182161000Y-110406000D01*
G37*
G36*
X174541000Y-110406000D02*
G01*
X173439000Y-110406000D01*
X173439000Y-109304000D01*
X174541000Y-109304000D01*
X174541000Y-110406000D01*
G37*
G36*
X176446000Y-110406000D02*
G01*
X175344000Y-110406000D01*
X175344000Y-109304000D01*
X176446000Y-109304000D01*
X176446000Y-110406000D01*
G37*
G36*
X191686000Y-110406000D02*
G01*
X190584000Y-110406000D01*
X190584000Y-109304000D01*
X191686000Y-109304000D01*
X191686000Y-110406000D01*
G37*
G36*
X187876000Y-110406000D02*
G01*
X186774000Y-110406000D01*
X186774000Y-109304000D01*
X187876000Y-109304000D01*
X187876000Y-110406000D01*
G37*
G36*
X185971000Y-110406000D02*
G01*
X184869000Y-110406000D01*
X184869000Y-109304000D01*
X185971000Y-109304000D01*
X185971000Y-110406000D01*
G37*
G36*
X184066000Y-110406000D02*
G01*
X182964000Y-110406000D01*
X182964000Y-109304000D01*
X184066000Y-109304000D01*
X184066000Y-110406000D01*
G37*
G36*
X180256000Y-110406000D02*
G01*
X179154000Y-110406000D01*
X179154000Y-109304000D01*
X180256000Y-109304000D01*
X180256000Y-110406000D01*
G37*
G36*
X178351000Y-110406000D02*
G01*
X177249000Y-110406000D01*
X177249000Y-109304000D01*
X178351000Y-109304000D01*
X178351000Y-110406000D01*
G37*
G36*
X189781000Y-110406000D02*
G01*
X188679000Y-110406000D01*
X188679000Y-109304000D01*
X189781000Y-109304000D01*
X189781000Y-110406000D01*
G37*
G36*
X155688512Y-108323927D02*
G01*
X155837812Y-108353624D01*
X156001784Y-108421544D01*
X156149354Y-108520147D01*
X156274853Y-108645646D01*
X156373456Y-108793216D01*
X156441376Y-108957188D01*
X156476000Y-109131259D01*
X156476000Y-109308741D01*
X156441376Y-109482812D01*
X156373456Y-109646784D01*
X156274853Y-109794354D01*
X156149354Y-109919853D01*
X156001784Y-110018456D01*
X155837812Y-110086376D01*
X155688512Y-110116073D01*
X155663742Y-110121000D01*
X155486258Y-110121000D01*
X155461488Y-110116073D01*
X155312188Y-110086376D01*
X155148216Y-110018456D01*
X155000646Y-109919853D01*
X154875147Y-109794354D01*
X154776544Y-109646784D01*
X154708624Y-109482812D01*
X154674000Y-109308741D01*
X154674000Y-109131259D01*
X154708624Y-108957188D01*
X154776544Y-108793216D01*
X154875147Y-108645646D01*
X155000646Y-108520147D01*
X155148216Y-108421544D01*
X155312188Y-108353624D01*
X155461488Y-108323927D01*
X155486258Y-108319000D01*
X155663742Y-108319000D01*
X155688512Y-108323927D01*
G37*
G36*
X149973512Y-108323927D02*
G01*
X150122812Y-108353624D01*
X150286784Y-108421544D01*
X150434354Y-108520147D01*
X150559853Y-108645646D01*
X150658456Y-108793216D01*
X150726376Y-108957188D01*
X150761000Y-109131259D01*
X150761000Y-109308741D01*
X150726376Y-109482812D01*
X150658456Y-109646784D01*
X150559853Y-109794354D01*
X150434354Y-109919853D01*
X150286784Y-110018456D01*
X150122812Y-110086376D01*
X149973512Y-110116073D01*
X149948742Y-110121000D01*
X149771258Y-110121000D01*
X149746488Y-110116073D01*
X149597188Y-110086376D01*
X149433216Y-110018456D01*
X149285646Y-109919853D01*
X149160147Y-109794354D01*
X149061544Y-109646784D01*
X148993624Y-109482812D01*
X148959000Y-109308741D01*
X148959000Y-109131259D01*
X148993624Y-108957188D01*
X149061544Y-108793216D01*
X149160147Y-108645646D01*
X149285646Y-108520147D01*
X149433216Y-108421544D01*
X149597188Y-108353624D01*
X149746488Y-108323927D01*
X149771258Y-108319000D01*
X149948742Y-108319000D01*
X149973512Y-108323927D01*
G37*
G36*
X164625721Y-106785174D02*
G01*
X164725995Y-106826709D01*
X164725996Y-106826710D01*
X164816242Y-106887010D01*
X164892990Y-106963758D01*
X164900357Y-106974784D01*
X164953291Y-107054005D01*
X164984516Y-107129389D01*
X164996067Y-107151000D01*
X165011612Y-107169941D01*
X165030554Y-107185487D01*
X165052165Y-107197038D01*
X165075614Y-107204151D01*
X165100000Y-107206553D01*
X165124386Y-107204151D01*
X165147835Y-107197038D01*
X165169446Y-107185487D01*
X165188387Y-107169942D01*
X165203933Y-107151000D01*
X165215484Y-107129389D01*
X165246709Y-107054005D01*
X165299643Y-106974784D01*
X165307010Y-106963758D01*
X165383758Y-106887010D01*
X165474004Y-106826710D01*
X165474005Y-106826709D01*
X165574279Y-106785174D01*
X165680730Y-106764000D01*
X165789270Y-106764000D01*
X165895721Y-106785174D01*
X165995995Y-106826709D01*
X165995996Y-106826710D01*
X166086242Y-106887010D01*
X166162990Y-106963758D01*
X166170357Y-106974784D01*
X166223291Y-107054005D01*
X166254516Y-107129389D01*
X166266067Y-107151000D01*
X166281612Y-107169941D01*
X166300554Y-107185487D01*
X166322165Y-107197038D01*
X166345614Y-107204151D01*
X166370000Y-107206553D01*
X166394386Y-107204151D01*
X166417835Y-107197038D01*
X166439446Y-107185487D01*
X166458387Y-107169942D01*
X166473933Y-107151000D01*
X166485484Y-107129389D01*
X166516709Y-107054005D01*
X166569643Y-106974784D01*
X166577010Y-106963758D01*
X166653758Y-106887010D01*
X166744004Y-106826710D01*
X166744005Y-106826709D01*
X166844279Y-106785174D01*
X166950730Y-106764000D01*
X167059270Y-106764000D01*
X167165721Y-106785174D01*
X167265995Y-106826709D01*
X167265996Y-106826710D01*
X167356242Y-106887010D01*
X167432990Y-106963758D01*
X167440357Y-106974784D01*
X167493291Y-107054005D01*
X167524516Y-107129389D01*
X167536067Y-107151000D01*
X167551612Y-107169941D01*
X167570554Y-107185487D01*
X167592165Y-107197038D01*
X167615614Y-107204151D01*
X167640000Y-107206553D01*
X167664386Y-107204151D01*
X167687835Y-107197038D01*
X167709446Y-107185487D01*
X167728387Y-107169942D01*
X167743933Y-107151000D01*
X167755484Y-107129389D01*
X167786709Y-107054005D01*
X167839643Y-106974784D01*
X167847010Y-106963758D01*
X167923758Y-106887010D01*
X168014004Y-106826710D01*
X168014005Y-106826709D01*
X168114279Y-106785174D01*
X168220730Y-106764000D01*
X168329270Y-106764000D01*
X168435721Y-106785174D01*
X168535995Y-106826709D01*
X168535996Y-106826710D01*
X168626242Y-106887010D01*
X168702990Y-106963758D01*
X168710357Y-106974784D01*
X168765068Y-107056664D01*
X168780614Y-107075606D01*
X168799556Y-107091151D01*
X168821167Y-107102702D01*
X168844615Y-107109815D01*
X168869002Y-107112217D01*
X168893388Y-107109815D01*
X168916837Y-107102702D01*
X168938447Y-107091151D01*
X168957389Y-107075605D01*
X168972934Y-107056663D01*
X168984485Y-107035052D01*
X168991598Y-107011604D01*
X168994000Y-106987218D01*
X168994000Y-106764000D01*
X170096000Y-106764000D01*
X170096000Y-107866000D01*
X169872782Y-107866000D01*
X169848396Y-107868402D01*
X169824947Y-107875515D01*
X169803336Y-107887066D01*
X169784394Y-107902611D01*
X169768849Y-107921553D01*
X169757298Y-107943164D01*
X169750185Y-107966613D01*
X169747783Y-107990999D01*
X169750185Y-108015385D01*
X169757298Y-108038834D01*
X169768849Y-108060445D01*
X169784394Y-108079387D01*
X169803336Y-108094932D01*
X169864816Y-108136012D01*
X169896242Y-108157010D01*
X169972990Y-108233758D01*
X169972991Y-108233760D01*
X170033291Y-108324005D01*
X170074826Y-108424279D01*
X170096000Y-108530730D01*
X170096000Y-108639270D01*
X170074826Y-108745721D01*
X170033291Y-108845995D01*
X170033290Y-108845996D01*
X169972990Y-108936242D01*
X169896242Y-109012990D01*
X169850812Y-109043345D01*
X169805995Y-109073291D01*
X169705721Y-109114826D01*
X169599270Y-109136000D01*
X169490730Y-109136000D01*
X169384279Y-109114826D01*
X169284005Y-109073291D01*
X169239188Y-109043345D01*
X169193758Y-109012990D01*
X169117010Y-108936242D01*
X169056710Y-108845996D01*
X169056709Y-108845995D01*
X169025484Y-108770611D01*
X169013933Y-108749000D01*
X168998388Y-108730059D01*
X168979446Y-108714513D01*
X168957835Y-108702962D01*
X168934386Y-108695849D01*
X168910000Y-108693447D01*
X168885614Y-108695849D01*
X168862165Y-108702962D01*
X168840554Y-108714513D01*
X168821613Y-108730058D01*
X168806067Y-108749000D01*
X168794516Y-108770611D01*
X168763291Y-108845995D01*
X168763290Y-108845996D01*
X168702990Y-108936242D01*
X168626242Y-109012990D01*
X168580812Y-109043345D01*
X168535995Y-109073291D01*
X168435721Y-109114826D01*
X168329270Y-109136000D01*
X168220730Y-109136000D01*
X168114279Y-109114826D01*
X168014005Y-109073291D01*
X167969188Y-109043345D01*
X167923758Y-109012990D01*
X167847010Y-108936242D01*
X167786710Y-108845996D01*
X167786709Y-108845995D01*
X167755484Y-108770611D01*
X167743933Y-108749000D01*
X167728388Y-108730059D01*
X167709446Y-108714513D01*
X167687835Y-108702962D01*
X167664386Y-108695849D01*
X167640000Y-108693447D01*
X167615614Y-108695849D01*
X167592165Y-108702962D01*
X167570554Y-108714513D01*
X167551613Y-108730058D01*
X167536067Y-108749000D01*
X167524516Y-108770611D01*
X167493291Y-108845995D01*
X167493290Y-108845996D01*
X167432990Y-108936242D01*
X167356242Y-109012990D01*
X167310812Y-109043345D01*
X167265995Y-109073291D01*
X167165721Y-109114826D01*
X167059270Y-109136000D01*
X166950730Y-109136000D01*
X166844279Y-109114826D01*
X166744005Y-109073291D01*
X166699188Y-109043345D01*
X166653758Y-109012990D01*
X166577010Y-108936242D01*
X166516710Y-108845996D01*
X166516709Y-108845995D01*
X166485484Y-108770611D01*
X166473933Y-108749000D01*
X166458388Y-108730059D01*
X166439446Y-108714513D01*
X166417835Y-108702962D01*
X166394386Y-108695849D01*
X166370000Y-108693447D01*
X166345614Y-108695849D01*
X166322165Y-108702962D01*
X166300554Y-108714513D01*
X166281613Y-108730058D01*
X166266067Y-108749000D01*
X166254516Y-108770611D01*
X166223291Y-108845995D01*
X166223290Y-108845996D01*
X166162990Y-108936242D01*
X166086242Y-109012990D01*
X166040812Y-109043345D01*
X165995995Y-109073291D01*
X165895721Y-109114826D01*
X165789270Y-109136000D01*
X165680730Y-109136000D01*
X165574279Y-109114826D01*
X165474005Y-109073291D01*
X165429188Y-109043345D01*
X165383758Y-109012990D01*
X165307010Y-108936242D01*
X165246710Y-108845996D01*
X165246709Y-108845995D01*
X165215484Y-108770611D01*
X165203933Y-108749000D01*
X165188388Y-108730059D01*
X165169446Y-108714513D01*
X165147835Y-108702962D01*
X165124386Y-108695849D01*
X165100000Y-108693447D01*
X165075614Y-108695849D01*
X165052165Y-108702962D01*
X165030554Y-108714513D01*
X165011613Y-108730058D01*
X164996067Y-108749000D01*
X164984516Y-108770611D01*
X164953291Y-108845995D01*
X164953290Y-108845996D01*
X164892990Y-108936242D01*
X164816242Y-109012990D01*
X164770812Y-109043345D01*
X164725995Y-109073291D01*
X164625721Y-109114826D01*
X164519270Y-109136000D01*
X164410730Y-109136000D01*
X164304279Y-109114826D01*
X164204005Y-109073291D01*
X164159188Y-109043345D01*
X164113758Y-109012990D01*
X164037010Y-108936242D01*
X163976710Y-108845996D01*
X163976709Y-108845995D01*
X163935174Y-108745721D01*
X163914000Y-108639270D01*
X163914000Y-108530730D01*
X163935174Y-108424279D01*
X163976709Y-108324005D01*
X164037009Y-108233760D01*
X164037010Y-108233758D01*
X164113758Y-108157010D01*
X164186359Y-108108500D01*
X164204005Y-108096709D01*
X164279389Y-108065484D01*
X164301000Y-108053933D01*
X164319941Y-108038388D01*
X164335487Y-108019446D01*
X164347038Y-107997835D01*
X164354151Y-107974386D01*
X164356553Y-107950000D01*
X164573447Y-107950000D01*
X164575849Y-107974386D01*
X164582962Y-107997835D01*
X164594513Y-108019446D01*
X164610058Y-108038387D01*
X164629000Y-108053933D01*
X164650611Y-108065484D01*
X164725995Y-108096709D01*
X164743641Y-108108500D01*
X164816242Y-108157010D01*
X164892990Y-108233758D01*
X164892991Y-108233760D01*
X164953291Y-108324005D01*
X164984516Y-108399389D01*
X164996067Y-108421000D01*
X165011612Y-108439941D01*
X165030554Y-108455487D01*
X165052165Y-108467038D01*
X165075614Y-108474151D01*
X165100000Y-108476553D01*
X165124386Y-108474151D01*
X165147835Y-108467038D01*
X165169446Y-108455487D01*
X165188387Y-108439942D01*
X165203933Y-108421000D01*
X165215484Y-108399389D01*
X165246709Y-108324005D01*
X165307009Y-108233760D01*
X165307010Y-108233758D01*
X165383758Y-108157010D01*
X165456359Y-108108500D01*
X165474005Y-108096709D01*
X165549389Y-108065484D01*
X165571000Y-108053933D01*
X165589941Y-108038388D01*
X165605487Y-108019446D01*
X165617038Y-107997835D01*
X165624151Y-107974386D01*
X165626553Y-107950000D01*
X165843447Y-107950000D01*
X165845849Y-107974386D01*
X165852962Y-107997835D01*
X165864513Y-108019446D01*
X165880058Y-108038387D01*
X165899000Y-108053933D01*
X165920611Y-108065484D01*
X165995995Y-108096709D01*
X166013641Y-108108500D01*
X166086242Y-108157010D01*
X166162990Y-108233758D01*
X166162991Y-108233760D01*
X166223291Y-108324005D01*
X166254516Y-108399389D01*
X166266067Y-108421000D01*
X166281612Y-108439941D01*
X166300554Y-108455487D01*
X166322165Y-108467038D01*
X166345614Y-108474151D01*
X166370000Y-108476553D01*
X166394386Y-108474151D01*
X166417835Y-108467038D01*
X166439446Y-108455487D01*
X166458387Y-108439942D01*
X166473933Y-108421000D01*
X166485484Y-108399389D01*
X166516709Y-108324005D01*
X166577009Y-108233760D01*
X166577010Y-108233758D01*
X166653758Y-108157010D01*
X166726359Y-108108500D01*
X166744005Y-108096709D01*
X166819389Y-108065484D01*
X166841000Y-108053933D01*
X166859941Y-108038388D01*
X166875487Y-108019446D01*
X166887038Y-107997835D01*
X166894151Y-107974386D01*
X166896553Y-107950000D01*
X167113447Y-107950000D01*
X167115849Y-107974386D01*
X167122962Y-107997835D01*
X167134513Y-108019446D01*
X167150058Y-108038387D01*
X167169000Y-108053933D01*
X167190611Y-108065484D01*
X167265995Y-108096709D01*
X167283641Y-108108500D01*
X167356242Y-108157010D01*
X167432990Y-108233758D01*
X167432991Y-108233760D01*
X167493291Y-108324005D01*
X167524516Y-108399389D01*
X167536067Y-108421000D01*
X167551612Y-108439941D01*
X167570554Y-108455487D01*
X167592165Y-108467038D01*
X167615614Y-108474151D01*
X167640000Y-108476553D01*
X167664386Y-108474151D01*
X167687835Y-108467038D01*
X167709446Y-108455487D01*
X167728387Y-108439942D01*
X167743933Y-108421000D01*
X167755484Y-108399389D01*
X167786709Y-108324005D01*
X167847009Y-108233760D01*
X167847010Y-108233758D01*
X167923758Y-108157010D01*
X167996359Y-108108500D01*
X168014005Y-108096709D01*
X168089389Y-108065484D01*
X168111000Y-108053933D01*
X168129941Y-108038388D01*
X168145487Y-108019446D01*
X168157038Y-107997835D01*
X168164151Y-107974386D01*
X168166553Y-107950000D01*
X168383447Y-107950000D01*
X168385849Y-107974386D01*
X168392962Y-107997835D01*
X168404513Y-108019446D01*
X168420058Y-108038387D01*
X168439000Y-108053933D01*
X168460611Y-108065484D01*
X168535995Y-108096709D01*
X168553641Y-108108500D01*
X168626242Y-108157010D01*
X168702990Y-108233758D01*
X168702991Y-108233760D01*
X168763291Y-108324005D01*
X168794516Y-108399389D01*
X168806067Y-108421000D01*
X168821612Y-108439941D01*
X168840554Y-108455487D01*
X168862165Y-108467038D01*
X168885614Y-108474151D01*
X168910000Y-108476553D01*
X168934386Y-108474151D01*
X168957835Y-108467038D01*
X168979446Y-108455487D01*
X168998387Y-108439942D01*
X169013933Y-108421000D01*
X169025484Y-108399389D01*
X169056709Y-108324005D01*
X169117009Y-108233760D01*
X169117010Y-108233758D01*
X169193758Y-108157010D01*
X169225184Y-108136012D01*
X169286664Y-108094932D01*
X169305606Y-108079386D01*
X169321151Y-108060444D01*
X169332702Y-108038833D01*
X169339815Y-108015385D01*
X169342217Y-107990998D01*
X169339815Y-107966612D01*
X169332702Y-107943163D01*
X169321151Y-107921553D01*
X169305605Y-107902611D01*
X169286663Y-107887066D01*
X169265052Y-107875515D01*
X169241604Y-107868402D01*
X169217218Y-107866000D01*
X168994000Y-107866000D01*
X168994000Y-107642782D01*
X168991598Y-107618396D01*
X168984485Y-107594947D01*
X168972934Y-107573336D01*
X168957389Y-107554394D01*
X168938447Y-107538849D01*
X168916836Y-107527298D01*
X168893387Y-107520185D01*
X168869001Y-107517783D01*
X168844615Y-107520185D01*
X168821166Y-107527298D01*
X168799555Y-107538849D01*
X168780613Y-107554394D01*
X168765068Y-107573336D01*
X168723988Y-107634816D01*
X168702990Y-107666242D01*
X168626242Y-107742990D01*
X168580812Y-107773345D01*
X168535995Y-107803291D01*
X168460611Y-107834516D01*
X168439000Y-107846067D01*
X168420059Y-107861612D01*
X168404513Y-107880554D01*
X168392962Y-107902165D01*
X168385849Y-107925614D01*
X168383447Y-107950000D01*
X168166553Y-107950000D01*
X168164151Y-107925614D01*
X168157038Y-107902165D01*
X168145487Y-107880554D01*
X168129942Y-107861613D01*
X168111000Y-107846067D01*
X168089389Y-107834516D01*
X168014005Y-107803291D01*
X167969188Y-107773345D01*
X167923758Y-107742990D01*
X167847010Y-107666242D01*
X167815041Y-107618396D01*
X167786709Y-107575995D01*
X167755484Y-107500611D01*
X167743933Y-107479000D01*
X167728388Y-107460059D01*
X167709446Y-107444513D01*
X167687835Y-107432962D01*
X167664386Y-107425849D01*
X167640000Y-107423447D01*
X167615614Y-107425849D01*
X167592165Y-107432962D01*
X167570554Y-107444513D01*
X167551613Y-107460058D01*
X167536067Y-107479000D01*
X167524516Y-107500611D01*
X167493291Y-107575995D01*
X167464959Y-107618396D01*
X167432990Y-107666242D01*
X167356242Y-107742990D01*
X167310812Y-107773345D01*
X167265995Y-107803291D01*
X167190611Y-107834516D01*
X167169000Y-107846067D01*
X167150059Y-107861612D01*
X167134513Y-107880554D01*
X167122962Y-107902165D01*
X167115849Y-107925614D01*
X167113447Y-107950000D01*
X166896553Y-107950000D01*
X166894151Y-107925614D01*
X166887038Y-107902165D01*
X166875487Y-107880554D01*
X166859942Y-107861613D01*
X166841000Y-107846067D01*
X166819389Y-107834516D01*
X166744005Y-107803291D01*
X166699188Y-107773345D01*
X166653758Y-107742990D01*
X166577010Y-107666242D01*
X166545041Y-107618396D01*
X166516709Y-107575995D01*
X166485484Y-107500611D01*
X166473933Y-107479000D01*
X166458388Y-107460059D01*
X166439446Y-107444513D01*
X166417835Y-107432962D01*
X166394386Y-107425849D01*
X166370000Y-107423447D01*
X166345614Y-107425849D01*
X166322165Y-107432962D01*
X166300554Y-107444513D01*
X166281613Y-107460058D01*
X166266067Y-107479000D01*
X166254516Y-107500611D01*
X166223291Y-107575995D01*
X166194959Y-107618396D01*
X166162990Y-107666242D01*
X166086242Y-107742990D01*
X166040812Y-107773345D01*
X165995995Y-107803291D01*
X165920611Y-107834516D01*
X165899000Y-107846067D01*
X165880059Y-107861612D01*
X165864513Y-107880554D01*
X165852962Y-107902165D01*
X165845849Y-107925614D01*
X165843447Y-107950000D01*
X165626553Y-107950000D01*
X165624151Y-107925614D01*
X165617038Y-107902165D01*
X165605487Y-107880554D01*
X165589942Y-107861613D01*
X165571000Y-107846067D01*
X165549389Y-107834516D01*
X165474005Y-107803291D01*
X165429188Y-107773345D01*
X165383758Y-107742990D01*
X165307010Y-107666242D01*
X165275041Y-107618396D01*
X165246709Y-107575995D01*
X165215484Y-107500611D01*
X165203933Y-107479000D01*
X165188388Y-107460059D01*
X165169446Y-107444513D01*
X165147835Y-107432962D01*
X165124386Y-107425849D01*
X165100000Y-107423447D01*
X165075614Y-107425849D01*
X165052165Y-107432962D01*
X165030554Y-107444513D01*
X165011613Y-107460058D01*
X164996067Y-107479000D01*
X164984516Y-107500611D01*
X164953291Y-107575995D01*
X164924959Y-107618396D01*
X164892990Y-107666242D01*
X164816242Y-107742990D01*
X164770812Y-107773345D01*
X164725995Y-107803291D01*
X164650611Y-107834516D01*
X164629000Y-107846067D01*
X164610059Y-107861612D01*
X164594513Y-107880554D01*
X164582962Y-107902165D01*
X164575849Y-107925614D01*
X164573447Y-107950000D01*
X164356553Y-107950000D01*
X164354151Y-107925614D01*
X164347038Y-107902165D01*
X164335487Y-107880554D01*
X164319942Y-107861613D01*
X164301000Y-107846067D01*
X164279389Y-107834516D01*
X164204005Y-107803291D01*
X164159188Y-107773345D01*
X164113758Y-107742990D01*
X164037010Y-107666242D01*
X164005041Y-107618396D01*
X163976709Y-107575995D01*
X163935174Y-107475721D01*
X163914000Y-107369270D01*
X163914000Y-107260730D01*
X163935174Y-107154279D01*
X163976709Y-107054005D01*
X164029643Y-106974784D01*
X164037010Y-106963758D01*
X164113758Y-106887010D01*
X164204004Y-106826710D01*
X164204005Y-106826709D01*
X164304279Y-106785174D01*
X164410730Y-106764000D01*
X164519270Y-106764000D01*
X164625721Y-106785174D01*
G37*
G36*
X195070591Y-107135585D02*
G01*
X195104569Y-107145893D01*
X195135890Y-107162634D01*
X195163339Y-107185161D01*
X195185866Y-107212610D01*
X195202607Y-107243931D01*
X195212915Y-107277909D01*
X195217000Y-107319390D01*
X195217000Y-107920610D01*
X195212915Y-107962091D01*
X195202607Y-107996069D01*
X195185866Y-108027390D01*
X195163339Y-108054839D01*
X195135890Y-108077366D01*
X195104569Y-108094107D01*
X195070591Y-108104415D01*
X195029110Y-108108500D01*
X194352890Y-108108500D01*
X194311409Y-108104415D01*
X194277431Y-108094107D01*
X194246110Y-108077366D01*
X194218661Y-108054839D01*
X194196134Y-108027390D01*
X194179393Y-107996069D01*
X194169085Y-107962091D01*
X194165000Y-107920610D01*
X194165000Y-107319390D01*
X194169085Y-107277909D01*
X194179393Y-107243931D01*
X194196134Y-107212610D01*
X194218661Y-107185161D01*
X194246110Y-107162634D01*
X194277431Y-107145893D01*
X194311409Y-107135585D01*
X194352890Y-107131500D01*
X195029110Y-107131500D01*
X195070591Y-107135585D01*
G37*
G36*
X155688512Y-105783927D02*
G01*
X155837812Y-105813624D01*
X156001784Y-105881544D01*
X156149354Y-105980147D01*
X156274853Y-106105646D01*
X156373456Y-106253216D01*
X156441376Y-106417188D01*
X156476000Y-106591259D01*
X156476000Y-106768741D01*
X156441376Y-106942812D01*
X156373456Y-107106784D01*
X156274853Y-107254354D01*
X156149354Y-107379853D01*
X156001784Y-107478456D01*
X155837812Y-107546376D01*
X155688903Y-107575995D01*
X155663742Y-107581000D01*
X155486258Y-107581000D01*
X155461097Y-107575995D01*
X155312188Y-107546376D01*
X155148216Y-107478456D01*
X155000646Y-107379853D01*
X154875147Y-107254354D01*
X154776544Y-107106784D01*
X154708624Y-106942812D01*
X154674000Y-106768741D01*
X154674000Y-106591259D01*
X154708624Y-106417188D01*
X154776544Y-106253216D01*
X154875147Y-106105646D01*
X155000646Y-105980147D01*
X155148216Y-105881544D01*
X155312188Y-105813624D01*
X155461488Y-105783927D01*
X155486258Y-105779000D01*
X155663742Y-105779000D01*
X155688512Y-105783927D01*
G37*
G36*
X149973512Y-105783927D02*
G01*
X150122812Y-105813624D01*
X150286784Y-105881544D01*
X150434354Y-105980147D01*
X150559853Y-106105646D01*
X150658456Y-106253216D01*
X150726376Y-106417188D01*
X150761000Y-106591259D01*
X150761000Y-106768741D01*
X150726376Y-106942812D01*
X150658456Y-107106784D01*
X150559853Y-107254354D01*
X150434354Y-107379853D01*
X150286784Y-107478456D01*
X150122812Y-107546376D01*
X149973903Y-107575995D01*
X149948742Y-107581000D01*
X149771258Y-107581000D01*
X149746097Y-107575995D01*
X149597188Y-107546376D01*
X149433216Y-107478456D01*
X149285646Y-107379853D01*
X149160147Y-107254354D01*
X149061544Y-107106784D01*
X148993624Y-106942812D01*
X148959000Y-106768741D01*
X148959000Y-106591259D01*
X148993624Y-106417188D01*
X149061544Y-106253216D01*
X149160147Y-106105646D01*
X149285646Y-105980147D01*
X149433216Y-105881544D01*
X149597188Y-105813624D01*
X149746488Y-105783927D01*
X149771258Y-105779000D01*
X149948742Y-105779000D01*
X149973512Y-105783927D01*
G37*
G36*
X195070591Y-105560585D02*
G01*
X195104569Y-105570893D01*
X195135890Y-105587634D01*
X195163339Y-105610161D01*
X195185866Y-105637610D01*
X195202607Y-105668931D01*
X195212915Y-105702909D01*
X195217000Y-105744390D01*
X195217000Y-106345610D01*
X195212915Y-106387091D01*
X195202607Y-106421069D01*
X195185866Y-106452390D01*
X195163339Y-106479839D01*
X195135890Y-106502366D01*
X195104569Y-106519107D01*
X195070591Y-106529415D01*
X195029110Y-106533500D01*
X194352890Y-106533500D01*
X194311409Y-106529415D01*
X194277431Y-106519107D01*
X194246110Y-106502366D01*
X194218661Y-106479839D01*
X194196134Y-106452390D01*
X194179393Y-106421069D01*
X194169085Y-106387091D01*
X194165000Y-106345610D01*
X194165000Y-105744390D01*
X194169085Y-105702909D01*
X194179393Y-105668931D01*
X194196134Y-105637610D01*
X194218661Y-105610161D01*
X194246110Y-105587634D01*
X194277431Y-105570893D01*
X194311409Y-105560585D01*
X194352890Y-105556500D01*
X195029110Y-105556500D01*
X195070591Y-105560585D01*
G37*
G36*
X149973512Y-103243927D02*
G01*
X150122812Y-103273624D01*
X150286784Y-103341544D01*
X150434354Y-103440147D01*
X150559853Y-103565646D01*
X150658456Y-103713216D01*
X150726376Y-103877188D01*
X150761000Y-104051259D01*
X150761000Y-104228741D01*
X150726376Y-104402812D01*
X150658456Y-104566784D01*
X150559853Y-104714354D01*
X150434354Y-104839853D01*
X150286784Y-104938456D01*
X150122812Y-105006376D01*
X149973512Y-105036073D01*
X149948742Y-105041000D01*
X149771258Y-105041000D01*
X149746488Y-105036073D01*
X149597188Y-105006376D01*
X149433216Y-104938456D01*
X149285646Y-104839853D01*
X149160147Y-104714354D01*
X149061544Y-104566784D01*
X148993624Y-104402812D01*
X148959000Y-104228741D01*
X148959000Y-104051259D01*
X148993624Y-103877188D01*
X149061544Y-103713216D01*
X149160147Y-103565646D01*
X149285646Y-103440147D01*
X149433216Y-103341544D01*
X149597188Y-103273624D01*
X149746488Y-103243927D01*
X149771258Y-103239000D01*
X149948742Y-103239000D01*
X149973512Y-103243927D01*
G37*
G36*
X155688512Y-103243927D02*
G01*
X155837812Y-103273624D01*
X156001784Y-103341544D01*
X156149354Y-103440147D01*
X156274853Y-103565646D01*
X156373456Y-103713216D01*
X156441376Y-103877188D01*
X156476000Y-104051259D01*
X156476000Y-104228741D01*
X156441376Y-104402812D01*
X156373456Y-104566784D01*
X156274853Y-104714354D01*
X156149354Y-104839853D01*
X156001784Y-104938456D01*
X155837812Y-105006376D01*
X155688512Y-105036073D01*
X155663742Y-105041000D01*
X155486258Y-105041000D01*
X155461488Y-105036073D01*
X155312188Y-105006376D01*
X155148216Y-104938456D01*
X155000646Y-104839853D01*
X154875147Y-104714354D01*
X154776544Y-104566784D01*
X154708624Y-104402812D01*
X154674000Y-104228741D01*
X154674000Y-104051259D01*
X154708624Y-103877188D01*
X154776544Y-103713216D01*
X154875147Y-103565646D01*
X155000646Y-103440147D01*
X155148216Y-103341544D01*
X155312188Y-103273624D01*
X155461488Y-103243927D01*
X155486258Y-103239000D01*
X155663742Y-103239000D01*
X155688512Y-103243927D01*
G37*
G36*
X162476000Y-104691000D02*
G01*
X161374000Y-104691000D01*
X161374000Y-103589000D01*
X162476000Y-103589000D01*
X162476000Y-104691000D01*
G37*
G36*
X197987000Y-103569000D02*
G01*
X196585000Y-103569000D01*
X196585000Y-101917000D01*
X197987000Y-101917000D01*
X197987000Y-103569000D01*
G37*
G36*
X193487000Y-103569000D02*
G01*
X192085000Y-103569000D01*
X192085000Y-101917000D01*
X193487000Y-101917000D01*
X193487000Y-103569000D01*
G37*
G36*
X162476000Y-102786000D02*
G01*
X161374000Y-102786000D01*
X161374000Y-101684000D01*
X162476000Y-101684000D01*
X162476000Y-102786000D01*
G37*
G36*
X155688512Y-100703927D02*
G01*
X155837812Y-100733624D01*
X156001784Y-100801544D01*
X156149354Y-100900147D01*
X156274853Y-101025646D01*
X156373456Y-101173216D01*
X156441376Y-101337188D01*
X156476000Y-101511259D01*
X156476000Y-101688741D01*
X156441376Y-101862812D01*
X156373456Y-102026784D01*
X156274853Y-102174354D01*
X156149354Y-102299853D01*
X156001784Y-102398456D01*
X155837812Y-102466376D01*
X155688512Y-102496073D01*
X155663742Y-102501000D01*
X155486258Y-102501000D01*
X155461488Y-102496073D01*
X155312188Y-102466376D01*
X155148216Y-102398456D01*
X155000646Y-102299853D01*
X154875147Y-102174354D01*
X154776544Y-102026784D01*
X154708624Y-101862812D01*
X154674000Y-101688741D01*
X154674000Y-101511259D01*
X154708624Y-101337188D01*
X154776544Y-101173216D01*
X154875147Y-101025646D01*
X155000646Y-100900147D01*
X155148216Y-100801544D01*
X155312188Y-100733624D01*
X155461488Y-100703927D01*
X155486258Y-100699000D01*
X155663742Y-100699000D01*
X155688512Y-100703927D01*
G37*
G36*
X162476000Y-100881000D02*
G01*
X161374000Y-100881000D01*
X161374000Y-99779000D01*
X162476000Y-99779000D01*
X162476000Y-100881000D01*
G37*
G36*
X169788000Y-100574000D02*
G01*
X168626000Y-100574000D01*
X168626000Y-97922000D01*
X169788000Y-97922000D01*
X169788000Y-100574000D01*
G37*
G36*
X171988000Y-100574000D02*
G01*
X170826000Y-100574000D01*
X170826000Y-99822000D01*
X171988000Y-99822000D01*
X171988000Y-100574000D01*
G37*
G36*
X173607591Y-99388585D02*
G01*
X173641569Y-99398893D01*
X173672890Y-99415634D01*
X173700339Y-99438161D01*
X173722866Y-99465610D01*
X173739607Y-99496931D01*
X173749915Y-99530909D01*
X173754000Y-99572390D01*
X173754000Y-100173610D01*
X173749915Y-100215091D01*
X173739607Y-100249069D01*
X173722866Y-100280390D01*
X173700339Y-100307839D01*
X173672890Y-100330366D01*
X173641569Y-100347107D01*
X173607591Y-100357415D01*
X173566110Y-100361500D01*
X172889890Y-100361500D01*
X172848409Y-100357415D01*
X172814431Y-100347107D01*
X172783110Y-100330366D01*
X172755661Y-100307839D01*
X172733134Y-100280390D01*
X172716393Y-100249069D01*
X172706085Y-100215091D01*
X172702000Y-100173610D01*
X172702000Y-99572390D01*
X172706085Y-99530909D01*
X172716393Y-99496931D01*
X172733134Y-99465610D01*
X172755661Y-99438161D01*
X172783110Y-99415634D01*
X172814431Y-99398893D01*
X172848409Y-99388585D01*
X172889890Y-99384500D01*
X173566110Y-99384500D01*
X173607591Y-99388585D01*
G37*
G36*
X167765591Y-99388585D02*
G01*
X167799569Y-99398893D01*
X167830890Y-99415634D01*
X167858339Y-99438161D01*
X167880866Y-99465610D01*
X167897607Y-99496931D01*
X167907915Y-99530909D01*
X167912000Y-99572390D01*
X167912000Y-100173610D01*
X167907915Y-100215091D01*
X167897607Y-100249069D01*
X167880866Y-100280390D01*
X167858339Y-100307839D01*
X167830890Y-100330366D01*
X167799569Y-100347107D01*
X167765591Y-100357415D01*
X167724110Y-100361500D01*
X167047890Y-100361500D01*
X167006409Y-100357415D01*
X166972431Y-100347107D01*
X166941110Y-100330366D01*
X166913661Y-100307839D01*
X166891134Y-100280390D01*
X166874393Y-100249069D01*
X166864085Y-100215091D01*
X166860000Y-100173610D01*
X166860000Y-99572390D01*
X166864085Y-99530909D01*
X166874393Y-99496931D01*
X166891134Y-99465610D01*
X166913661Y-99438161D01*
X166941110Y-99415634D01*
X166972431Y-99398893D01*
X167006409Y-99388585D01*
X167047890Y-99384500D01*
X167724110Y-99384500D01*
X167765591Y-99388585D01*
G37*
G36*
X155688512Y-98163927D02*
G01*
X155837812Y-98193624D01*
X156001784Y-98261544D01*
X156149354Y-98360147D01*
X156274853Y-98485646D01*
X156373456Y-98633216D01*
X156441376Y-98797188D01*
X156476000Y-98971259D01*
X156476000Y-99148741D01*
X156441376Y-99322812D01*
X156373456Y-99486784D01*
X156274853Y-99634354D01*
X156149354Y-99759853D01*
X156001784Y-99858456D01*
X155837812Y-99926376D01*
X155688512Y-99956073D01*
X155663742Y-99961000D01*
X155486258Y-99961000D01*
X155461488Y-99956073D01*
X155312188Y-99926376D01*
X155148216Y-99858456D01*
X155000646Y-99759853D01*
X154875147Y-99634354D01*
X154776544Y-99486784D01*
X154708624Y-99322812D01*
X154674000Y-99148741D01*
X154674000Y-98971259D01*
X154708624Y-98797188D01*
X154776544Y-98633216D01*
X154875147Y-98485646D01*
X155000646Y-98360147D01*
X155148216Y-98261544D01*
X155312188Y-98193624D01*
X155461488Y-98163927D01*
X155486258Y-98159000D01*
X155663742Y-98159000D01*
X155688512Y-98163927D01*
G37*
G36*
X162476000Y-98976000D02*
G01*
X161374000Y-98976000D01*
X161374000Y-97874000D01*
X162476000Y-97874000D01*
X162476000Y-98976000D01*
G37*
G36*
X173607591Y-97813585D02*
G01*
X173641569Y-97823893D01*
X173672890Y-97840634D01*
X173700339Y-97863161D01*
X173722866Y-97890610D01*
X173739607Y-97921931D01*
X173749915Y-97955909D01*
X173754000Y-97997390D01*
X173754000Y-98598610D01*
X173749915Y-98640091D01*
X173739607Y-98674069D01*
X173722866Y-98705390D01*
X173700339Y-98732839D01*
X173672890Y-98755366D01*
X173641569Y-98772107D01*
X173607591Y-98782415D01*
X173566110Y-98786500D01*
X172889890Y-98786500D01*
X172848409Y-98782415D01*
X172814431Y-98772107D01*
X172783110Y-98755366D01*
X172755661Y-98732839D01*
X172733134Y-98705390D01*
X172716393Y-98674069D01*
X172706085Y-98640091D01*
X172702000Y-98598610D01*
X172702000Y-97997390D01*
X172706085Y-97955909D01*
X172716393Y-97921931D01*
X172733134Y-97890610D01*
X172755661Y-97863161D01*
X172783110Y-97840634D01*
X172814431Y-97823893D01*
X172848409Y-97813585D01*
X172889890Y-97809500D01*
X173566110Y-97809500D01*
X173607591Y-97813585D01*
G37*
G36*
X167765591Y-97813585D02*
G01*
X167799569Y-97823893D01*
X167830890Y-97840634D01*
X167858339Y-97863161D01*
X167880866Y-97890610D01*
X167897607Y-97921931D01*
X167907915Y-97955909D01*
X167912000Y-97997390D01*
X167912000Y-98598610D01*
X167907915Y-98640091D01*
X167897607Y-98674069D01*
X167880866Y-98705390D01*
X167858339Y-98732839D01*
X167830890Y-98755366D01*
X167799569Y-98772107D01*
X167765591Y-98782415D01*
X167724110Y-98786500D01*
X167047890Y-98786500D01*
X167006409Y-98782415D01*
X166972431Y-98772107D01*
X166941110Y-98755366D01*
X166913661Y-98732839D01*
X166891134Y-98705390D01*
X166874393Y-98674069D01*
X166864085Y-98640091D01*
X166860000Y-98598610D01*
X166860000Y-97997390D01*
X166864085Y-97955909D01*
X166874393Y-97921931D01*
X166891134Y-97890610D01*
X166913661Y-97863161D01*
X166941110Y-97840634D01*
X166972431Y-97823893D01*
X167006409Y-97813585D01*
X167047890Y-97809500D01*
X167724110Y-97809500D01*
X167765591Y-97813585D01*
G37*
G36*
X171988000Y-98674000D02*
G01*
X170826000Y-98674000D01*
X170826000Y-97922000D01*
X171988000Y-97922000D01*
X171988000Y-98674000D01*
G37*
G36*
X155688512Y-95623927D02*
G01*
X155837812Y-95653624D01*
X156001784Y-95721544D01*
X156149354Y-95820147D01*
X156274853Y-95945646D01*
X156373456Y-96093216D01*
X156441376Y-96257188D01*
X156476000Y-96431259D01*
X156476000Y-96608741D01*
X156441376Y-96782812D01*
X156373456Y-96946784D01*
X156274853Y-97094354D01*
X156149354Y-97219853D01*
X156001784Y-97318456D01*
X155837812Y-97386376D01*
X155688512Y-97416073D01*
X155663742Y-97421000D01*
X155486258Y-97421000D01*
X155461488Y-97416073D01*
X155312188Y-97386376D01*
X155148216Y-97318456D01*
X155000646Y-97219853D01*
X154875147Y-97094354D01*
X154776544Y-96946784D01*
X154708624Y-96782812D01*
X154674000Y-96608741D01*
X154674000Y-96431259D01*
X154708624Y-96257188D01*
X154776544Y-96093216D01*
X154875147Y-95945646D01*
X155000646Y-95820147D01*
X155148216Y-95721544D01*
X155312188Y-95653624D01*
X155461488Y-95623927D01*
X155486258Y-95619000D01*
X155663742Y-95619000D01*
X155688512Y-95623927D01*
G37*
G36*
X162476000Y-97071000D02*
G01*
X161374000Y-97071000D01*
X161374000Y-95969000D01*
X162476000Y-95969000D01*
X162476000Y-97071000D01*
G37*
G36*
X171789591Y-95998085D02*
G01*
X171823569Y-96008393D01*
X171854890Y-96025134D01*
X171882339Y-96047661D01*
X171904866Y-96075110D01*
X171921607Y-96106431D01*
X171931915Y-96140409D01*
X171936000Y-96181890D01*
X171936000Y-96858110D01*
X171931915Y-96899591D01*
X171921607Y-96933569D01*
X171904866Y-96964890D01*
X171882339Y-96992339D01*
X171854890Y-97014866D01*
X171823569Y-97031607D01*
X171789591Y-97041915D01*
X171748110Y-97046000D01*
X171146890Y-97046000D01*
X171105409Y-97041915D01*
X171071431Y-97031607D01*
X171040110Y-97014866D01*
X171012661Y-96992339D01*
X170990134Y-96964890D01*
X170973393Y-96933569D01*
X170963085Y-96899591D01*
X170959000Y-96858110D01*
X170959000Y-96181890D01*
X170963085Y-96140409D01*
X170973393Y-96106431D01*
X170990134Y-96075110D01*
X171012661Y-96047661D01*
X171040110Y-96025134D01*
X171071431Y-96008393D01*
X171105409Y-95998085D01*
X171146890Y-95994000D01*
X171748110Y-95994000D01*
X171789591Y-95998085D01*
G37*
G36*
X173364591Y-95998085D02*
G01*
X173398569Y-96008393D01*
X173429890Y-96025134D01*
X173457339Y-96047661D01*
X173479866Y-96075110D01*
X173496607Y-96106431D01*
X173506915Y-96140409D01*
X173511000Y-96181890D01*
X173511000Y-96858110D01*
X173506915Y-96899591D01*
X173496607Y-96933569D01*
X173479866Y-96964890D01*
X173457339Y-96992339D01*
X173429890Y-97014866D01*
X173398569Y-97031607D01*
X173364591Y-97041915D01*
X173323110Y-97046000D01*
X172721890Y-97046000D01*
X172680409Y-97041915D01*
X172646431Y-97031607D01*
X172615110Y-97014866D01*
X172587661Y-96992339D01*
X172565134Y-96964890D01*
X172548393Y-96933569D01*
X172538085Y-96899591D01*
X172534000Y-96858110D01*
X172534000Y-96181890D01*
X172538085Y-96140409D01*
X172548393Y-96106431D01*
X172565134Y-96075110D01*
X172587661Y-96047661D01*
X172615110Y-96025134D01*
X172646431Y-96008393D01*
X172680409Y-95998085D01*
X172721890Y-95994000D01*
X173323110Y-95994000D01*
X173364591Y-95998085D01*
G37*
G36*
X197987000Y-95609000D02*
G01*
X196585000Y-95609000D01*
X196585000Y-93957000D01*
X197987000Y-93957000D01*
X197987000Y-95609000D01*
G37*
G36*
X193487000Y-95609000D02*
G01*
X192085000Y-95609000D01*
X192085000Y-93957000D01*
X193487000Y-93957000D01*
X193487000Y-95609000D01*
G37*
G36*
X180036000Y-95411000D02*
G01*
X179134000Y-95411000D01*
X179134000Y-92909000D01*
X180036000Y-92909000D01*
X180036000Y-95411000D01*
G37*
G36*
X178836000Y-95411000D02*
G01*
X177934000Y-95411000D01*
X177934000Y-92909000D01*
X178836000Y-92909000D01*
X178836000Y-95411000D01*
G37*
G36*
X177636000Y-95411000D02*
G01*
X176734000Y-95411000D01*
X176734000Y-92909000D01*
X177636000Y-92909000D01*
X177636000Y-95411000D01*
G37*
G36*
X175236000Y-95411000D02*
G01*
X174334000Y-95411000D01*
X174334000Y-92909000D01*
X175236000Y-92909000D01*
X175236000Y-95411000D01*
G37*
G36*
X174036000Y-95411000D02*
G01*
X173134000Y-95411000D01*
X173134000Y-92909000D01*
X174036000Y-92909000D01*
X174036000Y-95411000D01*
G37*
G36*
X181236000Y-95411000D02*
G01*
X180334000Y-95411000D01*
X180334000Y-92909000D01*
X181236000Y-92909000D01*
X181236000Y-95411000D01*
G37*
G36*
X176436000Y-95411000D02*
G01*
X175534000Y-95411000D01*
X175534000Y-92909000D01*
X176436000Y-92909000D01*
X176436000Y-95411000D01*
G37*
G36*
X162476000Y-95166000D02*
G01*
X161374000Y-95166000D01*
X161374000Y-94064000D01*
X162476000Y-94064000D01*
X162476000Y-95166000D01*
G37*
G36*
X155688512Y-93083927D02*
G01*
X155837812Y-93113624D01*
X156001784Y-93181544D01*
X156149354Y-93280147D01*
X156274853Y-93405646D01*
X156373456Y-93553216D01*
X156441376Y-93717188D01*
X156476000Y-93891259D01*
X156476000Y-94068741D01*
X156441376Y-94242812D01*
X156373456Y-94406784D01*
X156274853Y-94554354D01*
X156149354Y-94679853D01*
X156001784Y-94778456D01*
X155837812Y-94846376D01*
X155688512Y-94876073D01*
X155663742Y-94881000D01*
X155486258Y-94881000D01*
X155461488Y-94876073D01*
X155312188Y-94846376D01*
X155148216Y-94778456D01*
X155000646Y-94679853D01*
X154875147Y-94554354D01*
X154776544Y-94406784D01*
X154708624Y-94242812D01*
X154674000Y-94068741D01*
X154674000Y-93891259D01*
X154708624Y-93717188D01*
X154776544Y-93553216D01*
X154875147Y-93405646D01*
X155000646Y-93280147D01*
X155148216Y-93181544D01*
X155312188Y-93113624D01*
X155461488Y-93083927D01*
X155486258Y-93079000D01*
X155663742Y-93079000D01*
X155688512Y-93083927D01*
G37*
G36*
X169289591Y-93800585D02*
G01*
X169323569Y-93810893D01*
X169354890Y-93827634D01*
X169382339Y-93850161D01*
X169404866Y-93877610D01*
X169421607Y-93908931D01*
X169431915Y-93942909D01*
X169436000Y-93984390D01*
X169436000Y-94585610D01*
X169431915Y-94627091D01*
X169421607Y-94661069D01*
X169404866Y-94692390D01*
X169382339Y-94719839D01*
X169354890Y-94742366D01*
X169323569Y-94759107D01*
X169289591Y-94769415D01*
X169248110Y-94773500D01*
X168571890Y-94773500D01*
X168530409Y-94769415D01*
X168496431Y-94759107D01*
X168465110Y-94742366D01*
X168437661Y-94719839D01*
X168415134Y-94692390D01*
X168398393Y-94661069D01*
X168388085Y-94627091D01*
X168384000Y-94585610D01*
X168384000Y-93984390D01*
X168388085Y-93942909D01*
X168398393Y-93908931D01*
X168415134Y-93877610D01*
X168437661Y-93850161D01*
X168465110Y-93827634D01*
X168496431Y-93810893D01*
X168530409Y-93800585D01*
X168571890Y-93796500D01*
X169248110Y-93796500D01*
X169289591Y-93800585D01*
G37*
G36*
X172766000Y-94471000D02*
G01*
X170264000Y-94471000D01*
X170264000Y-93569000D01*
X172766000Y-93569000D01*
X172766000Y-94471000D01*
G37*
G36*
X184066000Y-94471000D02*
G01*
X181564000Y-94471000D01*
X181564000Y-93569000D01*
X184066000Y-93569000D01*
X184066000Y-94471000D01*
G37*
G36*
X172766000Y-93271000D02*
G01*
X170264000Y-93271000D01*
X170264000Y-92369000D01*
X172766000Y-92369000D01*
X172766000Y-93271000D01*
G37*
G36*
X184066000Y-93271000D02*
G01*
X181564000Y-93271000D01*
X181564000Y-92369000D01*
X184066000Y-92369000D01*
X184066000Y-93271000D01*
G37*
G36*
X162476000Y-93261000D02*
G01*
X161374000Y-93261000D01*
X161374000Y-92159000D01*
X162476000Y-92159000D01*
X162476000Y-93261000D01*
G37*
G36*
X169289591Y-92225585D02*
G01*
X169323569Y-92235893D01*
X169354890Y-92252634D01*
X169382339Y-92275161D01*
X169404866Y-92302610D01*
X169421607Y-92333931D01*
X169431915Y-92367909D01*
X169436000Y-92409390D01*
X169436000Y-93010610D01*
X169431915Y-93052091D01*
X169421607Y-93086069D01*
X169404866Y-93117390D01*
X169382339Y-93144839D01*
X169354890Y-93167366D01*
X169323569Y-93184107D01*
X169289591Y-93194415D01*
X169248110Y-93198500D01*
X168571890Y-93198500D01*
X168530409Y-93194415D01*
X168496431Y-93184107D01*
X168465110Y-93167366D01*
X168437661Y-93144839D01*
X168415134Y-93117390D01*
X168398393Y-93086069D01*
X168388085Y-93052091D01*
X168384000Y-93010610D01*
X168384000Y-92409390D01*
X168388085Y-92367909D01*
X168398393Y-92333931D01*
X168415134Y-92302610D01*
X168437661Y-92275161D01*
X168465110Y-92252634D01*
X168496431Y-92235893D01*
X168530409Y-92225585D01*
X168571890Y-92221500D01*
X169248110Y-92221500D01*
X169289591Y-92225585D01*
G37*
G36*
X155688512Y-90543927D02*
G01*
X155837812Y-90573624D01*
X156001784Y-90641544D01*
X156149354Y-90740147D01*
X156274853Y-90865646D01*
X156373456Y-91013216D01*
X156441376Y-91177188D01*
X156476000Y-91351259D01*
X156476000Y-91528741D01*
X156441376Y-91702812D01*
X156373456Y-91866784D01*
X156274853Y-92014354D01*
X156149354Y-92139853D01*
X156001784Y-92238456D01*
X155837812Y-92306376D01*
X155699280Y-92333931D01*
X155663742Y-92341000D01*
X155486258Y-92341000D01*
X155450720Y-92333931D01*
X155312188Y-92306376D01*
X155148216Y-92238456D01*
X155000646Y-92139853D01*
X154875147Y-92014354D01*
X154776544Y-91866784D01*
X154708624Y-91702812D01*
X154674000Y-91528741D01*
X154674000Y-91351259D01*
X154708624Y-91177188D01*
X154776544Y-91013216D01*
X154875147Y-90865646D01*
X155000646Y-90740147D01*
X155148216Y-90641544D01*
X155312188Y-90573624D01*
X155461488Y-90543927D01*
X155486258Y-90539000D01*
X155663742Y-90539000D01*
X155688512Y-90543927D01*
G37*
G36*
X184066000Y-92071000D02*
G01*
X181564000Y-92071000D01*
X181564000Y-91169000D01*
X184066000Y-91169000D01*
X184066000Y-92071000D01*
G37*
G36*
X172766000Y-92071000D02*
G01*
X170264000Y-92071000D01*
X170264000Y-91169000D01*
X172766000Y-91169000D01*
X172766000Y-92071000D01*
G37*
G36*
X162476000Y-91356000D02*
G01*
X161374000Y-91356000D01*
X161374000Y-90254000D01*
X162476000Y-90254000D01*
X162476000Y-91356000D01*
G37*
G36*
X184066000Y-90871000D02*
G01*
X181564000Y-90871000D01*
X181564000Y-89969000D01*
X184066000Y-89969000D01*
X184066000Y-90871000D01*
G37*
G36*
X172766000Y-90871000D02*
G01*
X170264000Y-90871000D01*
X170264000Y-89969000D01*
X172766000Y-89969000D01*
X172766000Y-90871000D01*
G37*
G36*
X198171000Y-90395000D02*
G01*
X192989000Y-90395000D01*
X192989000Y-88793000D01*
X198171000Y-88793000D01*
X198171000Y-90395000D01*
G37*
G36*
X155688512Y-88003927D02*
G01*
X155837812Y-88033624D01*
X156001784Y-88101544D01*
X156149354Y-88200147D01*
X156274853Y-88325646D01*
X156373456Y-88473216D01*
X156441376Y-88637188D01*
X156476000Y-88811259D01*
X156476000Y-88988741D01*
X156441376Y-89162812D01*
X156373456Y-89326784D01*
X156274853Y-89474354D01*
X156149354Y-89599853D01*
X156001784Y-89698456D01*
X155837812Y-89766376D01*
X155688512Y-89796073D01*
X155663742Y-89801000D01*
X155486258Y-89801000D01*
X155461488Y-89796073D01*
X155312188Y-89766376D01*
X155148216Y-89698456D01*
X155000646Y-89599853D01*
X154875147Y-89474354D01*
X154776544Y-89326784D01*
X154708624Y-89162812D01*
X154674000Y-88988741D01*
X154674000Y-88811259D01*
X154708624Y-88637188D01*
X154776544Y-88473216D01*
X154875147Y-88325646D01*
X155000646Y-88200147D01*
X155148216Y-88101544D01*
X155312188Y-88033624D01*
X155461488Y-88003927D01*
X155486258Y-87999000D01*
X155663742Y-87999000D01*
X155688512Y-88003927D01*
G37*
G36*
X172766000Y-89671000D02*
G01*
X170264000Y-89671000D01*
X170264000Y-88769000D01*
X172766000Y-88769000D01*
X172766000Y-89671000D01*
G37*
G36*
X184066000Y-89671000D02*
G01*
X181564000Y-89671000D01*
X181564000Y-88769000D01*
X184066000Y-88769000D01*
X184066000Y-89671000D01*
G37*
G36*
X162476000Y-89451000D02*
G01*
X161374000Y-89451000D01*
X161374000Y-88349000D01*
X162476000Y-88349000D01*
X162476000Y-89451000D01*
G37*
G36*
X172766000Y-88471000D02*
G01*
X170264000Y-88471000D01*
X170264000Y-87569000D01*
X172766000Y-87569000D01*
X172766000Y-88471000D01*
G37*
G36*
X184066000Y-88471000D02*
G01*
X181564000Y-88471000D01*
X181564000Y-87569000D01*
X184066000Y-87569000D01*
X184066000Y-88471000D01*
G37*
G36*
X162476000Y-87546000D02*
G01*
X161374000Y-87546000D01*
X161374000Y-86444000D01*
X162476000Y-86444000D01*
X162476000Y-87546000D01*
G37*
G36*
X172766000Y-87271000D02*
G01*
X170264000Y-87271000D01*
X170264000Y-86369000D01*
X172766000Y-86369000D01*
X172766000Y-87271000D01*
G37*
G36*
X184066000Y-87271000D02*
G01*
X181564000Y-87271000D01*
X181564000Y-86369000D01*
X184066000Y-86369000D01*
X184066000Y-87271000D01*
G37*
G36*
X155688512Y-85463927D02*
G01*
X155837812Y-85493624D01*
X156001784Y-85561544D01*
X156149354Y-85660147D01*
X156274853Y-85785646D01*
X156373456Y-85933216D01*
X156441376Y-86097188D01*
X156476000Y-86271259D01*
X156476000Y-86448741D01*
X156441376Y-86622812D01*
X156373456Y-86786784D01*
X156274853Y-86934354D01*
X156149354Y-87059853D01*
X156001784Y-87158456D01*
X155837812Y-87226376D01*
X155688512Y-87256073D01*
X155663742Y-87261000D01*
X155486258Y-87261000D01*
X155461488Y-87256073D01*
X155312188Y-87226376D01*
X155148216Y-87158456D01*
X155000646Y-87059853D01*
X154875147Y-86934354D01*
X154776544Y-86786784D01*
X154708624Y-86622812D01*
X154674000Y-86448741D01*
X154674000Y-86271259D01*
X154708624Y-86097188D01*
X154776544Y-85933216D01*
X154875147Y-85785646D01*
X155000646Y-85660147D01*
X155148216Y-85561544D01*
X155312188Y-85493624D01*
X155461488Y-85463927D01*
X155486258Y-85459000D01*
X155663742Y-85459000D01*
X155688512Y-85463927D01*
G37*
G36*
X151134239Y-80811467D02*
G01*
X151448282Y-80873934D01*
X152039926Y-81119001D01*
X152572392Y-81474784D01*
X153025216Y-81927608D01*
X153380999Y-82460074D01*
X153626066Y-83051718D01*
X153664641Y-83245646D01*
X153751000Y-83679803D01*
X153751000Y-84320197D01*
X153711286Y-84519852D01*
X153626066Y-84948282D01*
X153380999Y-85539926D01*
X153025216Y-86072392D01*
X152572392Y-86525216D01*
X152039926Y-86880999D01*
X151448282Y-87126066D01*
X151285446Y-87158456D01*
X150820197Y-87251000D01*
X150179803Y-87251000D01*
X149714554Y-87158456D01*
X149551718Y-87126066D01*
X148960074Y-86880999D01*
X148427608Y-86525216D01*
X147974784Y-86072392D01*
X147619001Y-85539926D01*
X147373934Y-84948282D01*
X147288714Y-84519852D01*
X147249000Y-84320197D01*
X147249000Y-83679803D01*
X147335359Y-83245646D01*
X147373934Y-83051718D01*
X147619001Y-82460074D01*
X147974784Y-81927608D01*
X148427608Y-81474784D01*
X148960074Y-81119001D01*
X149551718Y-80873934D01*
X149865761Y-80811467D01*
X150179803Y-80749000D01*
X150820197Y-80749000D01*
X151134239Y-80811467D01*
G37*
G36*
X198171000Y-86145000D02*
G01*
X192989000Y-86145000D01*
X192989000Y-84543000D01*
X198171000Y-84543000D01*
X198171000Y-86145000D01*
G37*
G36*
X172766000Y-86071000D02*
G01*
X170264000Y-86071000D01*
X170264000Y-85169000D01*
X172766000Y-85169000D01*
X172766000Y-86071000D01*
G37*
G36*
X184066000Y-86071000D02*
G01*
X181564000Y-86071000D01*
X181564000Y-85169000D01*
X184066000Y-85169000D01*
X184066000Y-86071000D01*
G37*
G36*
X162476000Y-85641000D02*
G01*
X161374000Y-85641000D01*
X161374000Y-84539000D01*
X162476000Y-84539000D01*
X162476000Y-85641000D01*
G37*
G36*
X184066000Y-84871000D02*
G01*
X181564000Y-84871000D01*
X181564000Y-83969000D01*
X184066000Y-83969000D01*
X184066000Y-84871000D01*
G37*
G36*
X172766000Y-84871000D02*
G01*
X170264000Y-84871000D01*
X170264000Y-83969000D01*
X172766000Y-83969000D01*
X172766000Y-84871000D01*
G37*
G36*
X155688512Y-82923927D02*
G01*
X155837812Y-82953624D01*
X156001784Y-83021544D01*
X156149354Y-83120147D01*
X156274853Y-83245646D01*
X156373456Y-83393216D01*
X156441376Y-83557188D01*
X156464014Y-83671000D01*
X156472270Y-83712504D01*
X156476000Y-83731259D01*
X156476000Y-83908741D01*
X156441376Y-84082812D01*
X156373456Y-84246784D01*
X156274853Y-84394354D01*
X156149354Y-84519853D01*
X156001784Y-84618456D01*
X155837812Y-84686376D01*
X155688512Y-84716073D01*
X155663742Y-84721000D01*
X155486258Y-84721000D01*
X155461488Y-84716073D01*
X155312188Y-84686376D01*
X155148216Y-84618456D01*
X155000646Y-84519853D01*
X154875147Y-84394354D01*
X154776544Y-84246784D01*
X154708624Y-84082812D01*
X154674000Y-83908741D01*
X154674000Y-83731259D01*
X154677731Y-83712504D01*
X154685986Y-83671000D01*
X154708624Y-83557188D01*
X154776544Y-83393216D01*
X154875147Y-83245646D01*
X155000646Y-83120147D01*
X155148216Y-83021544D01*
X155312188Y-82953624D01*
X155461488Y-82923927D01*
X155486258Y-82919000D01*
X155663742Y-82919000D01*
X155688512Y-82923927D01*
G37*
G36*
X162476000Y-83736000D02*
G01*
X161374000Y-83736000D01*
X161374000Y-82634000D01*
X162476000Y-82634000D01*
X162476000Y-83736000D01*
G37*
G36*
X172766000Y-83671000D02*
G01*
X170264000Y-83671000D01*
X170264000Y-82769000D01*
X172766000Y-82769000D01*
X172766000Y-83671000D01*
G37*
G36*
X184066000Y-83671000D02*
G01*
X181564000Y-83671000D01*
X181564000Y-82769000D01*
X184066000Y-82769000D01*
X184066000Y-83671000D01*
G37*
G36*
X172766000Y-82471000D02*
G01*
X170264000Y-82471000D01*
X170264000Y-81569000D01*
X172766000Y-81569000D01*
X172766000Y-82471000D01*
G37*
G36*
X184066000Y-82471000D02*
G01*
X181564000Y-82471000D01*
X181564000Y-81569000D01*
X184066000Y-81569000D01*
X184066000Y-82471000D01*
G37*
G36*
X156476000Y-82181000D02*
G01*
X154674000Y-82181000D01*
X154674000Y-80379000D01*
X156476000Y-80379000D01*
X156476000Y-82181000D01*
G37*
G36*
X198171000Y-81895000D02*
G01*
X192989000Y-81895000D01*
X192989000Y-80293000D01*
X198171000Y-80293000D01*
X198171000Y-81895000D01*
G37*
G36*
X162476000Y-81831000D02*
G01*
X161374000Y-81831000D01*
X161374000Y-80729000D01*
X162476000Y-80729000D01*
X162476000Y-81831000D01*
G37*
G36*
X172766000Y-81271000D02*
G01*
X170264000Y-81271000D01*
X170264000Y-80369000D01*
X172766000Y-80369000D01*
X172766000Y-81271000D01*
G37*
G36*
X184066000Y-81271000D02*
G01*
X181564000Y-81271000D01*
X181564000Y-80369000D01*
X184066000Y-80369000D01*
X184066000Y-81271000D01*
G37*
M02*
