G04 #@! TF.GenerationSoftware,KiCad,Pcbnew,(5.1.5)-3*
G04 #@! TF.CreationDate,2020-02-12T21:54:59-05:00*
G04 #@! TF.ProjectId,BGM210P_Proto,42474d32-3130-4505-9f50-726f746f2e6b,rev?*
G04 #@! TF.SameCoordinates,Original*
G04 #@! TF.FileFunction,Copper,L2,Bot*
G04 #@! TF.FilePolarity,Positive*
%FSLAX46Y46*%
G04 Gerber Fmt 4.6, Leading zero omitted, Abs format (unit mm)*
G04 Created by KiCad (PCBNEW (5.1.5)-3) date 2020-02-12 21:54:59*
%MOMM*%
%LPD*%
G04 APERTURE LIST*
%ADD10C,0.800000*%
%ADD11C,6.400000*%
%ADD12R,5.080000X1.500000*%
%ADD13O,1.700000X1.700000*%
%ADD14R,1.700000X1.700000*%
%ADD15R,1.000000X1.000000*%
%ADD16O,1.000000X1.000000*%
%ADD17C,0.600000*%
%ADD18C,0.200000*%
%ADD19C,0.160000*%
%ADD20C,0.254000*%
G04 APERTURE END LIST*
D10*
X152697056Y-117802944D03*
X151000000Y-117100000D03*
X149302944Y-117802944D03*
X148600000Y-119500000D03*
X149302944Y-121197056D03*
X151000000Y-121900000D03*
X152697056Y-121197056D03*
X153400000Y-119500000D03*
D11*
X151000000Y-119500000D03*
X200500000Y-109500000D03*
D10*
X202900000Y-109500000D03*
X202197056Y-111197056D03*
X200500000Y-111900000D03*
X198802944Y-111197056D03*
X198100000Y-109500000D03*
X198802944Y-107802944D03*
X200500000Y-107100000D03*
X202197056Y-107802944D03*
X152197056Y-82302944D03*
X150500000Y-81600000D03*
X148802944Y-82302944D03*
X148100000Y-84000000D03*
X148802944Y-85697056D03*
X150500000Y-86400000D03*
X152197056Y-85697056D03*
X152900000Y-84000000D03*
D11*
X150500000Y-84000000D03*
D12*
X195580000Y-89594000D03*
X195580000Y-81094000D03*
D13*
X155575000Y-114300000D03*
X155575000Y-111760000D03*
X155575000Y-109220000D03*
X155575000Y-106680000D03*
X155575000Y-104140000D03*
X155575000Y-101600000D03*
X155575000Y-99060000D03*
X155575000Y-96520000D03*
X155575000Y-93980000D03*
X155575000Y-91440000D03*
X155575000Y-88900000D03*
X155575000Y-86360000D03*
X155575000Y-83820000D03*
D14*
X155575000Y-81280000D03*
D15*
X169545000Y-107315000D03*
D16*
X169545000Y-108585000D03*
X168275000Y-107315000D03*
X168275000Y-108585000D03*
X167005000Y-107315000D03*
X167005000Y-108585000D03*
X165735000Y-107315000D03*
X165735000Y-108585000D03*
X164465000Y-107315000D03*
X164465000Y-108585000D03*
D14*
X149860000Y-114300000D03*
D13*
X149860000Y-111760000D03*
X149860000Y-109220000D03*
X149860000Y-106680000D03*
X149860000Y-104140000D03*
D14*
X198755000Y-117475000D03*
D13*
X196215000Y-117475000D03*
X193675000Y-117475000D03*
X191135000Y-117475000D03*
X188595000Y-117475000D03*
X186055000Y-117475000D03*
X183515000Y-117475000D03*
X180975000Y-117475000D03*
X178435000Y-117475000D03*
X175895000Y-117475000D03*
X173355000Y-117475000D03*
X170815000Y-117475000D03*
X168275000Y-117475000D03*
X165735000Y-117475000D03*
D17*
X167386000Y-97155000D03*
X167640000Y-104140000D03*
X170180000Y-104140000D03*
X172720000Y-104140000D03*
X172720000Y-101600000D03*
X170180000Y-101600000D03*
X167640000Y-101600000D03*
X165100000Y-101600000D03*
X165100000Y-99060000D03*
X165100000Y-96520000D03*
X160020000Y-109220000D03*
X162560000Y-111760000D03*
X160020000Y-111760000D03*
X160020000Y-114300000D03*
X162560000Y-114300000D03*
X162560000Y-116840000D03*
X160020000Y-116840000D03*
X165100000Y-114300000D03*
X165100000Y-111760000D03*
X167640000Y-114300000D03*
X170180000Y-111760000D03*
X172720000Y-109220000D03*
X170180000Y-114300000D03*
X172720000Y-114300000D03*
X175260000Y-114300000D03*
X177800000Y-114300000D03*
X180340000Y-114300000D03*
X182880000Y-114300000D03*
X187960000Y-114300000D03*
X190500000Y-114300000D03*
X193040000Y-114300000D03*
X157480000Y-114300000D03*
X157480000Y-111760000D03*
X157480000Y-116840000D03*
X154940000Y-119380000D03*
X154940000Y-121920000D03*
X157480000Y-121920000D03*
X160020000Y-121920000D03*
X162560000Y-121920000D03*
X165100000Y-121920000D03*
X167640000Y-121920000D03*
X170180000Y-121920000D03*
X172720000Y-121920000D03*
X175260000Y-121920000D03*
X177800000Y-121920000D03*
X180340000Y-121920000D03*
X182880000Y-121920000D03*
X185420000Y-121920000D03*
X187960000Y-121920000D03*
X190500000Y-121920000D03*
X193040000Y-121920000D03*
X195580000Y-121920000D03*
X198120000Y-121920000D03*
X198120000Y-119380000D03*
X195580000Y-119380000D03*
X193040000Y-119380000D03*
X190500000Y-119380000D03*
X187960000Y-119380000D03*
X185420000Y-119380000D03*
X182880000Y-119380000D03*
X180340000Y-119380000D03*
X152400000Y-101600000D03*
X149860000Y-101600000D03*
X149860000Y-99060000D03*
X152400000Y-99060000D03*
X152400000Y-96520000D03*
X149860000Y-96520000D03*
X149860000Y-93980000D03*
X152400000Y-93980000D03*
X152400000Y-91440000D03*
X149860000Y-91440000D03*
X149860000Y-88900000D03*
X152400000Y-88900000D03*
X160020000Y-81280000D03*
X165100000Y-81280000D03*
X167640000Y-81280000D03*
X195580000Y-93980000D03*
X195580000Y-96520000D03*
X198120000Y-96520000D03*
X198120000Y-99060000D03*
X195580000Y-99060000D03*
X195580000Y-101600000D03*
X198120000Y-101600000D03*
X195580000Y-104140000D03*
X198120000Y-106680000D03*
X193040000Y-106680000D03*
X195580000Y-109220000D03*
X195580000Y-111760000D03*
X198120000Y-114300000D03*
X182880000Y-104140000D03*
X182880000Y-101600000D03*
X182880000Y-99060000D03*
X182880000Y-96520000D03*
X170180000Y-96520000D03*
X165100000Y-104140000D03*
X175260000Y-86360000D03*
X177800000Y-86360000D03*
X180340000Y-86360000D03*
X180340000Y-88900000D03*
X177800000Y-88900000D03*
X175260000Y-88900000D03*
X175260000Y-91440000D03*
X177800000Y-91440000D03*
X180340000Y-91440000D03*
X187960000Y-96520000D03*
X187960000Y-99060000D03*
X187960000Y-101600000D03*
X187960000Y-104140000D03*
X190500000Y-104140000D03*
X190500000Y-101600000D03*
X190500000Y-99060000D03*
X190500000Y-96520000D03*
X190500000Y-93980000D03*
X177800000Y-96520000D03*
X177800000Y-99060000D03*
X177800000Y-101600000D03*
X177800000Y-104140000D03*
X174879000Y-98298000D03*
X176784000Y-106045000D03*
X191135000Y-106045000D03*
X160655000Y-92710000D03*
X163882145Y-89939682D03*
X163105913Y-88810913D03*
X188595000Y-110490000D03*
X167005000Y-111125000D03*
X186690000Y-110490000D03*
X167640000Y-110490000D03*
X185249992Y-82169000D03*
X186436000Y-84328000D03*
X185250000Y-84328000D03*
X186436000Y-82169000D03*
X187579000Y-82169000D03*
X187579000Y-84328000D03*
X188722000Y-84328000D03*
X188722000Y-82169000D03*
X189738000Y-84963000D03*
X190500000Y-85852000D03*
X191516000Y-86487000D03*
X192659000Y-86487000D03*
X189865000Y-82169000D03*
X190754000Y-82931000D03*
X191516000Y-83693000D03*
X192532000Y-84328000D03*
D18*
X157607000Y-81280000D02*
X155575000Y-81280000D01*
X167386000Y-97155000D02*
X167386000Y-91059000D01*
X167386000Y-91059000D02*
X157607000Y-81280000D01*
X170245000Y-107315000D02*
X169545000Y-107315000D01*
X174752000Y-107315000D02*
X174879000Y-107188000D01*
X174625000Y-107315000D02*
X174752000Y-107315000D01*
X174879000Y-107315000D02*
X174625000Y-107315000D01*
X174625000Y-107315000D02*
X170245000Y-107315000D01*
X174879000Y-107315000D02*
X174879000Y-107188000D01*
X174879000Y-107188000D02*
X174879000Y-98298000D01*
X175006000Y-107315000D02*
X174879000Y-107188000D01*
X175006000Y-107315000D02*
X174879000Y-107315000D01*
X189611000Y-107315000D02*
X175006000Y-107315000D01*
X198755000Y-117475000D02*
X198755000Y-116459000D01*
X198755000Y-116459000D02*
X189611000Y-107315000D01*
D19*
X190246000Y-106045000D02*
X191135000Y-106045000D01*
X176784000Y-106045000D02*
X190246000Y-106045000D01*
X165384990Y-110205010D02*
X166505001Y-109084999D01*
X166505001Y-109084999D02*
X167005000Y-108585000D01*
X160655000Y-92710000D02*
X160655000Y-107174988D01*
X165201600Y-110388400D02*
X165384990Y-110205010D01*
X163474400Y-110388400D02*
X165201600Y-110388400D01*
X160655000Y-107174988D02*
X160655000Y-107569000D01*
X160655000Y-107569000D02*
X163474400Y-110388400D01*
X165735000Y-91792537D02*
X165735000Y-107315000D01*
X163882145Y-89939682D02*
X165735000Y-91792537D01*
X164600001Y-109855000D02*
X165735000Y-108720001D01*
X163830000Y-109855000D02*
X164600001Y-109855000D01*
X165735000Y-108720001D02*
X165735000Y-108585000D01*
X163105913Y-88810913D02*
X163105913Y-109130913D01*
X163105913Y-109130913D02*
X163830000Y-109855000D01*
X188595000Y-110490000D02*
X187960000Y-111125000D01*
X187960000Y-111125000D02*
X167005000Y-111125000D01*
X186690000Y-110490000D02*
X167640000Y-110490000D01*
X185249992Y-82169000D02*
X185249992Y-84327992D01*
X185249992Y-84327992D02*
X185250000Y-84328000D01*
D20*
G36*
X148379330Y-80782445D02*
G01*
X148338912Y-80809452D01*
X147978724Y-81299119D01*
X150500000Y-83820395D01*
X153021276Y-81299119D01*
X152661088Y-80809452D01*
X152385675Y-80660000D01*
X154086928Y-80660000D01*
X154086928Y-82130000D01*
X154099188Y-82254482D01*
X154135498Y-82374180D01*
X154194463Y-82484494D01*
X154273815Y-82581185D01*
X154370506Y-82660537D01*
X154480820Y-82719502D01*
X154561466Y-82743966D01*
X154477412Y-82819731D01*
X154303359Y-83053080D01*
X154251521Y-83161912D01*
X154069452Y-82547792D01*
X153717555Y-81879330D01*
X153690548Y-81838912D01*
X153200881Y-81478724D01*
X150679605Y-84000000D01*
X153200881Y-86521276D01*
X153690548Y-86161088D01*
X154050849Y-85497118D01*
X154274694Y-84775615D01*
X154296083Y-84571645D01*
X154303359Y-84586920D01*
X154477412Y-84820269D01*
X154693645Y-85015178D01*
X154810534Y-85084805D01*
X154628368Y-85206525D01*
X154421525Y-85413368D01*
X154259010Y-85656589D01*
X154147068Y-85926842D01*
X154090000Y-86213740D01*
X154090000Y-86506260D01*
X154147068Y-86793158D01*
X154259010Y-87063411D01*
X154421525Y-87306632D01*
X154628368Y-87513475D01*
X154802760Y-87630000D01*
X154628368Y-87746525D01*
X154421525Y-87953368D01*
X154259010Y-88196589D01*
X154147068Y-88466842D01*
X154090000Y-88753740D01*
X154090000Y-89046260D01*
X154147068Y-89333158D01*
X154259010Y-89603411D01*
X154421525Y-89846632D01*
X154628368Y-90053475D01*
X154802760Y-90170000D01*
X154628368Y-90286525D01*
X154421525Y-90493368D01*
X154259010Y-90736589D01*
X154147068Y-91006842D01*
X154090000Y-91293740D01*
X154090000Y-91586260D01*
X154147068Y-91873158D01*
X154259010Y-92143411D01*
X154421525Y-92386632D01*
X154628368Y-92593475D01*
X154802760Y-92710000D01*
X154628368Y-92826525D01*
X154421525Y-93033368D01*
X154259010Y-93276589D01*
X154147068Y-93546842D01*
X154090000Y-93833740D01*
X154090000Y-94126260D01*
X154147068Y-94413158D01*
X154259010Y-94683411D01*
X154421525Y-94926632D01*
X154628368Y-95133475D01*
X154802760Y-95250000D01*
X154628368Y-95366525D01*
X154421525Y-95573368D01*
X154259010Y-95816589D01*
X154147068Y-96086842D01*
X154090000Y-96373740D01*
X154090000Y-96666260D01*
X154147068Y-96953158D01*
X154259010Y-97223411D01*
X154421525Y-97466632D01*
X154628368Y-97673475D01*
X154802760Y-97790000D01*
X154628368Y-97906525D01*
X154421525Y-98113368D01*
X154259010Y-98356589D01*
X154147068Y-98626842D01*
X154090000Y-98913740D01*
X154090000Y-99206260D01*
X154147068Y-99493158D01*
X154259010Y-99763411D01*
X154421525Y-100006632D01*
X154628368Y-100213475D01*
X154802760Y-100330000D01*
X154628368Y-100446525D01*
X154421525Y-100653368D01*
X154259010Y-100896589D01*
X154147068Y-101166842D01*
X154090000Y-101453740D01*
X154090000Y-101746260D01*
X154147068Y-102033158D01*
X154259010Y-102303411D01*
X154421525Y-102546632D01*
X154628368Y-102753475D01*
X154802760Y-102870000D01*
X154628368Y-102986525D01*
X154421525Y-103193368D01*
X154259010Y-103436589D01*
X154147068Y-103706842D01*
X154090000Y-103993740D01*
X154090000Y-104286260D01*
X154147068Y-104573158D01*
X154259010Y-104843411D01*
X154421525Y-105086632D01*
X154628368Y-105293475D01*
X154802760Y-105410000D01*
X154628368Y-105526525D01*
X154421525Y-105733368D01*
X154259010Y-105976589D01*
X154147068Y-106246842D01*
X154090000Y-106533740D01*
X154090000Y-106826260D01*
X154147068Y-107113158D01*
X154259010Y-107383411D01*
X154421525Y-107626632D01*
X154628368Y-107833475D01*
X154802760Y-107950000D01*
X154628368Y-108066525D01*
X154421525Y-108273368D01*
X154259010Y-108516589D01*
X154147068Y-108786842D01*
X154090000Y-109073740D01*
X154090000Y-109366260D01*
X154147068Y-109653158D01*
X154259010Y-109923411D01*
X154421525Y-110166632D01*
X154628368Y-110373475D01*
X154802760Y-110490000D01*
X154628368Y-110606525D01*
X154421525Y-110813368D01*
X154259010Y-111056589D01*
X154147068Y-111326842D01*
X154090000Y-111613740D01*
X154090000Y-111906260D01*
X154147068Y-112193158D01*
X154259010Y-112463411D01*
X154421525Y-112706632D01*
X154628368Y-112913475D01*
X154810534Y-113035195D01*
X154693645Y-113104822D01*
X154477412Y-113299731D01*
X154303359Y-113533080D01*
X154178175Y-113795901D01*
X154133524Y-113943110D01*
X154254845Y-114173000D01*
X155448000Y-114173000D01*
X155448000Y-114153000D01*
X155702000Y-114153000D01*
X155702000Y-114173000D01*
X156895155Y-114173000D01*
X157016476Y-113943110D01*
X156971825Y-113795901D01*
X156846641Y-113533080D01*
X156672588Y-113299731D01*
X156456355Y-113104822D01*
X156339466Y-113035195D01*
X156521632Y-112913475D01*
X156728475Y-112706632D01*
X156890990Y-112463411D01*
X157002932Y-112193158D01*
X157060000Y-111906260D01*
X157060000Y-111613740D01*
X157002932Y-111326842D01*
X156890990Y-111056589D01*
X156728475Y-110813368D01*
X156521632Y-110606525D01*
X156347240Y-110490000D01*
X156521632Y-110373475D01*
X156728475Y-110166632D01*
X156890990Y-109923411D01*
X157002932Y-109653158D01*
X157060000Y-109366260D01*
X157060000Y-109073740D01*
X157002932Y-108786842D01*
X156890990Y-108516589D01*
X156728475Y-108273368D01*
X156521632Y-108066525D01*
X156347240Y-107950000D01*
X156521632Y-107833475D01*
X156728475Y-107626632D01*
X156890990Y-107383411D01*
X157002932Y-107113158D01*
X157060000Y-106826260D01*
X157060000Y-106533740D01*
X157002932Y-106246842D01*
X156890990Y-105976589D01*
X156728475Y-105733368D01*
X156521632Y-105526525D01*
X156347240Y-105410000D01*
X156521632Y-105293475D01*
X156728475Y-105086632D01*
X156890990Y-104843411D01*
X157002932Y-104573158D01*
X157060000Y-104286260D01*
X157060000Y-103993740D01*
X157002932Y-103706842D01*
X156890990Y-103436589D01*
X156728475Y-103193368D01*
X156521632Y-102986525D01*
X156347240Y-102870000D01*
X156521632Y-102753475D01*
X156728475Y-102546632D01*
X156890990Y-102303411D01*
X157002932Y-102033158D01*
X157060000Y-101746260D01*
X157060000Y-101453740D01*
X157002932Y-101166842D01*
X156890990Y-100896589D01*
X156728475Y-100653368D01*
X156521632Y-100446525D01*
X156347240Y-100330000D01*
X156521632Y-100213475D01*
X156728475Y-100006632D01*
X156890990Y-99763411D01*
X157002932Y-99493158D01*
X157060000Y-99206260D01*
X157060000Y-98913740D01*
X157002932Y-98626842D01*
X156890990Y-98356589D01*
X156728475Y-98113368D01*
X156521632Y-97906525D01*
X156347240Y-97790000D01*
X156521632Y-97673475D01*
X156728475Y-97466632D01*
X156890990Y-97223411D01*
X157002932Y-96953158D01*
X157060000Y-96666260D01*
X157060000Y-96373740D01*
X157002932Y-96086842D01*
X156890990Y-95816589D01*
X156728475Y-95573368D01*
X156521632Y-95366525D01*
X156347240Y-95250000D01*
X156521632Y-95133475D01*
X156728475Y-94926632D01*
X156890990Y-94683411D01*
X157002932Y-94413158D01*
X157060000Y-94126260D01*
X157060000Y-93833740D01*
X157002932Y-93546842D01*
X156890990Y-93276589D01*
X156728475Y-93033368D01*
X156521632Y-92826525D01*
X156347240Y-92710000D01*
X156521632Y-92593475D01*
X156728475Y-92386632D01*
X156890990Y-92143411D01*
X157002932Y-91873158D01*
X157060000Y-91586260D01*
X157060000Y-91293740D01*
X157002932Y-91006842D01*
X156890990Y-90736589D01*
X156728475Y-90493368D01*
X156521632Y-90286525D01*
X156347240Y-90170000D01*
X156521632Y-90053475D01*
X156728475Y-89846632D01*
X156890990Y-89603411D01*
X157002932Y-89333158D01*
X157060000Y-89046260D01*
X157060000Y-88753740D01*
X157002932Y-88466842D01*
X156890990Y-88196589D01*
X156728475Y-87953368D01*
X156521632Y-87746525D01*
X156347240Y-87630000D01*
X156521632Y-87513475D01*
X156728475Y-87306632D01*
X156890990Y-87063411D01*
X157002932Y-86793158D01*
X157060000Y-86506260D01*
X157060000Y-86213740D01*
X157002932Y-85926842D01*
X156890990Y-85656589D01*
X156728475Y-85413368D01*
X156521632Y-85206525D01*
X156339466Y-85084805D01*
X156456355Y-85015178D01*
X156672588Y-84820269D01*
X156846641Y-84586920D01*
X156971825Y-84324099D01*
X157016476Y-84176890D01*
X156895155Y-83947000D01*
X155702000Y-83947000D01*
X155702000Y-83967000D01*
X155448000Y-83967000D01*
X155448000Y-83947000D01*
X155428000Y-83947000D01*
X155428000Y-83693000D01*
X155448000Y-83693000D01*
X155448000Y-83673000D01*
X155702000Y-83673000D01*
X155702000Y-83693000D01*
X156895155Y-83693000D01*
X157016476Y-83463110D01*
X156971825Y-83315901D01*
X156846641Y-83053080D01*
X156672588Y-82819731D01*
X156588534Y-82743966D01*
X156669180Y-82719502D01*
X156779494Y-82660537D01*
X156876185Y-82581185D01*
X156955537Y-82484494D01*
X157014502Y-82374180D01*
X157050812Y-82254482D01*
X157063072Y-82130000D01*
X157063072Y-82015000D01*
X157302554Y-82015000D01*
X163163466Y-87875913D01*
X163013824Y-87875913D01*
X162833184Y-87911845D01*
X162663024Y-87982327D01*
X162509885Y-88084651D01*
X162379651Y-88214885D01*
X162277327Y-88368024D01*
X162206845Y-88538184D01*
X162170913Y-88718824D01*
X162170913Y-88903002D01*
X162206845Y-89083642D01*
X162277327Y-89253802D01*
X162379651Y-89406941D01*
X162390913Y-89418203D01*
X162390914Y-108293752D01*
X161370000Y-107272839D01*
X161370000Y-93317290D01*
X161381262Y-93306028D01*
X161483586Y-93152889D01*
X161554068Y-92982729D01*
X161590000Y-92802089D01*
X161590000Y-92617911D01*
X161554068Y-92437271D01*
X161483586Y-92267111D01*
X161381262Y-92113972D01*
X161251028Y-91983738D01*
X161097889Y-91881414D01*
X160927729Y-91810932D01*
X160747089Y-91775000D01*
X160562911Y-91775000D01*
X160382271Y-91810932D01*
X160212111Y-91881414D01*
X160058972Y-91983738D01*
X159928738Y-92113972D01*
X159826414Y-92267111D01*
X159755932Y-92437271D01*
X159720000Y-92617911D01*
X159720000Y-92802089D01*
X159755932Y-92982729D01*
X159826414Y-93152889D01*
X159928738Y-93306028D01*
X159940000Y-93317290D01*
X159940001Y-107139859D01*
X159940000Y-107139869D01*
X159940000Y-107533890D01*
X159936542Y-107569000D01*
X159940000Y-107604110D01*
X159940000Y-107604120D01*
X159950346Y-107709164D01*
X159991230Y-107843942D01*
X160057623Y-107968154D01*
X160146974Y-108077027D01*
X160174255Y-108099416D01*
X162943988Y-110869151D01*
X162966373Y-110896427D01*
X162993648Y-110918811D01*
X162993652Y-110918815D01*
X163056933Y-110970748D01*
X163075246Y-110985777D01*
X163199458Y-111052170D01*
X163289814Y-111079579D01*
X163334235Y-111093054D01*
X163346348Y-111094247D01*
X163439280Y-111103400D01*
X163439288Y-111103400D01*
X163474400Y-111106858D01*
X163509512Y-111103400D01*
X165166490Y-111103400D01*
X165201600Y-111106858D01*
X165236710Y-111103400D01*
X165236720Y-111103400D01*
X165341764Y-111093054D01*
X165476542Y-111052170D01*
X165600754Y-110985777D01*
X165709627Y-110896427D01*
X165732020Y-110869142D01*
X165915405Y-110685757D01*
X165915409Y-110685752D01*
X166883162Y-109718001D01*
X166893212Y-109720000D01*
X167109431Y-109720000D01*
X167043972Y-109763738D01*
X166913738Y-109893972D01*
X166811414Y-110047111D01*
X166740932Y-110217271D01*
X166739495Y-110224495D01*
X166732271Y-110225932D01*
X166562111Y-110296414D01*
X166408972Y-110398738D01*
X166278738Y-110528972D01*
X166176414Y-110682111D01*
X166105932Y-110852271D01*
X166070000Y-111032911D01*
X166070000Y-111217089D01*
X166105932Y-111397729D01*
X166176414Y-111567889D01*
X166278738Y-111721028D01*
X166408972Y-111851262D01*
X166562111Y-111953586D01*
X166732271Y-112024068D01*
X166912911Y-112060000D01*
X167097089Y-112060000D01*
X167277729Y-112024068D01*
X167447889Y-111953586D01*
X167601028Y-111851262D01*
X167612290Y-111840000D01*
X187924890Y-111840000D01*
X187960000Y-111843458D01*
X187995110Y-111840000D01*
X187995120Y-111840000D01*
X188100164Y-111829654D01*
X188234942Y-111788770D01*
X188359154Y-111722377D01*
X188468027Y-111633027D01*
X188490420Y-111605741D01*
X188671162Y-111425000D01*
X188687089Y-111425000D01*
X188867729Y-111389068D01*
X189037889Y-111318586D01*
X189191028Y-111216262D01*
X189321262Y-111086028D01*
X189423586Y-110932889D01*
X189494068Y-110762729D01*
X189530000Y-110582089D01*
X189530000Y-110397911D01*
X189494068Y-110217271D01*
X189423586Y-110047111D01*
X189321262Y-109893972D01*
X189191028Y-109763738D01*
X189037889Y-109661414D01*
X188867729Y-109590932D01*
X188687089Y-109555000D01*
X188502911Y-109555000D01*
X188322271Y-109590932D01*
X188152111Y-109661414D01*
X187998972Y-109763738D01*
X187868738Y-109893972D01*
X187766414Y-110047111D01*
X187695932Y-110217271D01*
X187660000Y-110397911D01*
X187660000Y-110410000D01*
X187625000Y-110410000D01*
X187625000Y-110397911D01*
X187589068Y-110217271D01*
X187518586Y-110047111D01*
X187416262Y-109893972D01*
X187286028Y-109763738D01*
X187132889Y-109661414D01*
X186962729Y-109590932D01*
X186782089Y-109555000D01*
X186597911Y-109555000D01*
X186417271Y-109590932D01*
X186247111Y-109661414D01*
X186093972Y-109763738D01*
X186082710Y-109775000D01*
X168247290Y-109775000D01*
X168236028Y-109763738D01*
X168170569Y-109720000D01*
X168386788Y-109720000D01*
X168606067Y-109676383D01*
X168812624Y-109590824D01*
X168914658Y-109522647D01*
X168984794Y-109572123D01*
X169188136Y-109662446D01*
X169243126Y-109679119D01*
X169418000Y-109552954D01*
X169418000Y-108712000D01*
X169672000Y-108712000D01*
X169672000Y-109552954D01*
X169846874Y-109679119D01*
X169901864Y-109662446D01*
X170105206Y-109572123D01*
X170287020Y-109443865D01*
X170440318Y-109282601D01*
X170559210Y-109094529D01*
X170639126Y-108886876D01*
X170514129Y-108712000D01*
X169672000Y-108712000D01*
X169418000Y-108712000D01*
X169406974Y-108712000D01*
X169410000Y-108696788D01*
X169410000Y-108473212D01*
X169406974Y-108458000D01*
X169418000Y-108458000D01*
X169418000Y-108453072D01*
X169672000Y-108453072D01*
X169672000Y-108458000D01*
X170514129Y-108458000D01*
X170639126Y-108283124D01*
X170587082Y-108147894D01*
X170634502Y-108059180D01*
X170637287Y-108050000D01*
X174715895Y-108050000D01*
X174752000Y-108053556D01*
X174788105Y-108050000D01*
X174842895Y-108050000D01*
X174879000Y-108053556D01*
X174915105Y-108050000D01*
X174969902Y-108050000D01*
X175005999Y-108053555D01*
X175042096Y-108050000D01*
X189306554Y-108050000D01*
X197443246Y-116186693D01*
X197374463Y-116270506D01*
X197315498Y-116380820D01*
X197291034Y-116461466D01*
X197215269Y-116377412D01*
X196981920Y-116203359D01*
X196719099Y-116078175D01*
X196571890Y-116033524D01*
X196342000Y-116154845D01*
X196342000Y-117348000D01*
X196362000Y-117348000D01*
X196362000Y-117602000D01*
X196342000Y-117602000D01*
X196342000Y-118795155D01*
X196571890Y-118916476D01*
X196719099Y-118871825D01*
X196981920Y-118746641D01*
X197215269Y-118572588D01*
X197291034Y-118488534D01*
X197315498Y-118569180D01*
X197374463Y-118679494D01*
X197453815Y-118776185D01*
X197550506Y-118855537D01*
X197660820Y-118914502D01*
X197780518Y-118950812D01*
X197905000Y-118963072D01*
X198873000Y-118963072D01*
X198873000Y-122340000D01*
X153418943Y-122340000D01*
X153521276Y-122200881D01*
X151000000Y-119679605D01*
X148478724Y-122200881D01*
X148581057Y-122340000D01*
X147660000Y-122340000D01*
X147660000Y-121388074D01*
X147782445Y-121620670D01*
X147809452Y-121661088D01*
X148299119Y-122021276D01*
X150820395Y-119500000D01*
X151179605Y-119500000D01*
X153700881Y-122021276D01*
X154190548Y-121661088D01*
X154550849Y-120997118D01*
X154774694Y-120275615D01*
X154853480Y-119524305D01*
X154784178Y-118772062D01*
X154569452Y-118047792D01*
X154455796Y-117831891D01*
X164293519Y-117831891D01*
X164390843Y-118106252D01*
X164539822Y-118356355D01*
X164734731Y-118572588D01*
X164968080Y-118746641D01*
X165230901Y-118871825D01*
X165378110Y-118916476D01*
X165608000Y-118795155D01*
X165608000Y-117602000D01*
X164414186Y-117602000D01*
X164293519Y-117831891D01*
X154455796Y-117831891D01*
X154217555Y-117379330D01*
X154190548Y-117338912D01*
X153890372Y-117118109D01*
X164293519Y-117118109D01*
X164414186Y-117348000D01*
X165608000Y-117348000D01*
X165608000Y-116154845D01*
X165862000Y-116154845D01*
X165862000Y-117348000D01*
X165882000Y-117348000D01*
X165882000Y-117602000D01*
X165862000Y-117602000D01*
X165862000Y-118795155D01*
X166091890Y-118916476D01*
X166239099Y-118871825D01*
X166501920Y-118746641D01*
X166735269Y-118572588D01*
X166930178Y-118356355D01*
X166999805Y-118239466D01*
X167121525Y-118421632D01*
X167328368Y-118628475D01*
X167571589Y-118790990D01*
X167841842Y-118902932D01*
X168128740Y-118960000D01*
X168421260Y-118960000D01*
X168708158Y-118902932D01*
X168978411Y-118790990D01*
X169221632Y-118628475D01*
X169428475Y-118421632D01*
X169545000Y-118247240D01*
X169661525Y-118421632D01*
X169868368Y-118628475D01*
X170111589Y-118790990D01*
X170381842Y-118902932D01*
X170668740Y-118960000D01*
X170961260Y-118960000D01*
X171248158Y-118902932D01*
X171518411Y-118790990D01*
X171761632Y-118628475D01*
X171968475Y-118421632D01*
X172085000Y-118247240D01*
X172201525Y-118421632D01*
X172408368Y-118628475D01*
X172651589Y-118790990D01*
X172921842Y-118902932D01*
X173208740Y-118960000D01*
X173501260Y-118960000D01*
X173788158Y-118902932D01*
X174058411Y-118790990D01*
X174301632Y-118628475D01*
X174508475Y-118421632D01*
X174630195Y-118239466D01*
X174699822Y-118356355D01*
X174894731Y-118572588D01*
X175128080Y-118746641D01*
X175390901Y-118871825D01*
X175538110Y-118916476D01*
X175768000Y-118795155D01*
X175768000Y-117602000D01*
X175748000Y-117602000D01*
X175748000Y-117348000D01*
X175768000Y-117348000D01*
X175768000Y-116154845D01*
X176022000Y-116154845D01*
X176022000Y-117348000D01*
X176042000Y-117348000D01*
X176042000Y-117602000D01*
X176022000Y-117602000D01*
X176022000Y-118795155D01*
X176251890Y-118916476D01*
X176399099Y-118871825D01*
X176661920Y-118746641D01*
X176895269Y-118572588D01*
X177090178Y-118356355D01*
X177159805Y-118239466D01*
X177281525Y-118421632D01*
X177488368Y-118628475D01*
X177731589Y-118790990D01*
X178001842Y-118902932D01*
X178288740Y-118960000D01*
X178581260Y-118960000D01*
X178868158Y-118902932D01*
X179138411Y-118790990D01*
X179381632Y-118628475D01*
X179588475Y-118421632D01*
X179705000Y-118247240D01*
X179821525Y-118421632D01*
X180028368Y-118628475D01*
X180271589Y-118790990D01*
X180541842Y-118902932D01*
X180828740Y-118960000D01*
X181121260Y-118960000D01*
X181408158Y-118902932D01*
X181678411Y-118790990D01*
X181921632Y-118628475D01*
X182128475Y-118421632D01*
X182245000Y-118247240D01*
X182361525Y-118421632D01*
X182568368Y-118628475D01*
X182811589Y-118790990D01*
X183081842Y-118902932D01*
X183368740Y-118960000D01*
X183661260Y-118960000D01*
X183948158Y-118902932D01*
X184218411Y-118790990D01*
X184461632Y-118628475D01*
X184668475Y-118421632D01*
X184785000Y-118247240D01*
X184901525Y-118421632D01*
X185108368Y-118628475D01*
X185351589Y-118790990D01*
X185621842Y-118902932D01*
X185908740Y-118960000D01*
X186201260Y-118960000D01*
X186488158Y-118902932D01*
X186758411Y-118790990D01*
X187001632Y-118628475D01*
X187208475Y-118421632D01*
X187325000Y-118247240D01*
X187441525Y-118421632D01*
X187648368Y-118628475D01*
X187891589Y-118790990D01*
X188161842Y-118902932D01*
X188448740Y-118960000D01*
X188741260Y-118960000D01*
X189028158Y-118902932D01*
X189298411Y-118790990D01*
X189541632Y-118628475D01*
X189748475Y-118421632D01*
X189865000Y-118247240D01*
X189981525Y-118421632D01*
X190188368Y-118628475D01*
X190431589Y-118790990D01*
X190701842Y-118902932D01*
X190988740Y-118960000D01*
X191281260Y-118960000D01*
X191568158Y-118902932D01*
X191838411Y-118790990D01*
X192081632Y-118628475D01*
X192288475Y-118421632D01*
X192405000Y-118247240D01*
X192521525Y-118421632D01*
X192728368Y-118628475D01*
X192971589Y-118790990D01*
X193241842Y-118902932D01*
X193528740Y-118960000D01*
X193821260Y-118960000D01*
X194108158Y-118902932D01*
X194378411Y-118790990D01*
X194621632Y-118628475D01*
X194828475Y-118421632D01*
X194950195Y-118239466D01*
X195019822Y-118356355D01*
X195214731Y-118572588D01*
X195448080Y-118746641D01*
X195710901Y-118871825D01*
X195858110Y-118916476D01*
X196088000Y-118795155D01*
X196088000Y-117602000D01*
X196068000Y-117602000D01*
X196068000Y-117348000D01*
X196088000Y-117348000D01*
X196088000Y-116154845D01*
X195858110Y-116033524D01*
X195710901Y-116078175D01*
X195448080Y-116203359D01*
X195214731Y-116377412D01*
X195019822Y-116593645D01*
X194950195Y-116710534D01*
X194828475Y-116528368D01*
X194621632Y-116321525D01*
X194378411Y-116159010D01*
X194108158Y-116047068D01*
X193821260Y-115990000D01*
X193528740Y-115990000D01*
X193241842Y-116047068D01*
X192971589Y-116159010D01*
X192728368Y-116321525D01*
X192521525Y-116528368D01*
X192405000Y-116702760D01*
X192288475Y-116528368D01*
X192081632Y-116321525D01*
X191838411Y-116159010D01*
X191568158Y-116047068D01*
X191281260Y-115990000D01*
X190988740Y-115990000D01*
X190701842Y-116047068D01*
X190431589Y-116159010D01*
X190188368Y-116321525D01*
X189981525Y-116528368D01*
X189865000Y-116702760D01*
X189748475Y-116528368D01*
X189541632Y-116321525D01*
X189298411Y-116159010D01*
X189028158Y-116047068D01*
X188741260Y-115990000D01*
X188448740Y-115990000D01*
X188161842Y-116047068D01*
X187891589Y-116159010D01*
X187648368Y-116321525D01*
X187441525Y-116528368D01*
X187325000Y-116702760D01*
X187208475Y-116528368D01*
X187001632Y-116321525D01*
X186758411Y-116159010D01*
X186488158Y-116047068D01*
X186201260Y-115990000D01*
X185908740Y-115990000D01*
X185621842Y-116047068D01*
X185351589Y-116159010D01*
X185108368Y-116321525D01*
X184901525Y-116528368D01*
X184785000Y-116702760D01*
X184668475Y-116528368D01*
X184461632Y-116321525D01*
X184218411Y-116159010D01*
X183948158Y-116047068D01*
X183661260Y-115990000D01*
X183368740Y-115990000D01*
X183081842Y-116047068D01*
X182811589Y-116159010D01*
X182568368Y-116321525D01*
X182361525Y-116528368D01*
X182245000Y-116702760D01*
X182128475Y-116528368D01*
X181921632Y-116321525D01*
X181678411Y-116159010D01*
X181408158Y-116047068D01*
X181121260Y-115990000D01*
X180828740Y-115990000D01*
X180541842Y-116047068D01*
X180271589Y-116159010D01*
X180028368Y-116321525D01*
X179821525Y-116528368D01*
X179705000Y-116702760D01*
X179588475Y-116528368D01*
X179381632Y-116321525D01*
X179138411Y-116159010D01*
X178868158Y-116047068D01*
X178581260Y-115990000D01*
X178288740Y-115990000D01*
X178001842Y-116047068D01*
X177731589Y-116159010D01*
X177488368Y-116321525D01*
X177281525Y-116528368D01*
X177159805Y-116710534D01*
X177090178Y-116593645D01*
X176895269Y-116377412D01*
X176661920Y-116203359D01*
X176399099Y-116078175D01*
X176251890Y-116033524D01*
X176022000Y-116154845D01*
X175768000Y-116154845D01*
X175538110Y-116033524D01*
X175390901Y-116078175D01*
X175128080Y-116203359D01*
X174894731Y-116377412D01*
X174699822Y-116593645D01*
X174630195Y-116710534D01*
X174508475Y-116528368D01*
X174301632Y-116321525D01*
X174058411Y-116159010D01*
X173788158Y-116047068D01*
X173501260Y-115990000D01*
X173208740Y-115990000D01*
X172921842Y-116047068D01*
X172651589Y-116159010D01*
X172408368Y-116321525D01*
X172201525Y-116528368D01*
X172085000Y-116702760D01*
X171968475Y-116528368D01*
X171761632Y-116321525D01*
X171518411Y-116159010D01*
X171248158Y-116047068D01*
X170961260Y-115990000D01*
X170668740Y-115990000D01*
X170381842Y-116047068D01*
X170111589Y-116159010D01*
X169868368Y-116321525D01*
X169661525Y-116528368D01*
X169545000Y-116702760D01*
X169428475Y-116528368D01*
X169221632Y-116321525D01*
X168978411Y-116159010D01*
X168708158Y-116047068D01*
X168421260Y-115990000D01*
X168128740Y-115990000D01*
X167841842Y-116047068D01*
X167571589Y-116159010D01*
X167328368Y-116321525D01*
X167121525Y-116528368D01*
X166999805Y-116710534D01*
X166930178Y-116593645D01*
X166735269Y-116377412D01*
X166501920Y-116203359D01*
X166239099Y-116078175D01*
X166091890Y-116033524D01*
X165862000Y-116154845D01*
X165608000Y-116154845D01*
X165378110Y-116033524D01*
X165230901Y-116078175D01*
X164968080Y-116203359D01*
X164734731Y-116377412D01*
X164539822Y-116593645D01*
X164390843Y-116843748D01*
X164293519Y-117118109D01*
X153890372Y-117118109D01*
X153700881Y-116978724D01*
X151179605Y-119500000D01*
X150820395Y-119500000D01*
X148299119Y-116978724D01*
X147809452Y-117338912D01*
X147660000Y-117614325D01*
X147660000Y-116799119D01*
X148478724Y-116799119D01*
X151000000Y-119320395D01*
X153521276Y-116799119D01*
X153161088Y-116309452D01*
X152497118Y-115949151D01*
X151775615Y-115725306D01*
X151096694Y-115654111D01*
X151161185Y-115601185D01*
X151240537Y-115504494D01*
X151299502Y-115394180D01*
X151335812Y-115274482D01*
X151348072Y-115150000D01*
X151345388Y-114656890D01*
X154133524Y-114656890D01*
X154178175Y-114804099D01*
X154303359Y-115066920D01*
X154477412Y-115300269D01*
X154693645Y-115495178D01*
X154943748Y-115644157D01*
X155218109Y-115741481D01*
X155448000Y-115620814D01*
X155448000Y-114427000D01*
X155702000Y-114427000D01*
X155702000Y-115620814D01*
X155931891Y-115741481D01*
X156206252Y-115644157D01*
X156456355Y-115495178D01*
X156672588Y-115300269D01*
X156846641Y-115066920D01*
X156971825Y-114804099D01*
X157016476Y-114656890D01*
X156895155Y-114427000D01*
X155702000Y-114427000D01*
X155448000Y-114427000D01*
X154254845Y-114427000D01*
X154133524Y-114656890D01*
X151345388Y-114656890D01*
X151345000Y-114585750D01*
X151186250Y-114427000D01*
X149987000Y-114427000D01*
X149987000Y-115626250D01*
X150121276Y-115760526D01*
X149547792Y-115930548D01*
X148879330Y-116282445D01*
X148838912Y-116309452D01*
X148478724Y-116799119D01*
X147660000Y-116799119D01*
X147660000Y-115150000D01*
X148371928Y-115150000D01*
X148384188Y-115274482D01*
X148420498Y-115394180D01*
X148479463Y-115504494D01*
X148558815Y-115601185D01*
X148655506Y-115680537D01*
X148765820Y-115739502D01*
X148885518Y-115775812D01*
X149010000Y-115788072D01*
X149574250Y-115785000D01*
X149733000Y-115626250D01*
X149733000Y-114427000D01*
X148533750Y-114427000D01*
X148375000Y-114585750D01*
X148371928Y-115150000D01*
X147660000Y-115150000D01*
X147660000Y-113450000D01*
X148371928Y-113450000D01*
X148375000Y-114014250D01*
X148533750Y-114173000D01*
X149733000Y-114173000D01*
X149733000Y-114153000D01*
X149987000Y-114153000D01*
X149987000Y-114173000D01*
X151186250Y-114173000D01*
X151345000Y-114014250D01*
X151348072Y-113450000D01*
X151335812Y-113325518D01*
X151299502Y-113205820D01*
X151240537Y-113095506D01*
X151161185Y-112998815D01*
X151064494Y-112919463D01*
X150954180Y-112860498D01*
X150881620Y-112838487D01*
X151013475Y-112706632D01*
X151175990Y-112463411D01*
X151287932Y-112193158D01*
X151345000Y-111906260D01*
X151345000Y-111613740D01*
X151287932Y-111326842D01*
X151175990Y-111056589D01*
X151013475Y-110813368D01*
X150806632Y-110606525D01*
X150632240Y-110490000D01*
X150806632Y-110373475D01*
X151013475Y-110166632D01*
X151175990Y-109923411D01*
X151287932Y-109653158D01*
X151345000Y-109366260D01*
X151345000Y-109073740D01*
X151287932Y-108786842D01*
X151175990Y-108516589D01*
X151013475Y-108273368D01*
X150806632Y-108066525D01*
X150632240Y-107950000D01*
X150806632Y-107833475D01*
X151013475Y-107626632D01*
X151175990Y-107383411D01*
X151287932Y-107113158D01*
X151345000Y-106826260D01*
X151345000Y-106533740D01*
X151287932Y-106246842D01*
X151175990Y-105976589D01*
X151013475Y-105733368D01*
X150806632Y-105526525D01*
X150632240Y-105410000D01*
X150806632Y-105293475D01*
X151013475Y-105086632D01*
X151175990Y-104843411D01*
X151287932Y-104573158D01*
X151345000Y-104286260D01*
X151345000Y-103993740D01*
X151287932Y-103706842D01*
X151175990Y-103436589D01*
X151013475Y-103193368D01*
X150806632Y-102986525D01*
X150563411Y-102824010D01*
X150293158Y-102712068D01*
X150006260Y-102655000D01*
X149713740Y-102655000D01*
X149426842Y-102712068D01*
X149156589Y-102824010D01*
X148913368Y-102986525D01*
X148706525Y-103193368D01*
X148544010Y-103436589D01*
X148432068Y-103706842D01*
X148375000Y-103993740D01*
X148375000Y-104286260D01*
X148432068Y-104573158D01*
X148544010Y-104843411D01*
X148706525Y-105086632D01*
X148913368Y-105293475D01*
X149087760Y-105410000D01*
X148913368Y-105526525D01*
X148706525Y-105733368D01*
X148544010Y-105976589D01*
X148432068Y-106246842D01*
X148375000Y-106533740D01*
X148375000Y-106826260D01*
X148432068Y-107113158D01*
X148544010Y-107383411D01*
X148706525Y-107626632D01*
X148913368Y-107833475D01*
X149087760Y-107950000D01*
X148913368Y-108066525D01*
X148706525Y-108273368D01*
X148544010Y-108516589D01*
X148432068Y-108786842D01*
X148375000Y-109073740D01*
X148375000Y-109366260D01*
X148432068Y-109653158D01*
X148544010Y-109923411D01*
X148706525Y-110166632D01*
X148913368Y-110373475D01*
X149087760Y-110490000D01*
X148913368Y-110606525D01*
X148706525Y-110813368D01*
X148544010Y-111056589D01*
X148432068Y-111326842D01*
X148375000Y-111613740D01*
X148375000Y-111906260D01*
X148432068Y-112193158D01*
X148544010Y-112463411D01*
X148706525Y-112706632D01*
X148838380Y-112838487D01*
X148765820Y-112860498D01*
X148655506Y-112919463D01*
X148558815Y-112998815D01*
X148479463Y-113095506D01*
X148420498Y-113205820D01*
X148384188Y-113325518D01*
X148371928Y-113450000D01*
X147660000Y-113450000D01*
X147660000Y-86700881D01*
X147978724Y-86700881D01*
X148338912Y-87190548D01*
X149002882Y-87550849D01*
X149724385Y-87774694D01*
X150475695Y-87853480D01*
X151227938Y-87784178D01*
X151952208Y-87569452D01*
X152620670Y-87217555D01*
X152661088Y-87190548D01*
X153021276Y-86700881D01*
X150500000Y-84179605D01*
X147978724Y-86700881D01*
X147660000Y-86700881D01*
X147660000Y-86418943D01*
X147799119Y-86521276D01*
X150320395Y-84000000D01*
X147799119Y-81478724D01*
X147660000Y-81581057D01*
X147660000Y-80660000D01*
X148611926Y-80660000D01*
X148379330Y-80782445D01*
G37*
X148379330Y-80782445D02*
X148338912Y-80809452D01*
X147978724Y-81299119D01*
X150500000Y-83820395D01*
X153021276Y-81299119D01*
X152661088Y-80809452D01*
X152385675Y-80660000D01*
X154086928Y-80660000D01*
X154086928Y-82130000D01*
X154099188Y-82254482D01*
X154135498Y-82374180D01*
X154194463Y-82484494D01*
X154273815Y-82581185D01*
X154370506Y-82660537D01*
X154480820Y-82719502D01*
X154561466Y-82743966D01*
X154477412Y-82819731D01*
X154303359Y-83053080D01*
X154251521Y-83161912D01*
X154069452Y-82547792D01*
X153717555Y-81879330D01*
X153690548Y-81838912D01*
X153200881Y-81478724D01*
X150679605Y-84000000D01*
X153200881Y-86521276D01*
X153690548Y-86161088D01*
X154050849Y-85497118D01*
X154274694Y-84775615D01*
X154296083Y-84571645D01*
X154303359Y-84586920D01*
X154477412Y-84820269D01*
X154693645Y-85015178D01*
X154810534Y-85084805D01*
X154628368Y-85206525D01*
X154421525Y-85413368D01*
X154259010Y-85656589D01*
X154147068Y-85926842D01*
X154090000Y-86213740D01*
X154090000Y-86506260D01*
X154147068Y-86793158D01*
X154259010Y-87063411D01*
X154421525Y-87306632D01*
X154628368Y-87513475D01*
X154802760Y-87630000D01*
X154628368Y-87746525D01*
X154421525Y-87953368D01*
X154259010Y-88196589D01*
X154147068Y-88466842D01*
X154090000Y-88753740D01*
X154090000Y-89046260D01*
X154147068Y-89333158D01*
X154259010Y-89603411D01*
X154421525Y-89846632D01*
X154628368Y-90053475D01*
X154802760Y-90170000D01*
X154628368Y-90286525D01*
X154421525Y-90493368D01*
X154259010Y-90736589D01*
X154147068Y-91006842D01*
X154090000Y-91293740D01*
X154090000Y-91586260D01*
X154147068Y-91873158D01*
X154259010Y-92143411D01*
X154421525Y-92386632D01*
X154628368Y-92593475D01*
X154802760Y-92710000D01*
X154628368Y-92826525D01*
X154421525Y-93033368D01*
X154259010Y-93276589D01*
X154147068Y-93546842D01*
X154090000Y-93833740D01*
X154090000Y-94126260D01*
X154147068Y-94413158D01*
X154259010Y-94683411D01*
X154421525Y-94926632D01*
X154628368Y-95133475D01*
X154802760Y-95250000D01*
X154628368Y-95366525D01*
X154421525Y-95573368D01*
X154259010Y-95816589D01*
X154147068Y-96086842D01*
X154090000Y-96373740D01*
X154090000Y-96666260D01*
X154147068Y-96953158D01*
X154259010Y-97223411D01*
X154421525Y-97466632D01*
X154628368Y-97673475D01*
X154802760Y-97790000D01*
X154628368Y-97906525D01*
X154421525Y-98113368D01*
X154259010Y-98356589D01*
X154147068Y-98626842D01*
X154090000Y-98913740D01*
X154090000Y-99206260D01*
X154147068Y-99493158D01*
X154259010Y-99763411D01*
X154421525Y-100006632D01*
X154628368Y-100213475D01*
X154802760Y-100330000D01*
X154628368Y-100446525D01*
X154421525Y-100653368D01*
X154259010Y-100896589D01*
X154147068Y-101166842D01*
X154090000Y-101453740D01*
X154090000Y-101746260D01*
X154147068Y-102033158D01*
X154259010Y-102303411D01*
X154421525Y-102546632D01*
X154628368Y-102753475D01*
X154802760Y-102870000D01*
X154628368Y-102986525D01*
X154421525Y-103193368D01*
X154259010Y-103436589D01*
X154147068Y-103706842D01*
X154090000Y-103993740D01*
X154090000Y-104286260D01*
X154147068Y-104573158D01*
X154259010Y-104843411D01*
X154421525Y-105086632D01*
X154628368Y-105293475D01*
X154802760Y-105410000D01*
X154628368Y-105526525D01*
X154421525Y-105733368D01*
X154259010Y-105976589D01*
X154147068Y-106246842D01*
X154090000Y-106533740D01*
X154090000Y-106826260D01*
X154147068Y-107113158D01*
X154259010Y-107383411D01*
X154421525Y-107626632D01*
X154628368Y-107833475D01*
X154802760Y-107950000D01*
X154628368Y-108066525D01*
X154421525Y-108273368D01*
X154259010Y-108516589D01*
X154147068Y-108786842D01*
X154090000Y-109073740D01*
X154090000Y-109366260D01*
X154147068Y-109653158D01*
X154259010Y-109923411D01*
X154421525Y-110166632D01*
X154628368Y-110373475D01*
X154802760Y-110490000D01*
X154628368Y-110606525D01*
X154421525Y-110813368D01*
X154259010Y-111056589D01*
X154147068Y-111326842D01*
X154090000Y-111613740D01*
X154090000Y-111906260D01*
X154147068Y-112193158D01*
X154259010Y-112463411D01*
X154421525Y-112706632D01*
X154628368Y-112913475D01*
X154810534Y-113035195D01*
X154693645Y-113104822D01*
X154477412Y-113299731D01*
X154303359Y-113533080D01*
X154178175Y-113795901D01*
X154133524Y-113943110D01*
X154254845Y-114173000D01*
X155448000Y-114173000D01*
X155448000Y-114153000D01*
X155702000Y-114153000D01*
X155702000Y-114173000D01*
X156895155Y-114173000D01*
X157016476Y-113943110D01*
X156971825Y-113795901D01*
X156846641Y-113533080D01*
X156672588Y-113299731D01*
X156456355Y-113104822D01*
X156339466Y-113035195D01*
X156521632Y-112913475D01*
X156728475Y-112706632D01*
X156890990Y-112463411D01*
X157002932Y-112193158D01*
X157060000Y-111906260D01*
X157060000Y-111613740D01*
X157002932Y-111326842D01*
X156890990Y-111056589D01*
X156728475Y-110813368D01*
X156521632Y-110606525D01*
X156347240Y-110490000D01*
X156521632Y-110373475D01*
X156728475Y-110166632D01*
X156890990Y-109923411D01*
X157002932Y-109653158D01*
X157060000Y-109366260D01*
X157060000Y-109073740D01*
X157002932Y-108786842D01*
X156890990Y-108516589D01*
X156728475Y-108273368D01*
X156521632Y-108066525D01*
X156347240Y-107950000D01*
X156521632Y-107833475D01*
X156728475Y-107626632D01*
X156890990Y-107383411D01*
X157002932Y-107113158D01*
X157060000Y-106826260D01*
X157060000Y-106533740D01*
X157002932Y-106246842D01*
X156890990Y-105976589D01*
X156728475Y-105733368D01*
X156521632Y-105526525D01*
X156347240Y-105410000D01*
X156521632Y-105293475D01*
X156728475Y-105086632D01*
X156890990Y-104843411D01*
X157002932Y-104573158D01*
X157060000Y-104286260D01*
X157060000Y-103993740D01*
X157002932Y-103706842D01*
X156890990Y-103436589D01*
X156728475Y-103193368D01*
X156521632Y-102986525D01*
X156347240Y-102870000D01*
X156521632Y-102753475D01*
X156728475Y-102546632D01*
X156890990Y-102303411D01*
X157002932Y-102033158D01*
X157060000Y-101746260D01*
X157060000Y-101453740D01*
X157002932Y-101166842D01*
X156890990Y-100896589D01*
X156728475Y-100653368D01*
X156521632Y-100446525D01*
X156347240Y-100330000D01*
X156521632Y-100213475D01*
X156728475Y-100006632D01*
X156890990Y-99763411D01*
X157002932Y-99493158D01*
X157060000Y-99206260D01*
X157060000Y-98913740D01*
X157002932Y-98626842D01*
X156890990Y-98356589D01*
X156728475Y-98113368D01*
X156521632Y-97906525D01*
X156347240Y-97790000D01*
X156521632Y-97673475D01*
X156728475Y-97466632D01*
X156890990Y-97223411D01*
X157002932Y-96953158D01*
X157060000Y-96666260D01*
X157060000Y-96373740D01*
X157002932Y-96086842D01*
X156890990Y-95816589D01*
X156728475Y-95573368D01*
X156521632Y-95366525D01*
X156347240Y-95250000D01*
X156521632Y-95133475D01*
X156728475Y-94926632D01*
X156890990Y-94683411D01*
X157002932Y-94413158D01*
X157060000Y-94126260D01*
X157060000Y-93833740D01*
X157002932Y-93546842D01*
X156890990Y-93276589D01*
X156728475Y-93033368D01*
X156521632Y-92826525D01*
X156347240Y-92710000D01*
X156521632Y-92593475D01*
X156728475Y-92386632D01*
X156890990Y-92143411D01*
X157002932Y-91873158D01*
X157060000Y-91586260D01*
X157060000Y-91293740D01*
X157002932Y-91006842D01*
X156890990Y-90736589D01*
X156728475Y-90493368D01*
X156521632Y-90286525D01*
X156347240Y-90170000D01*
X156521632Y-90053475D01*
X156728475Y-89846632D01*
X156890990Y-89603411D01*
X157002932Y-89333158D01*
X157060000Y-89046260D01*
X157060000Y-88753740D01*
X157002932Y-88466842D01*
X156890990Y-88196589D01*
X156728475Y-87953368D01*
X156521632Y-87746525D01*
X156347240Y-87630000D01*
X156521632Y-87513475D01*
X156728475Y-87306632D01*
X156890990Y-87063411D01*
X157002932Y-86793158D01*
X157060000Y-86506260D01*
X157060000Y-86213740D01*
X157002932Y-85926842D01*
X156890990Y-85656589D01*
X156728475Y-85413368D01*
X156521632Y-85206525D01*
X156339466Y-85084805D01*
X156456355Y-85015178D01*
X156672588Y-84820269D01*
X156846641Y-84586920D01*
X156971825Y-84324099D01*
X157016476Y-84176890D01*
X156895155Y-83947000D01*
X155702000Y-83947000D01*
X155702000Y-83967000D01*
X155448000Y-83967000D01*
X155448000Y-83947000D01*
X155428000Y-83947000D01*
X155428000Y-83693000D01*
X155448000Y-83693000D01*
X155448000Y-83673000D01*
X155702000Y-83673000D01*
X155702000Y-83693000D01*
X156895155Y-83693000D01*
X157016476Y-83463110D01*
X156971825Y-83315901D01*
X156846641Y-83053080D01*
X156672588Y-82819731D01*
X156588534Y-82743966D01*
X156669180Y-82719502D01*
X156779494Y-82660537D01*
X156876185Y-82581185D01*
X156955537Y-82484494D01*
X157014502Y-82374180D01*
X157050812Y-82254482D01*
X157063072Y-82130000D01*
X157063072Y-82015000D01*
X157302554Y-82015000D01*
X163163466Y-87875913D01*
X163013824Y-87875913D01*
X162833184Y-87911845D01*
X162663024Y-87982327D01*
X162509885Y-88084651D01*
X162379651Y-88214885D01*
X162277327Y-88368024D01*
X162206845Y-88538184D01*
X162170913Y-88718824D01*
X162170913Y-88903002D01*
X162206845Y-89083642D01*
X162277327Y-89253802D01*
X162379651Y-89406941D01*
X162390913Y-89418203D01*
X162390914Y-108293752D01*
X161370000Y-107272839D01*
X161370000Y-93317290D01*
X161381262Y-93306028D01*
X161483586Y-93152889D01*
X161554068Y-92982729D01*
X161590000Y-92802089D01*
X161590000Y-92617911D01*
X161554068Y-92437271D01*
X161483586Y-92267111D01*
X161381262Y-92113972D01*
X161251028Y-91983738D01*
X161097889Y-91881414D01*
X160927729Y-91810932D01*
X160747089Y-91775000D01*
X160562911Y-91775000D01*
X160382271Y-91810932D01*
X160212111Y-91881414D01*
X160058972Y-91983738D01*
X159928738Y-92113972D01*
X159826414Y-92267111D01*
X159755932Y-92437271D01*
X159720000Y-92617911D01*
X159720000Y-92802089D01*
X159755932Y-92982729D01*
X159826414Y-93152889D01*
X159928738Y-93306028D01*
X159940000Y-93317290D01*
X159940001Y-107139859D01*
X159940000Y-107139869D01*
X159940000Y-107533890D01*
X159936542Y-107569000D01*
X159940000Y-107604110D01*
X159940000Y-107604120D01*
X159950346Y-107709164D01*
X159991230Y-107843942D01*
X160057623Y-107968154D01*
X160146974Y-108077027D01*
X160174255Y-108099416D01*
X162943988Y-110869151D01*
X162966373Y-110896427D01*
X162993648Y-110918811D01*
X162993652Y-110918815D01*
X163056933Y-110970748D01*
X163075246Y-110985777D01*
X163199458Y-111052170D01*
X163289814Y-111079579D01*
X163334235Y-111093054D01*
X163346348Y-111094247D01*
X163439280Y-111103400D01*
X163439288Y-111103400D01*
X163474400Y-111106858D01*
X163509512Y-111103400D01*
X165166490Y-111103400D01*
X165201600Y-111106858D01*
X165236710Y-111103400D01*
X165236720Y-111103400D01*
X165341764Y-111093054D01*
X165476542Y-111052170D01*
X165600754Y-110985777D01*
X165709627Y-110896427D01*
X165732020Y-110869142D01*
X165915405Y-110685757D01*
X165915409Y-110685752D01*
X166883162Y-109718001D01*
X166893212Y-109720000D01*
X167109431Y-109720000D01*
X167043972Y-109763738D01*
X166913738Y-109893972D01*
X166811414Y-110047111D01*
X166740932Y-110217271D01*
X166739495Y-110224495D01*
X166732271Y-110225932D01*
X166562111Y-110296414D01*
X166408972Y-110398738D01*
X166278738Y-110528972D01*
X166176414Y-110682111D01*
X166105932Y-110852271D01*
X166070000Y-111032911D01*
X166070000Y-111217089D01*
X166105932Y-111397729D01*
X166176414Y-111567889D01*
X166278738Y-111721028D01*
X166408972Y-111851262D01*
X166562111Y-111953586D01*
X166732271Y-112024068D01*
X166912911Y-112060000D01*
X167097089Y-112060000D01*
X167277729Y-112024068D01*
X167447889Y-111953586D01*
X167601028Y-111851262D01*
X167612290Y-111840000D01*
X187924890Y-111840000D01*
X187960000Y-111843458D01*
X187995110Y-111840000D01*
X187995120Y-111840000D01*
X188100164Y-111829654D01*
X188234942Y-111788770D01*
X188359154Y-111722377D01*
X188468027Y-111633027D01*
X188490420Y-111605741D01*
X188671162Y-111425000D01*
X188687089Y-111425000D01*
X188867729Y-111389068D01*
X189037889Y-111318586D01*
X189191028Y-111216262D01*
X189321262Y-111086028D01*
X189423586Y-110932889D01*
X189494068Y-110762729D01*
X189530000Y-110582089D01*
X189530000Y-110397911D01*
X189494068Y-110217271D01*
X189423586Y-110047111D01*
X189321262Y-109893972D01*
X189191028Y-109763738D01*
X189037889Y-109661414D01*
X188867729Y-109590932D01*
X188687089Y-109555000D01*
X188502911Y-109555000D01*
X188322271Y-109590932D01*
X188152111Y-109661414D01*
X187998972Y-109763738D01*
X187868738Y-109893972D01*
X187766414Y-110047111D01*
X187695932Y-110217271D01*
X187660000Y-110397911D01*
X187660000Y-110410000D01*
X187625000Y-110410000D01*
X187625000Y-110397911D01*
X187589068Y-110217271D01*
X187518586Y-110047111D01*
X187416262Y-109893972D01*
X187286028Y-109763738D01*
X187132889Y-109661414D01*
X186962729Y-109590932D01*
X186782089Y-109555000D01*
X186597911Y-109555000D01*
X186417271Y-109590932D01*
X186247111Y-109661414D01*
X186093972Y-109763738D01*
X186082710Y-109775000D01*
X168247290Y-109775000D01*
X168236028Y-109763738D01*
X168170569Y-109720000D01*
X168386788Y-109720000D01*
X168606067Y-109676383D01*
X168812624Y-109590824D01*
X168914658Y-109522647D01*
X168984794Y-109572123D01*
X169188136Y-109662446D01*
X169243126Y-109679119D01*
X169418000Y-109552954D01*
X169418000Y-108712000D01*
X169672000Y-108712000D01*
X169672000Y-109552954D01*
X169846874Y-109679119D01*
X169901864Y-109662446D01*
X170105206Y-109572123D01*
X170287020Y-109443865D01*
X170440318Y-109282601D01*
X170559210Y-109094529D01*
X170639126Y-108886876D01*
X170514129Y-108712000D01*
X169672000Y-108712000D01*
X169418000Y-108712000D01*
X169406974Y-108712000D01*
X169410000Y-108696788D01*
X169410000Y-108473212D01*
X169406974Y-108458000D01*
X169418000Y-108458000D01*
X169418000Y-108453072D01*
X169672000Y-108453072D01*
X169672000Y-108458000D01*
X170514129Y-108458000D01*
X170639126Y-108283124D01*
X170587082Y-108147894D01*
X170634502Y-108059180D01*
X170637287Y-108050000D01*
X174715895Y-108050000D01*
X174752000Y-108053556D01*
X174788105Y-108050000D01*
X174842895Y-108050000D01*
X174879000Y-108053556D01*
X174915105Y-108050000D01*
X174969902Y-108050000D01*
X175005999Y-108053555D01*
X175042096Y-108050000D01*
X189306554Y-108050000D01*
X197443246Y-116186693D01*
X197374463Y-116270506D01*
X197315498Y-116380820D01*
X197291034Y-116461466D01*
X197215269Y-116377412D01*
X196981920Y-116203359D01*
X196719099Y-116078175D01*
X196571890Y-116033524D01*
X196342000Y-116154845D01*
X196342000Y-117348000D01*
X196362000Y-117348000D01*
X196362000Y-117602000D01*
X196342000Y-117602000D01*
X196342000Y-118795155D01*
X196571890Y-118916476D01*
X196719099Y-118871825D01*
X196981920Y-118746641D01*
X197215269Y-118572588D01*
X197291034Y-118488534D01*
X197315498Y-118569180D01*
X197374463Y-118679494D01*
X197453815Y-118776185D01*
X197550506Y-118855537D01*
X197660820Y-118914502D01*
X197780518Y-118950812D01*
X197905000Y-118963072D01*
X198873000Y-118963072D01*
X198873000Y-122340000D01*
X153418943Y-122340000D01*
X153521276Y-122200881D01*
X151000000Y-119679605D01*
X148478724Y-122200881D01*
X148581057Y-122340000D01*
X147660000Y-122340000D01*
X147660000Y-121388074D01*
X147782445Y-121620670D01*
X147809452Y-121661088D01*
X148299119Y-122021276D01*
X150820395Y-119500000D01*
X151179605Y-119500000D01*
X153700881Y-122021276D01*
X154190548Y-121661088D01*
X154550849Y-120997118D01*
X154774694Y-120275615D01*
X154853480Y-119524305D01*
X154784178Y-118772062D01*
X154569452Y-118047792D01*
X154455796Y-117831891D01*
X164293519Y-117831891D01*
X164390843Y-118106252D01*
X164539822Y-118356355D01*
X164734731Y-118572588D01*
X164968080Y-118746641D01*
X165230901Y-118871825D01*
X165378110Y-118916476D01*
X165608000Y-118795155D01*
X165608000Y-117602000D01*
X164414186Y-117602000D01*
X164293519Y-117831891D01*
X154455796Y-117831891D01*
X154217555Y-117379330D01*
X154190548Y-117338912D01*
X153890372Y-117118109D01*
X164293519Y-117118109D01*
X164414186Y-117348000D01*
X165608000Y-117348000D01*
X165608000Y-116154845D01*
X165862000Y-116154845D01*
X165862000Y-117348000D01*
X165882000Y-117348000D01*
X165882000Y-117602000D01*
X165862000Y-117602000D01*
X165862000Y-118795155D01*
X166091890Y-118916476D01*
X166239099Y-118871825D01*
X166501920Y-118746641D01*
X166735269Y-118572588D01*
X166930178Y-118356355D01*
X166999805Y-118239466D01*
X167121525Y-118421632D01*
X167328368Y-118628475D01*
X167571589Y-118790990D01*
X167841842Y-118902932D01*
X168128740Y-118960000D01*
X168421260Y-118960000D01*
X168708158Y-118902932D01*
X168978411Y-118790990D01*
X169221632Y-118628475D01*
X169428475Y-118421632D01*
X169545000Y-118247240D01*
X169661525Y-118421632D01*
X169868368Y-118628475D01*
X170111589Y-118790990D01*
X170381842Y-118902932D01*
X170668740Y-118960000D01*
X170961260Y-118960000D01*
X171248158Y-118902932D01*
X171518411Y-118790990D01*
X171761632Y-118628475D01*
X171968475Y-118421632D01*
X172085000Y-118247240D01*
X172201525Y-118421632D01*
X172408368Y-118628475D01*
X172651589Y-118790990D01*
X172921842Y-118902932D01*
X173208740Y-118960000D01*
X173501260Y-118960000D01*
X173788158Y-118902932D01*
X174058411Y-118790990D01*
X174301632Y-118628475D01*
X174508475Y-118421632D01*
X174630195Y-118239466D01*
X174699822Y-118356355D01*
X174894731Y-118572588D01*
X175128080Y-118746641D01*
X175390901Y-118871825D01*
X175538110Y-118916476D01*
X175768000Y-118795155D01*
X175768000Y-117602000D01*
X175748000Y-117602000D01*
X175748000Y-117348000D01*
X175768000Y-117348000D01*
X175768000Y-116154845D01*
X176022000Y-116154845D01*
X176022000Y-117348000D01*
X176042000Y-117348000D01*
X176042000Y-117602000D01*
X176022000Y-117602000D01*
X176022000Y-118795155D01*
X176251890Y-118916476D01*
X176399099Y-118871825D01*
X176661920Y-118746641D01*
X176895269Y-118572588D01*
X177090178Y-118356355D01*
X177159805Y-118239466D01*
X177281525Y-118421632D01*
X177488368Y-118628475D01*
X177731589Y-118790990D01*
X178001842Y-118902932D01*
X178288740Y-118960000D01*
X178581260Y-118960000D01*
X178868158Y-118902932D01*
X179138411Y-118790990D01*
X179381632Y-118628475D01*
X179588475Y-118421632D01*
X179705000Y-118247240D01*
X179821525Y-118421632D01*
X180028368Y-118628475D01*
X180271589Y-118790990D01*
X180541842Y-118902932D01*
X180828740Y-118960000D01*
X181121260Y-118960000D01*
X181408158Y-118902932D01*
X181678411Y-118790990D01*
X181921632Y-118628475D01*
X182128475Y-118421632D01*
X182245000Y-118247240D01*
X182361525Y-118421632D01*
X182568368Y-118628475D01*
X182811589Y-118790990D01*
X183081842Y-118902932D01*
X183368740Y-118960000D01*
X183661260Y-118960000D01*
X183948158Y-118902932D01*
X184218411Y-118790990D01*
X184461632Y-118628475D01*
X184668475Y-118421632D01*
X184785000Y-118247240D01*
X184901525Y-118421632D01*
X185108368Y-118628475D01*
X185351589Y-118790990D01*
X185621842Y-118902932D01*
X185908740Y-118960000D01*
X186201260Y-118960000D01*
X186488158Y-118902932D01*
X186758411Y-118790990D01*
X187001632Y-118628475D01*
X187208475Y-118421632D01*
X187325000Y-118247240D01*
X187441525Y-118421632D01*
X187648368Y-118628475D01*
X187891589Y-118790990D01*
X188161842Y-118902932D01*
X188448740Y-118960000D01*
X188741260Y-118960000D01*
X189028158Y-118902932D01*
X189298411Y-118790990D01*
X189541632Y-118628475D01*
X189748475Y-118421632D01*
X189865000Y-118247240D01*
X189981525Y-118421632D01*
X190188368Y-118628475D01*
X190431589Y-118790990D01*
X190701842Y-118902932D01*
X190988740Y-118960000D01*
X191281260Y-118960000D01*
X191568158Y-118902932D01*
X191838411Y-118790990D01*
X192081632Y-118628475D01*
X192288475Y-118421632D01*
X192405000Y-118247240D01*
X192521525Y-118421632D01*
X192728368Y-118628475D01*
X192971589Y-118790990D01*
X193241842Y-118902932D01*
X193528740Y-118960000D01*
X193821260Y-118960000D01*
X194108158Y-118902932D01*
X194378411Y-118790990D01*
X194621632Y-118628475D01*
X194828475Y-118421632D01*
X194950195Y-118239466D01*
X195019822Y-118356355D01*
X195214731Y-118572588D01*
X195448080Y-118746641D01*
X195710901Y-118871825D01*
X195858110Y-118916476D01*
X196088000Y-118795155D01*
X196088000Y-117602000D01*
X196068000Y-117602000D01*
X196068000Y-117348000D01*
X196088000Y-117348000D01*
X196088000Y-116154845D01*
X195858110Y-116033524D01*
X195710901Y-116078175D01*
X195448080Y-116203359D01*
X195214731Y-116377412D01*
X195019822Y-116593645D01*
X194950195Y-116710534D01*
X194828475Y-116528368D01*
X194621632Y-116321525D01*
X194378411Y-116159010D01*
X194108158Y-116047068D01*
X193821260Y-115990000D01*
X193528740Y-115990000D01*
X193241842Y-116047068D01*
X192971589Y-116159010D01*
X192728368Y-116321525D01*
X192521525Y-116528368D01*
X192405000Y-116702760D01*
X192288475Y-116528368D01*
X192081632Y-116321525D01*
X191838411Y-116159010D01*
X191568158Y-116047068D01*
X191281260Y-115990000D01*
X190988740Y-115990000D01*
X190701842Y-116047068D01*
X190431589Y-116159010D01*
X190188368Y-116321525D01*
X189981525Y-116528368D01*
X189865000Y-116702760D01*
X189748475Y-116528368D01*
X189541632Y-116321525D01*
X189298411Y-116159010D01*
X189028158Y-116047068D01*
X188741260Y-115990000D01*
X188448740Y-115990000D01*
X188161842Y-116047068D01*
X187891589Y-116159010D01*
X187648368Y-116321525D01*
X187441525Y-116528368D01*
X187325000Y-116702760D01*
X187208475Y-116528368D01*
X187001632Y-116321525D01*
X186758411Y-116159010D01*
X186488158Y-116047068D01*
X186201260Y-115990000D01*
X185908740Y-115990000D01*
X185621842Y-116047068D01*
X185351589Y-116159010D01*
X185108368Y-116321525D01*
X184901525Y-116528368D01*
X184785000Y-116702760D01*
X184668475Y-116528368D01*
X184461632Y-116321525D01*
X184218411Y-116159010D01*
X183948158Y-116047068D01*
X183661260Y-115990000D01*
X183368740Y-115990000D01*
X183081842Y-116047068D01*
X182811589Y-116159010D01*
X182568368Y-116321525D01*
X182361525Y-116528368D01*
X182245000Y-116702760D01*
X182128475Y-116528368D01*
X181921632Y-116321525D01*
X181678411Y-116159010D01*
X181408158Y-116047068D01*
X181121260Y-115990000D01*
X180828740Y-115990000D01*
X180541842Y-116047068D01*
X180271589Y-116159010D01*
X180028368Y-116321525D01*
X179821525Y-116528368D01*
X179705000Y-116702760D01*
X179588475Y-116528368D01*
X179381632Y-116321525D01*
X179138411Y-116159010D01*
X178868158Y-116047068D01*
X178581260Y-115990000D01*
X178288740Y-115990000D01*
X178001842Y-116047068D01*
X177731589Y-116159010D01*
X177488368Y-116321525D01*
X177281525Y-116528368D01*
X177159805Y-116710534D01*
X177090178Y-116593645D01*
X176895269Y-116377412D01*
X176661920Y-116203359D01*
X176399099Y-116078175D01*
X176251890Y-116033524D01*
X176022000Y-116154845D01*
X175768000Y-116154845D01*
X175538110Y-116033524D01*
X175390901Y-116078175D01*
X175128080Y-116203359D01*
X174894731Y-116377412D01*
X174699822Y-116593645D01*
X174630195Y-116710534D01*
X174508475Y-116528368D01*
X174301632Y-116321525D01*
X174058411Y-116159010D01*
X173788158Y-116047068D01*
X173501260Y-115990000D01*
X173208740Y-115990000D01*
X172921842Y-116047068D01*
X172651589Y-116159010D01*
X172408368Y-116321525D01*
X172201525Y-116528368D01*
X172085000Y-116702760D01*
X171968475Y-116528368D01*
X171761632Y-116321525D01*
X171518411Y-116159010D01*
X171248158Y-116047068D01*
X170961260Y-115990000D01*
X170668740Y-115990000D01*
X170381842Y-116047068D01*
X170111589Y-116159010D01*
X169868368Y-116321525D01*
X169661525Y-116528368D01*
X169545000Y-116702760D01*
X169428475Y-116528368D01*
X169221632Y-116321525D01*
X168978411Y-116159010D01*
X168708158Y-116047068D01*
X168421260Y-115990000D01*
X168128740Y-115990000D01*
X167841842Y-116047068D01*
X167571589Y-116159010D01*
X167328368Y-116321525D01*
X167121525Y-116528368D01*
X166999805Y-116710534D01*
X166930178Y-116593645D01*
X166735269Y-116377412D01*
X166501920Y-116203359D01*
X166239099Y-116078175D01*
X166091890Y-116033524D01*
X165862000Y-116154845D01*
X165608000Y-116154845D01*
X165378110Y-116033524D01*
X165230901Y-116078175D01*
X164968080Y-116203359D01*
X164734731Y-116377412D01*
X164539822Y-116593645D01*
X164390843Y-116843748D01*
X164293519Y-117118109D01*
X153890372Y-117118109D01*
X153700881Y-116978724D01*
X151179605Y-119500000D01*
X150820395Y-119500000D01*
X148299119Y-116978724D01*
X147809452Y-117338912D01*
X147660000Y-117614325D01*
X147660000Y-116799119D01*
X148478724Y-116799119D01*
X151000000Y-119320395D01*
X153521276Y-116799119D01*
X153161088Y-116309452D01*
X152497118Y-115949151D01*
X151775615Y-115725306D01*
X151096694Y-115654111D01*
X151161185Y-115601185D01*
X151240537Y-115504494D01*
X151299502Y-115394180D01*
X151335812Y-115274482D01*
X151348072Y-115150000D01*
X151345388Y-114656890D01*
X154133524Y-114656890D01*
X154178175Y-114804099D01*
X154303359Y-115066920D01*
X154477412Y-115300269D01*
X154693645Y-115495178D01*
X154943748Y-115644157D01*
X155218109Y-115741481D01*
X155448000Y-115620814D01*
X155448000Y-114427000D01*
X155702000Y-114427000D01*
X155702000Y-115620814D01*
X155931891Y-115741481D01*
X156206252Y-115644157D01*
X156456355Y-115495178D01*
X156672588Y-115300269D01*
X156846641Y-115066920D01*
X156971825Y-114804099D01*
X157016476Y-114656890D01*
X156895155Y-114427000D01*
X155702000Y-114427000D01*
X155448000Y-114427000D01*
X154254845Y-114427000D01*
X154133524Y-114656890D01*
X151345388Y-114656890D01*
X151345000Y-114585750D01*
X151186250Y-114427000D01*
X149987000Y-114427000D01*
X149987000Y-115626250D01*
X150121276Y-115760526D01*
X149547792Y-115930548D01*
X148879330Y-116282445D01*
X148838912Y-116309452D01*
X148478724Y-116799119D01*
X147660000Y-116799119D01*
X147660000Y-115150000D01*
X148371928Y-115150000D01*
X148384188Y-115274482D01*
X148420498Y-115394180D01*
X148479463Y-115504494D01*
X148558815Y-115601185D01*
X148655506Y-115680537D01*
X148765820Y-115739502D01*
X148885518Y-115775812D01*
X149010000Y-115788072D01*
X149574250Y-115785000D01*
X149733000Y-115626250D01*
X149733000Y-114427000D01*
X148533750Y-114427000D01*
X148375000Y-114585750D01*
X148371928Y-115150000D01*
X147660000Y-115150000D01*
X147660000Y-113450000D01*
X148371928Y-113450000D01*
X148375000Y-114014250D01*
X148533750Y-114173000D01*
X149733000Y-114173000D01*
X149733000Y-114153000D01*
X149987000Y-114153000D01*
X149987000Y-114173000D01*
X151186250Y-114173000D01*
X151345000Y-114014250D01*
X151348072Y-113450000D01*
X151335812Y-113325518D01*
X151299502Y-113205820D01*
X151240537Y-113095506D01*
X151161185Y-112998815D01*
X151064494Y-112919463D01*
X150954180Y-112860498D01*
X150881620Y-112838487D01*
X151013475Y-112706632D01*
X151175990Y-112463411D01*
X151287932Y-112193158D01*
X151345000Y-111906260D01*
X151345000Y-111613740D01*
X151287932Y-111326842D01*
X151175990Y-111056589D01*
X151013475Y-110813368D01*
X150806632Y-110606525D01*
X150632240Y-110490000D01*
X150806632Y-110373475D01*
X151013475Y-110166632D01*
X151175990Y-109923411D01*
X151287932Y-109653158D01*
X151345000Y-109366260D01*
X151345000Y-109073740D01*
X151287932Y-108786842D01*
X151175990Y-108516589D01*
X151013475Y-108273368D01*
X150806632Y-108066525D01*
X150632240Y-107950000D01*
X150806632Y-107833475D01*
X151013475Y-107626632D01*
X151175990Y-107383411D01*
X151287932Y-107113158D01*
X151345000Y-106826260D01*
X151345000Y-106533740D01*
X151287932Y-106246842D01*
X151175990Y-105976589D01*
X151013475Y-105733368D01*
X150806632Y-105526525D01*
X150632240Y-105410000D01*
X150806632Y-105293475D01*
X151013475Y-105086632D01*
X151175990Y-104843411D01*
X151287932Y-104573158D01*
X151345000Y-104286260D01*
X151345000Y-103993740D01*
X151287932Y-103706842D01*
X151175990Y-103436589D01*
X151013475Y-103193368D01*
X150806632Y-102986525D01*
X150563411Y-102824010D01*
X150293158Y-102712068D01*
X150006260Y-102655000D01*
X149713740Y-102655000D01*
X149426842Y-102712068D01*
X149156589Y-102824010D01*
X148913368Y-102986525D01*
X148706525Y-103193368D01*
X148544010Y-103436589D01*
X148432068Y-103706842D01*
X148375000Y-103993740D01*
X148375000Y-104286260D01*
X148432068Y-104573158D01*
X148544010Y-104843411D01*
X148706525Y-105086632D01*
X148913368Y-105293475D01*
X149087760Y-105410000D01*
X148913368Y-105526525D01*
X148706525Y-105733368D01*
X148544010Y-105976589D01*
X148432068Y-106246842D01*
X148375000Y-106533740D01*
X148375000Y-106826260D01*
X148432068Y-107113158D01*
X148544010Y-107383411D01*
X148706525Y-107626632D01*
X148913368Y-107833475D01*
X149087760Y-107950000D01*
X148913368Y-108066525D01*
X148706525Y-108273368D01*
X148544010Y-108516589D01*
X148432068Y-108786842D01*
X148375000Y-109073740D01*
X148375000Y-109366260D01*
X148432068Y-109653158D01*
X148544010Y-109923411D01*
X148706525Y-110166632D01*
X148913368Y-110373475D01*
X149087760Y-110490000D01*
X148913368Y-110606525D01*
X148706525Y-110813368D01*
X148544010Y-111056589D01*
X148432068Y-111326842D01*
X148375000Y-111613740D01*
X148375000Y-111906260D01*
X148432068Y-112193158D01*
X148544010Y-112463411D01*
X148706525Y-112706632D01*
X148838380Y-112838487D01*
X148765820Y-112860498D01*
X148655506Y-112919463D01*
X148558815Y-112998815D01*
X148479463Y-113095506D01*
X148420498Y-113205820D01*
X148384188Y-113325518D01*
X148371928Y-113450000D01*
X147660000Y-113450000D01*
X147660000Y-86700881D01*
X147978724Y-86700881D01*
X148338912Y-87190548D01*
X149002882Y-87550849D01*
X149724385Y-87774694D01*
X150475695Y-87853480D01*
X151227938Y-87784178D01*
X151952208Y-87569452D01*
X152620670Y-87217555D01*
X152661088Y-87190548D01*
X153021276Y-86700881D01*
X150500000Y-84179605D01*
X147978724Y-86700881D01*
X147660000Y-86700881D01*
X147660000Y-86418943D01*
X147799119Y-86521276D01*
X150320395Y-84000000D01*
X147799119Y-81478724D01*
X147660000Y-81581057D01*
X147660000Y-80660000D01*
X148611926Y-80660000D01*
X148379330Y-80782445D01*
G36*
X173228000Y-84455000D02*
G01*
X173230440Y-84479776D01*
X173237667Y-84503601D01*
X173249403Y-84525557D01*
X173265197Y-84544803D01*
X173284443Y-84560597D01*
X173306399Y-84572333D01*
X173330224Y-84579560D01*
X173355000Y-84582000D01*
X180975000Y-84582000D01*
X180999776Y-84579560D01*
X181023601Y-84572333D01*
X181045557Y-84560597D01*
X181064803Y-84544803D01*
X181080597Y-84525557D01*
X181092333Y-84503601D01*
X181099560Y-84479776D01*
X181102000Y-84455000D01*
X181102000Y-80660000D01*
X181623000Y-80660000D01*
X181623000Y-91500000D01*
X181625440Y-91524776D01*
X181632667Y-91548601D01*
X181644403Y-91570557D01*
X181660197Y-91589803D01*
X181679443Y-91605597D01*
X181701399Y-91617333D01*
X181725224Y-91624560D01*
X181750000Y-91627000D01*
X198339619Y-91627000D01*
X198339219Y-103814257D01*
X198341670Y-103839155D01*
X198346854Y-103907386D01*
X198355941Y-103959209D01*
X198363161Y-104011328D01*
X198365374Y-104020274D01*
X198389456Y-104114837D01*
X198409802Y-104171078D01*
X198429367Y-104227618D01*
X198433275Y-104235963D01*
X198475267Y-104324049D01*
X198506139Y-104375250D01*
X198536327Y-104426936D01*
X198541782Y-104434364D01*
X198600083Y-104512615D01*
X198640347Y-104556882D01*
X198679961Y-104601676D01*
X198686754Y-104607903D01*
X198759145Y-104673340D01*
X198807217Y-104708926D01*
X198854794Y-104745187D01*
X198862667Y-104749976D01*
X198873000Y-104756163D01*
X198873000Y-106022563D01*
X198379330Y-106282445D01*
X198338912Y-106309452D01*
X197978724Y-106799119D01*
X198873000Y-107693395D01*
X198873000Y-107940778D01*
X198817087Y-107996692D01*
X197799119Y-106978724D01*
X197309452Y-107338912D01*
X196949151Y-108002882D01*
X196725306Y-108724385D01*
X196646520Y-109475695D01*
X196715822Y-110227938D01*
X196930548Y-110952208D01*
X197282445Y-111620670D01*
X197309452Y-111661088D01*
X197799119Y-112021276D01*
X198817087Y-111003309D01*
X198873000Y-111059222D01*
X198873000Y-111306605D01*
X197978724Y-112200881D01*
X198338912Y-112690548D01*
X198873000Y-112980369D01*
X198873000Y-115537553D01*
X190156259Y-106820813D01*
X190133238Y-106792762D01*
X190093318Y-106760000D01*
X190527710Y-106760000D01*
X190538972Y-106771262D01*
X190692111Y-106873586D01*
X190862271Y-106944068D01*
X191042911Y-106980000D01*
X191227089Y-106980000D01*
X191407729Y-106944068D01*
X191577889Y-106873586D01*
X191731028Y-106771262D01*
X191861262Y-106641028D01*
X191963586Y-106487889D01*
X192034068Y-106317729D01*
X192070000Y-106137089D01*
X192070000Y-105952911D01*
X192034068Y-105772271D01*
X191963586Y-105602111D01*
X191861262Y-105448972D01*
X191731028Y-105318738D01*
X191577889Y-105216414D01*
X191407729Y-105145932D01*
X191227089Y-105110000D01*
X191042911Y-105110000D01*
X190862271Y-105145932D01*
X190692111Y-105216414D01*
X190538972Y-105318738D01*
X190527710Y-105330000D01*
X177391290Y-105330000D01*
X177380028Y-105318738D01*
X177226889Y-105216414D01*
X177056729Y-105145932D01*
X176876089Y-105110000D01*
X176691911Y-105110000D01*
X176511271Y-105145932D01*
X176341111Y-105216414D01*
X176187972Y-105318738D01*
X176057738Y-105448972D01*
X175955414Y-105602111D01*
X175884932Y-105772271D01*
X175849000Y-105952911D01*
X175849000Y-106137089D01*
X175884932Y-106317729D01*
X175955414Y-106487889D01*
X176016960Y-106580000D01*
X175614000Y-106580000D01*
X175614000Y-98880951D01*
X175707586Y-98740889D01*
X175778068Y-98570729D01*
X175814000Y-98390089D01*
X175814000Y-98205911D01*
X175778068Y-98025271D01*
X175707586Y-97855111D01*
X175605262Y-97701972D01*
X175475028Y-97571738D01*
X175321889Y-97469414D01*
X175151729Y-97398932D01*
X174971089Y-97363000D01*
X174786911Y-97363000D01*
X174606271Y-97398932D01*
X174436111Y-97469414D01*
X174282972Y-97571738D01*
X174152738Y-97701972D01*
X174050414Y-97855111D01*
X173979932Y-98025271D01*
X173944000Y-98205911D01*
X173944000Y-98390089D01*
X173979932Y-98570729D01*
X174050414Y-98740889D01*
X174144001Y-98880952D01*
X174144000Y-106580000D01*
X170637287Y-106580000D01*
X170634502Y-106570820D01*
X170575537Y-106460506D01*
X170496185Y-106363815D01*
X170399494Y-106284463D01*
X170289180Y-106225498D01*
X170169482Y-106189188D01*
X170045000Y-106176928D01*
X169045000Y-106176928D01*
X168920518Y-106189188D01*
X168800820Y-106225498D01*
X168717774Y-106269888D01*
X168606067Y-106223617D01*
X168386788Y-106180000D01*
X168163212Y-106180000D01*
X167943933Y-106223617D01*
X167737376Y-106309176D01*
X167640000Y-106374241D01*
X167542624Y-106309176D01*
X167336067Y-106223617D01*
X167116788Y-106180000D01*
X166893212Y-106180000D01*
X166673933Y-106223617D01*
X166467376Y-106309176D01*
X166450000Y-106320786D01*
X166450000Y-91827649D01*
X166453458Y-91792537D01*
X166450000Y-91757425D01*
X166450000Y-91757417D01*
X166439654Y-91652373D01*
X166398770Y-91517595D01*
X166332377Y-91393383D01*
X166324740Y-91384077D01*
X166265415Y-91311789D01*
X166265407Y-91311781D01*
X166243026Y-91284510D01*
X166215756Y-91262130D01*
X164817145Y-89863521D01*
X164817145Y-89847593D01*
X164781213Y-89666953D01*
X164710731Y-89496793D01*
X164608407Y-89343654D01*
X164478173Y-89213420D01*
X164325034Y-89111096D01*
X164154874Y-89040614D01*
X164018919Y-89013571D01*
X164040913Y-88903002D01*
X164040913Y-88753360D01*
X166651001Y-91363448D01*
X166651000Y-96572049D01*
X166557414Y-96712111D01*
X166486932Y-96882271D01*
X166451000Y-97062911D01*
X166451000Y-97247089D01*
X166486932Y-97427729D01*
X166557414Y-97597889D01*
X166659738Y-97751028D01*
X166789972Y-97881262D01*
X166943111Y-97983586D01*
X167113271Y-98054068D01*
X167293911Y-98090000D01*
X167478089Y-98090000D01*
X167658729Y-98054068D01*
X167828889Y-97983586D01*
X167982028Y-97881262D01*
X168112262Y-97751028D01*
X168214586Y-97597889D01*
X168285068Y-97427729D01*
X168321000Y-97247089D01*
X168321000Y-97062911D01*
X168285068Y-96882271D01*
X168214586Y-96712111D01*
X168121000Y-96572049D01*
X168121000Y-91095094D01*
X168124555Y-91058999D01*
X168121000Y-91022904D01*
X168121000Y-91022895D01*
X168110365Y-90914915D01*
X168068337Y-90776367D01*
X168000087Y-90648680D01*
X167908238Y-90536762D01*
X167880193Y-90513746D01*
X158152259Y-80785813D01*
X158129238Y-80757762D01*
X158017320Y-80665913D01*
X158006258Y-80660000D01*
X173228000Y-80660000D01*
X173228000Y-84455000D01*
G37*
X173228000Y-84455000D02*
X173230440Y-84479776D01*
X173237667Y-84503601D01*
X173249403Y-84525557D01*
X173265197Y-84544803D01*
X173284443Y-84560597D01*
X173306399Y-84572333D01*
X173330224Y-84579560D01*
X173355000Y-84582000D01*
X180975000Y-84582000D01*
X180999776Y-84579560D01*
X181023601Y-84572333D01*
X181045557Y-84560597D01*
X181064803Y-84544803D01*
X181080597Y-84525557D01*
X181092333Y-84503601D01*
X181099560Y-84479776D01*
X181102000Y-84455000D01*
X181102000Y-80660000D01*
X181623000Y-80660000D01*
X181623000Y-91500000D01*
X181625440Y-91524776D01*
X181632667Y-91548601D01*
X181644403Y-91570557D01*
X181660197Y-91589803D01*
X181679443Y-91605597D01*
X181701399Y-91617333D01*
X181725224Y-91624560D01*
X181750000Y-91627000D01*
X198339619Y-91627000D01*
X198339219Y-103814257D01*
X198341670Y-103839155D01*
X198346854Y-103907386D01*
X198355941Y-103959209D01*
X198363161Y-104011328D01*
X198365374Y-104020274D01*
X198389456Y-104114837D01*
X198409802Y-104171078D01*
X198429367Y-104227618D01*
X198433275Y-104235963D01*
X198475267Y-104324049D01*
X198506139Y-104375250D01*
X198536327Y-104426936D01*
X198541782Y-104434364D01*
X198600083Y-104512615D01*
X198640347Y-104556882D01*
X198679961Y-104601676D01*
X198686754Y-104607903D01*
X198759145Y-104673340D01*
X198807217Y-104708926D01*
X198854794Y-104745187D01*
X198862667Y-104749976D01*
X198873000Y-104756163D01*
X198873000Y-106022563D01*
X198379330Y-106282445D01*
X198338912Y-106309452D01*
X197978724Y-106799119D01*
X198873000Y-107693395D01*
X198873000Y-107940778D01*
X198817087Y-107996692D01*
X197799119Y-106978724D01*
X197309452Y-107338912D01*
X196949151Y-108002882D01*
X196725306Y-108724385D01*
X196646520Y-109475695D01*
X196715822Y-110227938D01*
X196930548Y-110952208D01*
X197282445Y-111620670D01*
X197309452Y-111661088D01*
X197799119Y-112021276D01*
X198817087Y-111003309D01*
X198873000Y-111059222D01*
X198873000Y-111306605D01*
X197978724Y-112200881D01*
X198338912Y-112690548D01*
X198873000Y-112980369D01*
X198873000Y-115537553D01*
X190156259Y-106820813D01*
X190133238Y-106792762D01*
X190093318Y-106760000D01*
X190527710Y-106760000D01*
X190538972Y-106771262D01*
X190692111Y-106873586D01*
X190862271Y-106944068D01*
X191042911Y-106980000D01*
X191227089Y-106980000D01*
X191407729Y-106944068D01*
X191577889Y-106873586D01*
X191731028Y-106771262D01*
X191861262Y-106641028D01*
X191963586Y-106487889D01*
X192034068Y-106317729D01*
X192070000Y-106137089D01*
X192070000Y-105952911D01*
X192034068Y-105772271D01*
X191963586Y-105602111D01*
X191861262Y-105448972D01*
X191731028Y-105318738D01*
X191577889Y-105216414D01*
X191407729Y-105145932D01*
X191227089Y-105110000D01*
X191042911Y-105110000D01*
X190862271Y-105145932D01*
X190692111Y-105216414D01*
X190538972Y-105318738D01*
X190527710Y-105330000D01*
X177391290Y-105330000D01*
X177380028Y-105318738D01*
X177226889Y-105216414D01*
X177056729Y-105145932D01*
X176876089Y-105110000D01*
X176691911Y-105110000D01*
X176511271Y-105145932D01*
X176341111Y-105216414D01*
X176187972Y-105318738D01*
X176057738Y-105448972D01*
X175955414Y-105602111D01*
X175884932Y-105772271D01*
X175849000Y-105952911D01*
X175849000Y-106137089D01*
X175884932Y-106317729D01*
X175955414Y-106487889D01*
X176016960Y-106580000D01*
X175614000Y-106580000D01*
X175614000Y-98880951D01*
X175707586Y-98740889D01*
X175778068Y-98570729D01*
X175814000Y-98390089D01*
X175814000Y-98205911D01*
X175778068Y-98025271D01*
X175707586Y-97855111D01*
X175605262Y-97701972D01*
X175475028Y-97571738D01*
X175321889Y-97469414D01*
X175151729Y-97398932D01*
X174971089Y-97363000D01*
X174786911Y-97363000D01*
X174606271Y-97398932D01*
X174436111Y-97469414D01*
X174282972Y-97571738D01*
X174152738Y-97701972D01*
X174050414Y-97855111D01*
X173979932Y-98025271D01*
X173944000Y-98205911D01*
X173944000Y-98390089D01*
X173979932Y-98570729D01*
X174050414Y-98740889D01*
X174144001Y-98880952D01*
X174144000Y-106580000D01*
X170637287Y-106580000D01*
X170634502Y-106570820D01*
X170575537Y-106460506D01*
X170496185Y-106363815D01*
X170399494Y-106284463D01*
X170289180Y-106225498D01*
X170169482Y-106189188D01*
X170045000Y-106176928D01*
X169045000Y-106176928D01*
X168920518Y-106189188D01*
X168800820Y-106225498D01*
X168717774Y-106269888D01*
X168606067Y-106223617D01*
X168386788Y-106180000D01*
X168163212Y-106180000D01*
X167943933Y-106223617D01*
X167737376Y-106309176D01*
X167640000Y-106374241D01*
X167542624Y-106309176D01*
X167336067Y-106223617D01*
X167116788Y-106180000D01*
X166893212Y-106180000D01*
X166673933Y-106223617D01*
X166467376Y-106309176D01*
X166450000Y-106320786D01*
X166450000Y-91827649D01*
X166453458Y-91792537D01*
X166450000Y-91757425D01*
X166450000Y-91757417D01*
X166439654Y-91652373D01*
X166398770Y-91517595D01*
X166332377Y-91393383D01*
X166324740Y-91384077D01*
X166265415Y-91311789D01*
X166265407Y-91311781D01*
X166243026Y-91284510D01*
X166215756Y-91262130D01*
X164817145Y-89863521D01*
X164817145Y-89847593D01*
X164781213Y-89666953D01*
X164710731Y-89496793D01*
X164608407Y-89343654D01*
X164478173Y-89213420D01*
X164325034Y-89111096D01*
X164154874Y-89040614D01*
X164018919Y-89013571D01*
X164040913Y-88903002D01*
X164040913Y-88753360D01*
X166651001Y-91363448D01*
X166651000Y-96572049D01*
X166557414Y-96712111D01*
X166486932Y-96882271D01*
X166451000Y-97062911D01*
X166451000Y-97247089D01*
X166486932Y-97427729D01*
X166557414Y-97597889D01*
X166659738Y-97751028D01*
X166789972Y-97881262D01*
X166943111Y-97983586D01*
X167113271Y-98054068D01*
X167293911Y-98090000D01*
X167478089Y-98090000D01*
X167658729Y-98054068D01*
X167828889Y-97983586D01*
X167982028Y-97881262D01*
X168112262Y-97751028D01*
X168214586Y-97597889D01*
X168285068Y-97427729D01*
X168321000Y-97247089D01*
X168321000Y-97062911D01*
X168285068Y-96882271D01*
X168214586Y-96712111D01*
X168121000Y-96572049D01*
X168121000Y-91095094D01*
X168124555Y-91058999D01*
X168121000Y-91022904D01*
X168121000Y-91022895D01*
X168110365Y-90914915D01*
X168068337Y-90776367D01*
X168000087Y-90648680D01*
X167908238Y-90536762D01*
X167880193Y-90513746D01*
X158152259Y-80785813D01*
X158129238Y-80757762D01*
X158017320Y-80665913D01*
X158006258Y-80660000D01*
X173228000Y-80660000D01*
X173228000Y-84455000D01*
G36*
X165020000Y-92088700D02*
G01*
X165020001Y-106320787D01*
X165002624Y-106309176D01*
X164796067Y-106223617D01*
X164576788Y-106180000D01*
X164353212Y-106180000D01*
X164133933Y-106223617D01*
X163927376Y-106309176D01*
X163820913Y-106380312D01*
X163820913Y-90889611D01*
X165020000Y-92088700D01*
G37*
X165020000Y-92088700D02*
X165020001Y-106320787D01*
X165002624Y-106309176D01*
X164796067Y-106223617D01*
X164576788Y-106180000D01*
X164353212Y-106180000D01*
X164133933Y-106223617D01*
X163927376Y-106309176D01*
X163820913Y-106380312D01*
X163820913Y-90889611D01*
X165020000Y-92088700D01*
D18*
G36*
X192638065Y-80344000D02*
G01*
X192640000Y-80944000D01*
X192740000Y-81044000D01*
X195530000Y-81044000D01*
X195530000Y-81024000D01*
X195630000Y-81024000D01*
X195630000Y-81044000D01*
X198420000Y-81044000D01*
X198520000Y-80944000D01*
X198521935Y-80344000D01*
X198519079Y-80315000D01*
X198684990Y-80315000D01*
X198684651Y-90650000D01*
X198377661Y-90650000D01*
X198404211Y-90628211D01*
X198454197Y-90567303D01*
X198491340Y-90497814D01*
X198514212Y-90422414D01*
X198521935Y-90344000D01*
X198520000Y-89744000D01*
X198420000Y-89644000D01*
X195630000Y-89644000D01*
X195630000Y-89664000D01*
X195530000Y-89664000D01*
X195530000Y-89644000D01*
X192740000Y-89644000D01*
X192640000Y-89744000D01*
X192638065Y-90344000D01*
X192645788Y-90422414D01*
X192668660Y-90497814D01*
X192705803Y-90567303D01*
X192755789Y-90628211D01*
X192782339Y-90650000D01*
X183100000Y-90650000D01*
X183100000Y-88844000D01*
X192638065Y-88844000D01*
X192640000Y-89444000D01*
X192740000Y-89544000D01*
X195530000Y-89544000D01*
X195530000Y-88544000D01*
X195630000Y-88544000D01*
X195630000Y-89544000D01*
X198420000Y-89544000D01*
X198520000Y-89444000D01*
X198521935Y-88844000D01*
X198514212Y-88765586D01*
X198491340Y-88690186D01*
X198454197Y-88620697D01*
X198404211Y-88559789D01*
X198343303Y-88509803D01*
X198273814Y-88472660D01*
X198198414Y-88449788D01*
X198120000Y-88442065D01*
X195730000Y-88444000D01*
X195630000Y-88544000D01*
X195530000Y-88544000D01*
X195430000Y-88444000D01*
X193040000Y-88442065D01*
X192961586Y-88449788D01*
X192886186Y-88472660D01*
X192816697Y-88509803D01*
X192755789Y-88559789D01*
X192705803Y-88620697D01*
X192668660Y-88690186D01*
X192645788Y-88765586D01*
X192638065Y-88844000D01*
X183100000Y-88844000D01*
X183100000Y-81844000D01*
X192638065Y-81844000D01*
X192645788Y-81922414D01*
X192668660Y-81997814D01*
X192705803Y-82067303D01*
X192755789Y-82128211D01*
X192816697Y-82178197D01*
X192886186Y-82215340D01*
X192961586Y-82238212D01*
X193040000Y-82245935D01*
X195430000Y-82244000D01*
X195530000Y-82144000D01*
X195530000Y-81144000D01*
X195630000Y-81144000D01*
X195630000Y-82144000D01*
X195730000Y-82244000D01*
X198120000Y-82245935D01*
X198198414Y-82238212D01*
X198273814Y-82215340D01*
X198343303Y-82178197D01*
X198404211Y-82128211D01*
X198454197Y-82067303D01*
X198491340Y-81997814D01*
X198514212Y-81922414D01*
X198521935Y-81844000D01*
X198520000Y-81244000D01*
X198420000Y-81144000D01*
X195630000Y-81144000D01*
X195530000Y-81144000D01*
X192740000Y-81144000D01*
X192640000Y-81244000D01*
X192638065Y-81844000D01*
X183100000Y-81844000D01*
X183100000Y-80315000D01*
X192640921Y-80315000D01*
X192638065Y-80344000D01*
G37*
X192638065Y-80344000D02*
X192640000Y-80944000D01*
X192740000Y-81044000D01*
X195530000Y-81044000D01*
X195530000Y-81024000D01*
X195630000Y-81024000D01*
X195630000Y-81044000D01*
X198420000Y-81044000D01*
X198520000Y-80944000D01*
X198521935Y-80344000D01*
X198519079Y-80315000D01*
X198684990Y-80315000D01*
X198684651Y-90650000D01*
X198377661Y-90650000D01*
X198404211Y-90628211D01*
X198454197Y-90567303D01*
X198491340Y-90497814D01*
X198514212Y-90422414D01*
X198521935Y-90344000D01*
X198520000Y-89744000D01*
X198420000Y-89644000D01*
X195630000Y-89644000D01*
X195630000Y-89664000D01*
X195530000Y-89664000D01*
X195530000Y-89644000D01*
X192740000Y-89644000D01*
X192640000Y-89744000D01*
X192638065Y-90344000D01*
X192645788Y-90422414D01*
X192668660Y-90497814D01*
X192705803Y-90567303D01*
X192755789Y-90628211D01*
X192782339Y-90650000D01*
X183100000Y-90650000D01*
X183100000Y-88844000D01*
X192638065Y-88844000D01*
X192640000Y-89444000D01*
X192740000Y-89544000D01*
X195530000Y-89544000D01*
X195530000Y-88544000D01*
X195630000Y-88544000D01*
X195630000Y-89544000D01*
X198420000Y-89544000D01*
X198520000Y-89444000D01*
X198521935Y-88844000D01*
X198514212Y-88765586D01*
X198491340Y-88690186D01*
X198454197Y-88620697D01*
X198404211Y-88559789D01*
X198343303Y-88509803D01*
X198273814Y-88472660D01*
X198198414Y-88449788D01*
X198120000Y-88442065D01*
X195730000Y-88444000D01*
X195630000Y-88544000D01*
X195530000Y-88544000D01*
X195430000Y-88444000D01*
X193040000Y-88442065D01*
X192961586Y-88449788D01*
X192886186Y-88472660D01*
X192816697Y-88509803D01*
X192755789Y-88559789D01*
X192705803Y-88620697D01*
X192668660Y-88690186D01*
X192645788Y-88765586D01*
X192638065Y-88844000D01*
X183100000Y-88844000D01*
X183100000Y-81844000D01*
X192638065Y-81844000D01*
X192645788Y-81922414D01*
X192668660Y-81997814D01*
X192705803Y-82067303D01*
X192755789Y-82128211D01*
X192816697Y-82178197D01*
X192886186Y-82215340D01*
X192961586Y-82238212D01*
X193040000Y-82245935D01*
X195430000Y-82244000D01*
X195530000Y-82144000D01*
X195530000Y-81144000D01*
X195630000Y-81144000D01*
X195630000Y-82144000D01*
X195730000Y-82244000D01*
X198120000Y-82245935D01*
X198198414Y-82238212D01*
X198273814Y-82215340D01*
X198343303Y-82178197D01*
X198404211Y-82128211D01*
X198454197Y-82067303D01*
X198491340Y-81997814D01*
X198514212Y-81922414D01*
X198521935Y-81844000D01*
X198520000Y-81244000D01*
X198420000Y-81144000D01*
X195630000Y-81144000D01*
X195530000Y-81144000D01*
X192740000Y-81144000D01*
X192640000Y-81244000D01*
X192638065Y-81844000D01*
X183100000Y-81844000D01*
X183100000Y-80315000D01*
X192640921Y-80315000D01*
X192638065Y-80344000D01*
M02*
