M48
METRIC,TZ
T1C0.300
T2C0.500
T3C0.650
T4C1.000
T5C3.200
%
G90
G05
T1
X149860Y-88900
X149860Y-91440
X149860Y-93980
X149860Y-96520
X149860Y-99060
X149860Y-101600
X152400Y-88900
X152400Y-91440
X152400Y-93980
X152400Y-96520
X152400Y-99060
X152400Y-101600
X154940Y-119380
X154940Y-121920
X157480Y-111760
X157480Y-114300
X157480Y-116840
X157480Y-121920
X160020Y-81280
X160020Y-109220
X160020Y-111760
X160020Y-114300
X160020Y-116840
X160020Y-121920
X160655Y-92710
X162560Y-111760
X162560Y-114300
X162560Y-116840
X162560Y-121920
X163106Y-88811
X163882Y-89940
X165100Y-81280
X165100Y-96520
X165100Y-99060
X165100Y-101600
X165100Y-104140
X165100Y-111760
X165100Y-114300
X165100Y-121920
X167005Y-111125
X167386Y-97155
X167640Y-81280
X167640Y-101600
X167640Y-104140
X167640Y-110490
X167640Y-114300
X167640Y-121920
X170180Y-96520
X170180Y-101600
X170180Y-104140
X170180Y-111760
X170180Y-114300
X170180Y-121920
X172720Y-101600
X172720Y-104140
X172720Y-109220
X172720Y-114300
X172720Y-121920
X174879Y-98298
X175260Y-86360
X175260Y-88900
X175260Y-91440
X175260Y-114300
X175260Y-121920
X176784Y-106045
X177800Y-86360
X177800Y-88900
X177800Y-91440
X177800Y-96520
X177800Y-99060
X177800Y-101600
X177800Y-104140
X177800Y-114300
X177800Y-121920
X180340Y-86360
X180340Y-88900
X180340Y-91440
X180340Y-114300
X180340Y-119380
X180340Y-121920
X182880Y-96520
X182880Y-99060
X182880Y-101600
X182880Y-104140
X182880Y-114300
X182880Y-119380
X182880Y-121920
X185250Y-82169
X185250Y-84328
X185420Y-119380
X185420Y-121920
X186436Y-82169
X186436Y-84328
X186690Y-110490
X187579Y-82169
X187579Y-84328
X187960Y-96520
X187960Y-99060
X187960Y-101600
X187960Y-104140
X187960Y-114300
X187960Y-119380
X187960Y-121920
X188595Y-110490
X188722Y-82169
X188722Y-84328
X189738Y-84963
X189865Y-82169
X190500Y-85852
X190500Y-93980
X190500Y-96520
X190500Y-99060
X190500Y-101600
X190500Y-104140
X190500Y-114300
X190500Y-119380
X190500Y-121920
X190754Y-82931
X191135Y-106045
X191516Y-83693
X191516Y-86487
X192532Y-84328
X192659Y-86487
X193040Y-106680
X193040Y-114300
X193040Y-119380
X193040Y-121920
X195580Y-93980
X195580Y-96520
X195580Y-99060
X195580Y-101600
X195580Y-104140
X195580Y-109220
X195580Y-111760
X195580Y-119380
X195580Y-121920
X198120Y-96520
X198120Y-99060
X198120Y-101600
X198120Y-106680
X198120Y-114300
X198120Y-119380
X198120Y-121920
T2
X198100Y-109500
X198803Y-107803
X198803Y-111197
X200500Y-107100
X200500Y-111900
X202197Y-107803
X202197Y-111197
X202900Y-109500
X148600Y-119500
X149303Y-117803
X149303Y-121197
X151000Y-117100
X151000Y-121900
X152697Y-117803
X152697Y-121197
X153400Y-119500
X148100Y-84000
X148803Y-82303
X148803Y-85697
X150500Y-81600
X150500Y-86400
X152197Y-82303
X152197Y-85697
X152900Y-84000
T3
X164465Y-107315
X164465Y-108585
X165735Y-107315
X165735Y-108585
X167005Y-107315
X167005Y-108585
X168275Y-107315
X168275Y-108585
X169545Y-107315
X169545Y-108585
T4
X165735Y-117475
X168275Y-117475
X170815Y-117475
X173355Y-117475
X175895Y-117475
X178435Y-117475
X180975Y-117475
X183515Y-117475
X186055Y-117475
X188595Y-117475
X191135Y-117475
X193675Y-117475
X196215Y-117475
X198755Y-117475
X149860Y-104140
X149860Y-106680
X149860Y-109220
X149860Y-111760
X149860Y-114300
X155575Y-81280
X155575Y-83820
X155575Y-86360
X155575Y-88900
X155575Y-91440
X155575Y-93980
X155575Y-96520
X155575Y-99060
X155575Y-101600
X155575Y-104140
X155575Y-106680
X155575Y-109220
X155575Y-111760
X155575Y-114300
T5
X200500Y-109500
X151000Y-119500
X150500Y-84000
T0
M30
