G04 #@! TF.GenerationSoftware,KiCad,Pcbnew,(5.1.5)-3*
G04 #@! TF.CreationDate,2020-02-12T21:54:59-05:00*
G04 #@! TF.ProjectId,BGM210P_Proto,42474d32-3130-4505-9f50-726f746f2e6b,rev?*
G04 #@! TF.SameCoordinates,Original*
G04 #@! TF.FileFunction,Legend,Bot*
G04 #@! TF.FilePolarity,Positive*
%FSLAX46Y46*%
G04 Gerber Fmt 4.6, Leading zero omitted, Abs format (unit mm)*
G04 Created by KiCad (PCBNEW (5.1.5)-3) date 2020-02-12 21:54:59*
%MOMM*%
%LPD*%
G04 APERTURE LIST*
%ADD10C,0.010000*%
G04 APERTURE END LIST*
D10*
G36*
X202015823Y-116328171D02*
G01*
X201882823Y-116214507D01*
X201736779Y-116120679D01*
X201469777Y-115966417D01*
X201160737Y-115787718D01*
X200968513Y-115676490D01*
X200678707Y-115488455D01*
X200379349Y-115263117D01*
X200218334Y-115124867D01*
X199847996Y-114820665D01*
X199522873Y-114641285D01*
X199228179Y-114579389D01*
X199128708Y-114584214D01*
X198985470Y-114577316D01*
X198720074Y-114541445D01*
X198351742Y-114480475D01*
X197899693Y-114398282D01*
X197383146Y-114298741D01*
X196821324Y-114185727D01*
X196233443Y-114063116D01*
X195638727Y-113934782D01*
X195056394Y-113804602D01*
X194505664Y-113676450D01*
X194005756Y-113554201D01*
X193949349Y-113539922D01*
X193508349Y-113431762D01*
X193102741Y-113342531D01*
X192704335Y-113268136D01*
X192284938Y-113204482D01*
X191816358Y-113147474D01*
X191270403Y-113093016D01*
X190618881Y-113037015D01*
X190324424Y-113013425D01*
X189446285Y-112943506D01*
X188696456Y-112881656D01*
X188058493Y-112825315D01*
X187515951Y-112771923D01*
X187052390Y-112718923D01*
X186651364Y-112663754D01*
X186296428Y-112603859D01*
X185971141Y-112536678D01*
X185659060Y-112459651D01*
X185343737Y-112370222D01*
X185008733Y-112265829D01*
X184637602Y-112143913D01*
X184550734Y-112114908D01*
X184140213Y-111982106D01*
X183704738Y-111848637D01*
X183302355Y-111731932D01*
X183046053Y-111663052D01*
X182583634Y-111534403D01*
X182121518Y-111385621D01*
X181695002Y-111229620D01*
X181339381Y-111079316D01*
X181089951Y-110947620D01*
X181089025Y-110947026D01*
X180948086Y-110847480D01*
X180917528Y-110768969D01*
X180984407Y-110655988D01*
X181012516Y-110618892D01*
X181181524Y-110453997D01*
X181355291Y-110345749D01*
X181757375Y-110105687D01*
X182061147Y-109803406D01*
X182205903Y-109615684D01*
X181911039Y-109610975D01*
X181685346Y-109612696D01*
X181502967Y-109622936D01*
X181477295Y-109625998D01*
X181455991Y-109616459D01*
X181546100Y-109570017D01*
X181721607Y-109496458D01*
X181956495Y-109405569D01*
X182224750Y-109307135D01*
X182500357Y-109210940D01*
X182757299Y-109126773D01*
X182969560Y-109064418D01*
X182971964Y-109063779D01*
X183197381Y-108998323D01*
X183349531Y-108943018D01*
X183394565Y-108911491D01*
X183316277Y-108893142D01*
X183131764Y-108874350D01*
X182879927Y-108857176D01*
X182599661Y-108843683D01*
X182329865Y-108835930D01*
X182109438Y-108835981D01*
X182033286Y-108839335D01*
X181960933Y-108831599D01*
X182006764Y-108793650D01*
X182148685Y-108732539D01*
X182364602Y-108655316D01*
X182632422Y-108569031D01*
X182930051Y-108480736D01*
X183235394Y-108397482D01*
X183526359Y-108326318D01*
X183780850Y-108274296D01*
X183829236Y-108266201D01*
X184150531Y-108213196D01*
X184345994Y-108173379D01*
X184433519Y-108139706D01*
X184431000Y-108105136D01*
X184356334Y-108062625D01*
X184351794Y-108060517D01*
X184107721Y-108003340D01*
X183913119Y-108011160D01*
X183673420Y-108041374D01*
X183553316Y-108019562D01*
X183533820Y-107936847D01*
X183565114Y-107848424D01*
X183593616Y-107692251D01*
X183504794Y-107601688D01*
X183292268Y-107573066D01*
X183105158Y-107583858D01*
X182842330Y-107598180D01*
X182707422Y-107570658D01*
X182687314Y-107493694D01*
X182753316Y-107380168D01*
X182883609Y-107275741D01*
X183103321Y-107164273D01*
X183320750Y-107084424D01*
X183569915Y-106996577D01*
X183694428Y-106912995D01*
X183692150Y-106819106D01*
X183560939Y-106700340D01*
X183298654Y-106542123D01*
X183235993Y-106507583D01*
X182952129Y-106359350D01*
X182760700Y-106282845D01*
X182631292Y-106272498D01*
X182533494Y-106322737D01*
X182485774Y-106370134D01*
X182344535Y-106463379D01*
X182206613Y-106466728D01*
X182119511Y-106389173D01*
X182112672Y-106299501D01*
X182208381Y-106070342D01*
X182413978Y-105901726D01*
X182663524Y-105801449D01*
X182848991Y-105737618D01*
X183107026Y-105639565D01*
X183408514Y-105519469D01*
X183724341Y-105389515D01*
X184025395Y-105261883D01*
X184282558Y-105148757D01*
X184466719Y-105062317D01*
X184548763Y-105014745D01*
X184550435Y-105011926D01*
X184489801Y-104989684D01*
X184316552Y-104987832D01*
X184061335Y-105003473D01*
X183754801Y-105033717D01*
X183427595Y-105075666D01*
X183110368Y-105126431D01*
X182901786Y-105167591D01*
X182526526Y-105248567D01*
X182270879Y-105299047D01*
X182112944Y-105320782D01*
X182030816Y-105315524D01*
X182002595Y-105285024D01*
X182004850Y-105239304D01*
X182097647Y-105093932D01*
X182323822Y-104925248D01*
X182674671Y-104739587D01*
X182722002Y-104717714D01*
X182924432Y-104614801D01*
X183061063Y-104525332D01*
X183095920Y-104484523D01*
X183044501Y-104421721D01*
X182897239Y-104380144D01*
X182702551Y-104364997D01*
X182508848Y-104381482D01*
X182408651Y-104410652D01*
X182219283Y-104467297D01*
X182141892Y-104435976D01*
X182182700Y-104328133D01*
X182295704Y-104202877D01*
X182436346Y-104059546D01*
X182520200Y-103955955D01*
X182529340Y-103936458D01*
X182468773Y-103930708D01*
X182298376Y-103958670D01*
X182048043Y-104014774D01*
X181880304Y-104057405D01*
X181592065Y-104132368D01*
X181361803Y-104190033D01*
X181221824Y-104222422D01*
X181195088Y-104226586D01*
X181203694Y-104164184D01*
X181256814Y-104012443D01*
X181289196Y-103932192D01*
X181421166Y-103679371D01*
X181585910Y-103450070D01*
X181752029Y-103282784D01*
X181871738Y-103217930D01*
X181955988Y-103170765D01*
X182139122Y-103048657D01*
X182403914Y-102863758D01*
X182733136Y-102628216D01*
X183109562Y-102354178D01*
X183392938Y-102145197D01*
X183746847Y-101881299D01*
X184058659Y-101643638D01*
X184341490Y-101419663D01*
X184608456Y-101196817D01*
X184872675Y-100962548D01*
X185147262Y-100704304D01*
X185445333Y-100409529D01*
X185780005Y-100065671D01*
X186164394Y-99660176D01*
X186611617Y-99180491D01*
X187134790Y-98614061D01*
X187521229Y-98194032D01*
X188383816Y-97303796D01*
X189321632Y-96422414D01*
X190002729Y-95831331D01*
X190350694Y-95502525D01*
X190716602Y-95093261D01*
X191068231Y-94644904D01*
X191373360Y-94198817D01*
X191599766Y-93796367D01*
X191617809Y-93758002D01*
X191704554Y-93601839D01*
X191860507Y-93353075D01*
X192069386Y-93036401D01*
X192314911Y-92676513D01*
X192575415Y-92305653D01*
X192920430Y-91807389D01*
X193221454Y-91344397D01*
X193463167Y-90941255D01*
X193630254Y-90622540D01*
X193646030Y-90587834D01*
X193944931Y-89999857D01*
X194324154Y-89382990D01*
X194746351Y-88793312D01*
X195174170Y-88286903D01*
X195188838Y-88271322D01*
X195399477Y-88052833D01*
X195580198Y-87873226D01*
X195702581Y-87760433D01*
X195729701Y-87739733D01*
X195846715Y-87633899D01*
X195985339Y-87464592D01*
X196116949Y-87273716D01*
X196212917Y-87103173D01*
X196244616Y-86994866D01*
X196242928Y-86988496D01*
X196196754Y-86920803D01*
X196118584Y-86907998D01*
X195988526Y-86958271D01*
X195786689Y-87079815D01*
X195493183Y-87280822D01*
X195437247Y-87320294D01*
X195135564Y-87521427D01*
X194886561Y-87663373D01*
X194714411Y-87733065D01*
X194666266Y-87737032D01*
X194417324Y-87748830D01*
X194127291Y-87870484D01*
X193783385Y-88108308D01*
X193593921Y-88266894D01*
X193332415Y-88491412D01*
X193105820Y-88671601D01*
X192879802Y-88830295D01*
X192620023Y-88990330D01*
X192292149Y-89174540D01*
X191960437Y-89353224D01*
X191665532Y-89501928D01*
X191406673Y-89616633D01*
X191216798Y-89683637D01*
X191140091Y-89694456D01*
X190965409Y-89693049D01*
X190790161Y-89764344D01*
X190587472Y-89924624D01*
X190341042Y-90178512D01*
X190143334Y-90377770D01*
X189972408Y-90517248D01*
X189858764Y-90572555D01*
X189848856Y-90572142D01*
X189711936Y-90598731D01*
X189553044Y-90688274D01*
X189420355Y-90774783D01*
X189190960Y-90910276D01*
X188896729Y-91076407D01*
X188569537Y-91254827D01*
X188559451Y-91260228D01*
X188053306Y-91548392D01*
X187547635Y-91867778D01*
X187061060Y-92203806D01*
X186612201Y-92541898D01*
X186219682Y-92867474D01*
X185902120Y-93165954D01*
X185678139Y-93422759D01*
X185575624Y-93596404D01*
X185455815Y-93763063D01*
X185209229Y-93981099D01*
X184880389Y-94219066D01*
X184554828Y-94460869D01*
X184191515Y-94764051D01*
X183847337Y-95079945D01*
X183693310Y-95234647D01*
X183455110Y-95479335D01*
X183245417Y-95686144D01*
X183088872Y-95831299D01*
X183015257Y-95888843D01*
X182923114Y-95976223D01*
X182788391Y-96149047D01*
X182658492Y-96341772D01*
X182462887Y-96645331D01*
X182287340Y-96895457D01*
X182111132Y-97112056D01*
X181913541Y-97315032D01*
X181673849Y-97524289D01*
X181371334Y-97759735D01*
X180985280Y-98041271D01*
X180617977Y-98302041D01*
X180174117Y-98613243D01*
X179832091Y-98847032D01*
X179576947Y-99012176D01*
X179393734Y-99117447D01*
X179267498Y-99171613D01*
X179183287Y-99183443D01*
X179138546Y-99169714D01*
X179070394Y-99134290D01*
X178993382Y-99105738D01*
X178884143Y-99080196D01*
X178719313Y-99053801D01*
X178475520Y-99022692D01*
X178129400Y-98983007D01*
X177764823Y-98942676D01*
X177373524Y-98896179D01*
X177098006Y-98853247D01*
X176909267Y-98807284D01*
X176778303Y-98751689D01*
X176702089Y-98700906D01*
X176557136Y-98588448D01*
X176338419Y-98418652D01*
X176086787Y-98223229D01*
X176016199Y-98168397D01*
X175518026Y-97781398D01*
X174845607Y-97702471D01*
X174383584Y-97655770D01*
X174039334Y-97641631D01*
X173788599Y-97662728D01*
X173607121Y-97721733D01*
X173470643Y-97821320D01*
X173436391Y-97857747D01*
X173266125Y-98051520D01*
X172943007Y-97635498D01*
X172792457Y-97448811D01*
X172658910Y-97312633D01*
X172507564Y-97203622D01*
X172303614Y-97098435D01*
X172012256Y-96973731D01*
X171869803Y-96915731D01*
X171225477Y-96691863D01*
X170635083Y-96570611D01*
X170057158Y-96545201D01*
X169742417Y-96568203D01*
X169418923Y-96568609D01*
X169111785Y-96485376D01*
X168783411Y-96304874D01*
X168549476Y-96135671D01*
X168258044Y-95924868D01*
X168027071Y-95787004D01*
X167873686Y-95731201D01*
X167820574Y-95747487D01*
X167747704Y-95737784D01*
X167578992Y-95668911D01*
X167344511Y-95553896D01*
X167217789Y-95486322D01*
X166613813Y-95162652D01*
X166061232Y-94879155D01*
X165575301Y-94643049D01*
X165171275Y-94461551D01*
X164864413Y-94341877D01*
X164701132Y-94295869D01*
X164409393Y-94261411D01*
X164018384Y-94242471D01*
X163573138Y-94238948D01*
X163118684Y-94250747D01*
X162700055Y-94277772D01*
X162489564Y-94300626D01*
X162227127Y-94350277D01*
X161874588Y-94437897D01*
X161477987Y-94551139D01*
X161083364Y-94677655D01*
X161081636Y-94678244D01*
X160728264Y-94793019D01*
X160413241Y-94884577D01*
X160167438Y-94944698D01*
X160021723Y-94965161D01*
X160008546Y-94964005D01*
X159868850Y-94903875D01*
X159672184Y-94777666D01*
X159523754Y-94663517D01*
X159185520Y-94423681D01*
X158866610Y-94273673D01*
X158594205Y-94224758D01*
X158497006Y-94237915D01*
X158244447Y-94287279D01*
X157971364Y-94312661D01*
X157730877Y-94311679D01*
X157576106Y-94281949D01*
X157571172Y-94279452D01*
X157480700Y-94180973D01*
X157370954Y-93993990D01*
X157301363Y-93842941D01*
X157102664Y-93462994D01*
X156859643Y-93204325D01*
X156545702Y-93044155D01*
X156297483Y-92983207D01*
X155945120Y-92945527D01*
X155624041Y-92974260D01*
X155285397Y-93078790D01*
X154920992Y-93247589D01*
X154416136Y-93474794D01*
X153951799Y-93608140D01*
X153475012Y-93656787D01*
X152932808Y-93629898D01*
X152798771Y-93614669D01*
X152413596Y-93572535D01*
X152136097Y-93565075D01*
X151930517Y-93604750D01*
X151761097Y-93704029D01*
X151592080Y-93875375D01*
X151413905Y-94097448D01*
X151217503Y-94367286D01*
X150984875Y-94713253D01*
X150732378Y-95108120D01*
X150476370Y-95524666D01*
X150233209Y-95935662D01*
X150019254Y-96313886D01*
X149850861Y-96632111D01*
X149744390Y-96863113D01*
X149731723Y-96897147D01*
X149655156Y-97185608D01*
X149581051Y-97595867D01*
X149513364Y-98104581D01*
X149489227Y-98327895D01*
X149427938Y-98860224D01*
X149362162Y-99278897D01*
X149286219Y-99615391D01*
X149216136Y-99841446D01*
X149092741Y-100241068D01*
X149000768Y-100636316D01*
X148947200Y-100988447D01*
X148939013Y-101258718D01*
X148948361Y-101327764D01*
X148993020Y-101465374D01*
X149084688Y-101698789D01*
X149208881Y-101992338D01*
X149317218Y-102236151D01*
X149461642Y-102559162D01*
X149552511Y-102786656D01*
X149597364Y-102954771D01*
X149603740Y-103099647D01*
X149579181Y-103257423D01*
X149553662Y-103369388D01*
X149506978Y-103623662D01*
X149507252Y-103844049D01*
X149564971Y-104063214D01*
X149615114Y-104163224D01*
X149948967Y-102269848D01*
X149918846Y-102185357D01*
X149916041Y-102174721D01*
X149779979Y-101653100D01*
X149678147Y-101242869D01*
X149610395Y-100914407D01*
X149576572Y-100638095D01*
X149576527Y-100384309D01*
X149610109Y-100123429D01*
X149677167Y-99825833D01*
X149777551Y-99461901D01*
X149900075Y-99040040D01*
X150109535Y-98326721D01*
X150290846Y-97733083D01*
X150452861Y-97238457D01*
X150604436Y-96822179D01*
X150754424Y-96463581D01*
X150911680Y-96141996D01*
X151085057Y-95836759D01*
X151283411Y-95527202D01*
X151515594Y-95192659D01*
X151597253Y-95078663D01*
X151914168Y-94666168D01*
X152185726Y-94376863D01*
X152424409Y-94200816D01*
X152642700Y-94128094D01*
X152786208Y-94132657D01*
X152987984Y-94119398D01*
X153129131Y-94054786D01*
X153219049Y-93996652D01*
X153312175Y-93985128D01*
X153451083Y-94025521D01*
X153678348Y-94123137D01*
X153678681Y-94123286D01*
X154083154Y-94304544D01*
X153935145Y-94498523D01*
X153787136Y-94692501D01*
X153653773Y-94514154D01*
X153508109Y-94361421D01*
X153356852Y-94306540D01*
X153180058Y-94354651D01*
X152957783Y-94510895D01*
X152687226Y-94763276D01*
X152309090Y-95157544D01*
X152041433Y-95482546D01*
X151877499Y-95754586D01*
X151810534Y-95989969D01*
X151833779Y-96205001D01*
X151940482Y-96415986D01*
X151979842Y-96470586D01*
X152074309Y-96628608D01*
X152080310Y-96779993D01*
X152034619Y-96928987D01*
X151966128Y-97102035D01*
X151917145Y-97203559D01*
X151910828Y-97211453D01*
X151852021Y-97176036D01*
X151738546Y-97060051D01*
X151693038Y-97007247D01*
X151558977Y-96861524D01*
X151457802Y-96776735D01*
X151440229Y-96769273D01*
X151330441Y-96818278D01*
X151186168Y-96980039D01*
X151019555Y-97229864D01*
X150842747Y-97543061D01*
X150667885Y-97894935D01*
X150507115Y-98260797D01*
X150372578Y-98615950D01*
X150276420Y-98935704D01*
X150230781Y-99195366D01*
X150228905Y-99232394D01*
X150247929Y-99497914D01*
X150319907Y-99639031D01*
X150332495Y-99647397D01*
X150459087Y-99750046D01*
X150580400Y-99883890D01*
X150660830Y-100039250D01*
X150662932Y-100066077D01*
X150790033Y-99345251D01*
X150748963Y-99328039D01*
X150586620Y-99164404D01*
X150548400Y-99039905D01*
X150563764Y-99000365D01*
X150608949Y-98900451D01*
X150691869Y-98695400D01*
X150800206Y-98416316D01*
X150907167Y-98133164D01*
X151048926Y-97753248D01*
X151150319Y-97490715D01*
X151223248Y-97327542D01*
X151279617Y-97245706D01*
X151331329Y-97227185D01*
X151390286Y-97253958D01*
X151457181Y-97300375D01*
X151538283Y-97365743D01*
X151582732Y-97443077D01*
X151587880Y-97557366D01*
X151551077Y-97733601D01*
X151469671Y-97996770D01*
X151344659Y-98361400D01*
X151183119Y-98783611D01*
X151033229Y-99094173D01*
X150900398Y-99284312D01*
X150790033Y-99345251D01*
X150662932Y-100066077D01*
X150676202Y-100235409D01*
X150623318Y-100497011D01*
X150498976Y-100848696D01*
X150434837Y-101005115D01*
X150305541Y-101332889D01*
X150176851Y-101691463D01*
X150102785Y-101919095D01*
X150028705Y-102153461D01*
X149981509Y-102264797D01*
X149948967Y-102269848D01*
X149615114Y-104163224D01*
X149690619Y-104313821D01*
X149894679Y-104628535D01*
X150011055Y-104794393D01*
X150234679Y-105093551D01*
X150415523Y-105293923D01*
X150581840Y-105423301D01*
X150722200Y-105493858D01*
X150966965Y-105628140D01*
X151210936Y-105812115D01*
X151275019Y-105872422D01*
X151545620Y-106084497D01*
X151890872Y-106229345D01*
X151939587Y-106243639D01*
X152266808Y-106363602D01*
X152500632Y-106505884D01*
X152621439Y-106656282D01*
X152631521Y-106744456D01*
X152666012Y-106871284D01*
X152740214Y-106963877D01*
X152833774Y-107090312D01*
X152850658Y-107173359D01*
X152866823Y-107312353D01*
X152937061Y-107540232D01*
X153048684Y-107830269D01*
X153189005Y-108155740D01*
X153345334Y-108489919D01*
X153504986Y-108806078D01*
X153655272Y-109077493D01*
X153783504Y-109277439D01*
X153876992Y-109379190D01*
X153901327Y-109386482D01*
X153975466Y-109444761D01*
X154080546Y-109619603D01*
X154205087Y-109888768D01*
X154337611Y-110230012D01*
X154339720Y-110235897D01*
X154458537Y-110448957D01*
X154669072Y-110715267D01*
X154942642Y-111007030D01*
X155250560Y-111296446D01*
X155564140Y-111555717D01*
X155854697Y-111757041D01*
X155981320Y-111826771D01*
X156270842Y-111981536D01*
X156568136Y-112161209D01*
X156707664Y-112255172D01*
X156841241Y-112345849D01*
X156995390Y-112438996D01*
X157189846Y-112544658D01*
X157444348Y-112672882D01*
X157778627Y-112833713D01*
X158212423Y-113037198D01*
X158567252Y-113201791D01*
X158801099Y-113296312D01*
X159016378Y-113361730D01*
X159071410Y-113372498D01*
X159210952Y-113414469D01*
X159257126Y-113468540D01*
X159266021Y-113493383D01*
X159311890Y-113521546D01*
X159410490Y-113557320D01*
X159577575Y-113604998D01*
X159828902Y-113668869D01*
X160180227Y-113753228D01*
X160647305Y-113862364D01*
X161014970Y-113947361D01*
X161377828Y-114042086D01*
X161796051Y-114167783D01*
X162190683Y-114300433D01*
X162265002Y-114327608D01*
X162913137Y-114569038D01*
X163655394Y-115636590D01*
X163971470Y-116076490D01*
X164270784Y-116465340D01*
X164534919Y-116780324D01*
X164745457Y-116998628D01*
X164778468Y-117027794D01*
X165397164Y-117477635D01*
X166030431Y-117785007D01*
X166686349Y-117952441D01*
X166954299Y-117964158D01*
X167012452Y-117634356D01*
X166372751Y-117480574D01*
X165780771Y-117195773D01*
X165424889Y-116938261D01*
X165271471Y-116791596D01*
X165089107Y-116590845D01*
X164899262Y-116363519D01*
X164723407Y-116137134D01*
X164583009Y-115939200D01*
X164499537Y-115797232D01*
X164490232Y-115740435D01*
X164552609Y-115778188D01*
X164685776Y-115902439D01*
X164865544Y-116089930D01*
X164947273Y-116179870D01*
X165192744Y-116435235D01*
X165431041Y-116632038D01*
X165691776Y-116784003D01*
X166004564Y-116904854D01*
X166399018Y-117008315D01*
X166904753Y-117108111D01*
X166978571Y-117121241D01*
X167492888Y-117200425D01*
X167516582Y-117202101D01*
X167591835Y-116775321D01*
X167195536Y-116704581D01*
X166847128Y-116629551D01*
X166504437Y-116554519D01*
X166243510Y-116493497D01*
X166039952Y-116430897D01*
X165869371Y-116351130D01*
X165707371Y-116238610D01*
X165529563Y-116077747D01*
X165311550Y-115852954D01*
X165028942Y-115548644D01*
X164844888Y-115350068D01*
X164607239Y-115091059D01*
X164406314Y-114865683D01*
X164262855Y-114697651D01*
X164197604Y-114610673D01*
X164197024Y-114609459D01*
X164186361Y-114492958D01*
X164202079Y-114289750D01*
X164222392Y-114152148D01*
X164282525Y-113912923D01*
X164388750Y-113684186D01*
X164565171Y-113418222D01*
X164651086Y-113303415D01*
X164968855Y-112915303D01*
X165315930Y-112538559D01*
X165661936Y-112203275D01*
X165976499Y-111939546D01*
X166144195Y-111824085D01*
X166553426Y-111654315D01*
X166986481Y-111627673D01*
X167424977Y-111737086D01*
X167881675Y-111965555D01*
X168310600Y-112272356D01*
X168686631Y-112631763D01*
X168984651Y-113018049D01*
X169179541Y-113405487D01*
X169229218Y-113585023D01*
X169257350Y-113775041D01*
X169255402Y-113948720D01*
X169217294Y-114152354D01*
X169136940Y-114432233D01*
X169104233Y-114536265D01*
X168986173Y-114865420D01*
X168866313Y-115126018D01*
X168761147Y-115282455D01*
X168756505Y-115286966D01*
X168621593Y-115377385D01*
X168389732Y-115497644D01*
X168100405Y-115628064D01*
X167943463Y-115692143D01*
X167286294Y-115950666D01*
X166858950Y-115783865D01*
X166338548Y-115528692D01*
X165885137Y-115203902D01*
X165535136Y-114836205D01*
X165498947Y-114786385D01*
X165370716Y-114588274D01*
X165314145Y-114431543D01*
X165315743Y-114250410D01*
X165348303Y-114051947D01*
X165426354Y-113757092D01*
X165539378Y-113466716D01*
X165603128Y-113344289D01*
X165856929Y-113050448D01*
X166185766Y-112858924D01*
X166562202Y-112769242D01*
X166958800Y-112780931D01*
X167348121Y-112893517D01*
X167702730Y-113106525D01*
X167970568Y-113385121D01*
X168153115Y-113724588D01*
X168191153Y-114052895D01*
X168084597Y-114370439D01*
X167833358Y-114677619D01*
X167654085Y-114826973D01*
X167490999Y-114925412D01*
X167321950Y-114955125D01*
X167082019Y-114927162D01*
X167073983Y-114925718D01*
X166702802Y-114813243D01*
X166389573Y-114631716D01*
X166167138Y-114403870D01*
X166087083Y-114242608D01*
X166055247Y-114034633D01*
X166119547Y-113867676D01*
X166297085Y-113714429D01*
X166484957Y-113607347D01*
X166762208Y-113522140D01*
X166995233Y-113567914D01*
X167168464Y-113740595D01*
X167196205Y-113793489D01*
X167235583Y-113912141D01*
X167199014Y-114002581D01*
X167063995Y-114115752D01*
X167048974Y-114126795D01*
X166891226Y-114257453D01*
X166863416Y-114324284D01*
X166966283Y-114328531D01*
X167144196Y-114287419D01*
X167415667Y-114158253D01*
X167584770Y-113961320D01*
X167632416Y-113721187D01*
X167625306Y-113668101D01*
X167516594Y-113439909D01*
X167306272Y-113235662D01*
X167037340Y-113091695D01*
X166899166Y-113054512D01*
X166747190Y-113041243D01*
X166601132Y-113070534D01*
X166423120Y-113156884D01*
X166175281Y-113314792D01*
X166117791Y-113353660D01*
X165869875Y-113525180D01*
X165717623Y-113647681D01*
X165636140Y-113752963D01*
X165600532Y-113872829D01*
X165586306Y-114032637D01*
X165593250Y-114287561D01*
X165635841Y-114518833D01*
X165654889Y-114572447D01*
X165803666Y-114778229D01*
X166058715Y-114989722D01*
X166384216Y-115183050D01*
X166744346Y-115334335D01*
X166844449Y-115365325D01*
X167207276Y-115433836D01*
X167516202Y-115403909D01*
X167806728Y-115264519D01*
X168114354Y-115004636D01*
X168163045Y-114955726D01*
X168462080Y-114566991D01*
X168625221Y-114164895D01*
X168658832Y-113764873D01*
X168569276Y-113382367D01*
X168362914Y-113032811D01*
X168046113Y-112731646D01*
X167625234Y-112494309D01*
X167106639Y-112336239D01*
X167081324Y-112331278D01*
X166806595Y-112292798D01*
X166568335Y-112302358D01*
X166296838Y-112365785D01*
X166161354Y-112408183D01*
X165761168Y-112576333D01*
X165449714Y-112802368D01*
X165205605Y-113110448D01*
X165007454Y-113524735D01*
X164903220Y-113829482D01*
X164821739Y-114217812D01*
X164846714Y-114555643D01*
X164986464Y-114887099D01*
X165147777Y-115126684D01*
X165471502Y-115502309D01*
X165829546Y-115794533D01*
X166272790Y-116043494D01*
X166363962Y-116086086D01*
X166713492Y-116227278D01*
X167027362Y-116304356D01*
X167337091Y-116314838D01*
X167674197Y-116256242D01*
X168070199Y-116126084D01*
X168556614Y-115921885D01*
X168579640Y-115911585D01*
X168883361Y-115754991D01*
X169114126Y-115577674D01*
X169288265Y-115353619D01*
X169422112Y-115056810D01*
X169531998Y-114661230D01*
X169611481Y-114267929D01*
X169762136Y-113445577D01*
X169571145Y-113044917D01*
X169258529Y-112528067D01*
X168854500Y-112074408D01*
X168382461Y-111698628D01*
X167865811Y-111415412D01*
X167327959Y-111239447D01*
X166792304Y-111185418D01*
X166625237Y-111196274D01*
X166260633Y-111281014D01*
X165892550Y-111462523D01*
X165503429Y-111752098D01*
X165075713Y-112161029D01*
X164998425Y-112242668D01*
X164780743Y-112458899D01*
X164646069Y-112556328D01*
X164596793Y-112536841D01*
X164635303Y-112402332D01*
X164763989Y-112154689D01*
X164802965Y-112088029D01*
X165114304Y-111617349D01*
X165416372Y-111266181D01*
X165701099Y-111042948D01*
X165874050Y-110970182D01*
X166060736Y-110956172D01*
X166359011Y-110972943D01*
X166739844Y-111015306D01*
X167174209Y-111078077D01*
X167633078Y-111156066D01*
X168087421Y-111244089D01*
X168508213Y-111336957D01*
X168866421Y-111429484D01*
X169133022Y-111516483D01*
X169254112Y-111574158D01*
X169344237Y-111633187D01*
X169417414Y-111692216D01*
X169484963Y-111771145D01*
X169558200Y-111889871D01*
X169648445Y-112068295D01*
X169767015Y-112326313D01*
X169925229Y-112683826D01*
X170059802Y-112990653D01*
X170447581Y-113875114D01*
X170259336Y-114352274D01*
X170065445Y-114750292D01*
X169788306Y-115196007D01*
X169458554Y-115647135D01*
X169106827Y-116061392D01*
X168803006Y-116362262D01*
X168566396Y-116560376D01*
X168356100Y-116696759D01*
X168142991Y-116775391D01*
X167897945Y-116800252D01*
X167591835Y-116775321D01*
X167516582Y-117202101D01*
X167900065Y-117229213D01*
X168231530Y-117200401D01*
X168518709Y-117106788D01*
X168793030Y-116941169D01*
X169085920Y-116696343D01*
X169168463Y-116619325D01*
X169405267Y-116380615D01*
X169656424Y-116103702D01*
X169900591Y-115815056D01*
X170116429Y-115541145D01*
X170282597Y-115308440D01*
X170377752Y-115143408D01*
X170391033Y-115102955D01*
X170451666Y-115018227D01*
X170488962Y-115013652D01*
X170530982Y-115084509D01*
X170506436Y-115251399D01*
X170426094Y-115487532D01*
X170300726Y-115766120D01*
X170141105Y-116060373D01*
X169958002Y-116343503D01*
X169949428Y-116355491D01*
X169522455Y-116860332D01*
X169054565Y-117232778D01*
X168526188Y-117484000D01*
X167917753Y-117625167D01*
X167679956Y-117650829D01*
X167012452Y-117634356D01*
X166954299Y-117964158D01*
X167372996Y-117982466D01*
X167718773Y-117948401D01*
X168201365Y-117860826D01*
X168784144Y-117724583D01*
X169435010Y-117549791D01*
X170121867Y-117346572D01*
X170409666Y-117254272D01*
X170580993Y-116282626D01*
X170601104Y-116227948D01*
X170688061Y-116095681D01*
X170748107Y-116013736D01*
X170845985Y-115863568D01*
X170924374Y-115685484D01*
X170994628Y-115445060D01*
X171068101Y-115107870D01*
X171098371Y-114951710D01*
X171173189Y-114507313D01*
X171201865Y-114165981D01*
X171180004Y-113891766D01*
X171103204Y-113648722D01*
X170967070Y-113400902D01*
X170895385Y-113292924D01*
X170724371Y-112962097D01*
X170627824Y-112558671D01*
X170617682Y-112480584D01*
X170515198Y-112010366D01*
X170333342Y-111635414D01*
X170212427Y-111432187D01*
X170135383Y-111274155D01*
X170119356Y-111210725D01*
X170070927Y-111138830D01*
X169930301Y-111002034D01*
X169721429Y-110822474D01*
X169554799Y-110688930D01*
X168977662Y-110238487D01*
X169001063Y-109899348D01*
X169014025Y-109489206D01*
X168996550Y-109127765D01*
X168951150Y-108856881D01*
X168935513Y-108807614D01*
X168906866Y-108650632D01*
X168893184Y-108409463D01*
X168895157Y-108210971D01*
X168891880Y-107945616D01*
X168858178Y-107799243D01*
X168823860Y-107774676D01*
X168756735Y-107720866D01*
X168754726Y-107666024D01*
X168733123Y-107585941D01*
X168695116Y-107586171D01*
X168621950Y-107684798D01*
X168571141Y-107889560D01*
X168547971Y-108162460D01*
X168557726Y-108465495D01*
X168564220Y-108527446D01*
X168578761Y-108806599D01*
X168536807Y-109019109D01*
X168486251Y-109133360D01*
X168269936Y-109530403D01*
X168087796Y-109808004D01*
X167926913Y-109984009D01*
X167817163Y-110057756D01*
X167502999Y-110146840D01*
X167107450Y-110155671D01*
X166669252Y-110085470D01*
X166424777Y-110013847D01*
X166038828Y-109875783D01*
X165756378Y-109753491D01*
X165541480Y-109622478D01*
X165358187Y-109458248D01*
X165170552Y-109236305D01*
X165049412Y-109076644D01*
X164785596Y-108751280D01*
X164564939Y-108551645D01*
X164371400Y-108470952D01*
X164188937Y-108502409D01*
X164005933Y-108635004D01*
X163862553Y-108750051D01*
X163759166Y-108762883D01*
X163687614Y-108720288D01*
X163566055Y-108657564D01*
X163506828Y-108661046D01*
X163503304Y-108738314D01*
X163627990Y-108870792D01*
X163876520Y-109054610D01*
X164140598Y-109223243D01*
X164406944Y-109408235D01*
X164654579Y-109617643D01*
X164815635Y-109789296D01*
X165037757Y-110078651D01*
X164728401Y-110300799D01*
X164498567Y-110498957D01*
X164399895Y-110679094D01*
X164423770Y-110862298D01*
X164466371Y-110942222D01*
X164507418Y-111025195D01*
X164509004Y-111113443D01*
X164460466Y-111239159D01*
X164351139Y-111434539D01*
X164245487Y-111609141D01*
X164051037Y-111940408D01*
X163846185Y-112310020D01*
X163677523Y-112633557D01*
X163497620Y-112981959D01*
X163349176Y-113223927D01*
X163207144Y-113386712D01*
X163046471Y-113497573D01*
X162842109Y-113583760D01*
X162786664Y-113602835D01*
X162396010Y-113690277D01*
X162043234Y-113686516D01*
X161757449Y-113595183D01*
X161590721Y-113453792D01*
X161502729Y-113358918D01*
X161381509Y-113285569D01*
X161194070Y-113220165D01*
X160907417Y-113149128D01*
X160784295Y-113121888D01*
X160311839Y-113008828D01*
X159825343Y-112874420D01*
X159352918Y-112728133D01*
X158922675Y-112579432D01*
X158562726Y-112437785D01*
X158301182Y-112312661D01*
X158210432Y-112255049D01*
X157992051Y-112123132D01*
X157767885Y-112035111D01*
X157727401Y-112026081D01*
X157496704Y-111948226D01*
X157298159Y-111831767D01*
X157149025Y-111731679D01*
X156910240Y-111589759D01*
X156621842Y-111429346D01*
X156464778Y-111345963D01*
X156241065Y-111225182D01*
X156052659Y-111108592D01*
X155883146Y-110978580D01*
X155716114Y-110817532D01*
X155535148Y-110607836D01*
X155323836Y-110331878D01*
X155065765Y-109972044D01*
X154744520Y-109510723D01*
X154715652Y-109468981D01*
X154607199Y-109299748D01*
X154491288Y-109100575D01*
X154387907Y-108908756D01*
X154317045Y-108761585D01*
X154298693Y-108696355D01*
X154301266Y-108695849D01*
X154438506Y-108702811D01*
X154675979Y-108699613D01*
X154969297Y-108688391D01*
X155274072Y-108671278D01*
X155545917Y-108650410D01*
X155740443Y-108627922D01*
X155751389Y-108626108D01*
X155999854Y-108602076D01*
X156160730Y-108638718D01*
X156209668Y-108670383D01*
X156398785Y-108747341D01*
X156659281Y-108770030D01*
X156927722Y-108737959D01*
X157096882Y-108677264D01*
X157510831Y-108513742D01*
X157999631Y-108430249D01*
X158157713Y-108419723D01*
X158472262Y-108381997D01*
X158815676Y-108307809D01*
X158977020Y-108259537D01*
X159227602Y-108187351D01*
X159444981Y-108148140D01*
X159549533Y-108147064D01*
X159714352Y-108138025D01*
X159938059Y-108082048D01*
X160028408Y-108049575D01*
X160296870Y-107959081D01*
X160453609Y-107947605D01*
X160508768Y-108015331D01*
X160505886Y-108058154D01*
X160548116Y-108151227D01*
X160689490Y-108193857D01*
X160890686Y-108179111D01*
X161006169Y-108146367D01*
X161212977Y-108110581D01*
X161453756Y-108117900D01*
X161476005Y-108121287D01*
X161734926Y-108138765D01*
X161978767Y-108087586D01*
X162259932Y-107954376D01*
X162360990Y-107895461D01*
X162631708Y-107732929D01*
X162419032Y-107695429D01*
X162258728Y-107648129D01*
X162179448Y-107590370D01*
X162100617Y-107538200D01*
X161920322Y-107467099D01*
X161685024Y-107394608D01*
X161388639Y-107325080D01*
X161187903Y-107310151D01*
X161050911Y-107344120D01*
X160913386Y-107387495D01*
X160818181Y-107333258D01*
X160775954Y-107282415D01*
X160694520Y-107197521D01*
X160597910Y-107173960D01*
X160431689Y-107203335D01*
X160367294Y-107219385D01*
X160125982Y-107253233D01*
X159941165Y-107228872D01*
X159924590Y-107221301D01*
X159727079Y-107198304D01*
X159548607Y-107258004D01*
X159352235Y-107327435D01*
X159189079Y-107346612D01*
X159179141Y-107345221D01*
X159030355Y-107361099D01*
X158827805Y-107430197D01*
X158769572Y-107457231D01*
X158576141Y-107538866D01*
X158427416Y-107576654D01*
X158399725Y-107576245D01*
X158243941Y-107588980D01*
X158002823Y-107652135D01*
X157720813Y-107751139D01*
X157442356Y-107871417D01*
X157337597Y-107924533D01*
X157137929Y-108020419D01*
X157010181Y-108041873D01*
X156905451Y-107994891D01*
X156885680Y-107979951D01*
X156774187Y-107920447D01*
X156619912Y-107903832D01*
X156380154Y-107927324D01*
X156289292Y-107941122D01*
X155818578Y-108011193D01*
X155457662Y-108050289D01*
X155174284Y-108057188D01*
X154936180Y-108030671D01*
X154711091Y-107969516D01*
X154466755Y-107872501D01*
X154465866Y-107872114D01*
X154185485Y-107739969D01*
X153926008Y-107600929D01*
X153752009Y-107490832D01*
X153512045Y-107263887D01*
X153248691Y-106933152D01*
X152984910Y-106532380D01*
X152743665Y-106095322D01*
X152614777Y-105819292D01*
X152470841Y-105508268D01*
X152317583Y-105212810D01*
X152182635Y-104985358D01*
X152152339Y-104941608D01*
X151948114Y-104662136D01*
X151757142Y-104787161D01*
X151646786Y-104851351D01*
X151546748Y-104870715D01*
X151413023Y-104841125D01*
X151201610Y-104758454D01*
X151129813Y-104728314D01*
X150802118Y-104560940D01*
X150567485Y-104363674D01*
X150479256Y-104256221D01*
X150362001Y-104095647D01*
X150275060Y-103955595D01*
X150221002Y-103817521D01*
X150202399Y-103662882D01*
X150221822Y-103473134D01*
X150281841Y-103229733D01*
X150385027Y-102914134D01*
X150533953Y-102507795D01*
X150731188Y-101992170D01*
X150827875Y-101741602D01*
X150985791Y-101322162D01*
X151128780Y-100923177D01*
X151246491Y-100575013D01*
X151328579Y-100308034D01*
X151360880Y-100177538D01*
X151435192Y-99899386D01*
X151542099Y-99629439D01*
X151579676Y-99557272D01*
X151694303Y-99309179D01*
X151775637Y-99049321D01*
X151782739Y-99014186D01*
X151900503Y-98614121D01*
X152037039Y-98317793D01*
X152402284Y-96246391D01*
X152279936Y-96124392D01*
X152269621Y-96111070D01*
X152112192Y-95905235D01*
X152333978Y-95700821D01*
X152492373Y-95531384D01*
X152683295Y-95294360D01*
X152842149Y-95074439D01*
X152996368Y-94859284D01*
X153128510Y-94696285D01*
X153210654Y-94619804D01*
X153212059Y-94619203D01*
X153332874Y-94637339D01*
X153456290Y-94739514D01*
X153530972Y-94875020D01*
X153534340Y-94937568D01*
X153478931Y-95038906D01*
X153346318Y-95217281D01*
X153158745Y-95444008D01*
X153016385Y-95605387D01*
X152802760Y-95844429D01*
X152625317Y-96048195D01*
X152507279Y-96189726D01*
X152473148Y-96236037D01*
X152402284Y-96246391D01*
X152037039Y-98317793D01*
X152117528Y-98143106D01*
X152422516Y-97624232D01*
X152573063Y-97399118D01*
X152762770Y-97118428D01*
X152937337Y-96848533D01*
X153067299Y-96635362D01*
X153096113Y-96583920D01*
X153198864Y-96434501D01*
X153381106Y-96209897D01*
X153619519Y-95937380D01*
X153890788Y-95644219D01*
X153971856Y-95559665D01*
X154280471Y-95237755D01*
X154596209Y-94903742D01*
X154884212Y-94594782D01*
X155109618Y-94348028D01*
X155130313Y-94324914D01*
X155348532Y-94091179D01*
X155555313Y-93888056D01*
X155714993Y-93750042D01*
X155750023Y-93725447D01*
X155938589Y-93650521D01*
X156170045Y-93614199D01*
X156385397Y-93620279D01*
X156525649Y-93672558D01*
X156528543Y-93675341D01*
X156610126Y-93785934D01*
X156706230Y-93954367D01*
X156797560Y-94139961D01*
X156864824Y-94302037D01*
X156888729Y-94399914D01*
X156877920Y-94411991D01*
X156824256Y-94456295D01*
X156824924Y-94513183D01*
X156807854Y-94585301D01*
X156697078Y-94597466D01*
X156588401Y-94582014D01*
X156376802Y-94519987D01*
X156212976Y-94431049D01*
X156204896Y-94424123D01*
X156061196Y-94352207D01*
X155955242Y-94386917D01*
X155927067Y-94501061D01*
X155960520Y-94590130D01*
X156165092Y-94812968D01*
X156467764Y-94971084D01*
X156831657Y-95053108D01*
X156866993Y-95052614D01*
X156939069Y-94643846D01*
X156909636Y-94601811D01*
X156951671Y-94572378D01*
X156981104Y-94614412D01*
X156939069Y-94643846D01*
X156866993Y-95052614D01*
X157219892Y-95047675D01*
X157360497Y-95021653D01*
X157657240Y-94984979D01*
X158030002Y-94985445D01*
X158425945Y-95018330D01*
X158792227Y-95078909D01*
X159076009Y-95162459D01*
X159111353Y-95178178D01*
X159284450Y-95294468D01*
X159501124Y-95486423D01*
X159716906Y-95714324D01*
X159734120Y-95734480D01*
X159936982Y-95959204D01*
X160131447Y-96149345D01*
X160279001Y-96267564D01*
X160291875Y-96275228D01*
X160456566Y-96437690D01*
X160595175Y-96731151D01*
X160614431Y-96788012D01*
X160732395Y-97098900D01*
X160881337Y-97425676D01*
X160953123Y-97562361D01*
X161082865Y-97794699D01*
X161253467Y-98101662D01*
X161435765Y-98430738D01*
X161508891Y-98563072D01*
X161664517Y-98832447D01*
X161802019Y-99047822D01*
X161902640Y-99180980D01*
X161938942Y-99210006D01*
X162029329Y-99273122D01*
X162157391Y-99413640D01*
X162200901Y-99470161D01*
X162377386Y-99688560D01*
X162601287Y-99935762D01*
X162846962Y-100186952D01*
X163088771Y-100417312D01*
X163301074Y-100602025D01*
X163458230Y-100716275D01*
X163513241Y-100740345D01*
X163651575Y-100813725D01*
X163803741Y-100961623D01*
X163833107Y-100999395D01*
X163955194Y-101139496D01*
X164099392Y-101228207D01*
X164316670Y-101292408D01*
X164436089Y-101317369D01*
X164718400Y-101388416D01*
X164872385Y-101467537D01*
X164909589Y-101520156D01*
X164996563Y-101639137D01*
X165150354Y-101764896D01*
X165157026Y-101769194D01*
X165309684Y-101851862D01*
X165399336Y-101849828D01*
X165439617Y-101815285D01*
X165516136Y-101771938D01*
X165639080Y-101797893D01*
X165782796Y-101864038D01*
X166015211Y-101956043D01*
X166304359Y-102038372D01*
X166447822Y-102068390D01*
X166615490Y-102106871D01*
X166687731Y-101697174D01*
X166617168Y-101670363D01*
X166581108Y-101615128D01*
X166454025Y-101499246D01*
X166356298Y-101462725D01*
X166210173Y-101396633D01*
X166029796Y-101263926D01*
X165971532Y-101210653D01*
X165809858Y-101069660D01*
X165678478Y-100982643D01*
X165646586Y-100971370D01*
X165610848Y-100992534D01*
X165665300Y-101052022D01*
X165752581Y-101159810D01*
X165765550Y-101214840D01*
X165707701Y-101274907D01*
X165584690Y-101220440D01*
X165408805Y-101059659D01*
X165241892Y-100864573D01*
X164984154Y-100587631D01*
X164735130Y-100408770D01*
X164513712Y-100337405D01*
X164338796Y-100382946D01*
X164315147Y-100402893D01*
X164236274Y-100462119D01*
X164168518Y-100441786D01*
X164075614Y-100322800D01*
X164029161Y-100252342D01*
X163889794Y-100076426D01*
X163764019Y-99980016D01*
X163676597Y-99974251D01*
X163652291Y-100070277D01*
X163653932Y-100083511D01*
X163635649Y-100108778D01*
X163567713Y-100023989D01*
X163518130Y-99941643D01*
X163356218Y-99727650D01*
X163139429Y-99525491D01*
X163068358Y-99474449D01*
X162811335Y-99289026D01*
X162609544Y-99110652D01*
X162484577Y-98961457D01*
X162458023Y-98863571D01*
X162463784Y-98854769D01*
X162448402Y-98798226D01*
X162370420Y-98770251D01*
X162289204Y-98741928D01*
X162241756Y-98672573D01*
X162221537Y-98532559D01*
X162222003Y-98292260D01*
X162227953Y-98125118D01*
X162211192Y-97862724D01*
X162140664Y-97731651D01*
X162025552Y-97735472D01*
X161875044Y-97877757D01*
X161813650Y-97964041D01*
X161750604Y-97958950D01*
X161647446Y-97840534D01*
X161516884Y-97630657D01*
X161371626Y-97351181D01*
X161224383Y-97023972D01*
X161131598Y-96790656D01*
X160999382Y-96398146D01*
X160944008Y-96105049D01*
X160968443Y-95885844D01*
X161075648Y-95715015D01*
X161268587Y-95567040D01*
X161274072Y-95563692D01*
X161568061Y-95411406D01*
X161875535Y-95294680D01*
X162149268Y-95228808D01*
X162321627Y-95224482D01*
X162466175Y-95220761D01*
X162695633Y-95185386D01*
X162910942Y-95137857D01*
X163462109Y-95044068D01*
X164047627Y-95037258D01*
X164702947Y-95117782D01*
X164912139Y-95157730D01*
X165258997Y-95235097D01*
X165509378Y-95311879D01*
X165710670Y-95406717D01*
X165910257Y-95538257D01*
X165945798Y-95564399D01*
X166204100Y-95733460D01*
X166478276Y-95878510D01*
X166631695Y-95941026D01*
X166885215Y-96050555D01*
X167222629Y-96233681D01*
X167614977Y-96472732D01*
X168033297Y-96750034D01*
X168448629Y-97047916D01*
X168462204Y-97058083D01*
X168862323Y-97358219D01*
X168608749Y-97786539D01*
X168484421Y-98005632D01*
X168406782Y-98182462D01*
X168362334Y-98367476D01*
X168337582Y-98611114D01*
X168324484Y-98848975D01*
X168313680Y-99209865D01*
X168313292Y-99581686D01*
X168323236Y-99892267D01*
X168325738Y-99930870D01*
X168339618Y-100244587D01*
X168340564Y-100563320D01*
X168334055Y-100725974D01*
X168311013Y-100935016D01*
X168255592Y-101072012D01*
X168134592Y-101191782D01*
X167987086Y-101298926D01*
X167723564Y-101450731D01*
X167470994Y-101511467D01*
X167313830Y-101515112D01*
X167059156Y-101534378D01*
X166853540Y-101595884D01*
X166808249Y-101623082D01*
X166687731Y-101697174D01*
X166615490Y-102106871D01*
X166708598Y-102128241D01*
X166936948Y-102203936D01*
X167027996Y-102247238D01*
X167183928Y-102314152D01*
X167285099Y-102281242D01*
X167291382Y-102275257D01*
X167364515Y-102231104D01*
X167393271Y-102291546D01*
X167444383Y-102347172D01*
X167585611Y-102390199D01*
X167839636Y-102426331D01*
X167987676Y-102441029D01*
X168268137Y-102474461D01*
X168464495Y-102513490D01*
X168503065Y-102531231D01*
X169280662Y-98121254D01*
X169268146Y-98068571D01*
X169343197Y-97904588D01*
X169417725Y-97781363D01*
X169518797Y-97653116D01*
X169642208Y-97531740D01*
X169752997Y-97446423D01*
X169816205Y-97426353D01*
X169819962Y-97445554D01*
X169777299Y-97515699D01*
X169671058Y-97668547D01*
X169529427Y-97863917D01*
X169371003Y-98055437D01*
X169280662Y-98121254D01*
X168503065Y-102531231D01*
X168548793Y-102552267D01*
X168549928Y-102558661D01*
X168605543Y-102613155D01*
X168757920Y-102667217D01*
X168808151Y-102678629D01*
X169089486Y-102769980D01*
X169358476Y-101244461D01*
X169210633Y-101191253D01*
X169120055Y-101086476D01*
X169074006Y-100905852D01*
X169059746Y-100625102D01*
X169063054Y-100292122D01*
X169075909Y-99864071D01*
X169103463Y-99538965D01*
X169158429Y-99274618D01*
X169253523Y-99028845D01*
X169401455Y-98759461D01*
X169614939Y-98424283D01*
X169635335Y-98393205D01*
X169838651Y-98086232D01*
X169987689Y-97876759D01*
X170107805Y-97740942D01*
X170224360Y-97654939D01*
X170362713Y-97594907D01*
X170544900Y-97537990D01*
X170924004Y-97443564D01*
X171239196Y-97418839D01*
X171542238Y-97468945D01*
X171884895Y-97599009D01*
X172075105Y-97689593D01*
X172479044Y-97918540D01*
X172753168Y-98142676D01*
X172825366Y-98227485D01*
X172919595Y-98358980D01*
X172972194Y-98471240D01*
X172986867Y-98603660D01*
X172967325Y-98795636D01*
X172917273Y-99086563D01*
X172909991Y-99126698D01*
X172841924Y-99443123D01*
X172762627Y-99723867D01*
X172685884Y-99922101D01*
X172665018Y-99959093D01*
X172602605Y-100047133D01*
X172568831Y-100061253D01*
X172560511Y-99982743D01*
X172574457Y-99792890D01*
X172597801Y-99564387D01*
X172620277Y-99046899D01*
X172565510Y-98610665D01*
X172551191Y-98552191D01*
X172474055Y-98300616D01*
X172380858Y-98138217D01*
X172233360Y-98010729D01*
X172118067Y-97937536D01*
X171752827Y-97765521D01*
X171360394Y-97660564D01*
X170984157Y-97629248D01*
X170667502Y-97678158D01*
X170596391Y-97706662D01*
X170162934Y-97992104D01*
X169813898Y-98393511D01*
X169551822Y-98907009D01*
X169379244Y-99528725D01*
X169370244Y-99578105D01*
X169315731Y-100056599D01*
X169347328Y-100426718D01*
X169473455Y-100702687D01*
X169702533Y-100898731D01*
X170042981Y-101029076D01*
X170255517Y-101073699D01*
X170676536Y-101101587D01*
X171018803Y-101018314D01*
X171307733Y-100813794D01*
X171501654Y-100579164D01*
X171700176Y-100277553D01*
X171818130Y-100036956D01*
X171869167Y-99807981D01*
X171866939Y-99541241D01*
X171845013Y-99336951D01*
X171792817Y-98983552D01*
X171731501Y-98747966D01*
X171644355Y-98603060D01*
X171514664Y-98521702D01*
X171325718Y-98476760D01*
X171314053Y-98474926D01*
X170883437Y-98469378D01*
X170517230Y-98592549D01*
X170221932Y-98840067D01*
X170004041Y-99207563D01*
X169935573Y-99402032D01*
X169907767Y-99720057D01*
X169997506Y-100017312D01*
X170184309Y-100258760D01*
X170447696Y-100409363D01*
X170537223Y-100431352D01*
X170709409Y-100395614D01*
X170887207Y-100258547D01*
X171042828Y-100060068D01*
X171148480Y-99840093D01*
X171176368Y-99638541D01*
X171149559Y-99551848D01*
X171034027Y-99438849D01*
X170912172Y-99373133D01*
X170793076Y-99336154D01*
X170785587Y-99376255D01*
X170827537Y-99447965D01*
X170894733Y-99630341D01*
X170839659Y-99800602D01*
X170708992Y-99944853D01*
X170541079Y-100098523D01*
X170388017Y-99893834D01*
X170283906Y-99714198D01*
X170269561Y-99541705D01*
X170348265Y-99332616D01*
X170442316Y-99170106D01*
X170640513Y-98951021D01*
X170905255Y-98844779D01*
X171193507Y-98834419D01*
X171293669Y-98857314D01*
X171359964Y-98930595D01*
X171410084Y-99086929D01*
X171454313Y-99315994D01*
X171489916Y-99691678D01*
X171437142Y-99992327D01*
X171280873Y-100268203D01*
X171108077Y-100466986D01*
X170865712Y-100638888D01*
X170579123Y-100723450D01*
X170283180Y-100725252D01*
X170012756Y-100648876D01*
X169802719Y-100498899D01*
X169688071Y-100280492D01*
X169674581Y-100002880D01*
X169724739Y-99648855D01*
X169825667Y-99265336D01*
X169964486Y-98899239D01*
X170128316Y-98597482D01*
X170163621Y-98548092D01*
X170449667Y-98237649D01*
X170747861Y-98060947D01*
X171082972Y-98007137D01*
X171337428Y-98033862D01*
X171709551Y-98135175D01*
X171979044Y-98290741D01*
X172153126Y-98515477D01*
X172239013Y-98824302D01*
X172243927Y-99232131D01*
X172175086Y-99753883D01*
X172173659Y-99761917D01*
X172104786Y-100122401D01*
X172041567Y-100376074D01*
X171971437Y-100560124D01*
X171881831Y-100711735D01*
X171828366Y-100783705D01*
X171650334Y-100985374D01*
X171459158Y-101134982D01*
X171232971Y-101237258D01*
X170949906Y-101296927D01*
X170588094Y-101318713D01*
X170125670Y-101307343D01*
X169576325Y-101270379D01*
X169358476Y-101244461D01*
X169089486Y-102769980D01*
X169135511Y-102784926D01*
X169373600Y-102960580D01*
X169528534Y-103219077D01*
X169549064Y-103312595D01*
X169835661Y-101687225D01*
X169760115Y-101653636D01*
X169807272Y-101625081D01*
X169965949Y-101606443D01*
X170224965Y-101602605D01*
X170311173Y-101604758D01*
X170517240Y-101617117D01*
X170599033Y-101641073D01*
X170577358Y-101683805D01*
X170565912Y-101692691D01*
X170441010Y-101726555D01*
X170226719Y-101733939D01*
X170045090Y-101720964D01*
X169835661Y-101687225D01*
X169549064Y-103312595D01*
X169606429Y-103573901D01*
X169613405Y-104038535D01*
X169584536Y-104390061D01*
X169548530Y-104785209D01*
X169538935Y-105058101D01*
X169554932Y-105203913D01*
X169595705Y-105217821D01*
X169660434Y-105095003D01*
X169690304Y-105013909D01*
X169802935Y-104786367D01*
X169952900Y-104592166D01*
X169969865Y-104576243D01*
X170084186Y-104445734D01*
X170160944Y-104272670D01*
X170219406Y-104010340D01*
X170230289Y-103944974D01*
X170269048Y-103737441D01*
X170320939Y-103563830D01*
X170403112Y-103390815D01*
X170532717Y-103185069D01*
X170726902Y-102913265D01*
X170839489Y-102761108D01*
X171080259Y-102452931D01*
X171327113Y-102163319D01*
X171549084Y-101927202D01*
X171698830Y-101791731D01*
X172289454Y-101291251D01*
X172777245Y-100784405D01*
X172956975Y-100560026D01*
X173122005Y-100307690D01*
X173307498Y-99974404D01*
X173495085Y-99599193D01*
X173666396Y-99221082D01*
X173803065Y-98879091D01*
X173886724Y-98612248D01*
X173897038Y-98562792D01*
X173964167Y-98372474D01*
X174096709Y-98263362D01*
X174314661Y-98229197D01*
X174638016Y-98263719D01*
X174771251Y-98289115D01*
X174963386Y-98333454D01*
X175132919Y-98389431D01*
X175306650Y-98471907D01*
X175511377Y-98595742D01*
X175773899Y-98775797D01*
X176121015Y-99026931D01*
X176180754Y-99070711D01*
X176533573Y-99328076D01*
X176794495Y-99511851D01*
X176988067Y-99635085D01*
X177138838Y-99710832D01*
X177271355Y-99752141D01*
X177410167Y-99772064D01*
X177514211Y-99779654D01*
X178012631Y-99792415D01*
X178507228Y-99764364D01*
X179014077Y-99690621D01*
X179549253Y-99566310D01*
X180128829Y-99386552D01*
X180768881Y-99146469D01*
X181485482Y-98841183D01*
X182294707Y-98465817D01*
X183034051Y-98104594D01*
X183980216Y-97631531D01*
X184801912Y-97214832D01*
X185506603Y-96850358D01*
X186101751Y-96533973D01*
X186594820Y-96261539D01*
X186993274Y-96028918D01*
X187304577Y-95831974D01*
X187536190Y-95666567D01*
X187695578Y-95528563D01*
X187712886Y-95510844D01*
X187859590Y-95360184D01*
X188087759Y-95129981D01*
X188375277Y-94842359D01*
X188700022Y-94519445D01*
X189039878Y-94183362D01*
X189047664Y-94175686D01*
X189702481Y-93526136D01*
X190250142Y-92974290D01*
X190690736Y-92520046D01*
X191024349Y-92163302D01*
X191251070Y-91903957D01*
X191370984Y-91741909D01*
X191384178Y-91677056D01*
X191290739Y-91709300D01*
X191090755Y-91838535D01*
X190991362Y-91909757D01*
X190723575Y-92060484D01*
X190511027Y-92089028D01*
X190400277Y-92091464D01*
X190273821Y-92149347D01*
X190106097Y-92279607D01*
X189871538Y-92499167D01*
X189829850Y-92540023D01*
X189566368Y-92809344D01*
X189301056Y-93097225D01*
X189080947Y-93352204D01*
X189032289Y-93412642D01*
X188761357Y-93744742D01*
X188492913Y-94051609D01*
X188244467Y-94315441D01*
X188033525Y-94518434D01*
X187877598Y-94642784D01*
X187794728Y-94671014D01*
X187684800Y-94665406D01*
X187658854Y-94684621D01*
X187558811Y-94705591D01*
X187443598Y-94673882D01*
X187333406Y-94646465D01*
X187237945Y-94696139D01*
X187119028Y-94846039D01*
X187090659Y-94887720D01*
X186927738Y-95092981D01*
X186751319Y-95262755D01*
X186698259Y-95301321D01*
X186465875Y-95437530D01*
X186150775Y-95606567D01*
X185803188Y-95783019D01*
X185473344Y-95941476D01*
X185211473Y-96056529D01*
X185183976Y-96067385D01*
X184935713Y-96142914D01*
X184758318Y-96156858D01*
X184673905Y-96111008D01*
X184691107Y-96027471D01*
X184760570Y-95895448D01*
X184855651Y-95696162D01*
X184888344Y-95624218D01*
X184999749Y-95425083D01*
X185113731Y-95341644D01*
X185177567Y-95334671D01*
X185278016Y-95308998D01*
X185380656Y-95208934D01*
X185506409Y-95010419D01*
X185584405Y-94866888D01*
X185753833Y-94578037D01*
X185896384Y-94410748D01*
X186004960Y-94351516D01*
X186171954Y-94239109D01*
X186288472Y-94045661D01*
X186403219Y-93850857D01*
X186554081Y-93760574D01*
X186613127Y-93747804D01*
X186758252Y-93698537D01*
X186867752Y-93582330D01*
X186971857Y-93375871D01*
X187087759Y-93158800D01*
X187191316Y-93060014D01*
X187222032Y-93056600D01*
X187370155Y-93019272D01*
X187576720Y-92880309D01*
X187818459Y-92658030D01*
X188034554Y-92416857D01*
X188284823Y-92173043D01*
X188654417Y-91906517D01*
X189077409Y-91652223D01*
X189379960Y-91476836D01*
X189635890Y-91319869D01*
X189818399Y-91198350D01*
X189900691Y-91129311D01*
X189900942Y-91128903D01*
X190001242Y-91050366D01*
X190178608Y-90972332D01*
X190211197Y-90961788D01*
X190386160Y-90896132D01*
X190648855Y-90783182D01*
X190957572Y-90641297D01*
X191154043Y-90546729D01*
X191601126Y-90333705D01*
X191927902Y-90193170D01*
X192139255Y-90124172D01*
X192240065Y-90125758D01*
X192235216Y-90196974D01*
X192129589Y-90336865D01*
X192108460Y-90360320D01*
X192039916Y-90443786D01*
X192061828Y-90450776D01*
X192184994Y-90378086D01*
X192298301Y-90303980D01*
X192649248Y-90046029D01*
X192961375Y-89769716D01*
X193204003Y-89504712D01*
X193338818Y-89297783D01*
X193423035Y-89179676D01*
X193571112Y-89022825D01*
X193752131Y-88854134D01*
X193935180Y-88700509D01*
X194089342Y-88588859D01*
X194183705Y-88546089D01*
X194196311Y-88551471D01*
X194166648Y-88619205D01*
X194070777Y-88775455D01*
X193927092Y-88990799D01*
X193871552Y-89070913D01*
X193662682Y-89383753D01*
X193446583Y-89730119D01*
X193270985Y-90033344D01*
X193130897Y-90273919D01*
X192932125Y-90593609D01*
X192699761Y-90952999D01*
X192458889Y-91312675D01*
X192427542Y-91358442D01*
X192168089Y-91741305D01*
X191864943Y-92196781D01*
X191551377Y-92674431D01*
X191260665Y-93123811D01*
X191188962Y-93236022D01*
X190894026Y-93687315D01*
X190630145Y-94058833D01*
X190362480Y-94394160D01*
X190056185Y-94736884D01*
X189676421Y-95130585D01*
X189665809Y-95141332D01*
X189292294Y-95521924D01*
X188864650Y-95961689D01*
X188428050Y-96413944D01*
X188027667Y-96832006D01*
X187907995Y-96957873D01*
X187533221Y-97353024D01*
X187110793Y-97798500D01*
X186684773Y-98247832D01*
X186299222Y-98654549D01*
X186182378Y-98777827D01*
X185540907Y-99440277D01*
X184964253Y-100006081D01*
X184457627Y-100470498D01*
X184026240Y-100828784D01*
X183675305Y-101076199D01*
X183620769Y-101108774D01*
X183330246Y-101298183D01*
X182962457Y-101571706D01*
X182541559Y-101909632D01*
X182091712Y-102292248D01*
X181637073Y-102699846D01*
X181406783Y-102915131D01*
X181177395Y-103138725D01*
X181031854Y-103304434D01*
X180945510Y-103450789D01*
X180893715Y-103616318D01*
X180865285Y-103761577D01*
X180716447Y-104245807D01*
X180457982Y-104636630D01*
X180250004Y-104825786D01*
X180109163Y-104935800D01*
X180076561Y-104982933D01*
X180143461Y-104990226D01*
X180188629Y-104987642D01*
X180285096Y-104988235D01*
X180305997Y-105021633D01*
X180242211Y-105109709D01*
X180084620Y-105274343D01*
X180057802Y-105301463D01*
X179932928Y-105448469D01*
X179920678Y-105513902D01*
X180010919Y-105493628D01*
X180193514Y-105383508D01*
X180217518Y-105366646D01*
X180363947Y-105267701D01*
X180401739Y-105257570D01*
X180341545Y-105328829D01*
X180220984Y-105463801D01*
X180154116Y-105553699D01*
X180096334Y-105657647D01*
X180001831Y-105825561D01*
X179984917Y-105855475D01*
X179872568Y-106087897D01*
X179787243Y-106320287D01*
X179786579Y-106322628D01*
X179720950Y-106555264D01*
X179925852Y-106467299D01*
X180065550Y-106412505D01*
X180099758Y-106431552D01*
X180055903Y-106539967D01*
X180055551Y-106540724D01*
X179986523Y-106717573D01*
X179958514Y-106820221D01*
X179882675Y-106910813D01*
X179712347Y-107013922D01*
X179579931Y-107070805D01*
X179356428Y-107169051D01*
X179271633Y-107259079D01*
X179321983Y-107361395D01*
X179503916Y-107496505D01*
X179505752Y-107497683D01*
X179685395Y-107655559D01*
X179814029Y-107841191D01*
X179817089Y-107848116D01*
X179871245Y-107999977D01*
X179848686Y-108090340D01*
X179756688Y-108172486D01*
X179641258Y-108318544D01*
X179667210Y-108471141D01*
X179835798Y-108634905D01*
X179892184Y-108672912D01*
X180043504Y-108781145D01*
X180092661Y-108878846D01*
X180060587Y-109028411D01*
X180035557Y-109100304D01*
X179979102Y-109359457D01*
X179994898Y-109545789D01*
X180015735Y-109670646D01*
X179956317Y-109762896D01*
X179816988Y-109854851D01*
X179582550Y-109991523D01*
X179822691Y-109987860D01*
X179984342Y-109995629D01*
X180038958Y-110053350D01*
X180024388Y-110202219D01*
X180023621Y-110206577D01*
X180018201Y-110577210D01*
X180144728Y-110913789D01*
X180409508Y-111232249D01*
X180441008Y-111261173D01*
X180729054Y-111509730D01*
X180961902Y-111676057D01*
X181183754Y-111783684D01*
X181438814Y-111856145D01*
X181627316Y-111892731D01*
X181872363Y-111943106D01*
X182165709Y-112017975D01*
X182522955Y-112122219D01*
X182959707Y-112260717D01*
X183491567Y-112438349D01*
X184134140Y-112659995D01*
X184574753Y-112814530D01*
X184900657Y-112927425D01*
X185184701Y-113019393D01*
X185454123Y-113096620D01*
X185736156Y-113165295D01*
X186058039Y-113231602D01*
X186447005Y-113301728D01*
X186930292Y-113381856D01*
X187408891Y-113458230D01*
X188002449Y-113550618D01*
X188478655Y-113620381D01*
X188863113Y-113669999D01*
X189181428Y-113701952D01*
X189459202Y-113718719D01*
X189722041Y-113722782D01*
X189995547Y-113716619D01*
X190053443Y-113714391D01*
X190773899Y-113717387D01*
X191563754Y-113777900D01*
X191854826Y-113813339D01*
X192247659Y-113866672D01*
X192518938Y-113907614D01*
X192690986Y-113942908D01*
X192786122Y-113979302D01*
X192826671Y-114023541D01*
X192834953Y-114082372D01*
X192834303Y-114109357D01*
X192850394Y-114208706D01*
X192917389Y-114279636D01*
X193051917Y-114324207D01*
X193270611Y-114344481D01*
X193590101Y-114342517D01*
X194027016Y-114320375D01*
X194356807Y-114297947D01*
X194814860Y-114266049D01*
X195163531Y-114250787D01*
X195438281Y-114259507D01*
X195674574Y-114299553D01*
X195907871Y-114378266D01*
X196173636Y-114502991D01*
X196507330Y-114681072D01*
X196690117Y-114781128D01*
X197020043Y-114951416D01*
X197269267Y-115052101D01*
X197475809Y-115097070D01*
X197571320Y-115102946D01*
X197875871Y-115152124D01*
X198120217Y-115285995D01*
X198282114Y-115384750D01*
X198541846Y-115522698D01*
X198863893Y-115681725D01*
X199212743Y-115843717D01*
X199220361Y-115847137D01*
X199624842Y-116036076D01*
X199906498Y-116190770D01*
X200079060Y-116326176D01*
X200156250Y-116457250D01*
X200151798Y-116598945D01*
X200079430Y-116766220D01*
X200073587Y-116776754D01*
X199953963Y-116932812D01*
X199769185Y-117078422D01*
X199507375Y-117217878D01*
X199156656Y-117355472D01*
X198705150Y-117495494D01*
X198140982Y-117642237D01*
X197452271Y-117799990D01*
X196940894Y-117908663D01*
X196524669Y-117997815D01*
X196140936Y-118085046D01*
X195819953Y-118163102D01*
X195591973Y-118224727D01*
X195509590Y-118251898D01*
X195317174Y-118309034D01*
X195014177Y-118377163D01*
X194634199Y-118450656D01*
X194210847Y-118523881D01*
X193777724Y-118591205D01*
X193368434Y-118646997D01*
X193016582Y-118685624D01*
X192846301Y-118698257D01*
X191786124Y-118720779D01*
X190761313Y-118675974D01*
X189798687Y-118566549D01*
X188925067Y-118395206D01*
X188416791Y-118251635D01*
X188124918Y-118160694D01*
X187934439Y-118114476D01*
X187810158Y-118108614D01*
X187716881Y-118138743D01*
X187679853Y-118160217D01*
X187584892Y-118204771D01*
X187471289Y-118212517D01*
X187301953Y-118179337D01*
X187039786Y-118101113D01*
X186982605Y-118082809D01*
X186669960Y-117988385D01*
X186363090Y-117905869D01*
X186126315Y-117852510D01*
X186118474Y-117851095D01*
X185703431Y-117776118D01*
X185400151Y-117714883D01*
X185177378Y-117656382D01*
X185003858Y-117589607D01*
X184848336Y-117503551D01*
X184679556Y-117387204D01*
X184568017Y-117305026D01*
X184312134Y-117111150D01*
X184072770Y-116922960D01*
X183898003Y-116778333D01*
X183885930Y-116767724D01*
X183719661Y-116641841D01*
X183575166Y-116604304D01*
X183441735Y-116619342D01*
X183286826Y-116633614D01*
X183169647Y-116586572D01*
X183034328Y-116452274D01*
X183002504Y-116415392D01*
X182847345Y-116266762D01*
X182706340Y-116184749D01*
X182665532Y-116178656D01*
X182541118Y-116128524D01*
X182409253Y-115989538D01*
X182400067Y-115975894D01*
X182261526Y-115822228D01*
X182113771Y-115737327D01*
X182104031Y-115735265D01*
X181962314Y-115676305D01*
X181794103Y-115536639D01*
X181584756Y-115301546D01*
X181319632Y-114956304D01*
X181292771Y-114919651D01*
X180896332Y-114492764D01*
X180562220Y-114256711D01*
X180276704Y-114086493D01*
X179983497Y-113909725D01*
X179796118Y-113795381D01*
X179437888Y-113606012D01*
X179040881Y-113446369D01*
X178649507Y-113330565D01*
X178308178Y-113272706D01*
X178147376Y-113271541D01*
X177960116Y-113316669D01*
X177680103Y-113420037D01*
X177340770Y-113568154D01*
X177003091Y-113733293D01*
X176633590Y-113912392D01*
X176258533Y-114075308D01*
X175922557Y-114203712D01*
X175677015Y-114277773D01*
X175116094Y-114441692D01*
X174474816Y-114697824D01*
X173744279Y-115049955D01*
X173279290Y-115297949D01*
X172940829Y-115481195D01*
X172618861Y-115650636D01*
X172350566Y-115786997D01*
X172177702Y-115869025D01*
X172016430Y-115926917D01*
X171771229Y-116001198D01*
X171479123Y-116082280D01*
X171177133Y-116160571D01*
X170902283Y-116226482D01*
X170691596Y-116270422D01*
X170582095Y-116282800D01*
X170580993Y-116282626D01*
X170409666Y-117254272D01*
X170812613Y-117125043D01*
X171475150Y-116895324D01*
X172077378Y-116667535D01*
X172587199Y-116451795D01*
X172819999Y-116340205D01*
X173082963Y-116213227D01*
X173295932Y-116122984D01*
X173427476Y-116082206D01*
X173452541Y-116084005D01*
X173530391Y-116066929D01*
X173705541Y-115988673D01*
X173950638Y-115862404D01*
X174191007Y-115728607D01*
X174579310Y-115513129D01*
X174963239Y-115313312D01*
X175321887Y-115138603D01*
X175634345Y-114998450D01*
X175879707Y-114902301D01*
X176037064Y-114859602D01*
X176085995Y-114872304D01*
X176154406Y-114899610D01*
X176322601Y-114872234D01*
X176560970Y-114801255D01*
X176839908Y-114697753D01*
X177129805Y-114572806D01*
X177401055Y-114437496D01*
X177624050Y-114302901D01*
X177642839Y-114289705D01*
X178061239Y-113990738D01*
X178564777Y-114079526D01*
X178883880Y-114149232D01*
X179121904Y-114241586D01*
X179342868Y-114382965D01*
X179391750Y-114420305D01*
X179566876Y-114567424D01*
X179822408Y-114795951D01*
X180136105Y-115084679D01*
X180485728Y-115412397D01*
X180849036Y-115757898D01*
X181203789Y-116099972D01*
X181527749Y-116417412D01*
X181798673Y-116689007D01*
X181994323Y-116893548D01*
X182047248Y-116952677D01*
X182272965Y-117170383D01*
X182463442Y-117265769D01*
X182608293Y-117235271D01*
X182664211Y-117164579D01*
X182711526Y-117096156D01*
X182771424Y-117096838D01*
X182875519Y-117179776D01*
X183003404Y-117305675D01*
X183177706Y-117466840D01*
X183301367Y-117535244D01*
X183414597Y-117531318D01*
X183435198Y-117525091D01*
X183631991Y-117491677D01*
X183831448Y-117534629D01*
X184065523Y-117665984D01*
X184316863Y-117857184D01*
X184640607Y-118092504D01*
X184894277Y-118210156D01*
X185087441Y-118213815D01*
X185156713Y-118179573D01*
X185261252Y-118157015D01*
X185421042Y-118220331D01*
X185508032Y-118271502D01*
X185737083Y-118395546D01*
X186011097Y-118505858D01*
X186358640Y-118611767D01*
X186808274Y-118722600D01*
X187060317Y-118778468D01*
X187454983Y-118866690D01*
X187908337Y-118972472D01*
X188338645Y-119076644D01*
X188447909Y-119103931D01*
X188815692Y-119190036D01*
X189060094Y-119230831D01*
X189194980Y-119228235D01*
X189225466Y-119211512D01*
X189331088Y-119185787D01*
X189553671Y-119196192D01*
X189869887Y-119241632D01*
X189870658Y-119241768D01*
X190229697Y-119287395D01*
X190671320Y-119310595D01*
X191208400Y-119311200D01*
X191853806Y-119289041D01*
X192620409Y-119243949D01*
X193250154Y-119197542D01*
X193694980Y-119156555D01*
X194131779Y-119102334D01*
X194584775Y-119030200D01*
X195078190Y-118935479D01*
X195636244Y-118813494D01*
X196283161Y-118659568D01*
X197043164Y-118469026D01*
X197102685Y-118453822D01*
X197827266Y-118265926D01*
X198424583Y-118104558D01*
X198909086Y-117964892D01*
X199295229Y-117842100D01*
X199597461Y-117731353D01*
X199830234Y-117627824D01*
X200007999Y-117526686D01*
X200117375Y-117446671D01*
X200306929Y-117310500D01*
X200466610Y-117228957D01*
X200531003Y-117217522D01*
X200636907Y-117190764D01*
X200833483Y-117106415D01*
X201087409Y-116982324D01*
X201365357Y-116836338D01*
X201634001Y-116686303D01*
X201860019Y-116550069D01*
X202010082Y-116445480D01*
X202050748Y-116403635D01*
X202015823Y-116328171D01*
G37*
X202015823Y-116328171D02*
X201882823Y-116214507D01*
X201736779Y-116120679D01*
X201469777Y-115966417D01*
X201160737Y-115787718D01*
X200968513Y-115676490D01*
X200678707Y-115488455D01*
X200379349Y-115263117D01*
X200218334Y-115124867D01*
X199847996Y-114820665D01*
X199522873Y-114641285D01*
X199228179Y-114579389D01*
X199128708Y-114584214D01*
X198985470Y-114577316D01*
X198720074Y-114541445D01*
X198351742Y-114480475D01*
X197899693Y-114398282D01*
X197383146Y-114298741D01*
X196821324Y-114185727D01*
X196233443Y-114063116D01*
X195638727Y-113934782D01*
X195056394Y-113804602D01*
X194505664Y-113676450D01*
X194005756Y-113554201D01*
X193949349Y-113539922D01*
X193508349Y-113431762D01*
X193102741Y-113342531D01*
X192704335Y-113268136D01*
X192284938Y-113204482D01*
X191816358Y-113147474D01*
X191270403Y-113093016D01*
X190618881Y-113037015D01*
X190324424Y-113013425D01*
X189446285Y-112943506D01*
X188696456Y-112881656D01*
X188058493Y-112825315D01*
X187515951Y-112771923D01*
X187052390Y-112718923D01*
X186651364Y-112663754D01*
X186296428Y-112603859D01*
X185971141Y-112536678D01*
X185659060Y-112459651D01*
X185343737Y-112370222D01*
X185008733Y-112265829D01*
X184637602Y-112143913D01*
X184550734Y-112114908D01*
X184140213Y-111982106D01*
X183704738Y-111848637D01*
X183302355Y-111731932D01*
X183046053Y-111663052D01*
X182583634Y-111534403D01*
X182121518Y-111385621D01*
X181695002Y-111229620D01*
X181339381Y-111079316D01*
X181089951Y-110947620D01*
X181089025Y-110947026D01*
X180948086Y-110847480D01*
X180917528Y-110768969D01*
X180984407Y-110655988D01*
X181012516Y-110618892D01*
X181181524Y-110453997D01*
X181355291Y-110345749D01*
X181757375Y-110105687D01*
X182061147Y-109803406D01*
X182205903Y-109615684D01*
X181911039Y-109610975D01*
X181685346Y-109612696D01*
X181502967Y-109622936D01*
X181477295Y-109625998D01*
X181455991Y-109616459D01*
X181546100Y-109570017D01*
X181721607Y-109496458D01*
X181956495Y-109405569D01*
X182224750Y-109307135D01*
X182500357Y-109210940D01*
X182757299Y-109126773D01*
X182969560Y-109064418D01*
X182971964Y-109063779D01*
X183197381Y-108998323D01*
X183349531Y-108943018D01*
X183394565Y-108911491D01*
X183316277Y-108893142D01*
X183131764Y-108874350D01*
X182879927Y-108857176D01*
X182599661Y-108843683D01*
X182329865Y-108835930D01*
X182109438Y-108835981D01*
X182033286Y-108839335D01*
X181960933Y-108831599D01*
X182006764Y-108793650D01*
X182148685Y-108732539D01*
X182364602Y-108655316D01*
X182632422Y-108569031D01*
X182930051Y-108480736D01*
X183235394Y-108397482D01*
X183526359Y-108326318D01*
X183780850Y-108274296D01*
X183829236Y-108266201D01*
X184150531Y-108213196D01*
X184345994Y-108173379D01*
X184433519Y-108139706D01*
X184431000Y-108105136D01*
X184356334Y-108062625D01*
X184351794Y-108060517D01*
X184107721Y-108003340D01*
X183913119Y-108011160D01*
X183673420Y-108041374D01*
X183553316Y-108019562D01*
X183533820Y-107936847D01*
X183565114Y-107848424D01*
X183593616Y-107692251D01*
X183504794Y-107601688D01*
X183292268Y-107573066D01*
X183105158Y-107583858D01*
X182842330Y-107598180D01*
X182707422Y-107570658D01*
X182687314Y-107493694D01*
X182753316Y-107380168D01*
X182883609Y-107275741D01*
X183103321Y-107164273D01*
X183320750Y-107084424D01*
X183569915Y-106996577D01*
X183694428Y-106912995D01*
X183692150Y-106819106D01*
X183560939Y-106700340D01*
X183298654Y-106542123D01*
X183235993Y-106507583D01*
X182952129Y-106359350D01*
X182760700Y-106282845D01*
X182631292Y-106272498D01*
X182533494Y-106322737D01*
X182485774Y-106370134D01*
X182344535Y-106463379D01*
X182206613Y-106466728D01*
X182119511Y-106389173D01*
X182112672Y-106299501D01*
X182208381Y-106070342D01*
X182413978Y-105901726D01*
X182663524Y-105801449D01*
X182848991Y-105737618D01*
X183107026Y-105639565D01*
X183408514Y-105519469D01*
X183724341Y-105389515D01*
X184025395Y-105261883D01*
X184282558Y-105148757D01*
X184466719Y-105062317D01*
X184548763Y-105014745D01*
X184550435Y-105011926D01*
X184489801Y-104989684D01*
X184316552Y-104987832D01*
X184061335Y-105003473D01*
X183754801Y-105033717D01*
X183427595Y-105075666D01*
X183110368Y-105126431D01*
X182901786Y-105167591D01*
X182526526Y-105248567D01*
X182270879Y-105299047D01*
X182112944Y-105320782D01*
X182030816Y-105315524D01*
X182002595Y-105285024D01*
X182004850Y-105239304D01*
X182097647Y-105093932D01*
X182323822Y-104925248D01*
X182674671Y-104739587D01*
X182722002Y-104717714D01*
X182924432Y-104614801D01*
X183061063Y-104525332D01*
X183095920Y-104484523D01*
X183044501Y-104421721D01*
X182897239Y-104380144D01*
X182702551Y-104364997D01*
X182508848Y-104381482D01*
X182408651Y-104410652D01*
X182219283Y-104467297D01*
X182141892Y-104435976D01*
X182182700Y-104328133D01*
X182295704Y-104202877D01*
X182436346Y-104059546D01*
X182520200Y-103955955D01*
X182529340Y-103936458D01*
X182468773Y-103930708D01*
X182298376Y-103958670D01*
X182048043Y-104014774D01*
X181880304Y-104057405D01*
X181592065Y-104132368D01*
X181361803Y-104190033D01*
X181221824Y-104222422D01*
X181195088Y-104226586D01*
X181203694Y-104164184D01*
X181256814Y-104012443D01*
X181289196Y-103932192D01*
X181421166Y-103679371D01*
X181585910Y-103450070D01*
X181752029Y-103282784D01*
X181871738Y-103217930D01*
X181955988Y-103170765D01*
X182139122Y-103048657D01*
X182403914Y-102863758D01*
X182733136Y-102628216D01*
X183109562Y-102354178D01*
X183392938Y-102145197D01*
X183746847Y-101881299D01*
X184058659Y-101643638D01*
X184341490Y-101419663D01*
X184608456Y-101196817D01*
X184872675Y-100962548D01*
X185147262Y-100704304D01*
X185445333Y-100409529D01*
X185780005Y-100065671D01*
X186164394Y-99660176D01*
X186611617Y-99180491D01*
X187134790Y-98614061D01*
X187521229Y-98194032D01*
X188383816Y-97303796D01*
X189321632Y-96422414D01*
X190002729Y-95831331D01*
X190350694Y-95502525D01*
X190716602Y-95093261D01*
X191068231Y-94644904D01*
X191373360Y-94198817D01*
X191599766Y-93796367D01*
X191617809Y-93758002D01*
X191704554Y-93601839D01*
X191860507Y-93353075D01*
X192069386Y-93036401D01*
X192314911Y-92676513D01*
X192575415Y-92305653D01*
X192920430Y-91807389D01*
X193221454Y-91344397D01*
X193463167Y-90941255D01*
X193630254Y-90622540D01*
X193646030Y-90587834D01*
X193944931Y-89999857D01*
X194324154Y-89382990D01*
X194746351Y-88793312D01*
X195174170Y-88286903D01*
X195188838Y-88271322D01*
X195399477Y-88052833D01*
X195580198Y-87873226D01*
X195702581Y-87760433D01*
X195729701Y-87739733D01*
X195846715Y-87633899D01*
X195985339Y-87464592D01*
X196116949Y-87273716D01*
X196212917Y-87103173D01*
X196244616Y-86994866D01*
X196242928Y-86988496D01*
X196196754Y-86920803D01*
X196118584Y-86907998D01*
X195988526Y-86958271D01*
X195786689Y-87079815D01*
X195493183Y-87280822D01*
X195437247Y-87320294D01*
X195135564Y-87521427D01*
X194886561Y-87663373D01*
X194714411Y-87733065D01*
X194666266Y-87737032D01*
X194417324Y-87748830D01*
X194127291Y-87870484D01*
X193783385Y-88108308D01*
X193593921Y-88266894D01*
X193332415Y-88491412D01*
X193105820Y-88671601D01*
X192879802Y-88830295D01*
X192620023Y-88990330D01*
X192292149Y-89174540D01*
X191960437Y-89353224D01*
X191665532Y-89501928D01*
X191406673Y-89616633D01*
X191216798Y-89683637D01*
X191140091Y-89694456D01*
X190965409Y-89693049D01*
X190790161Y-89764344D01*
X190587472Y-89924624D01*
X190341042Y-90178512D01*
X190143334Y-90377770D01*
X189972408Y-90517248D01*
X189858764Y-90572555D01*
X189848856Y-90572142D01*
X189711936Y-90598731D01*
X189553044Y-90688274D01*
X189420355Y-90774783D01*
X189190960Y-90910276D01*
X188896729Y-91076407D01*
X188569537Y-91254827D01*
X188559451Y-91260228D01*
X188053306Y-91548392D01*
X187547635Y-91867778D01*
X187061060Y-92203806D01*
X186612201Y-92541898D01*
X186219682Y-92867474D01*
X185902120Y-93165954D01*
X185678139Y-93422759D01*
X185575624Y-93596404D01*
X185455815Y-93763063D01*
X185209229Y-93981099D01*
X184880389Y-94219066D01*
X184554828Y-94460869D01*
X184191515Y-94764051D01*
X183847337Y-95079945D01*
X183693310Y-95234647D01*
X183455110Y-95479335D01*
X183245417Y-95686144D01*
X183088872Y-95831299D01*
X183015257Y-95888843D01*
X182923114Y-95976223D01*
X182788391Y-96149047D01*
X182658492Y-96341772D01*
X182462887Y-96645331D01*
X182287340Y-96895457D01*
X182111132Y-97112056D01*
X181913541Y-97315032D01*
X181673849Y-97524289D01*
X181371334Y-97759735D01*
X180985280Y-98041271D01*
X180617977Y-98302041D01*
X180174117Y-98613243D01*
X179832091Y-98847032D01*
X179576947Y-99012176D01*
X179393734Y-99117447D01*
X179267498Y-99171613D01*
X179183287Y-99183443D01*
X179138546Y-99169714D01*
X179070394Y-99134290D01*
X178993382Y-99105738D01*
X178884143Y-99080196D01*
X178719313Y-99053801D01*
X178475520Y-99022692D01*
X178129400Y-98983007D01*
X177764823Y-98942676D01*
X177373524Y-98896179D01*
X177098006Y-98853247D01*
X176909267Y-98807284D01*
X176778303Y-98751689D01*
X176702089Y-98700906D01*
X176557136Y-98588448D01*
X176338419Y-98418652D01*
X176086787Y-98223229D01*
X176016199Y-98168397D01*
X175518026Y-97781398D01*
X174845607Y-97702471D01*
X174383584Y-97655770D01*
X174039334Y-97641631D01*
X173788599Y-97662728D01*
X173607121Y-97721733D01*
X173470643Y-97821320D01*
X173436391Y-97857747D01*
X173266125Y-98051520D01*
X172943007Y-97635498D01*
X172792457Y-97448811D01*
X172658910Y-97312633D01*
X172507564Y-97203622D01*
X172303614Y-97098435D01*
X172012256Y-96973731D01*
X171869803Y-96915731D01*
X171225477Y-96691863D01*
X170635083Y-96570611D01*
X170057158Y-96545201D01*
X169742417Y-96568203D01*
X169418923Y-96568609D01*
X169111785Y-96485376D01*
X168783411Y-96304874D01*
X168549476Y-96135671D01*
X168258044Y-95924868D01*
X168027071Y-95787004D01*
X167873686Y-95731201D01*
X167820574Y-95747487D01*
X167747704Y-95737784D01*
X167578992Y-95668911D01*
X167344511Y-95553896D01*
X167217789Y-95486322D01*
X166613813Y-95162652D01*
X166061232Y-94879155D01*
X165575301Y-94643049D01*
X165171275Y-94461551D01*
X164864413Y-94341877D01*
X164701132Y-94295869D01*
X164409393Y-94261411D01*
X164018384Y-94242471D01*
X163573138Y-94238948D01*
X163118684Y-94250747D01*
X162700055Y-94277772D01*
X162489564Y-94300626D01*
X162227127Y-94350277D01*
X161874588Y-94437897D01*
X161477987Y-94551139D01*
X161083364Y-94677655D01*
X161081636Y-94678244D01*
X160728264Y-94793019D01*
X160413241Y-94884577D01*
X160167438Y-94944698D01*
X160021723Y-94965161D01*
X160008546Y-94964005D01*
X159868850Y-94903875D01*
X159672184Y-94777666D01*
X159523754Y-94663517D01*
X159185520Y-94423681D01*
X158866610Y-94273673D01*
X158594205Y-94224758D01*
X158497006Y-94237915D01*
X158244447Y-94287279D01*
X157971364Y-94312661D01*
X157730877Y-94311679D01*
X157576106Y-94281949D01*
X157571172Y-94279452D01*
X157480700Y-94180973D01*
X157370954Y-93993990D01*
X157301363Y-93842941D01*
X157102664Y-93462994D01*
X156859643Y-93204325D01*
X156545702Y-93044155D01*
X156297483Y-92983207D01*
X155945120Y-92945527D01*
X155624041Y-92974260D01*
X155285397Y-93078790D01*
X154920992Y-93247589D01*
X154416136Y-93474794D01*
X153951799Y-93608140D01*
X153475012Y-93656787D01*
X152932808Y-93629898D01*
X152798771Y-93614669D01*
X152413596Y-93572535D01*
X152136097Y-93565075D01*
X151930517Y-93604750D01*
X151761097Y-93704029D01*
X151592080Y-93875375D01*
X151413905Y-94097448D01*
X151217503Y-94367286D01*
X150984875Y-94713253D01*
X150732378Y-95108120D01*
X150476370Y-95524666D01*
X150233209Y-95935662D01*
X150019254Y-96313886D01*
X149850861Y-96632111D01*
X149744390Y-96863113D01*
X149731723Y-96897147D01*
X149655156Y-97185608D01*
X149581051Y-97595867D01*
X149513364Y-98104581D01*
X149489227Y-98327895D01*
X149427938Y-98860224D01*
X149362162Y-99278897D01*
X149286219Y-99615391D01*
X149216136Y-99841446D01*
X149092741Y-100241068D01*
X149000768Y-100636316D01*
X148947200Y-100988447D01*
X148939013Y-101258718D01*
X148948361Y-101327764D01*
X148993020Y-101465374D01*
X149084688Y-101698789D01*
X149208881Y-101992338D01*
X149317218Y-102236151D01*
X149461642Y-102559162D01*
X149552511Y-102786656D01*
X149597364Y-102954771D01*
X149603740Y-103099647D01*
X149579181Y-103257423D01*
X149553662Y-103369388D01*
X149506978Y-103623662D01*
X149507252Y-103844049D01*
X149564971Y-104063214D01*
X149615114Y-104163224D01*
X149948967Y-102269848D01*
X149918846Y-102185357D01*
X149916041Y-102174721D01*
X149779979Y-101653100D01*
X149678147Y-101242869D01*
X149610395Y-100914407D01*
X149576572Y-100638095D01*
X149576527Y-100384309D01*
X149610109Y-100123429D01*
X149677167Y-99825833D01*
X149777551Y-99461901D01*
X149900075Y-99040040D01*
X150109535Y-98326721D01*
X150290846Y-97733083D01*
X150452861Y-97238457D01*
X150604436Y-96822179D01*
X150754424Y-96463581D01*
X150911680Y-96141996D01*
X151085057Y-95836759D01*
X151283411Y-95527202D01*
X151515594Y-95192659D01*
X151597253Y-95078663D01*
X151914168Y-94666168D01*
X152185726Y-94376863D01*
X152424409Y-94200816D01*
X152642700Y-94128094D01*
X152786208Y-94132657D01*
X152987984Y-94119398D01*
X153129131Y-94054786D01*
X153219049Y-93996652D01*
X153312175Y-93985128D01*
X153451083Y-94025521D01*
X153678348Y-94123137D01*
X153678681Y-94123286D01*
X154083154Y-94304544D01*
X153935145Y-94498523D01*
X153787136Y-94692501D01*
X153653773Y-94514154D01*
X153508109Y-94361421D01*
X153356852Y-94306540D01*
X153180058Y-94354651D01*
X152957783Y-94510895D01*
X152687226Y-94763276D01*
X152309090Y-95157544D01*
X152041433Y-95482546D01*
X151877499Y-95754586D01*
X151810534Y-95989969D01*
X151833779Y-96205001D01*
X151940482Y-96415986D01*
X151979842Y-96470586D01*
X152074309Y-96628608D01*
X152080310Y-96779993D01*
X152034619Y-96928987D01*
X151966128Y-97102035D01*
X151917145Y-97203559D01*
X151910828Y-97211453D01*
X151852021Y-97176036D01*
X151738546Y-97060051D01*
X151693038Y-97007247D01*
X151558977Y-96861524D01*
X151457802Y-96776735D01*
X151440229Y-96769273D01*
X151330441Y-96818278D01*
X151186168Y-96980039D01*
X151019555Y-97229864D01*
X150842747Y-97543061D01*
X150667885Y-97894935D01*
X150507115Y-98260797D01*
X150372578Y-98615950D01*
X150276420Y-98935704D01*
X150230781Y-99195366D01*
X150228905Y-99232394D01*
X150247929Y-99497914D01*
X150319907Y-99639031D01*
X150332495Y-99647397D01*
X150459087Y-99750046D01*
X150580400Y-99883890D01*
X150660830Y-100039250D01*
X150662932Y-100066077D01*
X150790033Y-99345251D01*
X150748963Y-99328039D01*
X150586620Y-99164404D01*
X150548400Y-99039905D01*
X150563764Y-99000365D01*
X150608949Y-98900451D01*
X150691869Y-98695400D01*
X150800206Y-98416316D01*
X150907167Y-98133164D01*
X151048926Y-97753248D01*
X151150319Y-97490715D01*
X151223248Y-97327542D01*
X151279617Y-97245706D01*
X151331329Y-97227185D01*
X151390286Y-97253958D01*
X151457181Y-97300375D01*
X151538283Y-97365743D01*
X151582732Y-97443077D01*
X151587880Y-97557366D01*
X151551077Y-97733601D01*
X151469671Y-97996770D01*
X151344659Y-98361400D01*
X151183119Y-98783611D01*
X151033229Y-99094173D01*
X150900398Y-99284312D01*
X150790033Y-99345251D01*
X150662932Y-100066077D01*
X150676202Y-100235409D01*
X150623318Y-100497011D01*
X150498976Y-100848696D01*
X150434837Y-101005115D01*
X150305541Y-101332889D01*
X150176851Y-101691463D01*
X150102785Y-101919095D01*
X150028705Y-102153461D01*
X149981509Y-102264797D01*
X149948967Y-102269848D01*
X149615114Y-104163224D01*
X149690619Y-104313821D01*
X149894679Y-104628535D01*
X150011055Y-104794393D01*
X150234679Y-105093551D01*
X150415523Y-105293923D01*
X150581840Y-105423301D01*
X150722200Y-105493858D01*
X150966965Y-105628140D01*
X151210936Y-105812115D01*
X151275019Y-105872422D01*
X151545620Y-106084497D01*
X151890872Y-106229345D01*
X151939587Y-106243639D01*
X152266808Y-106363602D01*
X152500632Y-106505884D01*
X152621439Y-106656282D01*
X152631521Y-106744456D01*
X152666012Y-106871284D01*
X152740214Y-106963877D01*
X152833774Y-107090312D01*
X152850658Y-107173359D01*
X152866823Y-107312353D01*
X152937061Y-107540232D01*
X153048684Y-107830269D01*
X153189005Y-108155740D01*
X153345334Y-108489919D01*
X153504986Y-108806078D01*
X153655272Y-109077493D01*
X153783504Y-109277439D01*
X153876992Y-109379190D01*
X153901327Y-109386482D01*
X153975466Y-109444761D01*
X154080546Y-109619603D01*
X154205087Y-109888768D01*
X154337611Y-110230012D01*
X154339720Y-110235897D01*
X154458537Y-110448957D01*
X154669072Y-110715267D01*
X154942642Y-111007030D01*
X155250560Y-111296446D01*
X155564140Y-111555717D01*
X155854697Y-111757041D01*
X155981320Y-111826771D01*
X156270842Y-111981536D01*
X156568136Y-112161209D01*
X156707664Y-112255172D01*
X156841241Y-112345849D01*
X156995390Y-112438996D01*
X157189846Y-112544658D01*
X157444348Y-112672882D01*
X157778627Y-112833713D01*
X158212423Y-113037198D01*
X158567252Y-113201791D01*
X158801099Y-113296312D01*
X159016378Y-113361730D01*
X159071410Y-113372498D01*
X159210952Y-113414469D01*
X159257126Y-113468540D01*
X159266021Y-113493383D01*
X159311890Y-113521546D01*
X159410490Y-113557320D01*
X159577575Y-113604998D01*
X159828902Y-113668869D01*
X160180227Y-113753228D01*
X160647305Y-113862364D01*
X161014970Y-113947361D01*
X161377828Y-114042086D01*
X161796051Y-114167783D01*
X162190683Y-114300433D01*
X162265002Y-114327608D01*
X162913137Y-114569038D01*
X163655394Y-115636590D01*
X163971470Y-116076490D01*
X164270784Y-116465340D01*
X164534919Y-116780324D01*
X164745457Y-116998628D01*
X164778468Y-117027794D01*
X165397164Y-117477635D01*
X166030431Y-117785007D01*
X166686349Y-117952441D01*
X166954299Y-117964158D01*
X167012452Y-117634356D01*
X166372751Y-117480574D01*
X165780771Y-117195773D01*
X165424889Y-116938261D01*
X165271471Y-116791596D01*
X165089107Y-116590845D01*
X164899262Y-116363519D01*
X164723407Y-116137134D01*
X164583009Y-115939200D01*
X164499537Y-115797232D01*
X164490232Y-115740435D01*
X164552609Y-115778188D01*
X164685776Y-115902439D01*
X164865544Y-116089930D01*
X164947273Y-116179870D01*
X165192744Y-116435235D01*
X165431041Y-116632038D01*
X165691776Y-116784003D01*
X166004564Y-116904854D01*
X166399018Y-117008315D01*
X166904753Y-117108111D01*
X166978571Y-117121241D01*
X167492888Y-117200425D01*
X167516582Y-117202101D01*
X167591835Y-116775321D01*
X167195536Y-116704581D01*
X166847128Y-116629551D01*
X166504437Y-116554519D01*
X166243510Y-116493497D01*
X166039952Y-116430897D01*
X165869371Y-116351130D01*
X165707371Y-116238610D01*
X165529563Y-116077747D01*
X165311550Y-115852954D01*
X165028942Y-115548644D01*
X164844888Y-115350068D01*
X164607239Y-115091059D01*
X164406314Y-114865683D01*
X164262855Y-114697651D01*
X164197604Y-114610673D01*
X164197024Y-114609459D01*
X164186361Y-114492958D01*
X164202079Y-114289750D01*
X164222392Y-114152148D01*
X164282525Y-113912923D01*
X164388750Y-113684186D01*
X164565171Y-113418222D01*
X164651086Y-113303415D01*
X164968855Y-112915303D01*
X165315930Y-112538559D01*
X165661936Y-112203275D01*
X165976499Y-111939546D01*
X166144195Y-111824085D01*
X166553426Y-111654315D01*
X166986481Y-111627673D01*
X167424977Y-111737086D01*
X167881675Y-111965555D01*
X168310600Y-112272356D01*
X168686631Y-112631763D01*
X168984651Y-113018049D01*
X169179541Y-113405487D01*
X169229218Y-113585023D01*
X169257350Y-113775041D01*
X169255402Y-113948720D01*
X169217294Y-114152354D01*
X169136940Y-114432233D01*
X169104233Y-114536265D01*
X168986173Y-114865420D01*
X168866313Y-115126018D01*
X168761147Y-115282455D01*
X168756505Y-115286966D01*
X168621593Y-115377385D01*
X168389732Y-115497644D01*
X168100405Y-115628064D01*
X167943463Y-115692143D01*
X167286294Y-115950666D01*
X166858950Y-115783865D01*
X166338548Y-115528692D01*
X165885137Y-115203902D01*
X165535136Y-114836205D01*
X165498947Y-114786385D01*
X165370716Y-114588274D01*
X165314145Y-114431543D01*
X165315743Y-114250410D01*
X165348303Y-114051947D01*
X165426354Y-113757092D01*
X165539378Y-113466716D01*
X165603128Y-113344289D01*
X165856929Y-113050448D01*
X166185766Y-112858924D01*
X166562202Y-112769242D01*
X166958800Y-112780931D01*
X167348121Y-112893517D01*
X167702730Y-113106525D01*
X167970568Y-113385121D01*
X168153115Y-113724588D01*
X168191153Y-114052895D01*
X168084597Y-114370439D01*
X167833358Y-114677619D01*
X167654085Y-114826973D01*
X167490999Y-114925412D01*
X167321950Y-114955125D01*
X167082019Y-114927162D01*
X167073983Y-114925718D01*
X166702802Y-114813243D01*
X166389573Y-114631716D01*
X166167138Y-114403870D01*
X166087083Y-114242608D01*
X166055247Y-114034633D01*
X166119547Y-113867676D01*
X166297085Y-113714429D01*
X166484957Y-113607347D01*
X166762208Y-113522140D01*
X166995233Y-113567914D01*
X167168464Y-113740595D01*
X167196205Y-113793489D01*
X167235583Y-113912141D01*
X167199014Y-114002581D01*
X167063995Y-114115752D01*
X167048974Y-114126795D01*
X166891226Y-114257453D01*
X166863416Y-114324284D01*
X166966283Y-114328531D01*
X167144196Y-114287419D01*
X167415667Y-114158253D01*
X167584770Y-113961320D01*
X167632416Y-113721187D01*
X167625306Y-113668101D01*
X167516594Y-113439909D01*
X167306272Y-113235662D01*
X167037340Y-113091695D01*
X166899166Y-113054512D01*
X166747190Y-113041243D01*
X166601132Y-113070534D01*
X166423120Y-113156884D01*
X166175281Y-113314792D01*
X166117791Y-113353660D01*
X165869875Y-113525180D01*
X165717623Y-113647681D01*
X165636140Y-113752963D01*
X165600532Y-113872829D01*
X165586306Y-114032637D01*
X165593250Y-114287561D01*
X165635841Y-114518833D01*
X165654889Y-114572447D01*
X165803666Y-114778229D01*
X166058715Y-114989722D01*
X166384216Y-115183050D01*
X166744346Y-115334335D01*
X166844449Y-115365325D01*
X167207276Y-115433836D01*
X167516202Y-115403909D01*
X167806728Y-115264519D01*
X168114354Y-115004636D01*
X168163045Y-114955726D01*
X168462080Y-114566991D01*
X168625221Y-114164895D01*
X168658832Y-113764873D01*
X168569276Y-113382367D01*
X168362914Y-113032811D01*
X168046113Y-112731646D01*
X167625234Y-112494309D01*
X167106639Y-112336239D01*
X167081324Y-112331278D01*
X166806595Y-112292798D01*
X166568335Y-112302358D01*
X166296838Y-112365785D01*
X166161354Y-112408183D01*
X165761168Y-112576333D01*
X165449714Y-112802368D01*
X165205605Y-113110448D01*
X165007454Y-113524735D01*
X164903220Y-113829482D01*
X164821739Y-114217812D01*
X164846714Y-114555643D01*
X164986464Y-114887099D01*
X165147777Y-115126684D01*
X165471502Y-115502309D01*
X165829546Y-115794533D01*
X166272790Y-116043494D01*
X166363962Y-116086086D01*
X166713492Y-116227278D01*
X167027362Y-116304356D01*
X167337091Y-116314838D01*
X167674197Y-116256242D01*
X168070199Y-116126084D01*
X168556614Y-115921885D01*
X168579640Y-115911585D01*
X168883361Y-115754991D01*
X169114126Y-115577674D01*
X169288265Y-115353619D01*
X169422112Y-115056810D01*
X169531998Y-114661230D01*
X169611481Y-114267929D01*
X169762136Y-113445577D01*
X169571145Y-113044917D01*
X169258529Y-112528067D01*
X168854500Y-112074408D01*
X168382461Y-111698628D01*
X167865811Y-111415412D01*
X167327959Y-111239447D01*
X166792304Y-111185418D01*
X166625237Y-111196274D01*
X166260633Y-111281014D01*
X165892550Y-111462523D01*
X165503429Y-111752098D01*
X165075713Y-112161029D01*
X164998425Y-112242668D01*
X164780743Y-112458899D01*
X164646069Y-112556328D01*
X164596793Y-112536841D01*
X164635303Y-112402332D01*
X164763989Y-112154689D01*
X164802965Y-112088029D01*
X165114304Y-111617349D01*
X165416372Y-111266181D01*
X165701099Y-111042948D01*
X165874050Y-110970182D01*
X166060736Y-110956172D01*
X166359011Y-110972943D01*
X166739844Y-111015306D01*
X167174209Y-111078077D01*
X167633078Y-111156066D01*
X168087421Y-111244089D01*
X168508213Y-111336957D01*
X168866421Y-111429484D01*
X169133022Y-111516483D01*
X169254112Y-111574158D01*
X169344237Y-111633187D01*
X169417414Y-111692216D01*
X169484963Y-111771145D01*
X169558200Y-111889871D01*
X169648445Y-112068295D01*
X169767015Y-112326313D01*
X169925229Y-112683826D01*
X170059802Y-112990653D01*
X170447581Y-113875114D01*
X170259336Y-114352274D01*
X170065445Y-114750292D01*
X169788306Y-115196007D01*
X169458554Y-115647135D01*
X169106827Y-116061392D01*
X168803006Y-116362262D01*
X168566396Y-116560376D01*
X168356100Y-116696759D01*
X168142991Y-116775391D01*
X167897945Y-116800252D01*
X167591835Y-116775321D01*
X167516582Y-117202101D01*
X167900065Y-117229213D01*
X168231530Y-117200401D01*
X168518709Y-117106788D01*
X168793030Y-116941169D01*
X169085920Y-116696343D01*
X169168463Y-116619325D01*
X169405267Y-116380615D01*
X169656424Y-116103702D01*
X169900591Y-115815056D01*
X170116429Y-115541145D01*
X170282597Y-115308440D01*
X170377752Y-115143408D01*
X170391033Y-115102955D01*
X170451666Y-115018227D01*
X170488962Y-115013652D01*
X170530982Y-115084509D01*
X170506436Y-115251399D01*
X170426094Y-115487532D01*
X170300726Y-115766120D01*
X170141105Y-116060373D01*
X169958002Y-116343503D01*
X169949428Y-116355491D01*
X169522455Y-116860332D01*
X169054565Y-117232778D01*
X168526188Y-117484000D01*
X167917753Y-117625167D01*
X167679956Y-117650829D01*
X167012452Y-117634356D01*
X166954299Y-117964158D01*
X167372996Y-117982466D01*
X167718773Y-117948401D01*
X168201365Y-117860826D01*
X168784144Y-117724583D01*
X169435010Y-117549791D01*
X170121867Y-117346572D01*
X170409666Y-117254272D01*
X170580993Y-116282626D01*
X170601104Y-116227948D01*
X170688061Y-116095681D01*
X170748107Y-116013736D01*
X170845985Y-115863568D01*
X170924374Y-115685484D01*
X170994628Y-115445060D01*
X171068101Y-115107870D01*
X171098371Y-114951710D01*
X171173189Y-114507313D01*
X171201865Y-114165981D01*
X171180004Y-113891766D01*
X171103204Y-113648722D01*
X170967070Y-113400902D01*
X170895385Y-113292924D01*
X170724371Y-112962097D01*
X170627824Y-112558671D01*
X170617682Y-112480584D01*
X170515198Y-112010366D01*
X170333342Y-111635414D01*
X170212427Y-111432187D01*
X170135383Y-111274155D01*
X170119356Y-111210725D01*
X170070927Y-111138830D01*
X169930301Y-111002034D01*
X169721429Y-110822474D01*
X169554799Y-110688930D01*
X168977662Y-110238487D01*
X169001063Y-109899348D01*
X169014025Y-109489206D01*
X168996550Y-109127765D01*
X168951150Y-108856881D01*
X168935513Y-108807614D01*
X168906866Y-108650632D01*
X168893184Y-108409463D01*
X168895157Y-108210971D01*
X168891880Y-107945616D01*
X168858178Y-107799243D01*
X168823860Y-107774676D01*
X168756735Y-107720866D01*
X168754726Y-107666024D01*
X168733123Y-107585941D01*
X168695116Y-107586171D01*
X168621950Y-107684798D01*
X168571141Y-107889560D01*
X168547971Y-108162460D01*
X168557726Y-108465495D01*
X168564220Y-108527446D01*
X168578761Y-108806599D01*
X168536807Y-109019109D01*
X168486251Y-109133360D01*
X168269936Y-109530403D01*
X168087796Y-109808004D01*
X167926913Y-109984009D01*
X167817163Y-110057756D01*
X167502999Y-110146840D01*
X167107450Y-110155671D01*
X166669252Y-110085470D01*
X166424777Y-110013847D01*
X166038828Y-109875783D01*
X165756378Y-109753491D01*
X165541480Y-109622478D01*
X165358187Y-109458248D01*
X165170552Y-109236305D01*
X165049412Y-109076644D01*
X164785596Y-108751280D01*
X164564939Y-108551645D01*
X164371400Y-108470952D01*
X164188937Y-108502409D01*
X164005933Y-108635004D01*
X163862553Y-108750051D01*
X163759166Y-108762883D01*
X163687614Y-108720288D01*
X163566055Y-108657564D01*
X163506828Y-108661046D01*
X163503304Y-108738314D01*
X163627990Y-108870792D01*
X163876520Y-109054610D01*
X164140598Y-109223243D01*
X164406944Y-109408235D01*
X164654579Y-109617643D01*
X164815635Y-109789296D01*
X165037757Y-110078651D01*
X164728401Y-110300799D01*
X164498567Y-110498957D01*
X164399895Y-110679094D01*
X164423770Y-110862298D01*
X164466371Y-110942222D01*
X164507418Y-111025195D01*
X164509004Y-111113443D01*
X164460466Y-111239159D01*
X164351139Y-111434539D01*
X164245487Y-111609141D01*
X164051037Y-111940408D01*
X163846185Y-112310020D01*
X163677523Y-112633557D01*
X163497620Y-112981959D01*
X163349176Y-113223927D01*
X163207144Y-113386712D01*
X163046471Y-113497573D01*
X162842109Y-113583760D01*
X162786664Y-113602835D01*
X162396010Y-113690277D01*
X162043234Y-113686516D01*
X161757449Y-113595183D01*
X161590721Y-113453792D01*
X161502729Y-113358918D01*
X161381509Y-113285569D01*
X161194070Y-113220165D01*
X160907417Y-113149128D01*
X160784295Y-113121888D01*
X160311839Y-113008828D01*
X159825343Y-112874420D01*
X159352918Y-112728133D01*
X158922675Y-112579432D01*
X158562726Y-112437785D01*
X158301182Y-112312661D01*
X158210432Y-112255049D01*
X157992051Y-112123132D01*
X157767885Y-112035111D01*
X157727401Y-112026081D01*
X157496704Y-111948226D01*
X157298159Y-111831767D01*
X157149025Y-111731679D01*
X156910240Y-111589759D01*
X156621842Y-111429346D01*
X156464778Y-111345963D01*
X156241065Y-111225182D01*
X156052659Y-111108592D01*
X155883146Y-110978580D01*
X155716114Y-110817532D01*
X155535148Y-110607836D01*
X155323836Y-110331878D01*
X155065765Y-109972044D01*
X154744520Y-109510723D01*
X154715652Y-109468981D01*
X154607199Y-109299748D01*
X154491288Y-109100575D01*
X154387907Y-108908756D01*
X154317045Y-108761585D01*
X154298693Y-108696355D01*
X154301266Y-108695849D01*
X154438506Y-108702811D01*
X154675979Y-108699613D01*
X154969297Y-108688391D01*
X155274072Y-108671278D01*
X155545917Y-108650410D01*
X155740443Y-108627922D01*
X155751389Y-108626108D01*
X155999854Y-108602076D01*
X156160730Y-108638718D01*
X156209668Y-108670383D01*
X156398785Y-108747341D01*
X156659281Y-108770030D01*
X156927722Y-108737959D01*
X157096882Y-108677264D01*
X157510831Y-108513742D01*
X157999631Y-108430249D01*
X158157713Y-108419723D01*
X158472262Y-108381997D01*
X158815676Y-108307809D01*
X158977020Y-108259537D01*
X159227602Y-108187351D01*
X159444981Y-108148140D01*
X159549533Y-108147064D01*
X159714352Y-108138025D01*
X159938059Y-108082048D01*
X160028408Y-108049575D01*
X160296870Y-107959081D01*
X160453609Y-107947605D01*
X160508768Y-108015331D01*
X160505886Y-108058154D01*
X160548116Y-108151227D01*
X160689490Y-108193857D01*
X160890686Y-108179111D01*
X161006169Y-108146367D01*
X161212977Y-108110581D01*
X161453756Y-108117900D01*
X161476005Y-108121287D01*
X161734926Y-108138765D01*
X161978767Y-108087586D01*
X162259932Y-107954376D01*
X162360990Y-107895461D01*
X162631708Y-107732929D01*
X162419032Y-107695429D01*
X162258728Y-107648129D01*
X162179448Y-107590370D01*
X162100617Y-107538200D01*
X161920322Y-107467099D01*
X161685024Y-107394608D01*
X161388639Y-107325080D01*
X161187903Y-107310151D01*
X161050911Y-107344120D01*
X160913386Y-107387495D01*
X160818181Y-107333258D01*
X160775954Y-107282415D01*
X160694520Y-107197521D01*
X160597910Y-107173960D01*
X160431689Y-107203335D01*
X160367294Y-107219385D01*
X160125982Y-107253233D01*
X159941165Y-107228872D01*
X159924590Y-107221301D01*
X159727079Y-107198304D01*
X159548607Y-107258004D01*
X159352235Y-107327435D01*
X159189079Y-107346612D01*
X159179141Y-107345221D01*
X159030355Y-107361099D01*
X158827805Y-107430197D01*
X158769572Y-107457231D01*
X158576141Y-107538866D01*
X158427416Y-107576654D01*
X158399725Y-107576245D01*
X158243941Y-107588980D01*
X158002823Y-107652135D01*
X157720813Y-107751139D01*
X157442356Y-107871417D01*
X157337597Y-107924533D01*
X157137929Y-108020419D01*
X157010181Y-108041873D01*
X156905451Y-107994891D01*
X156885680Y-107979951D01*
X156774187Y-107920447D01*
X156619912Y-107903832D01*
X156380154Y-107927324D01*
X156289292Y-107941122D01*
X155818578Y-108011193D01*
X155457662Y-108050289D01*
X155174284Y-108057188D01*
X154936180Y-108030671D01*
X154711091Y-107969516D01*
X154466755Y-107872501D01*
X154465866Y-107872114D01*
X154185485Y-107739969D01*
X153926008Y-107600929D01*
X153752009Y-107490832D01*
X153512045Y-107263887D01*
X153248691Y-106933152D01*
X152984910Y-106532380D01*
X152743665Y-106095322D01*
X152614777Y-105819292D01*
X152470841Y-105508268D01*
X152317583Y-105212810D01*
X152182635Y-104985358D01*
X152152339Y-104941608D01*
X151948114Y-104662136D01*
X151757142Y-104787161D01*
X151646786Y-104851351D01*
X151546748Y-104870715D01*
X151413023Y-104841125D01*
X151201610Y-104758454D01*
X151129813Y-104728314D01*
X150802118Y-104560940D01*
X150567485Y-104363674D01*
X150479256Y-104256221D01*
X150362001Y-104095647D01*
X150275060Y-103955595D01*
X150221002Y-103817521D01*
X150202399Y-103662882D01*
X150221822Y-103473134D01*
X150281841Y-103229733D01*
X150385027Y-102914134D01*
X150533953Y-102507795D01*
X150731188Y-101992170D01*
X150827875Y-101741602D01*
X150985791Y-101322162D01*
X151128780Y-100923177D01*
X151246491Y-100575013D01*
X151328579Y-100308034D01*
X151360880Y-100177538D01*
X151435192Y-99899386D01*
X151542099Y-99629439D01*
X151579676Y-99557272D01*
X151694303Y-99309179D01*
X151775637Y-99049321D01*
X151782739Y-99014186D01*
X151900503Y-98614121D01*
X152037039Y-98317793D01*
X152402284Y-96246391D01*
X152279936Y-96124392D01*
X152269621Y-96111070D01*
X152112192Y-95905235D01*
X152333978Y-95700821D01*
X152492373Y-95531384D01*
X152683295Y-95294360D01*
X152842149Y-95074439D01*
X152996368Y-94859284D01*
X153128510Y-94696285D01*
X153210654Y-94619804D01*
X153212059Y-94619203D01*
X153332874Y-94637339D01*
X153456290Y-94739514D01*
X153530972Y-94875020D01*
X153534340Y-94937568D01*
X153478931Y-95038906D01*
X153346318Y-95217281D01*
X153158745Y-95444008D01*
X153016385Y-95605387D01*
X152802760Y-95844429D01*
X152625317Y-96048195D01*
X152507279Y-96189726D01*
X152473148Y-96236037D01*
X152402284Y-96246391D01*
X152037039Y-98317793D01*
X152117528Y-98143106D01*
X152422516Y-97624232D01*
X152573063Y-97399118D01*
X152762770Y-97118428D01*
X152937337Y-96848533D01*
X153067299Y-96635362D01*
X153096113Y-96583920D01*
X153198864Y-96434501D01*
X153381106Y-96209897D01*
X153619519Y-95937380D01*
X153890788Y-95644219D01*
X153971856Y-95559665D01*
X154280471Y-95237755D01*
X154596209Y-94903742D01*
X154884212Y-94594782D01*
X155109618Y-94348028D01*
X155130313Y-94324914D01*
X155348532Y-94091179D01*
X155555313Y-93888056D01*
X155714993Y-93750042D01*
X155750023Y-93725447D01*
X155938589Y-93650521D01*
X156170045Y-93614199D01*
X156385397Y-93620279D01*
X156525649Y-93672558D01*
X156528543Y-93675341D01*
X156610126Y-93785934D01*
X156706230Y-93954367D01*
X156797560Y-94139961D01*
X156864824Y-94302037D01*
X156888729Y-94399914D01*
X156877920Y-94411991D01*
X156824256Y-94456295D01*
X156824924Y-94513183D01*
X156807854Y-94585301D01*
X156697078Y-94597466D01*
X156588401Y-94582014D01*
X156376802Y-94519987D01*
X156212976Y-94431049D01*
X156204896Y-94424123D01*
X156061196Y-94352207D01*
X155955242Y-94386917D01*
X155927067Y-94501061D01*
X155960520Y-94590130D01*
X156165092Y-94812968D01*
X156467764Y-94971084D01*
X156831657Y-95053108D01*
X156866993Y-95052614D01*
X156939069Y-94643846D01*
X156909636Y-94601811D01*
X156951671Y-94572378D01*
X156981104Y-94614412D01*
X156939069Y-94643846D01*
X156866993Y-95052614D01*
X157219892Y-95047675D01*
X157360497Y-95021653D01*
X157657240Y-94984979D01*
X158030002Y-94985445D01*
X158425945Y-95018330D01*
X158792227Y-95078909D01*
X159076009Y-95162459D01*
X159111353Y-95178178D01*
X159284450Y-95294468D01*
X159501124Y-95486423D01*
X159716906Y-95714324D01*
X159734120Y-95734480D01*
X159936982Y-95959204D01*
X160131447Y-96149345D01*
X160279001Y-96267564D01*
X160291875Y-96275228D01*
X160456566Y-96437690D01*
X160595175Y-96731151D01*
X160614431Y-96788012D01*
X160732395Y-97098900D01*
X160881337Y-97425676D01*
X160953123Y-97562361D01*
X161082865Y-97794699D01*
X161253467Y-98101662D01*
X161435765Y-98430738D01*
X161508891Y-98563072D01*
X161664517Y-98832447D01*
X161802019Y-99047822D01*
X161902640Y-99180980D01*
X161938942Y-99210006D01*
X162029329Y-99273122D01*
X162157391Y-99413640D01*
X162200901Y-99470161D01*
X162377386Y-99688560D01*
X162601287Y-99935762D01*
X162846962Y-100186952D01*
X163088771Y-100417312D01*
X163301074Y-100602025D01*
X163458230Y-100716275D01*
X163513241Y-100740345D01*
X163651575Y-100813725D01*
X163803741Y-100961623D01*
X163833107Y-100999395D01*
X163955194Y-101139496D01*
X164099392Y-101228207D01*
X164316670Y-101292408D01*
X164436089Y-101317369D01*
X164718400Y-101388416D01*
X164872385Y-101467537D01*
X164909589Y-101520156D01*
X164996563Y-101639137D01*
X165150354Y-101764896D01*
X165157026Y-101769194D01*
X165309684Y-101851862D01*
X165399336Y-101849828D01*
X165439617Y-101815285D01*
X165516136Y-101771938D01*
X165639080Y-101797893D01*
X165782796Y-101864038D01*
X166015211Y-101956043D01*
X166304359Y-102038372D01*
X166447822Y-102068390D01*
X166615490Y-102106871D01*
X166687731Y-101697174D01*
X166617168Y-101670363D01*
X166581108Y-101615128D01*
X166454025Y-101499246D01*
X166356298Y-101462725D01*
X166210173Y-101396633D01*
X166029796Y-101263926D01*
X165971532Y-101210653D01*
X165809858Y-101069660D01*
X165678478Y-100982643D01*
X165646586Y-100971370D01*
X165610848Y-100992534D01*
X165665300Y-101052022D01*
X165752581Y-101159810D01*
X165765550Y-101214840D01*
X165707701Y-101274907D01*
X165584690Y-101220440D01*
X165408805Y-101059659D01*
X165241892Y-100864573D01*
X164984154Y-100587631D01*
X164735130Y-100408770D01*
X164513712Y-100337405D01*
X164338796Y-100382946D01*
X164315147Y-100402893D01*
X164236274Y-100462119D01*
X164168518Y-100441786D01*
X164075614Y-100322800D01*
X164029161Y-100252342D01*
X163889794Y-100076426D01*
X163764019Y-99980016D01*
X163676597Y-99974251D01*
X163652291Y-100070277D01*
X163653932Y-100083511D01*
X163635649Y-100108778D01*
X163567713Y-100023989D01*
X163518130Y-99941643D01*
X163356218Y-99727650D01*
X163139429Y-99525491D01*
X163068358Y-99474449D01*
X162811335Y-99289026D01*
X162609544Y-99110652D01*
X162484577Y-98961457D01*
X162458023Y-98863571D01*
X162463784Y-98854769D01*
X162448402Y-98798226D01*
X162370420Y-98770251D01*
X162289204Y-98741928D01*
X162241756Y-98672573D01*
X162221537Y-98532559D01*
X162222003Y-98292260D01*
X162227953Y-98125118D01*
X162211192Y-97862724D01*
X162140664Y-97731651D01*
X162025552Y-97735472D01*
X161875044Y-97877757D01*
X161813650Y-97964041D01*
X161750604Y-97958950D01*
X161647446Y-97840534D01*
X161516884Y-97630657D01*
X161371626Y-97351181D01*
X161224383Y-97023972D01*
X161131598Y-96790656D01*
X160999382Y-96398146D01*
X160944008Y-96105049D01*
X160968443Y-95885844D01*
X161075648Y-95715015D01*
X161268587Y-95567040D01*
X161274072Y-95563692D01*
X161568061Y-95411406D01*
X161875535Y-95294680D01*
X162149268Y-95228808D01*
X162321627Y-95224482D01*
X162466175Y-95220761D01*
X162695633Y-95185386D01*
X162910942Y-95137857D01*
X163462109Y-95044068D01*
X164047627Y-95037258D01*
X164702947Y-95117782D01*
X164912139Y-95157730D01*
X165258997Y-95235097D01*
X165509378Y-95311879D01*
X165710670Y-95406717D01*
X165910257Y-95538257D01*
X165945798Y-95564399D01*
X166204100Y-95733460D01*
X166478276Y-95878510D01*
X166631695Y-95941026D01*
X166885215Y-96050555D01*
X167222629Y-96233681D01*
X167614977Y-96472732D01*
X168033297Y-96750034D01*
X168448629Y-97047916D01*
X168462204Y-97058083D01*
X168862323Y-97358219D01*
X168608749Y-97786539D01*
X168484421Y-98005632D01*
X168406782Y-98182462D01*
X168362334Y-98367476D01*
X168337582Y-98611114D01*
X168324484Y-98848975D01*
X168313680Y-99209865D01*
X168313292Y-99581686D01*
X168323236Y-99892267D01*
X168325738Y-99930870D01*
X168339618Y-100244587D01*
X168340564Y-100563320D01*
X168334055Y-100725974D01*
X168311013Y-100935016D01*
X168255592Y-101072012D01*
X168134592Y-101191782D01*
X167987086Y-101298926D01*
X167723564Y-101450731D01*
X167470994Y-101511467D01*
X167313830Y-101515112D01*
X167059156Y-101534378D01*
X166853540Y-101595884D01*
X166808249Y-101623082D01*
X166687731Y-101697174D01*
X166615490Y-102106871D01*
X166708598Y-102128241D01*
X166936948Y-102203936D01*
X167027996Y-102247238D01*
X167183928Y-102314152D01*
X167285099Y-102281242D01*
X167291382Y-102275257D01*
X167364515Y-102231104D01*
X167393271Y-102291546D01*
X167444383Y-102347172D01*
X167585611Y-102390199D01*
X167839636Y-102426331D01*
X167987676Y-102441029D01*
X168268137Y-102474461D01*
X168464495Y-102513490D01*
X168503065Y-102531231D01*
X169280662Y-98121254D01*
X169268146Y-98068571D01*
X169343197Y-97904588D01*
X169417725Y-97781363D01*
X169518797Y-97653116D01*
X169642208Y-97531740D01*
X169752997Y-97446423D01*
X169816205Y-97426353D01*
X169819962Y-97445554D01*
X169777299Y-97515699D01*
X169671058Y-97668547D01*
X169529427Y-97863917D01*
X169371003Y-98055437D01*
X169280662Y-98121254D01*
X168503065Y-102531231D01*
X168548793Y-102552267D01*
X168549928Y-102558661D01*
X168605543Y-102613155D01*
X168757920Y-102667217D01*
X168808151Y-102678629D01*
X169089486Y-102769980D01*
X169358476Y-101244461D01*
X169210633Y-101191253D01*
X169120055Y-101086476D01*
X169074006Y-100905852D01*
X169059746Y-100625102D01*
X169063054Y-100292122D01*
X169075909Y-99864071D01*
X169103463Y-99538965D01*
X169158429Y-99274618D01*
X169253523Y-99028845D01*
X169401455Y-98759461D01*
X169614939Y-98424283D01*
X169635335Y-98393205D01*
X169838651Y-98086232D01*
X169987689Y-97876759D01*
X170107805Y-97740942D01*
X170224360Y-97654939D01*
X170362713Y-97594907D01*
X170544900Y-97537990D01*
X170924004Y-97443564D01*
X171239196Y-97418839D01*
X171542238Y-97468945D01*
X171884895Y-97599009D01*
X172075105Y-97689593D01*
X172479044Y-97918540D01*
X172753168Y-98142676D01*
X172825366Y-98227485D01*
X172919595Y-98358980D01*
X172972194Y-98471240D01*
X172986867Y-98603660D01*
X172967325Y-98795636D01*
X172917273Y-99086563D01*
X172909991Y-99126698D01*
X172841924Y-99443123D01*
X172762627Y-99723867D01*
X172685884Y-99922101D01*
X172665018Y-99959093D01*
X172602605Y-100047133D01*
X172568831Y-100061253D01*
X172560511Y-99982743D01*
X172574457Y-99792890D01*
X172597801Y-99564387D01*
X172620277Y-99046899D01*
X172565510Y-98610665D01*
X172551191Y-98552191D01*
X172474055Y-98300616D01*
X172380858Y-98138217D01*
X172233360Y-98010729D01*
X172118067Y-97937536D01*
X171752827Y-97765521D01*
X171360394Y-97660564D01*
X170984157Y-97629248D01*
X170667502Y-97678158D01*
X170596391Y-97706662D01*
X170162934Y-97992104D01*
X169813898Y-98393511D01*
X169551822Y-98907009D01*
X169379244Y-99528725D01*
X169370244Y-99578105D01*
X169315731Y-100056599D01*
X169347328Y-100426718D01*
X169473455Y-100702687D01*
X169702533Y-100898731D01*
X170042981Y-101029076D01*
X170255517Y-101073699D01*
X170676536Y-101101587D01*
X171018803Y-101018314D01*
X171307733Y-100813794D01*
X171501654Y-100579164D01*
X171700176Y-100277553D01*
X171818130Y-100036956D01*
X171869167Y-99807981D01*
X171866939Y-99541241D01*
X171845013Y-99336951D01*
X171792817Y-98983552D01*
X171731501Y-98747966D01*
X171644355Y-98603060D01*
X171514664Y-98521702D01*
X171325718Y-98476760D01*
X171314053Y-98474926D01*
X170883437Y-98469378D01*
X170517230Y-98592549D01*
X170221932Y-98840067D01*
X170004041Y-99207563D01*
X169935573Y-99402032D01*
X169907767Y-99720057D01*
X169997506Y-100017312D01*
X170184309Y-100258760D01*
X170447696Y-100409363D01*
X170537223Y-100431352D01*
X170709409Y-100395614D01*
X170887207Y-100258547D01*
X171042828Y-100060068D01*
X171148480Y-99840093D01*
X171176368Y-99638541D01*
X171149559Y-99551848D01*
X171034027Y-99438849D01*
X170912172Y-99373133D01*
X170793076Y-99336154D01*
X170785587Y-99376255D01*
X170827537Y-99447965D01*
X170894733Y-99630341D01*
X170839659Y-99800602D01*
X170708992Y-99944853D01*
X170541079Y-100098523D01*
X170388017Y-99893834D01*
X170283906Y-99714198D01*
X170269561Y-99541705D01*
X170348265Y-99332616D01*
X170442316Y-99170106D01*
X170640513Y-98951021D01*
X170905255Y-98844779D01*
X171193507Y-98834419D01*
X171293669Y-98857314D01*
X171359964Y-98930595D01*
X171410084Y-99086929D01*
X171454313Y-99315994D01*
X171489916Y-99691678D01*
X171437142Y-99992327D01*
X171280873Y-100268203D01*
X171108077Y-100466986D01*
X170865712Y-100638888D01*
X170579123Y-100723450D01*
X170283180Y-100725252D01*
X170012756Y-100648876D01*
X169802719Y-100498899D01*
X169688071Y-100280492D01*
X169674581Y-100002880D01*
X169724739Y-99648855D01*
X169825667Y-99265336D01*
X169964486Y-98899239D01*
X170128316Y-98597482D01*
X170163621Y-98548092D01*
X170449667Y-98237649D01*
X170747861Y-98060947D01*
X171082972Y-98007137D01*
X171337428Y-98033862D01*
X171709551Y-98135175D01*
X171979044Y-98290741D01*
X172153126Y-98515477D01*
X172239013Y-98824302D01*
X172243927Y-99232131D01*
X172175086Y-99753883D01*
X172173659Y-99761917D01*
X172104786Y-100122401D01*
X172041567Y-100376074D01*
X171971437Y-100560124D01*
X171881831Y-100711735D01*
X171828366Y-100783705D01*
X171650334Y-100985374D01*
X171459158Y-101134982D01*
X171232971Y-101237258D01*
X170949906Y-101296927D01*
X170588094Y-101318713D01*
X170125670Y-101307343D01*
X169576325Y-101270379D01*
X169358476Y-101244461D01*
X169089486Y-102769980D01*
X169135511Y-102784926D01*
X169373600Y-102960580D01*
X169528534Y-103219077D01*
X169549064Y-103312595D01*
X169835661Y-101687225D01*
X169760115Y-101653636D01*
X169807272Y-101625081D01*
X169965949Y-101606443D01*
X170224965Y-101602605D01*
X170311173Y-101604758D01*
X170517240Y-101617117D01*
X170599033Y-101641073D01*
X170577358Y-101683805D01*
X170565912Y-101692691D01*
X170441010Y-101726555D01*
X170226719Y-101733939D01*
X170045090Y-101720964D01*
X169835661Y-101687225D01*
X169549064Y-103312595D01*
X169606429Y-103573901D01*
X169613405Y-104038535D01*
X169584536Y-104390061D01*
X169548530Y-104785209D01*
X169538935Y-105058101D01*
X169554932Y-105203913D01*
X169595705Y-105217821D01*
X169660434Y-105095003D01*
X169690304Y-105013909D01*
X169802935Y-104786367D01*
X169952900Y-104592166D01*
X169969865Y-104576243D01*
X170084186Y-104445734D01*
X170160944Y-104272670D01*
X170219406Y-104010340D01*
X170230289Y-103944974D01*
X170269048Y-103737441D01*
X170320939Y-103563830D01*
X170403112Y-103390815D01*
X170532717Y-103185069D01*
X170726902Y-102913265D01*
X170839489Y-102761108D01*
X171080259Y-102452931D01*
X171327113Y-102163319D01*
X171549084Y-101927202D01*
X171698830Y-101791731D01*
X172289454Y-101291251D01*
X172777245Y-100784405D01*
X172956975Y-100560026D01*
X173122005Y-100307690D01*
X173307498Y-99974404D01*
X173495085Y-99599193D01*
X173666396Y-99221082D01*
X173803065Y-98879091D01*
X173886724Y-98612248D01*
X173897038Y-98562792D01*
X173964167Y-98372474D01*
X174096709Y-98263362D01*
X174314661Y-98229197D01*
X174638016Y-98263719D01*
X174771251Y-98289115D01*
X174963386Y-98333454D01*
X175132919Y-98389431D01*
X175306650Y-98471907D01*
X175511377Y-98595742D01*
X175773899Y-98775797D01*
X176121015Y-99026931D01*
X176180754Y-99070711D01*
X176533573Y-99328076D01*
X176794495Y-99511851D01*
X176988067Y-99635085D01*
X177138838Y-99710832D01*
X177271355Y-99752141D01*
X177410167Y-99772064D01*
X177514211Y-99779654D01*
X178012631Y-99792415D01*
X178507228Y-99764364D01*
X179014077Y-99690621D01*
X179549253Y-99566310D01*
X180128829Y-99386552D01*
X180768881Y-99146469D01*
X181485482Y-98841183D01*
X182294707Y-98465817D01*
X183034051Y-98104594D01*
X183980216Y-97631531D01*
X184801912Y-97214832D01*
X185506603Y-96850358D01*
X186101751Y-96533973D01*
X186594820Y-96261539D01*
X186993274Y-96028918D01*
X187304577Y-95831974D01*
X187536190Y-95666567D01*
X187695578Y-95528563D01*
X187712886Y-95510844D01*
X187859590Y-95360184D01*
X188087759Y-95129981D01*
X188375277Y-94842359D01*
X188700022Y-94519445D01*
X189039878Y-94183362D01*
X189047664Y-94175686D01*
X189702481Y-93526136D01*
X190250142Y-92974290D01*
X190690736Y-92520046D01*
X191024349Y-92163302D01*
X191251070Y-91903957D01*
X191370984Y-91741909D01*
X191384178Y-91677056D01*
X191290739Y-91709300D01*
X191090755Y-91838535D01*
X190991362Y-91909757D01*
X190723575Y-92060484D01*
X190511027Y-92089028D01*
X190400277Y-92091464D01*
X190273821Y-92149347D01*
X190106097Y-92279607D01*
X189871538Y-92499167D01*
X189829850Y-92540023D01*
X189566368Y-92809344D01*
X189301056Y-93097225D01*
X189080947Y-93352204D01*
X189032289Y-93412642D01*
X188761357Y-93744742D01*
X188492913Y-94051609D01*
X188244467Y-94315441D01*
X188033525Y-94518434D01*
X187877598Y-94642784D01*
X187794728Y-94671014D01*
X187684800Y-94665406D01*
X187658854Y-94684621D01*
X187558811Y-94705591D01*
X187443598Y-94673882D01*
X187333406Y-94646465D01*
X187237945Y-94696139D01*
X187119028Y-94846039D01*
X187090659Y-94887720D01*
X186927738Y-95092981D01*
X186751319Y-95262755D01*
X186698259Y-95301321D01*
X186465875Y-95437530D01*
X186150775Y-95606567D01*
X185803188Y-95783019D01*
X185473344Y-95941476D01*
X185211473Y-96056529D01*
X185183976Y-96067385D01*
X184935713Y-96142914D01*
X184758318Y-96156858D01*
X184673905Y-96111008D01*
X184691107Y-96027471D01*
X184760570Y-95895448D01*
X184855651Y-95696162D01*
X184888344Y-95624218D01*
X184999749Y-95425083D01*
X185113731Y-95341644D01*
X185177567Y-95334671D01*
X185278016Y-95308998D01*
X185380656Y-95208934D01*
X185506409Y-95010419D01*
X185584405Y-94866888D01*
X185753833Y-94578037D01*
X185896384Y-94410748D01*
X186004960Y-94351516D01*
X186171954Y-94239109D01*
X186288472Y-94045661D01*
X186403219Y-93850857D01*
X186554081Y-93760574D01*
X186613127Y-93747804D01*
X186758252Y-93698537D01*
X186867752Y-93582330D01*
X186971857Y-93375871D01*
X187087759Y-93158800D01*
X187191316Y-93060014D01*
X187222032Y-93056600D01*
X187370155Y-93019272D01*
X187576720Y-92880309D01*
X187818459Y-92658030D01*
X188034554Y-92416857D01*
X188284823Y-92173043D01*
X188654417Y-91906517D01*
X189077409Y-91652223D01*
X189379960Y-91476836D01*
X189635890Y-91319869D01*
X189818399Y-91198350D01*
X189900691Y-91129311D01*
X189900942Y-91128903D01*
X190001242Y-91050366D01*
X190178608Y-90972332D01*
X190211197Y-90961788D01*
X190386160Y-90896132D01*
X190648855Y-90783182D01*
X190957572Y-90641297D01*
X191154043Y-90546729D01*
X191601126Y-90333705D01*
X191927902Y-90193170D01*
X192139255Y-90124172D01*
X192240065Y-90125758D01*
X192235216Y-90196974D01*
X192129589Y-90336865D01*
X192108460Y-90360320D01*
X192039916Y-90443786D01*
X192061828Y-90450776D01*
X192184994Y-90378086D01*
X192298301Y-90303980D01*
X192649248Y-90046029D01*
X192961375Y-89769716D01*
X193204003Y-89504712D01*
X193338818Y-89297783D01*
X193423035Y-89179676D01*
X193571112Y-89022825D01*
X193752131Y-88854134D01*
X193935180Y-88700509D01*
X194089342Y-88588859D01*
X194183705Y-88546089D01*
X194196311Y-88551471D01*
X194166648Y-88619205D01*
X194070777Y-88775455D01*
X193927092Y-88990799D01*
X193871552Y-89070913D01*
X193662682Y-89383753D01*
X193446583Y-89730119D01*
X193270985Y-90033344D01*
X193130897Y-90273919D01*
X192932125Y-90593609D01*
X192699761Y-90952999D01*
X192458889Y-91312675D01*
X192427542Y-91358442D01*
X192168089Y-91741305D01*
X191864943Y-92196781D01*
X191551377Y-92674431D01*
X191260665Y-93123811D01*
X191188962Y-93236022D01*
X190894026Y-93687315D01*
X190630145Y-94058833D01*
X190362480Y-94394160D01*
X190056185Y-94736884D01*
X189676421Y-95130585D01*
X189665809Y-95141332D01*
X189292294Y-95521924D01*
X188864650Y-95961689D01*
X188428050Y-96413944D01*
X188027667Y-96832006D01*
X187907995Y-96957873D01*
X187533221Y-97353024D01*
X187110793Y-97798500D01*
X186684773Y-98247832D01*
X186299222Y-98654549D01*
X186182378Y-98777827D01*
X185540907Y-99440277D01*
X184964253Y-100006081D01*
X184457627Y-100470498D01*
X184026240Y-100828784D01*
X183675305Y-101076199D01*
X183620769Y-101108774D01*
X183330246Y-101298183D01*
X182962457Y-101571706D01*
X182541559Y-101909632D01*
X182091712Y-102292248D01*
X181637073Y-102699846D01*
X181406783Y-102915131D01*
X181177395Y-103138725D01*
X181031854Y-103304434D01*
X180945510Y-103450789D01*
X180893715Y-103616318D01*
X180865285Y-103761577D01*
X180716447Y-104245807D01*
X180457982Y-104636630D01*
X180250004Y-104825786D01*
X180109163Y-104935800D01*
X180076561Y-104982933D01*
X180143461Y-104990226D01*
X180188629Y-104987642D01*
X180285096Y-104988235D01*
X180305997Y-105021633D01*
X180242211Y-105109709D01*
X180084620Y-105274343D01*
X180057802Y-105301463D01*
X179932928Y-105448469D01*
X179920678Y-105513902D01*
X180010919Y-105493628D01*
X180193514Y-105383508D01*
X180217518Y-105366646D01*
X180363947Y-105267701D01*
X180401739Y-105257570D01*
X180341545Y-105328829D01*
X180220984Y-105463801D01*
X180154116Y-105553699D01*
X180096334Y-105657647D01*
X180001831Y-105825561D01*
X179984917Y-105855475D01*
X179872568Y-106087897D01*
X179787243Y-106320287D01*
X179786579Y-106322628D01*
X179720950Y-106555264D01*
X179925852Y-106467299D01*
X180065550Y-106412505D01*
X180099758Y-106431552D01*
X180055903Y-106539967D01*
X180055551Y-106540724D01*
X179986523Y-106717573D01*
X179958514Y-106820221D01*
X179882675Y-106910813D01*
X179712347Y-107013922D01*
X179579931Y-107070805D01*
X179356428Y-107169051D01*
X179271633Y-107259079D01*
X179321983Y-107361395D01*
X179503916Y-107496505D01*
X179505752Y-107497683D01*
X179685395Y-107655559D01*
X179814029Y-107841191D01*
X179817089Y-107848116D01*
X179871245Y-107999977D01*
X179848686Y-108090340D01*
X179756688Y-108172486D01*
X179641258Y-108318544D01*
X179667210Y-108471141D01*
X179835798Y-108634905D01*
X179892184Y-108672912D01*
X180043504Y-108781145D01*
X180092661Y-108878846D01*
X180060587Y-109028411D01*
X180035557Y-109100304D01*
X179979102Y-109359457D01*
X179994898Y-109545789D01*
X180015735Y-109670646D01*
X179956317Y-109762896D01*
X179816988Y-109854851D01*
X179582550Y-109991523D01*
X179822691Y-109987860D01*
X179984342Y-109995629D01*
X180038958Y-110053350D01*
X180024388Y-110202219D01*
X180023621Y-110206577D01*
X180018201Y-110577210D01*
X180144728Y-110913789D01*
X180409508Y-111232249D01*
X180441008Y-111261173D01*
X180729054Y-111509730D01*
X180961902Y-111676057D01*
X181183754Y-111783684D01*
X181438814Y-111856145D01*
X181627316Y-111892731D01*
X181872363Y-111943106D01*
X182165709Y-112017975D01*
X182522955Y-112122219D01*
X182959707Y-112260717D01*
X183491567Y-112438349D01*
X184134140Y-112659995D01*
X184574753Y-112814530D01*
X184900657Y-112927425D01*
X185184701Y-113019393D01*
X185454123Y-113096620D01*
X185736156Y-113165295D01*
X186058039Y-113231602D01*
X186447005Y-113301728D01*
X186930292Y-113381856D01*
X187408891Y-113458230D01*
X188002449Y-113550618D01*
X188478655Y-113620381D01*
X188863113Y-113669999D01*
X189181428Y-113701952D01*
X189459202Y-113718719D01*
X189722041Y-113722782D01*
X189995547Y-113716619D01*
X190053443Y-113714391D01*
X190773899Y-113717387D01*
X191563754Y-113777900D01*
X191854826Y-113813339D01*
X192247659Y-113866672D01*
X192518938Y-113907614D01*
X192690986Y-113942908D01*
X192786122Y-113979302D01*
X192826671Y-114023541D01*
X192834953Y-114082372D01*
X192834303Y-114109357D01*
X192850394Y-114208706D01*
X192917389Y-114279636D01*
X193051917Y-114324207D01*
X193270611Y-114344481D01*
X193590101Y-114342517D01*
X194027016Y-114320375D01*
X194356807Y-114297947D01*
X194814860Y-114266049D01*
X195163531Y-114250787D01*
X195438281Y-114259507D01*
X195674574Y-114299553D01*
X195907871Y-114378266D01*
X196173636Y-114502991D01*
X196507330Y-114681072D01*
X196690117Y-114781128D01*
X197020043Y-114951416D01*
X197269267Y-115052101D01*
X197475809Y-115097070D01*
X197571320Y-115102946D01*
X197875871Y-115152124D01*
X198120217Y-115285995D01*
X198282114Y-115384750D01*
X198541846Y-115522698D01*
X198863893Y-115681725D01*
X199212743Y-115843717D01*
X199220361Y-115847137D01*
X199624842Y-116036076D01*
X199906498Y-116190770D01*
X200079060Y-116326176D01*
X200156250Y-116457250D01*
X200151798Y-116598945D01*
X200079430Y-116766220D01*
X200073587Y-116776754D01*
X199953963Y-116932812D01*
X199769185Y-117078422D01*
X199507375Y-117217878D01*
X199156656Y-117355472D01*
X198705150Y-117495494D01*
X198140982Y-117642237D01*
X197452271Y-117799990D01*
X196940894Y-117908663D01*
X196524669Y-117997815D01*
X196140936Y-118085046D01*
X195819953Y-118163102D01*
X195591973Y-118224727D01*
X195509590Y-118251898D01*
X195317174Y-118309034D01*
X195014177Y-118377163D01*
X194634199Y-118450656D01*
X194210847Y-118523881D01*
X193777724Y-118591205D01*
X193368434Y-118646997D01*
X193016582Y-118685624D01*
X192846301Y-118698257D01*
X191786124Y-118720779D01*
X190761313Y-118675974D01*
X189798687Y-118566549D01*
X188925067Y-118395206D01*
X188416791Y-118251635D01*
X188124918Y-118160694D01*
X187934439Y-118114476D01*
X187810158Y-118108614D01*
X187716881Y-118138743D01*
X187679853Y-118160217D01*
X187584892Y-118204771D01*
X187471289Y-118212517D01*
X187301953Y-118179337D01*
X187039786Y-118101113D01*
X186982605Y-118082809D01*
X186669960Y-117988385D01*
X186363090Y-117905869D01*
X186126315Y-117852510D01*
X186118474Y-117851095D01*
X185703431Y-117776118D01*
X185400151Y-117714883D01*
X185177378Y-117656382D01*
X185003858Y-117589607D01*
X184848336Y-117503551D01*
X184679556Y-117387204D01*
X184568017Y-117305026D01*
X184312134Y-117111150D01*
X184072770Y-116922960D01*
X183898003Y-116778333D01*
X183885930Y-116767724D01*
X183719661Y-116641841D01*
X183575166Y-116604304D01*
X183441735Y-116619342D01*
X183286826Y-116633614D01*
X183169647Y-116586572D01*
X183034328Y-116452274D01*
X183002504Y-116415392D01*
X182847345Y-116266762D01*
X182706340Y-116184749D01*
X182665532Y-116178656D01*
X182541118Y-116128524D01*
X182409253Y-115989538D01*
X182400067Y-115975894D01*
X182261526Y-115822228D01*
X182113771Y-115737327D01*
X182104031Y-115735265D01*
X181962314Y-115676305D01*
X181794103Y-115536639D01*
X181584756Y-115301546D01*
X181319632Y-114956304D01*
X181292771Y-114919651D01*
X180896332Y-114492764D01*
X180562220Y-114256711D01*
X180276704Y-114086493D01*
X179983497Y-113909725D01*
X179796118Y-113795381D01*
X179437888Y-113606012D01*
X179040881Y-113446369D01*
X178649507Y-113330565D01*
X178308178Y-113272706D01*
X178147376Y-113271541D01*
X177960116Y-113316669D01*
X177680103Y-113420037D01*
X177340770Y-113568154D01*
X177003091Y-113733293D01*
X176633590Y-113912392D01*
X176258533Y-114075308D01*
X175922557Y-114203712D01*
X175677015Y-114277773D01*
X175116094Y-114441692D01*
X174474816Y-114697824D01*
X173744279Y-115049955D01*
X173279290Y-115297949D01*
X172940829Y-115481195D01*
X172618861Y-115650636D01*
X172350566Y-115786997D01*
X172177702Y-115869025D01*
X172016430Y-115926917D01*
X171771229Y-116001198D01*
X171479123Y-116082280D01*
X171177133Y-116160571D01*
X170902283Y-116226482D01*
X170691596Y-116270422D01*
X170582095Y-116282800D01*
X170580993Y-116282626D01*
X170409666Y-117254272D01*
X170812613Y-117125043D01*
X171475150Y-116895324D01*
X172077378Y-116667535D01*
X172587199Y-116451795D01*
X172819999Y-116340205D01*
X173082963Y-116213227D01*
X173295932Y-116122984D01*
X173427476Y-116082206D01*
X173452541Y-116084005D01*
X173530391Y-116066929D01*
X173705541Y-115988673D01*
X173950638Y-115862404D01*
X174191007Y-115728607D01*
X174579310Y-115513129D01*
X174963239Y-115313312D01*
X175321887Y-115138603D01*
X175634345Y-114998450D01*
X175879707Y-114902301D01*
X176037064Y-114859602D01*
X176085995Y-114872304D01*
X176154406Y-114899610D01*
X176322601Y-114872234D01*
X176560970Y-114801255D01*
X176839908Y-114697753D01*
X177129805Y-114572806D01*
X177401055Y-114437496D01*
X177624050Y-114302901D01*
X177642839Y-114289705D01*
X178061239Y-113990738D01*
X178564777Y-114079526D01*
X178883880Y-114149232D01*
X179121904Y-114241586D01*
X179342868Y-114382965D01*
X179391750Y-114420305D01*
X179566876Y-114567424D01*
X179822408Y-114795951D01*
X180136105Y-115084679D01*
X180485728Y-115412397D01*
X180849036Y-115757898D01*
X181203789Y-116099972D01*
X181527749Y-116417412D01*
X181798673Y-116689007D01*
X181994323Y-116893548D01*
X182047248Y-116952677D01*
X182272965Y-117170383D01*
X182463442Y-117265769D01*
X182608293Y-117235271D01*
X182664211Y-117164579D01*
X182711526Y-117096156D01*
X182771424Y-117096838D01*
X182875519Y-117179776D01*
X183003404Y-117305675D01*
X183177706Y-117466840D01*
X183301367Y-117535244D01*
X183414597Y-117531318D01*
X183435198Y-117525091D01*
X183631991Y-117491677D01*
X183831448Y-117534629D01*
X184065523Y-117665984D01*
X184316863Y-117857184D01*
X184640607Y-118092504D01*
X184894277Y-118210156D01*
X185087441Y-118213815D01*
X185156713Y-118179573D01*
X185261252Y-118157015D01*
X185421042Y-118220331D01*
X185508032Y-118271502D01*
X185737083Y-118395546D01*
X186011097Y-118505858D01*
X186358640Y-118611767D01*
X186808274Y-118722600D01*
X187060317Y-118778468D01*
X187454983Y-118866690D01*
X187908337Y-118972472D01*
X188338645Y-119076644D01*
X188447909Y-119103931D01*
X188815692Y-119190036D01*
X189060094Y-119230831D01*
X189194980Y-119228235D01*
X189225466Y-119211512D01*
X189331088Y-119185787D01*
X189553671Y-119196192D01*
X189869887Y-119241632D01*
X189870658Y-119241768D01*
X190229697Y-119287395D01*
X190671320Y-119310595D01*
X191208400Y-119311200D01*
X191853806Y-119289041D01*
X192620409Y-119243949D01*
X193250154Y-119197542D01*
X193694980Y-119156555D01*
X194131779Y-119102334D01*
X194584775Y-119030200D01*
X195078190Y-118935479D01*
X195636244Y-118813494D01*
X196283161Y-118659568D01*
X197043164Y-118469026D01*
X197102685Y-118453822D01*
X197827266Y-118265926D01*
X198424583Y-118104558D01*
X198909086Y-117964892D01*
X199295229Y-117842100D01*
X199597461Y-117731353D01*
X199830234Y-117627824D01*
X200007999Y-117526686D01*
X200117375Y-117446671D01*
X200306929Y-117310500D01*
X200466610Y-117228957D01*
X200531003Y-117217522D01*
X200636907Y-117190764D01*
X200833483Y-117106415D01*
X201087409Y-116982324D01*
X201365357Y-116836338D01*
X201634001Y-116686303D01*
X201860019Y-116550069D01*
X202010082Y-116445480D01*
X202050748Y-116403635D01*
X202015823Y-116328171D01*
G36*
X157205904Y-105787483D02*
G01*
X157201608Y-105390830D01*
X157176721Y-105260404D01*
X157081332Y-105009465D01*
X156930027Y-104731290D01*
X156751298Y-104468642D01*
X156573637Y-104264285D01*
X156451161Y-104171377D01*
X156308022Y-104056594D01*
X156187790Y-103899683D01*
X156032711Y-103733106D01*
X155778709Y-103561097D01*
X155469480Y-103405162D01*
X155148720Y-103286809D01*
X154860128Y-103227546D01*
X154816785Y-103224874D01*
X154548057Y-103256453D01*
X154187318Y-103369215D01*
X153813995Y-103524889D01*
X153503126Y-103662517D01*
X153295009Y-103744686D01*
X153160905Y-103777398D01*
X153072078Y-103766653D01*
X152999791Y-103718454D01*
X152978849Y-103699297D01*
X152829559Y-103602703D01*
X152672249Y-103616053D01*
X152550515Y-103683475D01*
X152501858Y-103796269D01*
X152527883Y-103975394D01*
X152630198Y-104241807D01*
X152737734Y-104470408D01*
X152886922Y-104803635D01*
X152961232Y-105049903D01*
X152969677Y-105240694D01*
X152965760Y-105266819D01*
X152972084Y-105578883D01*
X153075699Y-105945009D01*
X153258870Y-106330741D01*
X153503860Y-106701624D01*
X153792932Y-107023205D01*
X153930559Y-107141013D01*
X154152503Y-107258683D01*
X154478992Y-107363282D01*
X154869504Y-107446309D01*
X155283512Y-107499263D01*
X155349763Y-107501662D01*
X155583406Y-106176605D01*
X155542442Y-106096023D01*
X155426022Y-105963477D01*
X155254498Y-105935453D01*
X155141771Y-105981902D01*
X155052376Y-105998843D01*
X154960915Y-105899531D01*
X154933477Y-105853061D01*
X154838259Y-105719046D01*
X154739777Y-105694310D01*
X154668951Y-105715934D01*
X154555474Y-105736762D01*
X154459081Y-105675616D01*
X154354341Y-105535422D01*
X154181386Y-105348391D01*
X153985447Y-105236454D01*
X153980380Y-105234982D01*
X153846481Y-105179483D01*
X153776881Y-105080844D01*
X153743391Y-104892870D01*
X153738362Y-104838356D01*
X153722042Y-104618244D01*
X153714500Y-104454682D01*
X153714833Y-104416580D01*
X153779347Y-104348108D01*
X153944628Y-104246048D01*
X154176778Y-104130963D01*
X154210445Y-104115966D01*
X154541563Y-103979705D01*
X154786464Y-103909446D01*
X154986159Y-103901322D01*
X155181652Y-103951470D01*
X155321245Y-104011306D01*
X155583094Y-104113886D01*
X155855101Y-104192142D01*
X155896087Y-104200671D01*
X156089571Y-104258393D01*
X156241505Y-104368617D01*
X156402682Y-104569117D01*
X156414956Y-104586555D01*
X156551861Y-104805467D01*
X156604356Y-104969626D01*
X156587888Y-105129608D01*
X156584564Y-105141912D01*
X156526275Y-105293176D01*
X156439554Y-105333268D01*
X156328678Y-105310618D01*
X156164730Y-105297659D01*
X156051560Y-105396911D01*
X156031324Y-105429105D01*
X155956185Y-105622272D01*
X155939534Y-105770514D01*
X155883250Y-105965803D01*
X155773452Y-106086147D01*
X155647669Y-106179797D01*
X155583406Y-106176605D01*
X155349763Y-107501662D01*
X155680494Y-107513638D01*
X155703926Y-107513059D01*
X156151217Y-107470208D01*
X156486554Y-107361608D01*
X156733719Y-107172906D01*
X156916496Y-106889753D01*
X156977840Y-106744365D01*
X157129723Y-106250536D01*
X157205904Y-105787483D01*
G37*
X157205904Y-105787483D02*
X157201608Y-105390830D01*
X157176721Y-105260404D01*
X157081332Y-105009465D01*
X156930027Y-104731290D01*
X156751298Y-104468642D01*
X156573637Y-104264285D01*
X156451161Y-104171377D01*
X156308022Y-104056594D01*
X156187790Y-103899683D01*
X156032711Y-103733106D01*
X155778709Y-103561097D01*
X155469480Y-103405162D01*
X155148720Y-103286809D01*
X154860128Y-103227546D01*
X154816785Y-103224874D01*
X154548057Y-103256453D01*
X154187318Y-103369215D01*
X153813995Y-103524889D01*
X153503126Y-103662517D01*
X153295009Y-103744686D01*
X153160905Y-103777398D01*
X153072078Y-103766653D01*
X152999791Y-103718454D01*
X152978849Y-103699297D01*
X152829559Y-103602703D01*
X152672249Y-103616053D01*
X152550515Y-103683475D01*
X152501858Y-103796269D01*
X152527883Y-103975394D01*
X152630198Y-104241807D01*
X152737734Y-104470408D01*
X152886922Y-104803635D01*
X152961232Y-105049903D01*
X152969677Y-105240694D01*
X152965760Y-105266819D01*
X152972084Y-105578883D01*
X153075699Y-105945009D01*
X153258870Y-106330741D01*
X153503860Y-106701624D01*
X153792932Y-107023205D01*
X153930559Y-107141013D01*
X154152503Y-107258683D01*
X154478992Y-107363282D01*
X154869504Y-107446309D01*
X155283512Y-107499263D01*
X155349763Y-107501662D01*
X155583406Y-106176605D01*
X155542442Y-106096023D01*
X155426022Y-105963477D01*
X155254498Y-105935453D01*
X155141771Y-105981902D01*
X155052376Y-105998843D01*
X154960915Y-105899531D01*
X154933477Y-105853061D01*
X154838259Y-105719046D01*
X154739777Y-105694310D01*
X154668951Y-105715934D01*
X154555474Y-105736762D01*
X154459081Y-105675616D01*
X154354341Y-105535422D01*
X154181386Y-105348391D01*
X153985447Y-105236454D01*
X153980380Y-105234982D01*
X153846481Y-105179483D01*
X153776881Y-105080844D01*
X153743391Y-104892870D01*
X153738362Y-104838356D01*
X153722042Y-104618244D01*
X153714500Y-104454682D01*
X153714833Y-104416580D01*
X153779347Y-104348108D01*
X153944628Y-104246048D01*
X154176778Y-104130963D01*
X154210445Y-104115966D01*
X154541563Y-103979705D01*
X154786464Y-103909446D01*
X154986159Y-103901322D01*
X155181652Y-103951470D01*
X155321245Y-104011306D01*
X155583094Y-104113886D01*
X155855101Y-104192142D01*
X155896087Y-104200671D01*
X156089571Y-104258393D01*
X156241505Y-104368617D01*
X156402682Y-104569117D01*
X156414956Y-104586555D01*
X156551861Y-104805467D01*
X156604356Y-104969626D01*
X156587888Y-105129608D01*
X156584564Y-105141912D01*
X156526275Y-105293176D01*
X156439554Y-105333268D01*
X156328678Y-105310618D01*
X156164730Y-105297659D01*
X156051560Y-105396911D01*
X156031324Y-105429105D01*
X155956185Y-105622272D01*
X155939534Y-105770514D01*
X155883250Y-105965803D01*
X155773452Y-106086147D01*
X155647669Y-106179797D01*
X155583406Y-106176605D01*
X155349763Y-107501662D01*
X155680494Y-107513638D01*
X155703926Y-107513059D01*
X156151217Y-107470208D01*
X156486554Y-107361608D01*
X156733719Y-107172906D01*
X156916496Y-106889753D01*
X156977840Y-106744365D01*
X157129723Y-106250536D01*
X157205904Y-105787483D01*
G36*
X157571643Y-100734093D02*
G01*
X157243267Y-100681982D01*
X156972954Y-100633748D01*
X156789848Y-100594959D01*
X156723291Y-100572091D01*
X156700702Y-100480523D01*
X156672761Y-100316601D01*
X156627406Y-100174502D01*
X156518417Y-100050976D01*
X156314379Y-99913516D01*
X156243637Y-99872481D01*
X155987915Y-99706531D01*
X155818619Y-99533165D01*
X155684459Y-99299136D01*
X155677834Y-99285060D01*
X155535134Y-99026431D01*
X155410562Y-98891081D01*
X155312462Y-98883771D01*
X155249174Y-99009260D01*
X155243637Y-99037291D01*
X155247611Y-99254289D01*
X155300168Y-99448053D01*
X155386158Y-99643785D01*
X155495023Y-99891460D01*
X155538423Y-99990169D01*
X155669372Y-100258717D01*
X155830326Y-100550877D01*
X155898511Y-100663878D01*
X156010223Y-100852781D01*
X156040982Y-100940231D01*
X155995131Y-100942218D01*
X155970973Y-100930591D01*
X155777540Y-100907970D01*
X155634293Y-100959980D01*
X155463704Y-101017629D01*
X155337589Y-101009792D01*
X155311329Y-101029235D01*
X155359344Y-101139115D01*
X155408963Y-101220315D01*
X155552629Y-101402534D01*
X155698772Y-101532494D01*
X155734799Y-101552767D01*
X155824077Y-101608480D01*
X155848634Y-101694635D01*
X155814333Y-101855531D01*
X155786888Y-101946122D01*
X155716111Y-102147676D01*
X155653333Y-102284521D01*
X155632682Y-102312005D01*
X155541931Y-102321522D01*
X155341937Y-102313204D01*
X155067236Y-102289039D01*
X154896775Y-102269706D01*
X154554404Y-102233582D01*
X154326056Y-102225678D01*
X154183193Y-102246917D01*
X154100043Y-102295531D01*
X153991393Y-102459179D01*
X153956147Y-102638481D01*
X154001904Y-102777200D01*
X154031600Y-102801923D01*
X154149154Y-102837393D01*
X154369964Y-102876571D01*
X154652538Y-102912483D01*
X154744476Y-102921701D01*
X155066180Y-102957852D01*
X155279144Y-102999889D01*
X155419721Y-103057479D01*
X155508327Y-103124822D01*
X155729860Y-103247859D01*
X155916394Y-103268073D01*
X156258991Y-103325591D01*
X156603297Y-103486020D01*
X156889889Y-103720626D01*
X156917186Y-103751929D01*
X157068894Y-103903691D01*
X157159505Y-103923875D01*
X157188533Y-103812682D01*
X157170441Y-103648016D01*
X157163548Y-103405275D01*
X157215056Y-103180639D01*
X157309322Y-103017987D01*
X157415381Y-102960963D01*
X157543605Y-103009225D01*
X157678594Y-103132559D01*
X157776940Y-103250144D01*
X157816259Y-103260178D01*
X157827215Y-103169222D01*
X157827456Y-103164417D01*
X157862934Y-102990834D01*
X157895015Y-102918411D01*
X157952711Y-102791172D01*
X158027457Y-102587605D01*
X158058090Y-102494558D01*
X158114173Y-102285730D01*
X158108642Y-102151098D01*
X158034108Y-102030222D01*
X157995911Y-101986181D01*
X157847763Y-101852544D01*
X157714839Y-101781415D01*
X157709557Y-101780346D01*
X157573683Y-101729049D01*
X157579166Y-101647418D01*
X157726097Y-101534594D01*
X157737373Y-101527995D01*
X157922755Y-101389681D01*
X158120834Y-101197560D01*
X158180140Y-101129263D01*
X158401744Y-100858707D01*
X157571643Y-100734093D01*
G37*
X157571643Y-100734093D02*
X157243267Y-100681982D01*
X156972954Y-100633748D01*
X156789848Y-100594959D01*
X156723291Y-100572091D01*
X156700702Y-100480523D01*
X156672761Y-100316601D01*
X156627406Y-100174502D01*
X156518417Y-100050976D01*
X156314379Y-99913516D01*
X156243637Y-99872481D01*
X155987915Y-99706531D01*
X155818619Y-99533165D01*
X155684459Y-99299136D01*
X155677834Y-99285060D01*
X155535134Y-99026431D01*
X155410562Y-98891081D01*
X155312462Y-98883771D01*
X155249174Y-99009260D01*
X155243637Y-99037291D01*
X155247611Y-99254289D01*
X155300168Y-99448053D01*
X155386158Y-99643785D01*
X155495023Y-99891460D01*
X155538423Y-99990169D01*
X155669372Y-100258717D01*
X155830326Y-100550877D01*
X155898511Y-100663878D01*
X156010223Y-100852781D01*
X156040982Y-100940231D01*
X155995131Y-100942218D01*
X155970973Y-100930591D01*
X155777540Y-100907970D01*
X155634293Y-100959980D01*
X155463704Y-101017629D01*
X155337589Y-101009792D01*
X155311329Y-101029235D01*
X155359344Y-101139115D01*
X155408963Y-101220315D01*
X155552629Y-101402534D01*
X155698772Y-101532494D01*
X155734799Y-101552767D01*
X155824077Y-101608480D01*
X155848634Y-101694635D01*
X155814333Y-101855531D01*
X155786888Y-101946122D01*
X155716111Y-102147676D01*
X155653333Y-102284521D01*
X155632682Y-102312005D01*
X155541931Y-102321522D01*
X155341937Y-102313204D01*
X155067236Y-102289039D01*
X154896775Y-102269706D01*
X154554404Y-102233582D01*
X154326056Y-102225678D01*
X154183193Y-102246917D01*
X154100043Y-102295531D01*
X153991393Y-102459179D01*
X153956147Y-102638481D01*
X154001904Y-102777200D01*
X154031600Y-102801923D01*
X154149154Y-102837393D01*
X154369964Y-102876571D01*
X154652538Y-102912483D01*
X154744476Y-102921701D01*
X155066180Y-102957852D01*
X155279144Y-102999889D01*
X155419721Y-103057479D01*
X155508327Y-103124822D01*
X155729860Y-103247859D01*
X155916394Y-103268073D01*
X156258991Y-103325591D01*
X156603297Y-103486020D01*
X156889889Y-103720626D01*
X156917186Y-103751929D01*
X157068894Y-103903691D01*
X157159505Y-103923875D01*
X157188533Y-103812682D01*
X157170441Y-103648016D01*
X157163548Y-103405275D01*
X157215056Y-103180639D01*
X157309322Y-103017987D01*
X157415381Y-102960963D01*
X157543605Y-103009225D01*
X157678594Y-103132559D01*
X157776940Y-103250144D01*
X157816259Y-103260178D01*
X157827215Y-103169222D01*
X157827456Y-103164417D01*
X157862934Y-102990834D01*
X157895015Y-102918411D01*
X157952711Y-102791172D01*
X158027457Y-102587605D01*
X158058090Y-102494558D01*
X158114173Y-102285730D01*
X158108642Y-102151098D01*
X158034108Y-102030222D01*
X157995911Y-101986181D01*
X157847763Y-101852544D01*
X157714839Y-101781415D01*
X157709557Y-101780346D01*
X157573683Y-101729049D01*
X157579166Y-101647418D01*
X157726097Y-101534594D01*
X157737373Y-101527995D01*
X157922755Y-101389681D01*
X158120834Y-101197560D01*
X158180140Y-101129263D01*
X158401744Y-100858707D01*
X157571643Y-100734093D01*
G36*
X159897623Y-97883325D02*
G01*
X159903302Y-97472511D01*
X159866466Y-97007552D01*
X159793163Y-96643876D01*
X159670112Y-96339487D01*
X159484035Y-96052387D01*
X159433922Y-95988126D01*
X159294515Y-95821561D01*
X159171727Y-95710276D01*
X159024686Y-95631529D01*
X158812520Y-95562577D01*
X158544368Y-95493164D01*
X158243259Y-95420603D01*
X158033038Y-95384882D01*
X157864045Y-95386606D01*
X157686621Y-95426377D01*
X157451108Y-95504800D01*
X157446174Y-95506519D01*
X157154104Y-95595696D01*
X156975874Y-95618070D01*
X156903197Y-95585692D01*
X156805562Y-95541565D01*
X156598268Y-95546446D01*
X156377809Y-95579200D01*
X155914376Y-95661189D01*
X155810461Y-95473711D01*
X155684019Y-95330568D01*
X155580203Y-95310777D01*
X155483217Y-95366293D01*
X155437569Y-95502360D01*
X155435734Y-95746200D01*
X155440429Y-95816569D01*
X155465432Y-96017001D01*
X155510898Y-96283762D01*
X155542841Y-96444137D01*
X155587810Y-96765494D01*
X155603749Y-97117579D01*
X155598812Y-97264607D01*
X155584999Y-97676054D01*
X155618227Y-97992888D01*
X155709505Y-98261091D01*
X155869839Y-98526649D01*
X155916134Y-98590169D01*
X156091591Y-98857402D01*
X156244944Y-99145681D01*
X156318498Y-99324335D01*
X156474828Y-99642092D01*
X156710212Y-99944587D01*
X156743331Y-99978073D01*
X156933324Y-100152291D01*
X157088212Y-100247144D01*
X157269394Y-100291678D01*
X157441141Y-100308201D01*
X157919686Y-100284760D01*
X158190010Y-98751677D01*
X158004059Y-98701281D01*
X157852615Y-98526322D01*
X157720121Y-98373702D01*
X157573280Y-98292859D01*
X157571063Y-98292449D01*
X157469145Y-98258479D01*
X157500655Y-98203885D01*
X157514244Y-98194002D01*
X157609304Y-98065420D01*
X157652295Y-97888183D01*
X157635145Y-97726343D01*
X157582061Y-97655918D01*
X157440382Y-97635746D01*
X157382398Y-97659871D01*
X157261755Y-97717828D01*
X157229796Y-97661787D01*
X157287067Y-97493065D01*
X157300992Y-97463141D01*
X157382944Y-97191537D01*
X157369508Y-97000720D01*
X157352257Y-96863411D01*
X157389720Y-96753301D01*
X157505286Y-96624991D01*
X157612989Y-96528134D01*
X157824275Y-96366026D01*
X158032912Y-96241667D01*
X158119071Y-96205687D01*
X158273128Y-96139177D01*
X158345215Y-96072368D01*
X158345370Y-96071570D01*
X158415698Y-95998290D01*
X158511844Y-95953743D01*
X158704080Y-95959276D01*
X158921423Y-96066727D01*
X159121509Y-96249512D01*
X159225026Y-96401275D01*
X159321852Y-96550605D01*
X159402745Y-96625376D01*
X159407323Y-96626576D01*
X159523758Y-96716574D01*
X159599314Y-96921864D01*
X159626268Y-97216436D01*
X159621962Y-97349536D01*
X159602155Y-97585688D01*
X159573933Y-97706093D01*
X159526248Y-97740124D01*
X159479001Y-97729629D01*
X159408934Y-97732549D01*
X159339996Y-97811892D01*
X159257396Y-97990821D01*
X159179668Y-98198487D01*
X159055557Y-98518590D01*
X158956329Y-98707697D01*
X158873466Y-98776063D01*
X158798452Y-98733940D01*
X158770330Y-98691264D01*
X158673813Y-98575130D01*
X158555810Y-98572926D01*
X158404705Y-98660517D01*
X158190010Y-98751677D01*
X157919686Y-100284760D01*
X157986712Y-100281476D01*
X158485997Y-100126774D01*
X158927838Y-99856942D01*
X159301078Y-99484832D01*
X159594560Y-99023293D01*
X159797127Y-98485174D01*
X159897623Y-97883325D01*
G37*
X159897623Y-97883325D02*
X159903302Y-97472511D01*
X159866466Y-97007552D01*
X159793163Y-96643876D01*
X159670112Y-96339487D01*
X159484035Y-96052387D01*
X159433922Y-95988126D01*
X159294515Y-95821561D01*
X159171727Y-95710276D01*
X159024686Y-95631529D01*
X158812520Y-95562577D01*
X158544368Y-95493164D01*
X158243259Y-95420603D01*
X158033038Y-95384882D01*
X157864045Y-95386606D01*
X157686621Y-95426377D01*
X157451108Y-95504800D01*
X157446174Y-95506519D01*
X157154104Y-95595696D01*
X156975874Y-95618070D01*
X156903197Y-95585692D01*
X156805562Y-95541565D01*
X156598268Y-95546446D01*
X156377809Y-95579200D01*
X155914376Y-95661189D01*
X155810461Y-95473711D01*
X155684019Y-95330568D01*
X155580203Y-95310777D01*
X155483217Y-95366293D01*
X155437569Y-95502360D01*
X155435734Y-95746200D01*
X155440429Y-95816569D01*
X155465432Y-96017001D01*
X155510898Y-96283762D01*
X155542841Y-96444137D01*
X155587810Y-96765494D01*
X155603749Y-97117579D01*
X155598812Y-97264607D01*
X155584999Y-97676054D01*
X155618227Y-97992888D01*
X155709505Y-98261091D01*
X155869839Y-98526649D01*
X155916134Y-98590169D01*
X156091591Y-98857402D01*
X156244944Y-99145681D01*
X156318498Y-99324335D01*
X156474828Y-99642092D01*
X156710212Y-99944587D01*
X156743331Y-99978073D01*
X156933324Y-100152291D01*
X157088212Y-100247144D01*
X157269394Y-100291678D01*
X157441141Y-100308201D01*
X157919686Y-100284760D01*
X158190010Y-98751677D01*
X158004059Y-98701281D01*
X157852615Y-98526322D01*
X157720121Y-98373702D01*
X157573280Y-98292859D01*
X157571063Y-98292449D01*
X157469145Y-98258479D01*
X157500655Y-98203885D01*
X157514244Y-98194002D01*
X157609304Y-98065420D01*
X157652295Y-97888183D01*
X157635145Y-97726343D01*
X157582061Y-97655918D01*
X157440382Y-97635746D01*
X157382398Y-97659871D01*
X157261755Y-97717828D01*
X157229796Y-97661787D01*
X157287067Y-97493065D01*
X157300992Y-97463141D01*
X157382944Y-97191537D01*
X157369508Y-97000720D01*
X157352257Y-96863411D01*
X157389720Y-96753301D01*
X157505286Y-96624991D01*
X157612989Y-96528134D01*
X157824275Y-96366026D01*
X158032912Y-96241667D01*
X158119071Y-96205687D01*
X158273128Y-96139177D01*
X158345215Y-96072368D01*
X158345370Y-96071570D01*
X158415698Y-95998290D01*
X158511844Y-95953743D01*
X158704080Y-95959276D01*
X158921423Y-96066727D01*
X159121509Y-96249512D01*
X159225026Y-96401275D01*
X159321852Y-96550605D01*
X159402745Y-96625376D01*
X159407323Y-96626576D01*
X159523758Y-96716574D01*
X159599314Y-96921864D01*
X159626268Y-97216436D01*
X159621962Y-97349536D01*
X159602155Y-97585688D01*
X159573933Y-97706093D01*
X159526248Y-97740124D01*
X159479001Y-97729629D01*
X159408934Y-97732549D01*
X159339996Y-97811892D01*
X159257396Y-97990821D01*
X159179668Y-98198487D01*
X159055557Y-98518590D01*
X158956329Y-98707697D01*
X158873466Y-98776063D01*
X158798452Y-98733940D01*
X158770330Y-98691264D01*
X158673813Y-98575130D01*
X158555810Y-98572926D01*
X158404705Y-98660517D01*
X158190010Y-98751677D01*
X157919686Y-100284760D01*
X157986712Y-100281476D01*
X158485997Y-100126774D01*
X158927838Y-99856942D01*
X159301078Y-99484832D01*
X159594560Y-99023293D01*
X159797127Y-98485174D01*
X159897623Y-97883325D01*
G36*
X159770885Y-106414976D02*
G01*
X159611918Y-106330825D01*
X159440057Y-106285864D01*
X159319963Y-106251752D01*
X159328233Y-106197848D01*
X159366352Y-106162331D01*
X159424636Y-106098549D01*
X159402330Y-106062399D01*
X159281643Y-106050884D01*
X159044783Y-106061008D01*
X158850044Y-106075386D01*
X158534790Y-106079316D01*
X158271758Y-106043494D01*
X158089851Y-105975310D01*
X158017974Y-105882153D01*
X158019015Y-105862939D01*
X157982404Y-105752280D01*
X157911428Y-105668402D01*
X157814469Y-105509190D01*
X157794611Y-105390583D01*
X157756215Y-105250209D01*
X157622557Y-105191634D01*
X157503006Y-105188430D01*
X157431481Y-105243331D01*
X157404399Y-105376531D01*
X157418178Y-105608224D01*
X157469235Y-105958607D01*
X157477590Y-106008947D01*
X157533885Y-106302892D01*
X157593079Y-106543153D01*
X157645482Y-106692662D01*
X157663421Y-106719736D01*
X157780101Y-106788781D01*
X157967550Y-106869590D01*
X158008879Y-106884783D01*
X158220230Y-106936798D01*
X158381322Y-106905428D01*
X158456343Y-106863167D01*
X158695380Y-106741170D01*
X158990028Y-106634931D01*
X159286582Y-106559723D01*
X159531332Y-106530815D01*
X159606164Y-106536225D01*
X159755492Y-106542569D01*
X159821180Y-106508332D01*
X159770885Y-106414976D01*
G37*
X159770885Y-106414976D02*
X159611918Y-106330825D01*
X159440057Y-106285864D01*
X159319963Y-106251752D01*
X159328233Y-106197848D01*
X159366352Y-106162331D01*
X159424636Y-106098549D01*
X159402330Y-106062399D01*
X159281643Y-106050884D01*
X159044783Y-106061008D01*
X158850044Y-106075386D01*
X158534790Y-106079316D01*
X158271758Y-106043494D01*
X158089851Y-105975310D01*
X158017974Y-105882153D01*
X158019015Y-105862939D01*
X157982404Y-105752280D01*
X157911428Y-105668402D01*
X157814469Y-105509190D01*
X157794611Y-105390583D01*
X157756215Y-105250209D01*
X157622557Y-105191634D01*
X157503006Y-105188430D01*
X157431481Y-105243331D01*
X157404399Y-105376531D01*
X157418178Y-105608224D01*
X157469235Y-105958607D01*
X157477590Y-106008947D01*
X157533885Y-106302892D01*
X157593079Y-106543153D01*
X157645482Y-106692662D01*
X157663421Y-106719736D01*
X157780101Y-106788781D01*
X157967550Y-106869590D01*
X158008879Y-106884783D01*
X158220230Y-106936798D01*
X158381322Y-106905428D01*
X158456343Y-106863167D01*
X158695380Y-106741170D01*
X158990028Y-106634931D01*
X159286582Y-106559723D01*
X159531332Y-106530815D01*
X159606164Y-106536225D01*
X159755492Y-106542569D01*
X159821180Y-106508332D01*
X159770885Y-106414976D01*
G36*
X163220216Y-104791927D02*
G01*
X163085358Y-104667671D01*
X162838135Y-104484730D01*
X162814878Y-104468359D01*
X162562259Y-104283526D01*
X162327199Y-104092116D01*
X162074083Y-103863072D01*
X161767303Y-103565340D01*
X161681583Y-103480062D01*
X161507936Y-103334159D01*
X161346292Y-103241082D01*
X161310938Y-103230215D01*
X161153669Y-103149515D01*
X161089542Y-103076392D01*
X160962875Y-102976263D01*
X160732953Y-102903269D01*
X160705964Y-102898220D01*
X160392454Y-102842940D01*
X160483434Y-102435259D01*
X160530214Y-102203496D01*
X160534750Y-102073993D01*
X160491265Y-102008524D01*
X160413872Y-101975202D01*
X160269689Y-101858558D01*
X160214676Y-101720506D01*
X160134283Y-101500140D01*
X160008237Y-101379978D01*
X159978903Y-101371020D01*
X159915462Y-101420674D01*
X159825144Y-101553723D01*
X159819937Y-101562934D01*
X159702424Y-101717407D01*
X159610363Y-101732082D01*
X159556569Y-101609518D01*
X159548222Y-101508690D01*
X159515207Y-101329991D01*
X159443123Y-101220367D01*
X159442890Y-101220225D01*
X159317519Y-101217423D01*
X159187205Y-101316616D01*
X159092075Y-101481835D01*
X159074128Y-101550785D01*
X158994902Y-101721778D01*
X158917337Y-101800736D01*
X158782968Y-101942292D01*
X158627359Y-102180443D01*
X158462149Y-102487214D01*
X158298973Y-102834631D01*
X158149470Y-103194721D01*
X158025278Y-103539511D01*
X157938034Y-103841024D01*
X157899375Y-104071288D01*
X157919219Y-104199989D01*
X158030469Y-104266026D01*
X158171121Y-104191507D01*
X158285965Y-104055865D01*
X158439965Y-103885801D01*
X158554551Y-103853608D01*
X158621660Y-103956872D01*
X158634941Y-104160330D01*
X158631992Y-104381859D01*
X158656450Y-104490849D01*
X158722604Y-104519314D01*
X158791221Y-104510485D01*
X158882840Y-104436918D01*
X159001887Y-104269075D01*
X159099680Y-104088851D01*
X159291462Y-103689884D01*
X159490420Y-103801163D01*
X159643276Y-103937389D01*
X159663937Y-104056723D01*
X159673470Y-104164710D01*
X159780954Y-104188114D01*
X159806900Y-104186266D01*
X159974788Y-104179804D01*
X160056141Y-104184773D01*
X160147234Y-104138947D01*
X160256787Y-104009856D01*
X160261674Y-104002288D01*
X160366576Y-103871770D01*
X160481395Y-103850782D01*
X160603819Y-103888759D01*
X160780912Y-103972146D01*
X160895872Y-104054096D01*
X161033463Y-104107004D01*
X161237487Y-104098444D01*
X161412989Y-104087480D01*
X161574570Y-104123354D01*
X161777129Y-104221734D01*
X161882846Y-104282642D01*
X162101922Y-104398727D01*
X162282311Y-104471271D01*
X162367598Y-104484953D01*
X162481081Y-104514454D01*
X162660212Y-104612328D01*
X162798334Y-104707558D01*
X162989460Y-104836155D01*
X163140401Y-104911316D01*
X163200243Y-104919935D01*
X163254561Y-104871386D01*
X163220216Y-104791927D01*
G37*
X163220216Y-104791927D02*
X163085358Y-104667671D01*
X162838135Y-104484730D01*
X162814878Y-104468359D01*
X162562259Y-104283526D01*
X162327199Y-104092116D01*
X162074083Y-103863072D01*
X161767303Y-103565340D01*
X161681583Y-103480062D01*
X161507936Y-103334159D01*
X161346292Y-103241082D01*
X161310938Y-103230215D01*
X161153669Y-103149515D01*
X161089542Y-103076392D01*
X160962875Y-102976263D01*
X160732953Y-102903269D01*
X160705964Y-102898220D01*
X160392454Y-102842940D01*
X160483434Y-102435259D01*
X160530214Y-102203496D01*
X160534750Y-102073993D01*
X160491265Y-102008524D01*
X160413872Y-101975202D01*
X160269689Y-101858558D01*
X160214676Y-101720506D01*
X160134283Y-101500140D01*
X160008237Y-101379978D01*
X159978903Y-101371020D01*
X159915462Y-101420674D01*
X159825144Y-101553723D01*
X159819937Y-101562934D01*
X159702424Y-101717407D01*
X159610363Y-101732082D01*
X159556569Y-101609518D01*
X159548222Y-101508690D01*
X159515207Y-101329991D01*
X159443123Y-101220367D01*
X159442890Y-101220225D01*
X159317519Y-101217423D01*
X159187205Y-101316616D01*
X159092075Y-101481835D01*
X159074128Y-101550785D01*
X158994902Y-101721778D01*
X158917337Y-101800736D01*
X158782968Y-101942292D01*
X158627359Y-102180443D01*
X158462149Y-102487214D01*
X158298973Y-102834631D01*
X158149470Y-103194721D01*
X158025278Y-103539511D01*
X157938034Y-103841024D01*
X157899375Y-104071288D01*
X157919219Y-104199989D01*
X158030469Y-104266026D01*
X158171121Y-104191507D01*
X158285965Y-104055865D01*
X158439965Y-103885801D01*
X158554551Y-103853608D01*
X158621660Y-103956872D01*
X158634941Y-104160330D01*
X158631992Y-104381859D01*
X158656450Y-104490849D01*
X158722604Y-104519314D01*
X158791221Y-104510485D01*
X158882840Y-104436918D01*
X159001887Y-104269075D01*
X159099680Y-104088851D01*
X159291462Y-103689884D01*
X159490420Y-103801163D01*
X159643276Y-103937389D01*
X159663937Y-104056723D01*
X159673470Y-104164710D01*
X159780954Y-104188114D01*
X159806900Y-104186266D01*
X159974788Y-104179804D01*
X160056141Y-104184773D01*
X160147234Y-104138947D01*
X160256787Y-104009856D01*
X160261674Y-104002288D01*
X160366576Y-103871770D01*
X160481395Y-103850782D01*
X160603819Y-103888759D01*
X160780912Y-103972146D01*
X160895872Y-104054096D01*
X161033463Y-104107004D01*
X161237487Y-104098444D01*
X161412989Y-104087480D01*
X161574570Y-104123354D01*
X161777129Y-104221734D01*
X161882846Y-104282642D01*
X162101922Y-104398727D01*
X162282311Y-104471271D01*
X162367598Y-104484953D01*
X162481081Y-104514454D01*
X162660212Y-104612328D01*
X162798334Y-104707558D01*
X162989460Y-104836155D01*
X163140401Y-104911316D01*
X163200243Y-104919935D01*
X163254561Y-104871386D01*
X163220216Y-104791927D01*
G36*
X162804628Y-100292144D02*
G01*
X162683521Y-100155954D01*
X162458752Y-99970446D01*
X162444890Y-99960040D01*
X162224492Y-99811766D01*
X162033276Y-99712046D01*
X161916731Y-99682636D01*
X161778566Y-99640153D01*
X161592949Y-99499851D01*
X161524055Y-99432628D01*
X161361605Y-99276681D01*
X161232576Y-99173586D01*
X161188894Y-99151444D01*
X161124948Y-99078198D01*
X161077925Y-98921417D01*
X161004988Y-98740146D01*
X160832030Y-98600518D01*
X160775211Y-98570318D01*
X160604838Y-98470338D01*
X160538266Y-98370593D01*
X160543444Y-98220210D01*
X160545734Y-98206056D01*
X160583807Y-97976232D01*
X160411481Y-98121921D01*
X160294046Y-98262435D01*
X160255778Y-98392047D01*
X160223948Y-98522701D01*
X160124243Y-98703145D01*
X160073719Y-98773398D01*
X159941608Y-98953124D01*
X159777259Y-99189278D01*
X159600822Y-99451212D01*
X159432451Y-99708279D01*
X159292296Y-99929833D01*
X159200513Y-100085230D01*
X159175668Y-100139081D01*
X159227357Y-100195492D01*
X159303905Y-100219198D01*
X159440885Y-100186510D01*
X159606494Y-100074902D01*
X159643898Y-100039652D01*
X159819798Y-99873531D01*
X160028876Y-99692271D01*
X160236374Y-99524024D01*
X160407536Y-99396947D01*
X160507605Y-99339194D01*
X160509041Y-99338849D01*
X160593874Y-99378606D01*
X160720652Y-99493700D01*
X160738697Y-99513419D01*
X160920796Y-99659195D01*
X161141099Y-99698921D01*
X161144966Y-99698886D01*
X161424996Y-99754295D01*
X161634330Y-99860250D01*
X161849949Y-99987878D01*
X162113078Y-100125650D01*
X162377961Y-100251575D01*
X162598843Y-100343658D01*
X162711174Y-100377845D01*
X162815902Y-100369335D01*
X162804628Y-100292144D01*
G37*
X162804628Y-100292144D02*
X162683521Y-100155954D01*
X162458752Y-99970446D01*
X162444890Y-99960040D01*
X162224492Y-99811766D01*
X162033276Y-99712046D01*
X161916731Y-99682636D01*
X161778566Y-99640153D01*
X161592949Y-99499851D01*
X161524055Y-99432628D01*
X161361605Y-99276681D01*
X161232576Y-99173586D01*
X161188894Y-99151444D01*
X161124948Y-99078198D01*
X161077925Y-98921417D01*
X161004988Y-98740146D01*
X160832030Y-98600518D01*
X160775211Y-98570318D01*
X160604838Y-98470338D01*
X160538266Y-98370593D01*
X160543444Y-98220210D01*
X160545734Y-98206056D01*
X160583807Y-97976232D01*
X160411481Y-98121921D01*
X160294046Y-98262435D01*
X160255778Y-98392047D01*
X160223948Y-98522701D01*
X160124243Y-98703145D01*
X160073719Y-98773398D01*
X159941608Y-98953124D01*
X159777259Y-99189278D01*
X159600822Y-99451212D01*
X159432451Y-99708279D01*
X159292296Y-99929833D01*
X159200513Y-100085230D01*
X159175668Y-100139081D01*
X159227357Y-100195492D01*
X159303905Y-100219198D01*
X159440885Y-100186510D01*
X159606494Y-100074902D01*
X159643898Y-100039652D01*
X159819798Y-99873531D01*
X160028876Y-99692271D01*
X160236374Y-99524024D01*
X160407536Y-99396947D01*
X160507605Y-99339194D01*
X160509041Y-99338849D01*
X160593874Y-99378606D01*
X160720652Y-99493700D01*
X160738697Y-99513419D01*
X160920796Y-99659195D01*
X161141099Y-99698921D01*
X161144966Y-99698886D01*
X161424996Y-99754295D01*
X161634330Y-99860250D01*
X161849949Y-99987878D01*
X162113078Y-100125650D01*
X162377961Y-100251575D01*
X162598843Y-100343658D01*
X162711174Y-100377845D01*
X162815902Y-100369335D01*
X162804628Y-100292144D01*
G36*
X175924256Y-107126130D02*
G01*
X175773789Y-107072172D01*
X175527909Y-107006735D01*
X175234362Y-106942251D01*
X175170316Y-106929841D01*
X174798904Y-106848047D01*
X174460646Y-106752352D01*
X174181547Y-106652331D01*
X173987616Y-106557565D01*
X173904857Y-106477631D01*
X173904067Y-106463452D01*
X173852800Y-106408870D01*
X173738126Y-106392141D01*
X173619185Y-106387090D01*
X173613462Y-106344177D01*
X173708734Y-106235616D01*
X173858309Y-106076523D01*
X173619006Y-106081995D01*
X173379704Y-106087467D01*
X173528740Y-105928947D01*
X173638042Y-105789105D01*
X173637834Y-105730457D01*
X173541358Y-105756749D01*
X173361856Y-105871726D01*
X173352109Y-105878991D01*
X173188656Y-105989072D01*
X173115085Y-106002727D01*
X173109625Y-105955822D01*
X173097860Y-105875185D01*
X173001932Y-105838779D01*
X172855080Y-105830281D01*
X172668611Y-105840530D01*
X172554956Y-105872092D01*
X172545137Y-105881533D01*
X172450368Y-105924406D01*
X172323989Y-105887460D01*
X172235623Y-105794884D01*
X172228587Y-105771560D01*
X172238695Y-105612681D01*
X172279096Y-105485702D01*
X172307436Y-105347521D01*
X172242831Y-105309514D01*
X172107864Y-105383991D01*
X172101818Y-105389062D01*
X171966009Y-105451242D01*
X171875995Y-105381535D01*
X171843869Y-105190949D01*
X171797056Y-105000928D01*
X171673101Y-104905654D01*
X171502014Y-104832010D01*
X171763090Y-104734009D01*
X171926116Y-104668376D01*
X171967760Y-104626821D01*
X171903347Y-104584672D01*
X171865987Y-104568373D01*
X171742977Y-104447994D01*
X171727425Y-104250237D01*
X171816740Y-103992363D01*
X171994805Y-103709499D01*
X172180743Y-103424908D01*
X172249640Y-103219017D01*
X172201945Y-103085313D01*
X172042926Y-103018113D01*
X171930521Y-103011181D01*
X171825512Y-103047560D01*
X171700533Y-103146767D01*
X171528214Y-103328322D01*
X171394430Y-103480619D01*
X171156063Y-103783394D01*
X170900851Y-104152193D01*
X170673310Y-104521509D01*
X170611931Y-104632235D01*
X170432869Y-104959169D01*
X170247920Y-105284033D01*
X170086696Y-105555268D01*
X170028887Y-105647468D01*
X169881839Y-105895327D01*
X169757734Y-106138569D01*
X169706916Y-106260552D01*
X169587276Y-106472587D01*
X169418694Y-106641139D01*
X169412584Y-106645221D01*
X169260727Y-106752703D01*
X169207725Y-106838350D01*
X169229751Y-106957891D01*
X169251880Y-107021125D01*
X169351453Y-107205951D01*
X169424607Y-107297039D01*
X169555422Y-107438734D01*
X169660072Y-107580194D01*
X169745993Y-107743812D01*
X169820629Y-107951982D01*
X169891417Y-108227097D01*
X169965797Y-108591552D01*
X170051210Y-109067738D01*
X170092142Y-109306323D01*
X170155048Y-109660469D01*
X170214363Y-109967265D01*
X170263756Y-110195700D01*
X170296896Y-110314762D01*
X170298936Y-110319192D01*
X170410363Y-110415582D01*
X170572609Y-110451777D01*
X170716191Y-110418729D01*
X170756279Y-110378726D01*
X170781337Y-110254073D01*
X170787963Y-110019398D01*
X170778644Y-109708298D01*
X170755869Y-109354380D01*
X170722125Y-108991243D01*
X170679901Y-108652491D01*
X170631685Y-108371726D01*
X170597417Y-108233281D01*
X170483322Y-107857112D01*
X170644051Y-108008226D01*
X170757510Y-108106384D01*
X170807275Y-108103247D01*
X170830873Y-108011356D01*
X170897071Y-107864312D01*
X171027382Y-107689412D01*
X171059699Y-107654619D01*
X171202643Y-107524884D01*
X171310303Y-107493359D01*
X171437269Y-107544285D01*
X171438830Y-107545162D01*
X171657776Y-107623859D01*
X171809596Y-107574172D01*
X171896610Y-107395172D01*
X171903984Y-107358432D01*
X171986941Y-107128369D01*
X172125056Y-107006129D01*
X172240645Y-106995443D01*
X172314351Y-107067154D01*
X172315884Y-107112037D01*
X172363790Y-107215228D01*
X172512401Y-107328800D01*
X172721555Y-107428172D01*
X172924430Y-107484467D01*
X173092227Y-107489448D01*
X173135567Y-107421105D01*
X173077695Y-107305157D01*
X173049139Y-107194352D01*
X173098952Y-107139925D01*
X173205562Y-107125311D01*
X173350599Y-107225818D01*
X173357609Y-107232361D01*
X173508973Y-107341243D01*
X173585070Y-107335922D01*
X173568608Y-107235260D01*
X173478560Y-107100450D01*
X173370488Y-106958553D01*
X173318464Y-106870885D01*
X173317575Y-106864159D01*
X173376049Y-106859634D01*
X173505408Y-106916932D01*
X173659555Y-107011963D01*
X173773422Y-107102357D01*
X173922821Y-107192939D01*
X173945666Y-107063375D01*
X173846187Y-107034254D01*
X173862686Y-107011575D01*
X174010672Y-107027936D01*
X174041358Y-107043080D01*
X174045737Y-107070749D01*
X173945666Y-107063375D01*
X173922821Y-107192939D01*
X173931841Y-107198408D01*
X174125728Y-107193941D01*
X174292241Y-107184548D01*
X174554975Y-107194812D01*
X174866685Y-107222395D01*
X174983683Y-107236357D01*
X175304923Y-107268343D01*
X175597989Y-107281342D01*
X175813969Y-107273718D01*
X175862791Y-107265761D01*
X176093352Y-107211951D01*
X175924256Y-107126130D01*
G37*
X175924256Y-107126130D02*
X175773789Y-107072172D01*
X175527909Y-107006735D01*
X175234362Y-106942251D01*
X175170316Y-106929841D01*
X174798904Y-106848047D01*
X174460646Y-106752352D01*
X174181547Y-106652331D01*
X173987616Y-106557565D01*
X173904857Y-106477631D01*
X173904067Y-106463452D01*
X173852800Y-106408870D01*
X173738126Y-106392141D01*
X173619185Y-106387090D01*
X173613462Y-106344177D01*
X173708734Y-106235616D01*
X173858309Y-106076523D01*
X173619006Y-106081995D01*
X173379704Y-106087467D01*
X173528740Y-105928947D01*
X173638042Y-105789105D01*
X173637834Y-105730457D01*
X173541358Y-105756749D01*
X173361856Y-105871726D01*
X173352109Y-105878991D01*
X173188656Y-105989072D01*
X173115085Y-106002727D01*
X173109625Y-105955822D01*
X173097860Y-105875185D01*
X173001932Y-105838779D01*
X172855080Y-105830281D01*
X172668611Y-105840530D01*
X172554956Y-105872092D01*
X172545137Y-105881533D01*
X172450368Y-105924406D01*
X172323989Y-105887460D01*
X172235623Y-105794884D01*
X172228587Y-105771560D01*
X172238695Y-105612681D01*
X172279096Y-105485702D01*
X172307436Y-105347521D01*
X172242831Y-105309514D01*
X172107864Y-105383991D01*
X172101818Y-105389062D01*
X171966009Y-105451242D01*
X171875995Y-105381535D01*
X171843869Y-105190949D01*
X171797056Y-105000928D01*
X171673101Y-104905654D01*
X171502014Y-104832010D01*
X171763090Y-104734009D01*
X171926116Y-104668376D01*
X171967760Y-104626821D01*
X171903347Y-104584672D01*
X171865987Y-104568373D01*
X171742977Y-104447994D01*
X171727425Y-104250237D01*
X171816740Y-103992363D01*
X171994805Y-103709499D01*
X172180743Y-103424908D01*
X172249640Y-103219017D01*
X172201945Y-103085313D01*
X172042926Y-103018113D01*
X171930521Y-103011181D01*
X171825512Y-103047560D01*
X171700533Y-103146767D01*
X171528214Y-103328322D01*
X171394430Y-103480619D01*
X171156063Y-103783394D01*
X170900851Y-104152193D01*
X170673310Y-104521509D01*
X170611931Y-104632235D01*
X170432869Y-104959169D01*
X170247920Y-105284033D01*
X170086696Y-105555268D01*
X170028887Y-105647468D01*
X169881839Y-105895327D01*
X169757734Y-106138569D01*
X169706916Y-106260552D01*
X169587276Y-106472587D01*
X169418694Y-106641139D01*
X169412584Y-106645221D01*
X169260727Y-106752703D01*
X169207725Y-106838350D01*
X169229751Y-106957891D01*
X169251880Y-107021125D01*
X169351453Y-107205951D01*
X169424607Y-107297039D01*
X169555422Y-107438734D01*
X169660072Y-107580194D01*
X169745993Y-107743812D01*
X169820629Y-107951982D01*
X169891417Y-108227097D01*
X169965797Y-108591552D01*
X170051210Y-109067738D01*
X170092142Y-109306323D01*
X170155048Y-109660469D01*
X170214363Y-109967265D01*
X170263756Y-110195700D01*
X170296896Y-110314762D01*
X170298936Y-110319192D01*
X170410363Y-110415582D01*
X170572609Y-110451777D01*
X170716191Y-110418729D01*
X170756279Y-110378726D01*
X170781337Y-110254073D01*
X170787963Y-110019398D01*
X170778644Y-109708298D01*
X170755869Y-109354380D01*
X170722125Y-108991243D01*
X170679901Y-108652491D01*
X170631685Y-108371726D01*
X170597417Y-108233281D01*
X170483322Y-107857112D01*
X170644051Y-108008226D01*
X170757510Y-108106384D01*
X170807275Y-108103247D01*
X170830873Y-108011356D01*
X170897071Y-107864312D01*
X171027382Y-107689412D01*
X171059699Y-107654619D01*
X171202643Y-107524884D01*
X171310303Y-107493359D01*
X171437269Y-107544285D01*
X171438830Y-107545162D01*
X171657776Y-107623859D01*
X171809596Y-107574172D01*
X171896610Y-107395172D01*
X171903984Y-107358432D01*
X171986941Y-107128369D01*
X172125056Y-107006129D01*
X172240645Y-106995443D01*
X172314351Y-107067154D01*
X172315884Y-107112037D01*
X172363790Y-107215228D01*
X172512401Y-107328800D01*
X172721555Y-107428172D01*
X172924430Y-107484467D01*
X173092227Y-107489448D01*
X173135567Y-107421105D01*
X173077695Y-107305157D01*
X173049139Y-107194352D01*
X173098952Y-107139925D01*
X173205562Y-107125311D01*
X173350599Y-107225818D01*
X173357609Y-107232361D01*
X173508973Y-107341243D01*
X173585070Y-107335922D01*
X173568608Y-107235260D01*
X173478560Y-107100450D01*
X173370488Y-106958553D01*
X173318464Y-106870885D01*
X173317575Y-106864159D01*
X173376049Y-106859634D01*
X173505408Y-106916932D01*
X173659555Y-107011963D01*
X173773422Y-107102357D01*
X173922821Y-107192939D01*
X173945666Y-107063375D01*
X173846187Y-107034254D01*
X173862686Y-107011575D01*
X174010672Y-107027936D01*
X174041358Y-107043080D01*
X174045737Y-107070749D01*
X173945666Y-107063375D01*
X173922821Y-107192939D01*
X173931841Y-107198408D01*
X174125728Y-107193941D01*
X174292241Y-107184548D01*
X174554975Y-107194812D01*
X174866685Y-107222395D01*
X174983683Y-107236357D01*
X175304923Y-107268343D01*
X175597989Y-107281342D01*
X175813969Y-107273718D01*
X175862791Y-107265761D01*
X176093352Y-107211951D01*
X175924256Y-107126130D01*
G36*
X179751106Y-103746771D02*
G01*
X179713603Y-103595157D01*
X179565935Y-103510877D01*
X179563723Y-103510215D01*
X179404435Y-103432187D01*
X179192170Y-103289720D01*
X179025262Y-103157352D01*
X178606159Y-102797340D01*
X178279455Y-102513297D01*
X178026316Y-102287954D01*
X177827905Y-102104043D01*
X177665389Y-101944292D01*
X177519933Y-101791433D01*
X177440980Y-101704708D01*
X177304183Y-101579386D01*
X177225447Y-101576407D01*
X177216174Y-101589210D01*
X177149674Y-101616185D01*
X177015371Y-101551828D01*
X176897631Y-101469188D01*
X176635302Y-101253361D01*
X176487907Y-101074978D01*
X176438681Y-100910460D01*
X176444583Y-100831835D01*
X176421645Y-100626124D01*
X176309639Y-100425689D01*
X176145413Y-100279124D01*
X175990661Y-100233219D01*
X175838295Y-100195158D01*
X175689193Y-100058738D01*
X175611840Y-99955727D01*
X175482904Y-99785776D01*
X175378595Y-99710555D01*
X175246407Y-99701843D01*
X175159670Y-99712704D01*
X174960900Y-99739730D01*
X174818678Y-99756019D01*
X174810307Y-99756698D01*
X174732159Y-99824900D01*
X174680475Y-99970613D01*
X174600772Y-100162239D01*
X174457355Y-100344346D01*
X174447886Y-100353017D01*
X174327381Y-100484985D01*
X174255523Y-100644250D01*
X174210416Y-100884064D01*
X174202182Y-100950581D01*
X174126823Y-101321962D01*
X174004670Y-101594295D01*
X173845296Y-101749700D01*
X173759354Y-101777385D01*
X173605733Y-101850453D01*
X173434096Y-102001784D01*
X173293568Y-102180965D01*
X173235742Y-102314749D01*
X173181360Y-102434639D01*
X173064690Y-102615914D01*
X172977374Y-102733659D01*
X172831633Y-102920770D01*
X172759766Y-103028155D01*
X172749077Y-103092593D01*
X172786874Y-103150860D01*
X172820111Y-103189318D01*
X172919750Y-103259607D01*
X173031918Y-103229156D01*
X173174416Y-103087179D01*
X173323390Y-102884337D01*
X173442840Y-102725125D01*
X173519638Y-102651866D01*
X173536861Y-102670991D01*
X173581685Y-102820476D01*
X173732988Y-102948844D01*
X173935307Y-103019906D01*
X174098825Y-103019307D01*
X174307244Y-102960200D01*
X174580645Y-102834047D01*
X174939111Y-102632308D01*
X175155418Y-102501106D01*
X175734209Y-102144074D01*
X176176005Y-102251019D01*
X176432140Y-102327911D01*
X176672683Y-102439265D01*
X176941298Y-102608336D01*
X177199758Y-102796267D01*
X177495375Y-103010272D01*
X177698734Y-103135458D01*
X177825233Y-103180345D01*
X177874714Y-103169701D01*
X177968652Y-103175988D01*
X178066964Y-103288839D01*
X178148616Y-103471916D01*
X178192569Y-103688880D01*
X178194618Y-103722301D01*
X178254741Y-103920956D01*
X178356886Y-104038437D01*
X178482270Y-104168523D01*
X178528134Y-104275393D01*
X178605074Y-104406538D01*
X178753301Y-104500371D01*
X178903252Y-104514150D01*
X178911757Y-104511114D01*
X178962735Y-104425828D01*
X178988748Y-104256728D01*
X178989381Y-104233593D01*
X179001292Y-104068184D01*
X179059034Y-104010488D01*
X179205114Y-104023113D01*
X179224757Y-104026546D01*
X179491406Y-104029539D01*
X179673076Y-103938815D01*
X179750033Y-103764861D01*
X179751106Y-103746771D01*
G37*
X179751106Y-103746771D02*
X179713603Y-103595157D01*
X179565935Y-103510877D01*
X179563723Y-103510215D01*
X179404435Y-103432187D01*
X179192170Y-103289720D01*
X179025262Y-103157352D01*
X178606159Y-102797340D01*
X178279455Y-102513297D01*
X178026316Y-102287954D01*
X177827905Y-102104043D01*
X177665389Y-101944292D01*
X177519933Y-101791433D01*
X177440980Y-101704708D01*
X177304183Y-101579386D01*
X177225447Y-101576407D01*
X177216174Y-101589210D01*
X177149674Y-101616185D01*
X177015371Y-101551828D01*
X176897631Y-101469188D01*
X176635302Y-101253361D01*
X176487907Y-101074978D01*
X176438681Y-100910460D01*
X176444583Y-100831835D01*
X176421645Y-100626124D01*
X176309639Y-100425689D01*
X176145413Y-100279124D01*
X175990661Y-100233219D01*
X175838295Y-100195158D01*
X175689193Y-100058738D01*
X175611840Y-99955727D01*
X175482904Y-99785776D01*
X175378595Y-99710555D01*
X175246407Y-99701843D01*
X175159670Y-99712704D01*
X174960900Y-99739730D01*
X174818678Y-99756019D01*
X174810307Y-99756698D01*
X174732159Y-99824900D01*
X174680475Y-99970613D01*
X174600772Y-100162239D01*
X174457355Y-100344346D01*
X174447886Y-100353017D01*
X174327381Y-100484985D01*
X174255523Y-100644250D01*
X174210416Y-100884064D01*
X174202182Y-100950581D01*
X174126823Y-101321962D01*
X174004670Y-101594295D01*
X173845296Y-101749700D01*
X173759354Y-101777385D01*
X173605733Y-101850453D01*
X173434096Y-102001784D01*
X173293568Y-102180965D01*
X173235742Y-102314749D01*
X173181360Y-102434639D01*
X173064690Y-102615914D01*
X172977374Y-102733659D01*
X172831633Y-102920770D01*
X172759766Y-103028155D01*
X172749077Y-103092593D01*
X172786874Y-103150860D01*
X172820111Y-103189318D01*
X172919750Y-103259607D01*
X173031918Y-103229156D01*
X173174416Y-103087179D01*
X173323390Y-102884337D01*
X173442840Y-102725125D01*
X173519638Y-102651866D01*
X173536861Y-102670991D01*
X173581685Y-102820476D01*
X173732988Y-102948844D01*
X173935307Y-103019906D01*
X174098825Y-103019307D01*
X174307244Y-102960200D01*
X174580645Y-102834047D01*
X174939111Y-102632308D01*
X175155418Y-102501106D01*
X175734209Y-102144074D01*
X176176005Y-102251019D01*
X176432140Y-102327911D01*
X176672683Y-102439265D01*
X176941298Y-102608336D01*
X177199758Y-102796267D01*
X177495375Y-103010272D01*
X177698734Y-103135458D01*
X177825233Y-103180345D01*
X177874714Y-103169701D01*
X177968652Y-103175988D01*
X178066964Y-103288839D01*
X178148616Y-103471916D01*
X178192569Y-103688880D01*
X178194618Y-103722301D01*
X178254741Y-103920956D01*
X178356886Y-104038437D01*
X178482270Y-104168523D01*
X178528134Y-104275393D01*
X178605074Y-104406538D01*
X178753301Y-104500371D01*
X178903252Y-104514150D01*
X178911757Y-104511114D01*
X178962735Y-104425828D01*
X178988748Y-104256728D01*
X178989381Y-104233593D01*
X179001292Y-104068184D01*
X179059034Y-104010488D01*
X179205114Y-104023113D01*
X179224757Y-104026546D01*
X179491406Y-104029539D01*
X179673076Y-103938815D01*
X179750033Y-103764861D01*
X179751106Y-103746771D01*
G36*
X179917996Y-112894073D02*
G01*
X179867064Y-112831066D01*
X179690705Y-112673670D01*
X179445359Y-112542799D01*
X179107456Y-112429068D01*
X178653427Y-112323091D01*
X178530612Y-112298927D01*
X178169912Y-112236409D01*
X177917452Y-112210714D01*
X177741525Y-112220170D01*
X177634981Y-112251750D01*
X177483241Y-112302845D01*
X177381390Y-112270989D01*
X177287899Y-112180417D01*
X177141162Y-112023075D01*
X177394473Y-111797900D01*
X177653844Y-111528825D01*
X177843586Y-111254542D01*
X177942935Y-111008386D01*
X177951999Y-110902836D01*
X177914812Y-110750050D01*
X177839463Y-110734414D01*
X177732725Y-110855070D01*
X177685236Y-110936680D01*
X177538042Y-111138619D01*
X177357851Y-111300707D01*
X177355478Y-111302258D01*
X177161420Y-111451813D01*
X176971206Y-111632288D01*
X176962662Y-111641568D01*
X176779174Y-111790201D01*
X176595449Y-111817090D01*
X176583671Y-111815245D01*
X176310793Y-111793289D01*
X176119492Y-111828161D01*
X176038153Y-111913183D01*
X176076127Y-112035086D01*
X176120274Y-112074335D01*
X176199720Y-112178987D01*
X176203324Y-112230215D01*
X176164802Y-112282744D01*
X176059341Y-112252520D01*
X175981214Y-112211278D01*
X175816083Y-112142107D01*
X175677650Y-112167631D01*
X175577293Y-112226592D01*
X175375147Y-112310544D01*
X175210838Y-112281685D01*
X175011214Y-112255356D01*
X174693734Y-112303791D01*
X174542475Y-112341554D01*
X174264693Y-112409988D01*
X174072604Y-112433614D01*
X173914065Y-112413094D01*
X173743216Y-112351721D01*
X173544472Y-112246006D01*
X173404339Y-112130519D01*
X173379368Y-112094359D01*
X173262399Y-111981770D01*
X173118224Y-111981728D01*
X173005901Y-112090085D01*
X172993391Y-112121488D01*
X172934114Y-112244472D01*
X172873685Y-112237457D01*
X172805397Y-112095149D01*
X172755306Y-111933592D01*
X172669798Y-111707721D01*
X172564125Y-111526987D01*
X172527951Y-111486536D01*
X172425534Y-111413611D01*
X172326563Y-111424072D01*
X172175852Y-111524383D01*
X172170536Y-111528407D01*
X171999878Y-111702041D01*
X171925039Y-111910074D01*
X171939896Y-112184863D01*
X171999634Y-112431650D01*
X172125735Y-112772413D01*
X172286668Y-113069411D01*
X172459326Y-113284279D01*
X172556756Y-113356689D01*
X172622687Y-113405596D01*
X172607267Y-113466744D01*
X172495501Y-113571194D01*
X172425945Y-113627660D01*
X172299622Y-113738430D01*
X172203030Y-113856996D01*
X172119337Y-114015773D01*
X172031709Y-114247177D01*
X171923315Y-114583623D01*
X171914035Y-114613492D01*
X171859235Y-114824128D01*
X171864719Y-114955086D01*
X171935279Y-115060801D01*
X171955235Y-115081324D01*
X172123586Y-115212168D01*
X172260565Y-115213471D01*
X172396258Y-115080758D01*
X172444807Y-115008488D01*
X172612543Y-114793953D01*
X172810102Y-114604524D01*
X172827879Y-114590817D01*
X172988348Y-114504526D01*
X173247329Y-114401373D01*
X173568634Y-114291995D01*
X173916075Y-114187031D01*
X174253467Y-114097119D01*
X174544621Y-114032895D01*
X174753352Y-114004996D01*
X174812458Y-114007418D01*
X175034509Y-114006133D01*
X175346891Y-113951413D01*
X175709487Y-113853458D01*
X176082179Y-113722470D01*
X176301228Y-113628907D01*
X176552123Y-113525328D01*
X176758906Y-113462625D01*
X176881894Y-113452436D01*
X176890552Y-113456089D01*
X176990777Y-113450334D01*
X177191609Y-113391943D01*
X177462763Y-113291001D01*
X177737994Y-113173863D01*
X178074319Y-113025966D01*
X178320064Y-112931129D01*
X178515715Y-112880062D01*
X178701759Y-112863470D01*
X178918683Y-112872060D01*
X179018112Y-112880036D01*
X179366443Y-112923745D01*
X179588081Y-112986709D01*
X179670109Y-113037727D01*
X179791056Y-113112498D01*
X179900802Y-113075680D01*
X179903038Y-113074098D01*
X179961981Y-112998049D01*
X179917996Y-112894073D01*
G37*
X179917996Y-112894073D02*
X179867064Y-112831066D01*
X179690705Y-112673670D01*
X179445359Y-112542799D01*
X179107456Y-112429068D01*
X178653427Y-112323091D01*
X178530612Y-112298927D01*
X178169912Y-112236409D01*
X177917452Y-112210714D01*
X177741525Y-112220170D01*
X177634981Y-112251750D01*
X177483241Y-112302845D01*
X177381390Y-112270989D01*
X177287899Y-112180417D01*
X177141162Y-112023075D01*
X177394473Y-111797900D01*
X177653844Y-111528825D01*
X177843586Y-111254542D01*
X177942935Y-111008386D01*
X177951999Y-110902836D01*
X177914812Y-110750050D01*
X177839463Y-110734414D01*
X177732725Y-110855070D01*
X177685236Y-110936680D01*
X177538042Y-111138619D01*
X177357851Y-111300707D01*
X177355478Y-111302258D01*
X177161420Y-111451813D01*
X176971206Y-111632288D01*
X176962662Y-111641568D01*
X176779174Y-111790201D01*
X176595449Y-111817090D01*
X176583671Y-111815245D01*
X176310793Y-111793289D01*
X176119492Y-111828161D01*
X176038153Y-111913183D01*
X176076127Y-112035086D01*
X176120274Y-112074335D01*
X176199720Y-112178987D01*
X176203324Y-112230215D01*
X176164802Y-112282744D01*
X176059341Y-112252520D01*
X175981214Y-112211278D01*
X175816083Y-112142107D01*
X175677650Y-112167631D01*
X175577293Y-112226592D01*
X175375147Y-112310544D01*
X175210838Y-112281685D01*
X175011214Y-112255356D01*
X174693734Y-112303791D01*
X174542475Y-112341554D01*
X174264693Y-112409988D01*
X174072604Y-112433614D01*
X173914065Y-112413094D01*
X173743216Y-112351721D01*
X173544472Y-112246006D01*
X173404339Y-112130519D01*
X173379368Y-112094359D01*
X173262399Y-111981770D01*
X173118224Y-111981728D01*
X173005901Y-112090085D01*
X172993391Y-112121488D01*
X172934114Y-112244472D01*
X172873685Y-112237457D01*
X172805397Y-112095149D01*
X172755306Y-111933592D01*
X172669798Y-111707721D01*
X172564125Y-111526987D01*
X172527951Y-111486536D01*
X172425534Y-111413611D01*
X172326563Y-111424072D01*
X172175852Y-111524383D01*
X172170536Y-111528407D01*
X171999878Y-111702041D01*
X171925039Y-111910074D01*
X171939896Y-112184863D01*
X171999634Y-112431650D01*
X172125735Y-112772413D01*
X172286668Y-113069411D01*
X172459326Y-113284279D01*
X172556756Y-113356689D01*
X172622687Y-113405596D01*
X172607267Y-113466744D01*
X172495501Y-113571194D01*
X172425945Y-113627660D01*
X172299622Y-113738430D01*
X172203030Y-113856996D01*
X172119337Y-114015773D01*
X172031709Y-114247177D01*
X171923315Y-114583623D01*
X171914035Y-114613492D01*
X171859235Y-114824128D01*
X171864719Y-114955086D01*
X171935279Y-115060801D01*
X171955235Y-115081324D01*
X172123586Y-115212168D01*
X172260565Y-115213471D01*
X172396258Y-115080758D01*
X172444807Y-115008488D01*
X172612543Y-114793953D01*
X172810102Y-114604524D01*
X172827879Y-114590817D01*
X172988348Y-114504526D01*
X173247329Y-114401373D01*
X173568634Y-114291995D01*
X173916075Y-114187031D01*
X174253467Y-114097119D01*
X174544621Y-114032895D01*
X174753352Y-114004996D01*
X174812458Y-114007418D01*
X175034509Y-114006133D01*
X175346891Y-113951413D01*
X175709487Y-113853458D01*
X176082179Y-113722470D01*
X176301228Y-113628907D01*
X176552123Y-113525328D01*
X176758906Y-113462625D01*
X176881894Y-113452436D01*
X176890552Y-113456089D01*
X176990777Y-113450334D01*
X177191609Y-113391943D01*
X177462763Y-113291001D01*
X177737994Y-113173863D01*
X178074319Y-113025966D01*
X178320064Y-112931129D01*
X178515715Y-112880062D01*
X178701759Y-112863470D01*
X178918683Y-112872060D01*
X179018112Y-112880036D01*
X179366443Y-112923745D01*
X179588081Y-112986709D01*
X179670109Y-113037727D01*
X179791056Y-113112498D01*
X179900802Y-113075680D01*
X179903038Y-113074098D01*
X179961981Y-112998049D01*
X179917996Y-112894073D01*
G36*
X180511148Y-99701919D02*
G01*
X180415925Y-99759490D01*
X180380829Y-99822307D01*
X180416584Y-99858315D01*
X180492299Y-99827111D01*
X180582629Y-99752930D01*
X180590230Y-99717441D01*
X180511148Y-99701919D01*
G37*
X180511148Y-99701919D02*
X180415925Y-99759490D01*
X180380829Y-99822307D01*
X180416584Y-99858315D01*
X180492299Y-99827111D01*
X180582629Y-99752930D01*
X180590230Y-99717441D01*
X180511148Y-99701919D01*
G36*
X194966934Y-115790619D02*
G01*
X194798331Y-115689501D01*
X194695467Y-115636257D01*
X194217746Y-115463454D01*
X193714309Y-115422379D01*
X193304834Y-115476088D01*
X193144778Y-115502380D01*
X193014524Y-115492679D01*
X192867601Y-115433563D01*
X192657537Y-115311608D01*
X192589057Y-115269322D01*
X192205741Y-115069227D01*
X191842581Y-114948057D01*
X191792130Y-114938045D01*
X191499115Y-114868376D01*
X191203932Y-114771189D01*
X191116818Y-114735232D01*
X190912304Y-114654557D01*
X190769106Y-114640813D01*
X190621429Y-114690859D01*
X190582594Y-114709725D01*
X190356575Y-114822299D01*
X190130459Y-114602435D01*
X189893424Y-114387756D01*
X189699434Y-114269012D01*
X189498178Y-114231002D01*
X189239345Y-114258523D01*
X189090632Y-114288249D01*
X188830236Y-114348613D01*
X188619718Y-114406176D01*
X188508665Y-114446726D01*
X188392379Y-114449943D01*
X188139346Y-114406141D01*
X187750091Y-114315432D01*
X187225144Y-114177928D01*
X187141796Y-114155207D01*
X186592624Y-114010917D01*
X186038052Y-113876062D01*
X185505669Y-113756496D01*
X185023065Y-113658073D01*
X184617826Y-113586645D01*
X184317541Y-113548064D01*
X184261862Y-113544225D01*
X184143605Y-113526215D01*
X183911519Y-113481232D01*
X183593196Y-113414962D01*
X183216230Y-113333093D01*
X182964161Y-113276768D01*
X182578830Y-113193356D01*
X182248285Y-113128702D01*
X181995929Y-113086825D01*
X181845165Y-113071741D01*
X181812603Y-113079111D01*
X181810368Y-113185459D01*
X181804702Y-113376386D01*
X181802243Y-113451312D01*
X181818061Y-113652173D01*
X181888087Y-113875484D01*
X182025806Y-114157873D01*
X182131105Y-114344446D01*
X182411931Y-114765062D01*
X182725171Y-115097878D01*
X183099314Y-115363312D01*
X183562848Y-115581785D01*
X184112509Y-115764593D01*
X184395508Y-115862387D01*
X184553069Y-115959135D01*
X184597663Y-116027377D01*
X184727014Y-116204558D01*
X184995097Y-116381397D01*
X185395522Y-116555134D01*
X185921896Y-116723015D01*
X186567831Y-116882281D01*
X186590842Y-116887300D01*
X186759961Y-116971799D01*
X186924109Y-117123793D01*
X186936938Y-117140118D01*
X187049471Y-117263698D01*
X187186730Y-117343926D01*
X187395269Y-117402656D01*
X187565344Y-117435151D01*
X187845643Y-117473419D01*
X188074908Y-117468020D01*
X188321476Y-117412473D01*
X188531781Y-117343487D01*
X188790570Y-117248057D01*
X188937159Y-117174426D01*
X188998449Y-117102952D01*
X189001340Y-117013993D01*
X188999228Y-117002188D01*
X188965440Y-116904746D01*
X188885983Y-116846083D01*
X188723463Y-116807950D01*
X188555075Y-116785472D01*
X188246891Y-116726972D01*
X188068000Y-116638923D01*
X188042824Y-116612931D01*
X187897085Y-116487370D01*
X187766303Y-116413743D01*
X187597360Y-116301372D01*
X187437938Y-116137471D01*
X187437113Y-116136385D01*
X187337517Y-116029719D01*
X187203091Y-115946469D01*
X186998819Y-115870511D01*
X186689687Y-115785720D01*
X186658623Y-115777882D01*
X186144745Y-115643481D01*
X185767584Y-115532459D01*
X185520976Y-115442687D01*
X185398755Y-115372038D01*
X185382667Y-115337308D01*
X185456506Y-115322919D01*
X185658308Y-115340134D01*
X185974765Y-115387230D01*
X186392577Y-115462483D01*
X186481358Y-115479634D01*
X187067775Y-115587831D01*
X187543172Y-115659665D01*
X187936471Y-115697261D01*
X188276598Y-115702747D01*
X188592477Y-115678249D01*
X188787400Y-115649182D01*
X189111977Y-115601529D01*
X189473489Y-115561825D01*
X189840903Y-115531827D01*
X190183180Y-115513294D01*
X190469280Y-115507984D01*
X190668168Y-115517655D01*
X190744759Y-115538304D01*
X190861046Y-115596318D01*
X191053939Y-115655053D01*
X191107128Y-115667244D01*
X191374092Y-115737123D01*
X191635314Y-115824359D01*
X191651515Y-115830691D01*
X191826835Y-115887827D01*
X191909017Y-115874205D01*
X191927941Y-115830210D01*
X191988821Y-115769627D01*
X192154405Y-115762453D01*
X192287082Y-115778547D01*
X192538225Y-115802140D01*
X192861891Y-115813730D01*
X193170434Y-115811198D01*
X193524183Y-115816118D01*
X193931563Y-115846912D01*
X194304753Y-115896926D01*
X194306862Y-115897297D01*
X194660674Y-115948653D01*
X194888581Y-115954616D01*
X194997568Y-115920059D01*
X195027147Y-115861648D01*
X194966934Y-115790619D01*
G37*
X194966934Y-115790619D02*
X194798331Y-115689501D01*
X194695467Y-115636257D01*
X194217746Y-115463454D01*
X193714309Y-115422379D01*
X193304834Y-115476088D01*
X193144778Y-115502380D01*
X193014524Y-115492679D01*
X192867601Y-115433563D01*
X192657537Y-115311608D01*
X192589057Y-115269322D01*
X192205741Y-115069227D01*
X191842581Y-114948057D01*
X191792130Y-114938045D01*
X191499115Y-114868376D01*
X191203932Y-114771189D01*
X191116818Y-114735232D01*
X190912304Y-114654557D01*
X190769106Y-114640813D01*
X190621429Y-114690859D01*
X190582594Y-114709725D01*
X190356575Y-114822299D01*
X190130459Y-114602435D01*
X189893424Y-114387756D01*
X189699434Y-114269012D01*
X189498178Y-114231002D01*
X189239345Y-114258523D01*
X189090632Y-114288249D01*
X188830236Y-114348613D01*
X188619718Y-114406176D01*
X188508665Y-114446726D01*
X188392379Y-114449943D01*
X188139346Y-114406141D01*
X187750091Y-114315432D01*
X187225144Y-114177928D01*
X187141796Y-114155207D01*
X186592624Y-114010917D01*
X186038052Y-113876062D01*
X185505669Y-113756496D01*
X185023065Y-113658073D01*
X184617826Y-113586645D01*
X184317541Y-113548064D01*
X184261862Y-113544225D01*
X184143605Y-113526215D01*
X183911519Y-113481232D01*
X183593196Y-113414962D01*
X183216230Y-113333093D01*
X182964161Y-113276768D01*
X182578830Y-113193356D01*
X182248285Y-113128702D01*
X181995929Y-113086825D01*
X181845165Y-113071741D01*
X181812603Y-113079111D01*
X181810368Y-113185459D01*
X181804702Y-113376386D01*
X181802243Y-113451312D01*
X181818061Y-113652173D01*
X181888087Y-113875484D01*
X182025806Y-114157873D01*
X182131105Y-114344446D01*
X182411931Y-114765062D01*
X182725171Y-115097878D01*
X183099314Y-115363312D01*
X183562848Y-115581785D01*
X184112509Y-115764593D01*
X184395508Y-115862387D01*
X184553069Y-115959135D01*
X184597663Y-116027377D01*
X184727014Y-116204558D01*
X184995097Y-116381397D01*
X185395522Y-116555134D01*
X185921896Y-116723015D01*
X186567831Y-116882281D01*
X186590842Y-116887300D01*
X186759961Y-116971799D01*
X186924109Y-117123793D01*
X186936938Y-117140118D01*
X187049471Y-117263698D01*
X187186730Y-117343926D01*
X187395269Y-117402656D01*
X187565344Y-117435151D01*
X187845643Y-117473419D01*
X188074908Y-117468020D01*
X188321476Y-117412473D01*
X188531781Y-117343487D01*
X188790570Y-117248057D01*
X188937159Y-117174426D01*
X188998449Y-117102952D01*
X189001340Y-117013993D01*
X188999228Y-117002188D01*
X188965440Y-116904746D01*
X188885983Y-116846083D01*
X188723463Y-116807950D01*
X188555075Y-116785472D01*
X188246891Y-116726972D01*
X188068000Y-116638923D01*
X188042824Y-116612931D01*
X187897085Y-116487370D01*
X187766303Y-116413743D01*
X187597360Y-116301372D01*
X187437938Y-116137471D01*
X187437113Y-116136385D01*
X187337517Y-116029719D01*
X187203091Y-115946469D01*
X186998819Y-115870511D01*
X186689687Y-115785720D01*
X186658623Y-115777882D01*
X186144745Y-115643481D01*
X185767584Y-115532459D01*
X185520976Y-115442687D01*
X185398755Y-115372038D01*
X185382667Y-115337308D01*
X185456506Y-115322919D01*
X185658308Y-115340134D01*
X185974765Y-115387230D01*
X186392577Y-115462483D01*
X186481358Y-115479634D01*
X187067775Y-115587831D01*
X187543172Y-115659665D01*
X187936471Y-115697261D01*
X188276598Y-115702747D01*
X188592477Y-115678249D01*
X188787400Y-115649182D01*
X189111977Y-115601529D01*
X189473489Y-115561825D01*
X189840903Y-115531827D01*
X190183180Y-115513294D01*
X190469280Y-115507984D01*
X190668168Y-115517655D01*
X190744759Y-115538304D01*
X190861046Y-115596318D01*
X191053939Y-115655053D01*
X191107128Y-115667244D01*
X191374092Y-115737123D01*
X191635314Y-115824359D01*
X191651515Y-115830691D01*
X191826835Y-115887827D01*
X191909017Y-115874205D01*
X191927941Y-115830210D01*
X191988821Y-115769627D01*
X192154405Y-115762453D01*
X192287082Y-115778547D01*
X192538225Y-115802140D01*
X192861891Y-115813730D01*
X193170434Y-115811198D01*
X193524183Y-115816118D01*
X193931563Y-115846912D01*
X194304753Y-115896926D01*
X194306862Y-115897297D01*
X194660674Y-115948653D01*
X194888581Y-115954616D01*
X194997568Y-115920059D01*
X195027147Y-115861648D01*
X194966934Y-115790619D01*
M02*
