G04 #@! TF.GenerationSoftware,KiCad,Pcbnew,(5.1.5)-3*
G04 #@! TF.CreationDate,2020-02-12T21:54:59-05:00*
G04 #@! TF.ProjectId,BGM210P_Proto,42474d32-3130-4505-9f50-726f746f2e6b,rev?*
G04 #@! TF.SameCoordinates,Original*
G04 #@! TF.FileFunction,Paste,Top*
G04 #@! TF.FilePolarity,Positive*
%FSLAX46Y46*%
G04 Gerber Fmt 4.6, Leading zero omitted, Abs format (unit mm)*
G04 Created by KiCad (PCBNEW (5.1.5)-3) date 2020-02-12 21:54:59*
%MOMM*%
%LPD*%
G04 APERTURE LIST*
%ADD10R,5.080000X1.500000*%
%ADD11R,2.400000X0.800000*%
%ADD12R,0.800000X2.400000*%
%ADD13R,1.060000X0.650000*%
%ADD14R,1.300000X1.550000*%
%ADD15C,0.100000*%
G04 APERTURE END LIST*
D10*
X195580000Y-89594000D03*
X195580000Y-81094000D03*
X195580000Y-85344000D03*
D11*
X171515000Y-80820000D03*
X171515000Y-82020000D03*
X171515000Y-83220000D03*
X171515000Y-84420000D03*
X171515000Y-85620000D03*
X171515000Y-86820000D03*
X171515000Y-88020000D03*
X171515000Y-89220000D03*
X171515000Y-90420000D03*
X171515000Y-91620000D03*
X171515000Y-92820000D03*
X171515000Y-94020000D03*
D12*
X173585000Y-94160000D03*
X174785000Y-94160000D03*
X175985000Y-94160000D03*
X177185000Y-94160000D03*
X178385000Y-94160000D03*
X179585000Y-94160000D03*
X180785000Y-94160000D03*
D11*
X182815000Y-94020000D03*
X182815000Y-92820000D03*
X182815000Y-91620000D03*
X182815000Y-90420000D03*
X182815000Y-89220000D03*
X182815000Y-88020000D03*
X182815000Y-86820000D03*
X182815000Y-85620000D03*
X182815000Y-84420000D03*
X182815000Y-83220000D03*
X182815000Y-82020000D03*
X182815000Y-80820000D03*
D13*
X169207000Y-98298000D03*
X169207000Y-99248000D03*
X169207000Y-100198000D03*
X171407000Y-100198000D03*
X171407000Y-98298000D03*
D14*
X192786000Y-94783000D03*
X197286000Y-94783000D03*
X197286000Y-102743000D03*
X192786000Y-102743000D03*
D15*
G36*
X167663691Y-97861553D02*
G01*
X167684926Y-97864703D01*
X167705750Y-97869919D01*
X167725962Y-97877151D01*
X167745368Y-97886330D01*
X167763781Y-97897366D01*
X167781024Y-97910154D01*
X167796930Y-97924570D01*
X167811346Y-97940476D01*
X167824134Y-97957719D01*
X167835170Y-97976132D01*
X167844349Y-97995538D01*
X167851581Y-98015750D01*
X167856797Y-98036574D01*
X167859947Y-98057809D01*
X167861000Y-98079250D01*
X167861000Y-98516750D01*
X167859947Y-98538191D01*
X167856797Y-98559426D01*
X167851581Y-98580250D01*
X167844349Y-98600462D01*
X167835170Y-98619868D01*
X167824134Y-98638281D01*
X167811346Y-98655524D01*
X167796930Y-98671430D01*
X167781024Y-98685846D01*
X167763781Y-98698634D01*
X167745368Y-98709670D01*
X167725962Y-98718849D01*
X167705750Y-98726081D01*
X167684926Y-98731297D01*
X167663691Y-98734447D01*
X167642250Y-98735500D01*
X167129750Y-98735500D01*
X167108309Y-98734447D01*
X167087074Y-98731297D01*
X167066250Y-98726081D01*
X167046038Y-98718849D01*
X167026632Y-98709670D01*
X167008219Y-98698634D01*
X166990976Y-98685846D01*
X166975070Y-98671430D01*
X166960654Y-98655524D01*
X166947866Y-98638281D01*
X166936830Y-98619868D01*
X166927651Y-98600462D01*
X166920419Y-98580250D01*
X166915203Y-98559426D01*
X166912053Y-98538191D01*
X166911000Y-98516750D01*
X166911000Y-98079250D01*
X166912053Y-98057809D01*
X166915203Y-98036574D01*
X166920419Y-98015750D01*
X166927651Y-97995538D01*
X166936830Y-97976132D01*
X166947866Y-97957719D01*
X166960654Y-97940476D01*
X166975070Y-97924570D01*
X166990976Y-97910154D01*
X167008219Y-97897366D01*
X167026632Y-97886330D01*
X167046038Y-97877151D01*
X167066250Y-97869919D01*
X167087074Y-97864703D01*
X167108309Y-97861553D01*
X167129750Y-97860500D01*
X167642250Y-97860500D01*
X167663691Y-97861553D01*
G37*
G36*
X167663691Y-99436553D02*
G01*
X167684926Y-99439703D01*
X167705750Y-99444919D01*
X167725962Y-99452151D01*
X167745368Y-99461330D01*
X167763781Y-99472366D01*
X167781024Y-99485154D01*
X167796930Y-99499570D01*
X167811346Y-99515476D01*
X167824134Y-99532719D01*
X167835170Y-99551132D01*
X167844349Y-99570538D01*
X167851581Y-99590750D01*
X167856797Y-99611574D01*
X167859947Y-99632809D01*
X167861000Y-99654250D01*
X167861000Y-100091750D01*
X167859947Y-100113191D01*
X167856797Y-100134426D01*
X167851581Y-100155250D01*
X167844349Y-100175462D01*
X167835170Y-100194868D01*
X167824134Y-100213281D01*
X167811346Y-100230524D01*
X167796930Y-100246430D01*
X167781024Y-100260846D01*
X167763781Y-100273634D01*
X167745368Y-100284670D01*
X167725962Y-100293849D01*
X167705750Y-100301081D01*
X167684926Y-100306297D01*
X167663691Y-100309447D01*
X167642250Y-100310500D01*
X167129750Y-100310500D01*
X167108309Y-100309447D01*
X167087074Y-100306297D01*
X167066250Y-100301081D01*
X167046038Y-100293849D01*
X167026632Y-100284670D01*
X167008219Y-100273634D01*
X166990976Y-100260846D01*
X166975070Y-100246430D01*
X166960654Y-100230524D01*
X166947866Y-100213281D01*
X166936830Y-100194868D01*
X166927651Y-100175462D01*
X166920419Y-100155250D01*
X166915203Y-100134426D01*
X166912053Y-100113191D01*
X166911000Y-100091750D01*
X166911000Y-99654250D01*
X166912053Y-99632809D01*
X166915203Y-99611574D01*
X166920419Y-99590750D01*
X166927651Y-99570538D01*
X166936830Y-99551132D01*
X166947866Y-99532719D01*
X166960654Y-99515476D01*
X166975070Y-99499570D01*
X166990976Y-99485154D01*
X167008219Y-99472366D01*
X167026632Y-99461330D01*
X167046038Y-99452151D01*
X167066250Y-99444919D01*
X167087074Y-99439703D01*
X167108309Y-99436553D01*
X167129750Y-99435500D01*
X167642250Y-99435500D01*
X167663691Y-99436553D01*
G37*
G36*
X173505691Y-99436553D02*
G01*
X173526926Y-99439703D01*
X173547750Y-99444919D01*
X173567962Y-99452151D01*
X173587368Y-99461330D01*
X173605781Y-99472366D01*
X173623024Y-99485154D01*
X173638930Y-99499570D01*
X173653346Y-99515476D01*
X173666134Y-99532719D01*
X173677170Y-99551132D01*
X173686349Y-99570538D01*
X173693581Y-99590750D01*
X173698797Y-99611574D01*
X173701947Y-99632809D01*
X173703000Y-99654250D01*
X173703000Y-100091750D01*
X173701947Y-100113191D01*
X173698797Y-100134426D01*
X173693581Y-100155250D01*
X173686349Y-100175462D01*
X173677170Y-100194868D01*
X173666134Y-100213281D01*
X173653346Y-100230524D01*
X173638930Y-100246430D01*
X173623024Y-100260846D01*
X173605781Y-100273634D01*
X173587368Y-100284670D01*
X173567962Y-100293849D01*
X173547750Y-100301081D01*
X173526926Y-100306297D01*
X173505691Y-100309447D01*
X173484250Y-100310500D01*
X172971750Y-100310500D01*
X172950309Y-100309447D01*
X172929074Y-100306297D01*
X172908250Y-100301081D01*
X172888038Y-100293849D01*
X172868632Y-100284670D01*
X172850219Y-100273634D01*
X172832976Y-100260846D01*
X172817070Y-100246430D01*
X172802654Y-100230524D01*
X172789866Y-100213281D01*
X172778830Y-100194868D01*
X172769651Y-100175462D01*
X172762419Y-100155250D01*
X172757203Y-100134426D01*
X172754053Y-100113191D01*
X172753000Y-100091750D01*
X172753000Y-99654250D01*
X172754053Y-99632809D01*
X172757203Y-99611574D01*
X172762419Y-99590750D01*
X172769651Y-99570538D01*
X172778830Y-99551132D01*
X172789866Y-99532719D01*
X172802654Y-99515476D01*
X172817070Y-99499570D01*
X172832976Y-99485154D01*
X172850219Y-99472366D01*
X172868632Y-99461330D01*
X172888038Y-99452151D01*
X172908250Y-99444919D01*
X172929074Y-99439703D01*
X172950309Y-99436553D01*
X172971750Y-99435500D01*
X173484250Y-99435500D01*
X173505691Y-99436553D01*
G37*
G36*
X173505691Y-97861553D02*
G01*
X173526926Y-97864703D01*
X173547750Y-97869919D01*
X173567962Y-97877151D01*
X173587368Y-97886330D01*
X173605781Y-97897366D01*
X173623024Y-97910154D01*
X173638930Y-97924570D01*
X173653346Y-97940476D01*
X173666134Y-97957719D01*
X173677170Y-97976132D01*
X173686349Y-97995538D01*
X173693581Y-98015750D01*
X173698797Y-98036574D01*
X173701947Y-98057809D01*
X173703000Y-98079250D01*
X173703000Y-98516750D01*
X173701947Y-98538191D01*
X173698797Y-98559426D01*
X173693581Y-98580250D01*
X173686349Y-98600462D01*
X173677170Y-98619868D01*
X173666134Y-98638281D01*
X173653346Y-98655524D01*
X173638930Y-98671430D01*
X173623024Y-98685846D01*
X173605781Y-98698634D01*
X173587368Y-98709670D01*
X173567962Y-98718849D01*
X173547750Y-98726081D01*
X173526926Y-98731297D01*
X173505691Y-98734447D01*
X173484250Y-98735500D01*
X172971750Y-98735500D01*
X172950309Y-98734447D01*
X172929074Y-98731297D01*
X172908250Y-98726081D01*
X172888038Y-98718849D01*
X172868632Y-98709670D01*
X172850219Y-98698634D01*
X172832976Y-98685846D01*
X172817070Y-98671430D01*
X172802654Y-98655524D01*
X172789866Y-98638281D01*
X172778830Y-98619868D01*
X172769651Y-98600462D01*
X172762419Y-98580250D01*
X172757203Y-98559426D01*
X172754053Y-98538191D01*
X172753000Y-98516750D01*
X172753000Y-98079250D01*
X172754053Y-98057809D01*
X172757203Y-98036574D01*
X172762419Y-98015750D01*
X172769651Y-97995538D01*
X172778830Y-97976132D01*
X172789866Y-97957719D01*
X172802654Y-97940476D01*
X172817070Y-97924570D01*
X172832976Y-97910154D01*
X172850219Y-97897366D01*
X172868632Y-97886330D01*
X172888038Y-97877151D01*
X172908250Y-97869919D01*
X172929074Y-97864703D01*
X172950309Y-97861553D01*
X172971750Y-97860500D01*
X173484250Y-97860500D01*
X173505691Y-97861553D01*
G37*
G36*
X169187691Y-93848553D02*
G01*
X169208926Y-93851703D01*
X169229750Y-93856919D01*
X169249962Y-93864151D01*
X169269368Y-93873330D01*
X169287781Y-93884366D01*
X169305024Y-93897154D01*
X169320930Y-93911570D01*
X169335346Y-93927476D01*
X169348134Y-93944719D01*
X169359170Y-93963132D01*
X169368349Y-93982538D01*
X169375581Y-94002750D01*
X169380797Y-94023574D01*
X169383947Y-94044809D01*
X169385000Y-94066250D01*
X169385000Y-94503750D01*
X169383947Y-94525191D01*
X169380797Y-94546426D01*
X169375581Y-94567250D01*
X169368349Y-94587462D01*
X169359170Y-94606868D01*
X169348134Y-94625281D01*
X169335346Y-94642524D01*
X169320930Y-94658430D01*
X169305024Y-94672846D01*
X169287781Y-94685634D01*
X169269368Y-94696670D01*
X169249962Y-94705849D01*
X169229750Y-94713081D01*
X169208926Y-94718297D01*
X169187691Y-94721447D01*
X169166250Y-94722500D01*
X168653750Y-94722500D01*
X168632309Y-94721447D01*
X168611074Y-94718297D01*
X168590250Y-94713081D01*
X168570038Y-94705849D01*
X168550632Y-94696670D01*
X168532219Y-94685634D01*
X168514976Y-94672846D01*
X168499070Y-94658430D01*
X168484654Y-94642524D01*
X168471866Y-94625281D01*
X168460830Y-94606868D01*
X168451651Y-94587462D01*
X168444419Y-94567250D01*
X168439203Y-94546426D01*
X168436053Y-94525191D01*
X168435000Y-94503750D01*
X168435000Y-94066250D01*
X168436053Y-94044809D01*
X168439203Y-94023574D01*
X168444419Y-94002750D01*
X168451651Y-93982538D01*
X168460830Y-93963132D01*
X168471866Y-93944719D01*
X168484654Y-93927476D01*
X168499070Y-93911570D01*
X168514976Y-93897154D01*
X168532219Y-93884366D01*
X168550632Y-93873330D01*
X168570038Y-93864151D01*
X168590250Y-93856919D01*
X168611074Y-93851703D01*
X168632309Y-93848553D01*
X168653750Y-93847500D01*
X169166250Y-93847500D01*
X169187691Y-93848553D01*
G37*
G36*
X169187691Y-92273553D02*
G01*
X169208926Y-92276703D01*
X169229750Y-92281919D01*
X169249962Y-92289151D01*
X169269368Y-92298330D01*
X169287781Y-92309366D01*
X169305024Y-92322154D01*
X169320930Y-92336570D01*
X169335346Y-92352476D01*
X169348134Y-92369719D01*
X169359170Y-92388132D01*
X169368349Y-92407538D01*
X169375581Y-92427750D01*
X169380797Y-92448574D01*
X169383947Y-92469809D01*
X169385000Y-92491250D01*
X169385000Y-92928750D01*
X169383947Y-92950191D01*
X169380797Y-92971426D01*
X169375581Y-92992250D01*
X169368349Y-93012462D01*
X169359170Y-93031868D01*
X169348134Y-93050281D01*
X169335346Y-93067524D01*
X169320930Y-93083430D01*
X169305024Y-93097846D01*
X169287781Y-93110634D01*
X169269368Y-93121670D01*
X169249962Y-93130849D01*
X169229750Y-93138081D01*
X169208926Y-93143297D01*
X169187691Y-93146447D01*
X169166250Y-93147500D01*
X168653750Y-93147500D01*
X168632309Y-93146447D01*
X168611074Y-93143297D01*
X168590250Y-93138081D01*
X168570038Y-93130849D01*
X168550632Y-93121670D01*
X168532219Y-93110634D01*
X168514976Y-93097846D01*
X168499070Y-93083430D01*
X168484654Y-93067524D01*
X168471866Y-93050281D01*
X168460830Y-93031868D01*
X168451651Y-93012462D01*
X168444419Y-92992250D01*
X168439203Y-92971426D01*
X168436053Y-92950191D01*
X168435000Y-92928750D01*
X168435000Y-92491250D01*
X168436053Y-92469809D01*
X168439203Y-92448574D01*
X168444419Y-92427750D01*
X168451651Y-92407538D01*
X168460830Y-92388132D01*
X168471866Y-92369719D01*
X168484654Y-92352476D01*
X168499070Y-92336570D01*
X168514976Y-92322154D01*
X168532219Y-92309366D01*
X168550632Y-92298330D01*
X168570038Y-92289151D01*
X168590250Y-92281919D01*
X168611074Y-92276703D01*
X168632309Y-92273553D01*
X168653750Y-92272500D01*
X169166250Y-92272500D01*
X169187691Y-92273553D01*
G37*
G36*
X173262691Y-96046053D02*
G01*
X173283926Y-96049203D01*
X173304750Y-96054419D01*
X173324962Y-96061651D01*
X173344368Y-96070830D01*
X173362781Y-96081866D01*
X173380024Y-96094654D01*
X173395930Y-96109070D01*
X173410346Y-96124976D01*
X173423134Y-96142219D01*
X173434170Y-96160632D01*
X173443349Y-96180038D01*
X173450581Y-96200250D01*
X173455797Y-96221074D01*
X173458947Y-96242309D01*
X173460000Y-96263750D01*
X173460000Y-96776250D01*
X173458947Y-96797691D01*
X173455797Y-96818926D01*
X173450581Y-96839750D01*
X173443349Y-96859962D01*
X173434170Y-96879368D01*
X173423134Y-96897781D01*
X173410346Y-96915024D01*
X173395930Y-96930930D01*
X173380024Y-96945346D01*
X173362781Y-96958134D01*
X173344368Y-96969170D01*
X173324962Y-96978349D01*
X173304750Y-96985581D01*
X173283926Y-96990797D01*
X173262691Y-96993947D01*
X173241250Y-96995000D01*
X172803750Y-96995000D01*
X172782309Y-96993947D01*
X172761074Y-96990797D01*
X172740250Y-96985581D01*
X172720038Y-96978349D01*
X172700632Y-96969170D01*
X172682219Y-96958134D01*
X172664976Y-96945346D01*
X172649070Y-96930930D01*
X172634654Y-96915024D01*
X172621866Y-96897781D01*
X172610830Y-96879368D01*
X172601651Y-96859962D01*
X172594419Y-96839750D01*
X172589203Y-96818926D01*
X172586053Y-96797691D01*
X172585000Y-96776250D01*
X172585000Y-96263750D01*
X172586053Y-96242309D01*
X172589203Y-96221074D01*
X172594419Y-96200250D01*
X172601651Y-96180038D01*
X172610830Y-96160632D01*
X172621866Y-96142219D01*
X172634654Y-96124976D01*
X172649070Y-96109070D01*
X172664976Y-96094654D01*
X172682219Y-96081866D01*
X172700632Y-96070830D01*
X172720038Y-96061651D01*
X172740250Y-96054419D01*
X172761074Y-96049203D01*
X172782309Y-96046053D01*
X172803750Y-96045000D01*
X173241250Y-96045000D01*
X173262691Y-96046053D01*
G37*
G36*
X171687691Y-96046053D02*
G01*
X171708926Y-96049203D01*
X171729750Y-96054419D01*
X171749962Y-96061651D01*
X171769368Y-96070830D01*
X171787781Y-96081866D01*
X171805024Y-96094654D01*
X171820930Y-96109070D01*
X171835346Y-96124976D01*
X171848134Y-96142219D01*
X171859170Y-96160632D01*
X171868349Y-96180038D01*
X171875581Y-96200250D01*
X171880797Y-96221074D01*
X171883947Y-96242309D01*
X171885000Y-96263750D01*
X171885000Y-96776250D01*
X171883947Y-96797691D01*
X171880797Y-96818926D01*
X171875581Y-96839750D01*
X171868349Y-96859962D01*
X171859170Y-96879368D01*
X171848134Y-96897781D01*
X171835346Y-96915024D01*
X171820930Y-96930930D01*
X171805024Y-96945346D01*
X171787781Y-96958134D01*
X171769368Y-96969170D01*
X171749962Y-96978349D01*
X171729750Y-96985581D01*
X171708926Y-96990797D01*
X171687691Y-96993947D01*
X171666250Y-96995000D01*
X171228750Y-96995000D01*
X171207309Y-96993947D01*
X171186074Y-96990797D01*
X171165250Y-96985581D01*
X171145038Y-96978349D01*
X171125632Y-96969170D01*
X171107219Y-96958134D01*
X171089976Y-96945346D01*
X171074070Y-96930930D01*
X171059654Y-96915024D01*
X171046866Y-96897781D01*
X171035830Y-96879368D01*
X171026651Y-96859962D01*
X171019419Y-96839750D01*
X171014203Y-96818926D01*
X171011053Y-96797691D01*
X171010000Y-96776250D01*
X171010000Y-96263750D01*
X171011053Y-96242309D01*
X171014203Y-96221074D01*
X171019419Y-96200250D01*
X171026651Y-96180038D01*
X171035830Y-96160632D01*
X171046866Y-96142219D01*
X171059654Y-96124976D01*
X171074070Y-96109070D01*
X171089976Y-96094654D01*
X171107219Y-96081866D01*
X171125632Y-96070830D01*
X171145038Y-96061651D01*
X171165250Y-96054419D01*
X171186074Y-96049203D01*
X171207309Y-96046053D01*
X171228750Y-96045000D01*
X171666250Y-96045000D01*
X171687691Y-96046053D01*
G37*
G36*
X194968691Y-107183553D02*
G01*
X194989926Y-107186703D01*
X195010750Y-107191919D01*
X195030962Y-107199151D01*
X195050368Y-107208330D01*
X195068781Y-107219366D01*
X195086024Y-107232154D01*
X195101930Y-107246570D01*
X195116346Y-107262476D01*
X195129134Y-107279719D01*
X195140170Y-107298132D01*
X195149349Y-107317538D01*
X195156581Y-107337750D01*
X195161797Y-107358574D01*
X195164947Y-107379809D01*
X195166000Y-107401250D01*
X195166000Y-107838750D01*
X195164947Y-107860191D01*
X195161797Y-107881426D01*
X195156581Y-107902250D01*
X195149349Y-107922462D01*
X195140170Y-107941868D01*
X195129134Y-107960281D01*
X195116346Y-107977524D01*
X195101930Y-107993430D01*
X195086024Y-108007846D01*
X195068781Y-108020634D01*
X195050368Y-108031670D01*
X195030962Y-108040849D01*
X195010750Y-108048081D01*
X194989926Y-108053297D01*
X194968691Y-108056447D01*
X194947250Y-108057500D01*
X194434750Y-108057500D01*
X194413309Y-108056447D01*
X194392074Y-108053297D01*
X194371250Y-108048081D01*
X194351038Y-108040849D01*
X194331632Y-108031670D01*
X194313219Y-108020634D01*
X194295976Y-108007846D01*
X194280070Y-107993430D01*
X194265654Y-107977524D01*
X194252866Y-107960281D01*
X194241830Y-107941868D01*
X194232651Y-107922462D01*
X194225419Y-107902250D01*
X194220203Y-107881426D01*
X194217053Y-107860191D01*
X194216000Y-107838750D01*
X194216000Y-107401250D01*
X194217053Y-107379809D01*
X194220203Y-107358574D01*
X194225419Y-107337750D01*
X194232651Y-107317538D01*
X194241830Y-107298132D01*
X194252866Y-107279719D01*
X194265654Y-107262476D01*
X194280070Y-107246570D01*
X194295976Y-107232154D01*
X194313219Y-107219366D01*
X194331632Y-107208330D01*
X194351038Y-107199151D01*
X194371250Y-107191919D01*
X194392074Y-107186703D01*
X194413309Y-107183553D01*
X194434750Y-107182500D01*
X194947250Y-107182500D01*
X194968691Y-107183553D01*
G37*
G36*
X194968691Y-105608553D02*
G01*
X194989926Y-105611703D01*
X195010750Y-105616919D01*
X195030962Y-105624151D01*
X195050368Y-105633330D01*
X195068781Y-105644366D01*
X195086024Y-105657154D01*
X195101930Y-105671570D01*
X195116346Y-105687476D01*
X195129134Y-105704719D01*
X195140170Y-105723132D01*
X195149349Y-105742538D01*
X195156581Y-105762750D01*
X195161797Y-105783574D01*
X195164947Y-105804809D01*
X195166000Y-105826250D01*
X195166000Y-106263750D01*
X195164947Y-106285191D01*
X195161797Y-106306426D01*
X195156581Y-106327250D01*
X195149349Y-106347462D01*
X195140170Y-106366868D01*
X195129134Y-106385281D01*
X195116346Y-106402524D01*
X195101930Y-106418430D01*
X195086024Y-106432846D01*
X195068781Y-106445634D01*
X195050368Y-106456670D01*
X195030962Y-106465849D01*
X195010750Y-106473081D01*
X194989926Y-106478297D01*
X194968691Y-106481447D01*
X194947250Y-106482500D01*
X194434750Y-106482500D01*
X194413309Y-106481447D01*
X194392074Y-106478297D01*
X194371250Y-106473081D01*
X194351038Y-106465849D01*
X194331632Y-106456670D01*
X194313219Y-106445634D01*
X194295976Y-106432846D01*
X194280070Y-106418430D01*
X194265654Y-106402524D01*
X194252866Y-106385281D01*
X194241830Y-106366868D01*
X194232651Y-106347462D01*
X194225419Y-106327250D01*
X194220203Y-106306426D01*
X194217053Y-106285191D01*
X194216000Y-106263750D01*
X194216000Y-105826250D01*
X194217053Y-105804809D01*
X194220203Y-105783574D01*
X194225419Y-105762750D01*
X194232651Y-105742538D01*
X194241830Y-105723132D01*
X194252866Y-105704719D01*
X194265654Y-105687476D01*
X194280070Y-105671570D01*
X194295976Y-105657154D01*
X194313219Y-105644366D01*
X194331632Y-105633330D01*
X194351038Y-105624151D01*
X194371250Y-105616919D01*
X194392074Y-105611703D01*
X194413309Y-105608553D01*
X194434750Y-105607500D01*
X194947250Y-105607500D01*
X194968691Y-105608553D01*
G37*
M02*
